%TF.GenerationSoftware,KiCad,Pcbnew,(5.1.10-1-10_14)*%
%TF.CreationDate,2021-07-13T06:28:44-07:00*%
%TF.ProjectId,Synapse,53796e61-7073-4652-9e6b-696361645f70,rev?*%
%TF.SameCoordinates,Original*%
%TF.FileFunction,Soldermask,Top*%
%TF.FilePolarity,Negative*%
%FSLAX46Y46*%
G04 Gerber Fmt 4.6, Leading zero omitted, Abs format (unit mm)*
G04 Created by KiCad (PCBNEW (5.1.10-1-10_14)) date 2021-07-13 06:28:44*
%MOMM*%
%LPD*%
G01*
G04 APERTURE LIST*
%TA.AperFunction,Profile*%
%ADD10C,0.050000*%
%TD*%
%ADD11R,1.450000X0.600000*%
%ADD12R,1.450000X0.300000*%
%ADD13O,2.100000X1.000000*%
%ADD14C,0.650000*%
%ADD15O,1.600000X1.000000*%
%ADD16C,1.700000*%
%ADD17R,1.700000X1.700000*%
G04 APERTURE END LIST*
D10*
X163474400Y-75285600D02*
X173050200Y-65684400D01*
X138277600Y-75285600D02*
X128651000Y-65684400D01*
X171018200Y-49149000D02*
G75*
G02*
X173050200Y-51181000I0J-2032000D01*
G01*
X128651000Y-51181000D02*
G75*
G02*
X130683000Y-49149000I2032000J0D01*
G01*
X163195000Y-47117000D02*
X163195000Y-21082000D01*
X138430000Y-47117000D02*
X138430000Y-21082000D01*
X165227000Y-49149000D02*
X171018200Y-49149000D01*
X136398000Y-49149000D02*
X130683000Y-49149000D01*
X165227000Y-49149000D02*
G75*
G02*
X163195000Y-47117000I0J2032000D01*
G01*
X138430000Y-47117000D02*
G75*
G02*
X136398000Y-49149000I-2032000J0D01*
G01*
X139446000Y-20066000D02*
X162179000Y-20066000D01*
X128651000Y-65684400D02*
X128651000Y-51181000D01*
X163474400Y-75285600D02*
X138277600Y-75285600D01*
X173050200Y-51181000D02*
X173050200Y-65684400D01*
X162179000Y-20066000D02*
G75*
G02*
X163195000Y-21082000I0J-1016000D01*
G01*
X138430000Y-21082000D02*
G75*
G02*
X139446000Y-20066000I1016000J0D01*
G01*
%TO.C,R2*%
G36*
G01*
X166812800Y-64506001D02*
X166812800Y-63255999D01*
G75*
G02*
X167062799Y-63006000I249999J0D01*
G01*
X167687801Y-63006000D01*
G75*
G02*
X167937800Y-63255999I0J-249999D01*
G01*
X167937800Y-64506001D01*
G75*
G02*
X167687801Y-64756000I-249999J0D01*
G01*
X167062799Y-64756000D01*
G75*
G02*
X166812800Y-64506001I0J249999D01*
G01*
G37*
G36*
G01*
X163887800Y-64506001D02*
X163887800Y-63255999D01*
G75*
G02*
X164137799Y-63006000I249999J0D01*
G01*
X164762801Y-63006000D01*
G75*
G02*
X165012800Y-63255999I0J-249999D01*
G01*
X165012800Y-64506001D01*
G75*
G02*
X164762801Y-64756000I-249999J0D01*
G01*
X164137799Y-64756000D01*
G75*
G02*
X163887800Y-64506001I0J249999D01*
G01*
G37*
%TD*%
%TO.C,R1*%
G36*
G01*
X134964600Y-63255999D02*
X134964600Y-64506001D01*
G75*
G02*
X134714601Y-64756000I-249999J0D01*
G01*
X134089599Y-64756000D01*
G75*
G02*
X133839600Y-64506001I0J249999D01*
G01*
X133839600Y-63255999D01*
G75*
G02*
X134089599Y-63006000I249999J0D01*
G01*
X134714601Y-63006000D01*
G75*
G02*
X134964600Y-63255999I0J-249999D01*
G01*
G37*
G36*
G01*
X137889600Y-63255999D02*
X137889600Y-64506001D01*
G75*
G02*
X137639601Y-64756000I-249999J0D01*
G01*
X137014599Y-64756000D01*
G75*
G02*
X136764600Y-64506001I0J249999D01*
G01*
X136764600Y-63255999D01*
G75*
G02*
X137014599Y-63006000I249999J0D01*
G01*
X137639601Y-63006000D01*
G75*
G02*
X137889600Y-63255999I0J-249999D01*
G01*
G37*
%TD*%
D11*
%TO.C,USB1*%
X136887000Y-59638000D03*
X136887000Y-58838000D03*
X136887000Y-53938000D03*
X136887000Y-53138000D03*
X136887000Y-53138000D03*
X136887000Y-53938000D03*
X136887000Y-58838000D03*
X136887000Y-59638000D03*
D12*
X136887000Y-54638000D03*
X136887000Y-55138000D03*
X136887000Y-55638000D03*
X136887000Y-56638000D03*
X136887000Y-57138000D03*
X136887000Y-57638000D03*
X136887000Y-58138000D03*
X136887000Y-56138000D03*
D13*
X135972000Y-60708000D03*
X135972000Y-52068000D03*
D14*
X135442000Y-53498000D03*
D15*
X131792000Y-52068000D03*
D14*
X135442000Y-59278000D03*
D15*
X131792000Y-60708000D03*
%TD*%
D16*
%TO.C,U1*%
X158440000Y-23400000D03*
D17*
X143200000Y-23400000D03*
D16*
X158440000Y-25940000D03*
X143200000Y-25940000D03*
X158440000Y-28480000D03*
X143200000Y-28480000D03*
X158440000Y-31020000D03*
X143200000Y-31020000D03*
X158440000Y-33560000D03*
X143200000Y-33560000D03*
X158440000Y-36100000D03*
X143200000Y-36100000D03*
X158440000Y-38640000D03*
X143200000Y-38640000D03*
X158440000Y-41180000D03*
X143200000Y-41180000D03*
X158440000Y-43720000D03*
X143200000Y-43720000D03*
X158440000Y-46260000D03*
X143200000Y-46260000D03*
X158440000Y-48800000D03*
X143200000Y-48800000D03*
X158440000Y-51340000D03*
X143200000Y-51340000D03*
X158440000Y-53880000D03*
X143200000Y-53880000D03*
X158440000Y-56420000D03*
X143200000Y-56420000D03*
X158440000Y-58960000D03*
X143200000Y-58960000D03*
X158440000Y-61500000D03*
X143200000Y-61500000D03*
X158440000Y-64040000D03*
X143200000Y-64040000D03*
X158440000Y-66580000D03*
X143200000Y-66580000D03*
X158440000Y-69120000D03*
X143200000Y-69120000D03*
X158440000Y-71660000D03*
X143200000Y-71660000D03*
%TD*%
D11*
%TO.C,USB2*%
X164865000Y-53138000D03*
X164865000Y-53938000D03*
X164865000Y-58838000D03*
X164865000Y-59638000D03*
X164865000Y-59638000D03*
X164865000Y-58838000D03*
X164865000Y-53938000D03*
X164865000Y-53138000D03*
D12*
X164865000Y-58138000D03*
X164865000Y-57638000D03*
X164865000Y-57138000D03*
X164865000Y-56138000D03*
X164865000Y-55638000D03*
X164865000Y-55138000D03*
X164865000Y-54638000D03*
X164865000Y-56638000D03*
D13*
X165780000Y-52068000D03*
X165780000Y-60708000D03*
D14*
X166310000Y-59278000D03*
D15*
X169960000Y-60708000D03*
D14*
X166310000Y-53498000D03*
D15*
X169960000Y-52068000D03*
%TD*%
M02*
