%TF.GenerationSoftware,KiCad,Pcbnew,(5.1.10-1-10_14)*%
%TF.CreationDate,2021-07-13T06:28:44-07:00*%
%TF.ProjectId,Synapse,53796e61-7073-4652-9e6b-696361645f70,rev?*%
%TF.SameCoordinates,Original*%
%TF.FileFunction,Copper,L2,Bot*%
%TF.FilePolarity,Positive*%
%FSLAX46Y46*%
G04 Gerber Fmt 4.6, Leading zero omitted, Abs format (unit mm)*
G04 Created by KiCad (PCBNEW (5.1.10-1-10_14)) date 2021-07-13 06:28:44*
%MOMM*%
%LPD*%
G01*
G04 APERTURE LIST*
%TA.AperFunction,Profile*%
%ADD10C,0.050000*%
%TD*%
%TA.AperFunction,ComponentPad*%
%ADD11O,2.100000X1.000000*%
%TD*%
%TA.AperFunction,ComponentPad*%
%ADD12O,1.600000X1.000000*%
%TD*%
%TA.AperFunction,ComponentPad*%
%ADD13C,1.700000*%
%TD*%
%TA.AperFunction,ComponentPad*%
%ADD14R,1.700000X1.700000*%
%TD*%
%TA.AperFunction,Conductor*%
%ADD15C,0.254000*%
%TD*%
%TA.AperFunction,Conductor*%
%ADD16C,0.100000*%
%TD*%
G04 APERTURE END LIST*
D10*
X163474400Y-75285600D02*
X173050200Y-65684400D01*
X138277600Y-75285600D02*
X128651000Y-65684400D01*
X171018200Y-49149000D02*
G75*
G02*
X173050200Y-51181000I0J-2032000D01*
G01*
X128651000Y-51181000D02*
G75*
G02*
X130683000Y-49149000I2032000J0D01*
G01*
X163195000Y-47117000D02*
X163195000Y-21082000D01*
X138430000Y-47117000D02*
X138430000Y-21082000D01*
X165227000Y-49149000D02*
X171018200Y-49149000D01*
X136398000Y-49149000D02*
X130683000Y-49149000D01*
X165227000Y-49149000D02*
G75*
G02*
X163195000Y-47117000I0J2032000D01*
G01*
X138430000Y-47117000D02*
G75*
G02*
X136398000Y-49149000I-2032000J0D01*
G01*
X139446000Y-20066000D02*
X162179000Y-20066000D01*
X128651000Y-65684400D02*
X128651000Y-51181000D01*
X163474400Y-75285600D02*
X138277600Y-75285600D01*
X173050200Y-51181000D02*
X173050200Y-65684400D01*
X162179000Y-20066000D02*
G75*
G02*
X163195000Y-21082000I0J-1016000D01*
G01*
X138430000Y-21082000D02*
G75*
G02*
X139446000Y-20066000I1016000J0D01*
G01*
D11*
%TO.P,USB1,S1*%
%TO.N,/GND*%
X135972000Y-60708000D03*
X135972000Y-52068000D03*
D12*
X131792000Y-52068000D03*
X131792000Y-60708000D03*
%TD*%
D13*
%TO.P,U1,40*%
%TO.N,N/C*%
X158440000Y-23400000D03*
D14*
%TO.P,U1,1*%
X143200000Y-23400000D03*
D13*
%TO.P,U1,39*%
%TO.N,/GND*%
X158440000Y-25940000D03*
%TO.P,U1,2*%
%TO.N,N/C*%
X143200000Y-25940000D03*
%TO.P,U1,38*%
X158440000Y-28480000D03*
%TO.P,U1,3*%
X143200000Y-28480000D03*
%TO.P,U1,37*%
X158440000Y-31020000D03*
%TO.P,U1,4*%
X143200000Y-31020000D03*
%TO.P,U1,36*%
X158440000Y-33560000D03*
%TO.P,U1,5*%
X143200000Y-33560000D03*
%TO.P,U1,35*%
X158440000Y-36100000D03*
%TO.P,U1,6*%
X143200000Y-36100000D03*
%TO.P,U1,34*%
X158440000Y-38640000D03*
%TO.P,U1,7*%
X143200000Y-38640000D03*
%TO.P,U1,33*%
X158440000Y-41180000D03*
%TO.P,U1,8*%
X143200000Y-41180000D03*
%TO.P,U1,32*%
X158440000Y-43720000D03*
%TO.P,U1,9*%
X143200000Y-43720000D03*
%TO.P,U1,31*%
X158440000Y-46260000D03*
%TO.P,U1,10*%
X143200000Y-46260000D03*
%TO.P,U1,30*%
X158440000Y-48800000D03*
%TO.P,U1,11*%
X143200000Y-48800000D03*
%TO.P,U1,29*%
X158440000Y-51340000D03*
%TO.P,U1,12*%
X143200000Y-51340000D03*
%TO.P,U1,28*%
X158440000Y-53880000D03*
%TO.P,U1,13*%
X143200000Y-53880000D03*
%TO.P,U1,27*%
X158440000Y-56420000D03*
%TO.P,U1,14*%
%TO.N,Net-(J1-PadA6)*%
X143200000Y-56420000D03*
%TO.P,U1,26*%
%TO.N,N/C*%
X158440000Y-58960000D03*
%TO.P,U1,15*%
%TO.N,Net-(J1-PadA7)*%
X143200000Y-58960000D03*
%TO.P,U1,25*%
%TO.N,N/C*%
X158440000Y-61500000D03*
%TO.P,U1,16*%
X143200000Y-61500000D03*
%TO.P,U1,24*%
X158440000Y-64040000D03*
%TO.P,U1,17*%
X143200000Y-64040000D03*
%TO.P,U1,23*%
X158440000Y-66580000D03*
%TO.P,U1,18*%
%TO.N,Net-(J1-PadA4)*%
X143200000Y-66580000D03*
%TO.P,U1,22*%
%TO.N,N/C*%
X158440000Y-69120000D03*
%TO.P,U1,19*%
%TO.N,/GND*%
X143200000Y-69120000D03*
%TO.P,U1,21*%
%TO.N,N/C*%
X158440000Y-71660000D03*
%TO.P,U1,20*%
X143200000Y-71660000D03*
%TD*%
D11*
%TO.P,USB2,S1*%
%TO.N,/GND*%
X165780000Y-52068000D03*
X165780000Y-60708000D03*
D12*
X169960000Y-60708000D03*
X169960000Y-52068000D03*
%TD*%
D15*
%TO.N,/GND*%
X162247533Y-20735885D02*
X162313457Y-20755789D01*
X162374255Y-20788115D01*
X162427619Y-20831639D01*
X162471512Y-20884696D01*
X162504266Y-20945271D01*
X162524628Y-21011053D01*
X162535001Y-21109740D01*
X162535000Y-47149418D01*
X162537854Y-47178396D01*
X162537766Y-47191003D01*
X162538665Y-47200174D01*
X162580118Y-47594577D01*
X162592148Y-47653183D01*
X162603355Y-47711935D01*
X162606019Y-47720757D01*
X162723290Y-48099599D01*
X162746474Y-48154750D01*
X162768880Y-48210208D01*
X162773206Y-48218345D01*
X162961828Y-48567193D01*
X162995283Y-48616792D01*
X163028032Y-48666838D01*
X163033855Y-48673977D01*
X163033858Y-48673981D01*
X163033862Y-48673985D01*
X163286644Y-48979547D01*
X163329061Y-49021669D01*
X163370943Y-49064438D01*
X163378044Y-49070311D01*
X163685369Y-49320960D01*
X163735178Y-49354052D01*
X163784550Y-49387859D01*
X163792656Y-49392241D01*
X164142813Y-49578423D01*
X164198105Y-49601212D01*
X164253101Y-49624784D01*
X164261905Y-49627509D01*
X164641556Y-49742132D01*
X164700250Y-49753754D01*
X164758747Y-49766188D01*
X164767911Y-49767151D01*
X165162596Y-49805850D01*
X165162598Y-49805850D01*
X165194581Y-49809000D01*
X170985921Y-49809000D01*
X171284075Y-49838234D01*
X171539822Y-49915448D01*
X171775704Y-50040869D01*
X171982730Y-50209716D01*
X172153013Y-50415554D01*
X172280079Y-50650556D01*
X172359076Y-50905756D01*
X172390200Y-51201882D01*
X172390201Y-65411530D01*
X163208138Y-74617950D01*
X138494952Y-74570228D01*
X135430378Y-71513740D01*
X141715000Y-71513740D01*
X141715000Y-71806260D01*
X141772068Y-72093158D01*
X141884010Y-72363411D01*
X142046525Y-72606632D01*
X142253368Y-72813475D01*
X142496589Y-72975990D01*
X142766842Y-73087932D01*
X143053740Y-73145000D01*
X143346260Y-73145000D01*
X143633158Y-73087932D01*
X143903411Y-72975990D01*
X144146632Y-72813475D01*
X144353475Y-72606632D01*
X144515990Y-72363411D01*
X144627932Y-72093158D01*
X144685000Y-71806260D01*
X144685000Y-71513740D01*
X144627932Y-71226842D01*
X144515990Y-70956589D01*
X144353475Y-70713368D01*
X144146632Y-70506525D01*
X143973271Y-70390689D01*
X144048792Y-70148397D01*
X143200000Y-69299605D01*
X142351208Y-70148397D01*
X142426729Y-70390689D01*
X142253368Y-70506525D01*
X142046525Y-70713368D01*
X141884010Y-70956589D01*
X141772068Y-71226842D01*
X141715000Y-71513740D01*
X135430378Y-71513740D01*
X133099017Y-69188531D01*
X141709389Y-69188531D01*
X141751401Y-69478019D01*
X141849081Y-69753747D01*
X141922528Y-69891157D01*
X142171603Y-69968792D01*
X143020395Y-69120000D01*
X143379605Y-69120000D01*
X144228397Y-69968792D01*
X144477472Y-69891157D01*
X144603371Y-69627117D01*
X144675339Y-69343589D01*
X144690611Y-69051469D01*
X144648599Y-68761981D01*
X144550919Y-68486253D01*
X144477472Y-68348843D01*
X144228397Y-68271208D01*
X143379605Y-69120000D01*
X143020395Y-69120000D01*
X142171603Y-68271208D01*
X141922528Y-68348843D01*
X141796629Y-68612883D01*
X141724661Y-68896411D01*
X141709389Y-69188531D01*
X133099017Y-69188531D01*
X129311000Y-65410510D01*
X129311000Y-61009874D01*
X130397881Y-61009874D01*
X130477724Y-61232976D01*
X130599631Y-61420764D01*
X130755831Y-61581161D01*
X130940322Y-61708003D01*
X131146013Y-61796415D01*
X131365000Y-61843000D01*
X131665000Y-61843000D01*
X131665000Y-60835000D01*
X131919000Y-60835000D01*
X131919000Y-61843000D01*
X132219000Y-61843000D01*
X132437987Y-61796415D01*
X132643678Y-61708003D01*
X132828169Y-61581161D01*
X132984369Y-61420764D01*
X133106276Y-61232976D01*
X133186119Y-61009874D01*
X134327881Y-61009874D01*
X134407724Y-61232976D01*
X134529631Y-61420764D01*
X134685831Y-61581161D01*
X134870322Y-61708003D01*
X135076013Y-61796415D01*
X135295000Y-61843000D01*
X135845000Y-61843000D01*
X135845000Y-60835000D01*
X136099000Y-60835000D01*
X136099000Y-61843000D01*
X136649000Y-61843000D01*
X136867987Y-61796415D01*
X137073678Y-61708003D01*
X137258169Y-61581161D01*
X137414369Y-61420764D01*
X137536276Y-61232976D01*
X137616119Y-61009874D01*
X137489954Y-60835000D01*
X136099000Y-60835000D01*
X135845000Y-60835000D01*
X134454046Y-60835000D01*
X134327881Y-61009874D01*
X133186119Y-61009874D01*
X133059954Y-60835000D01*
X131919000Y-60835000D01*
X131665000Y-60835000D01*
X130524046Y-60835000D01*
X130397881Y-61009874D01*
X129311000Y-61009874D01*
X129311000Y-60406126D01*
X130397881Y-60406126D01*
X130524046Y-60581000D01*
X131665000Y-60581000D01*
X131665000Y-59573000D01*
X131919000Y-59573000D01*
X131919000Y-60581000D01*
X133059954Y-60581000D01*
X133186119Y-60406126D01*
X134327881Y-60406126D01*
X134454046Y-60581000D01*
X135845000Y-60581000D01*
X135845000Y-60561000D01*
X136099000Y-60561000D01*
X136099000Y-60581000D01*
X137489954Y-60581000D01*
X137616119Y-60406126D01*
X137536276Y-60183024D01*
X137414369Y-59995236D01*
X137258169Y-59834839D01*
X137073678Y-59707997D01*
X136867987Y-59619585D01*
X136649000Y-59573000D01*
X136358904Y-59573000D01*
X136365108Y-59558022D01*
X136402000Y-59372552D01*
X136402000Y-59183448D01*
X136365108Y-58997978D01*
X136292741Y-58823269D01*
X136187681Y-58666036D01*
X136053964Y-58532319D01*
X135896731Y-58427259D01*
X135722022Y-58354892D01*
X135536552Y-58318000D01*
X135347448Y-58318000D01*
X135161978Y-58354892D01*
X134987269Y-58427259D01*
X134830036Y-58532319D01*
X134696319Y-58666036D01*
X134591259Y-58823269D01*
X134518892Y-58997978D01*
X134482000Y-59183448D01*
X134482000Y-59372552D01*
X134518892Y-59558022D01*
X134591259Y-59732731D01*
X134670206Y-59850884D01*
X134529631Y-59995236D01*
X134407724Y-60183024D01*
X134327881Y-60406126D01*
X133186119Y-60406126D01*
X133106276Y-60183024D01*
X132984369Y-59995236D01*
X132828169Y-59834839D01*
X132643678Y-59707997D01*
X132437987Y-59619585D01*
X132219000Y-59573000D01*
X131919000Y-59573000D01*
X131665000Y-59573000D01*
X131365000Y-59573000D01*
X131146013Y-59619585D01*
X130940322Y-59707997D01*
X130755831Y-59834839D01*
X130599631Y-59995236D01*
X130477724Y-60183024D01*
X130397881Y-60406126D01*
X129311000Y-60406126D01*
X129311000Y-52369874D01*
X130397881Y-52369874D01*
X130477724Y-52592976D01*
X130599631Y-52780764D01*
X130755831Y-52941161D01*
X130940322Y-53068003D01*
X131146013Y-53156415D01*
X131365000Y-53203000D01*
X131665000Y-53203000D01*
X131665000Y-52195000D01*
X131919000Y-52195000D01*
X131919000Y-53203000D01*
X132219000Y-53203000D01*
X132437987Y-53156415D01*
X132643678Y-53068003D01*
X132828169Y-52941161D01*
X132984369Y-52780764D01*
X133106276Y-52592976D01*
X133186119Y-52369874D01*
X134327881Y-52369874D01*
X134407724Y-52592976D01*
X134529631Y-52780764D01*
X134670206Y-52925116D01*
X134591259Y-53043269D01*
X134518892Y-53217978D01*
X134482000Y-53403448D01*
X134482000Y-53592552D01*
X134518892Y-53778022D01*
X134591259Y-53952731D01*
X134696319Y-54109964D01*
X134830036Y-54243681D01*
X134987269Y-54348741D01*
X135161978Y-54421108D01*
X135347448Y-54458000D01*
X135536552Y-54458000D01*
X135722022Y-54421108D01*
X135896731Y-54348741D01*
X136053964Y-54243681D01*
X136187681Y-54109964D01*
X136292741Y-53952731D01*
X136365108Y-53778022D01*
X136402000Y-53592552D01*
X136402000Y-53403448D01*
X136365108Y-53217978D01*
X136358904Y-53203000D01*
X136649000Y-53203000D01*
X136867987Y-53156415D01*
X137073678Y-53068003D01*
X137258169Y-52941161D01*
X137414369Y-52780764D01*
X137536276Y-52592976D01*
X137616119Y-52369874D01*
X137489954Y-52195000D01*
X136099000Y-52195000D01*
X136099000Y-52215000D01*
X135845000Y-52215000D01*
X135845000Y-52195000D01*
X134454046Y-52195000D01*
X134327881Y-52369874D01*
X133186119Y-52369874D01*
X133059954Y-52195000D01*
X131919000Y-52195000D01*
X131665000Y-52195000D01*
X130524046Y-52195000D01*
X130397881Y-52369874D01*
X129311000Y-52369874D01*
X129311000Y-51766126D01*
X130397881Y-51766126D01*
X130524046Y-51941000D01*
X131665000Y-51941000D01*
X131665000Y-50933000D01*
X131919000Y-50933000D01*
X131919000Y-51941000D01*
X133059954Y-51941000D01*
X133186119Y-51766126D01*
X134327881Y-51766126D01*
X134454046Y-51941000D01*
X135845000Y-51941000D01*
X135845000Y-50933000D01*
X136099000Y-50933000D01*
X136099000Y-51941000D01*
X137489954Y-51941000D01*
X137616119Y-51766126D01*
X137536276Y-51543024D01*
X137414369Y-51355236D01*
X137258169Y-51194839D01*
X137073678Y-51067997D01*
X136867987Y-50979585D01*
X136649000Y-50933000D01*
X136099000Y-50933000D01*
X135845000Y-50933000D01*
X135295000Y-50933000D01*
X135076013Y-50979585D01*
X134870322Y-51067997D01*
X134685831Y-51194839D01*
X134529631Y-51355236D01*
X134407724Y-51543024D01*
X134327881Y-51766126D01*
X133186119Y-51766126D01*
X133106276Y-51543024D01*
X132984369Y-51355236D01*
X132828169Y-51194839D01*
X132643678Y-51067997D01*
X132437987Y-50979585D01*
X132219000Y-50933000D01*
X131919000Y-50933000D01*
X131665000Y-50933000D01*
X131365000Y-50933000D01*
X131146013Y-50979585D01*
X130940322Y-51067997D01*
X130755831Y-51194839D01*
X130599631Y-51355236D01*
X130477724Y-51543024D01*
X130397881Y-51766126D01*
X129311000Y-51766126D01*
X129311000Y-51213279D01*
X129340234Y-50915125D01*
X129417448Y-50659378D01*
X129542869Y-50423496D01*
X129711716Y-50216470D01*
X129917554Y-50046187D01*
X130152556Y-49919121D01*
X130407756Y-49840124D01*
X130703882Y-49809000D01*
X136430419Y-49809000D01*
X136459397Y-49806146D01*
X136472003Y-49806234D01*
X136481174Y-49805335D01*
X136875577Y-49763882D01*
X136934183Y-49751852D01*
X136992935Y-49740645D01*
X137001757Y-49737981D01*
X137380599Y-49620710D01*
X137435750Y-49597526D01*
X137491208Y-49575120D01*
X137499345Y-49570794D01*
X137848193Y-49382172D01*
X137897792Y-49348717D01*
X137947838Y-49315968D01*
X137954977Y-49310145D01*
X137954981Y-49310142D01*
X137954985Y-49310138D01*
X138260547Y-49057356D01*
X138302669Y-49014939D01*
X138345438Y-48973057D01*
X138351311Y-48965956D01*
X138601960Y-48658631D01*
X138635052Y-48608822D01*
X138668859Y-48559450D01*
X138673241Y-48551344D01*
X138859423Y-48201187D01*
X138882212Y-48145895D01*
X138905784Y-48090899D01*
X138908509Y-48082095D01*
X139023132Y-47702444D01*
X139034754Y-47643750D01*
X139047188Y-47585253D01*
X139048151Y-47576089D01*
X139086850Y-47181404D01*
X139086850Y-47181402D01*
X139090000Y-47149419D01*
X139090000Y-22550000D01*
X141711928Y-22550000D01*
X141711928Y-24250000D01*
X141724188Y-24374482D01*
X141760498Y-24494180D01*
X141819463Y-24604494D01*
X141898815Y-24701185D01*
X141995506Y-24780537D01*
X142105820Y-24839502D01*
X142178380Y-24861513D01*
X142046525Y-24993368D01*
X141884010Y-25236589D01*
X141772068Y-25506842D01*
X141715000Y-25793740D01*
X141715000Y-26086260D01*
X141772068Y-26373158D01*
X141884010Y-26643411D01*
X142046525Y-26886632D01*
X142253368Y-27093475D01*
X142427760Y-27210000D01*
X142253368Y-27326525D01*
X142046525Y-27533368D01*
X141884010Y-27776589D01*
X141772068Y-28046842D01*
X141715000Y-28333740D01*
X141715000Y-28626260D01*
X141772068Y-28913158D01*
X141884010Y-29183411D01*
X142046525Y-29426632D01*
X142253368Y-29633475D01*
X142427760Y-29750000D01*
X142253368Y-29866525D01*
X142046525Y-30073368D01*
X141884010Y-30316589D01*
X141772068Y-30586842D01*
X141715000Y-30873740D01*
X141715000Y-31166260D01*
X141772068Y-31453158D01*
X141884010Y-31723411D01*
X142046525Y-31966632D01*
X142253368Y-32173475D01*
X142427760Y-32290000D01*
X142253368Y-32406525D01*
X142046525Y-32613368D01*
X141884010Y-32856589D01*
X141772068Y-33126842D01*
X141715000Y-33413740D01*
X141715000Y-33706260D01*
X141772068Y-33993158D01*
X141884010Y-34263411D01*
X142046525Y-34506632D01*
X142253368Y-34713475D01*
X142427760Y-34830000D01*
X142253368Y-34946525D01*
X142046525Y-35153368D01*
X141884010Y-35396589D01*
X141772068Y-35666842D01*
X141715000Y-35953740D01*
X141715000Y-36246260D01*
X141772068Y-36533158D01*
X141884010Y-36803411D01*
X142046525Y-37046632D01*
X142253368Y-37253475D01*
X142427760Y-37370000D01*
X142253368Y-37486525D01*
X142046525Y-37693368D01*
X141884010Y-37936589D01*
X141772068Y-38206842D01*
X141715000Y-38493740D01*
X141715000Y-38786260D01*
X141772068Y-39073158D01*
X141884010Y-39343411D01*
X142046525Y-39586632D01*
X142253368Y-39793475D01*
X142427760Y-39910000D01*
X142253368Y-40026525D01*
X142046525Y-40233368D01*
X141884010Y-40476589D01*
X141772068Y-40746842D01*
X141715000Y-41033740D01*
X141715000Y-41326260D01*
X141772068Y-41613158D01*
X141884010Y-41883411D01*
X142046525Y-42126632D01*
X142253368Y-42333475D01*
X142427760Y-42450000D01*
X142253368Y-42566525D01*
X142046525Y-42773368D01*
X141884010Y-43016589D01*
X141772068Y-43286842D01*
X141715000Y-43573740D01*
X141715000Y-43866260D01*
X141772068Y-44153158D01*
X141884010Y-44423411D01*
X142046525Y-44666632D01*
X142253368Y-44873475D01*
X142427760Y-44990000D01*
X142253368Y-45106525D01*
X142046525Y-45313368D01*
X141884010Y-45556589D01*
X141772068Y-45826842D01*
X141715000Y-46113740D01*
X141715000Y-46406260D01*
X141772068Y-46693158D01*
X141884010Y-46963411D01*
X142046525Y-47206632D01*
X142253368Y-47413475D01*
X142427760Y-47530000D01*
X142253368Y-47646525D01*
X142046525Y-47853368D01*
X141884010Y-48096589D01*
X141772068Y-48366842D01*
X141715000Y-48653740D01*
X141715000Y-48946260D01*
X141772068Y-49233158D01*
X141884010Y-49503411D01*
X142046525Y-49746632D01*
X142253368Y-49953475D01*
X142427760Y-50070000D01*
X142253368Y-50186525D01*
X142046525Y-50393368D01*
X141884010Y-50636589D01*
X141772068Y-50906842D01*
X141715000Y-51193740D01*
X141715000Y-51486260D01*
X141772068Y-51773158D01*
X141884010Y-52043411D01*
X142046525Y-52286632D01*
X142253368Y-52493475D01*
X142427760Y-52610000D01*
X142253368Y-52726525D01*
X142046525Y-52933368D01*
X141884010Y-53176589D01*
X141772068Y-53446842D01*
X141715000Y-53733740D01*
X141715000Y-54026260D01*
X141772068Y-54313158D01*
X141884010Y-54583411D01*
X142046525Y-54826632D01*
X142253368Y-55033475D01*
X142427760Y-55150000D01*
X142253368Y-55266525D01*
X142046525Y-55473368D01*
X141884010Y-55716589D01*
X141772068Y-55986842D01*
X141715000Y-56273740D01*
X141715000Y-56566260D01*
X141772068Y-56853158D01*
X141884010Y-57123411D01*
X142046525Y-57366632D01*
X142253368Y-57573475D01*
X142427760Y-57690000D01*
X142253368Y-57806525D01*
X142046525Y-58013368D01*
X141884010Y-58256589D01*
X141772068Y-58526842D01*
X141715000Y-58813740D01*
X141715000Y-59106260D01*
X141772068Y-59393158D01*
X141884010Y-59663411D01*
X142046525Y-59906632D01*
X142253368Y-60113475D01*
X142427760Y-60230000D01*
X142253368Y-60346525D01*
X142046525Y-60553368D01*
X141884010Y-60796589D01*
X141772068Y-61066842D01*
X141715000Y-61353740D01*
X141715000Y-61646260D01*
X141772068Y-61933158D01*
X141884010Y-62203411D01*
X142046525Y-62446632D01*
X142253368Y-62653475D01*
X142427760Y-62770000D01*
X142253368Y-62886525D01*
X142046525Y-63093368D01*
X141884010Y-63336589D01*
X141772068Y-63606842D01*
X141715000Y-63893740D01*
X141715000Y-64186260D01*
X141772068Y-64473158D01*
X141884010Y-64743411D01*
X142046525Y-64986632D01*
X142253368Y-65193475D01*
X142427760Y-65310000D01*
X142253368Y-65426525D01*
X142046525Y-65633368D01*
X141884010Y-65876589D01*
X141772068Y-66146842D01*
X141715000Y-66433740D01*
X141715000Y-66726260D01*
X141772068Y-67013158D01*
X141884010Y-67283411D01*
X142046525Y-67526632D01*
X142253368Y-67733475D01*
X142426729Y-67849311D01*
X142351208Y-68091603D01*
X143200000Y-68940395D01*
X144048792Y-68091603D01*
X143973271Y-67849311D01*
X144146632Y-67733475D01*
X144353475Y-67526632D01*
X144515990Y-67283411D01*
X144627932Y-67013158D01*
X144685000Y-66726260D01*
X144685000Y-66433740D01*
X144627932Y-66146842D01*
X144515990Y-65876589D01*
X144353475Y-65633368D01*
X144146632Y-65426525D01*
X143972240Y-65310000D01*
X144146632Y-65193475D01*
X144353475Y-64986632D01*
X144515990Y-64743411D01*
X144627932Y-64473158D01*
X144685000Y-64186260D01*
X144685000Y-63893740D01*
X144627932Y-63606842D01*
X144515990Y-63336589D01*
X144353475Y-63093368D01*
X144146632Y-62886525D01*
X143972240Y-62770000D01*
X144146632Y-62653475D01*
X144353475Y-62446632D01*
X144515990Y-62203411D01*
X144627932Y-61933158D01*
X144685000Y-61646260D01*
X144685000Y-61353740D01*
X144627932Y-61066842D01*
X144515990Y-60796589D01*
X144353475Y-60553368D01*
X144146632Y-60346525D01*
X143972240Y-60230000D01*
X144146632Y-60113475D01*
X144353475Y-59906632D01*
X144515990Y-59663411D01*
X144627932Y-59393158D01*
X144685000Y-59106260D01*
X144685000Y-58813740D01*
X144627932Y-58526842D01*
X144515990Y-58256589D01*
X144353475Y-58013368D01*
X144146632Y-57806525D01*
X143972240Y-57690000D01*
X144146632Y-57573475D01*
X144353475Y-57366632D01*
X144515990Y-57123411D01*
X144627932Y-56853158D01*
X144685000Y-56566260D01*
X144685000Y-56273740D01*
X144627932Y-55986842D01*
X144515990Y-55716589D01*
X144353475Y-55473368D01*
X144146632Y-55266525D01*
X143972240Y-55150000D01*
X144146632Y-55033475D01*
X144353475Y-54826632D01*
X144515990Y-54583411D01*
X144627932Y-54313158D01*
X144685000Y-54026260D01*
X144685000Y-53733740D01*
X144627932Y-53446842D01*
X144515990Y-53176589D01*
X144353475Y-52933368D01*
X144146632Y-52726525D01*
X143972240Y-52610000D01*
X144146632Y-52493475D01*
X144353475Y-52286632D01*
X144515990Y-52043411D01*
X144627932Y-51773158D01*
X144685000Y-51486260D01*
X144685000Y-51193740D01*
X144627932Y-50906842D01*
X144515990Y-50636589D01*
X144353475Y-50393368D01*
X144146632Y-50186525D01*
X143972240Y-50070000D01*
X144146632Y-49953475D01*
X144353475Y-49746632D01*
X144515990Y-49503411D01*
X144627932Y-49233158D01*
X144685000Y-48946260D01*
X144685000Y-48653740D01*
X144627932Y-48366842D01*
X144515990Y-48096589D01*
X144353475Y-47853368D01*
X144146632Y-47646525D01*
X143972240Y-47530000D01*
X144146632Y-47413475D01*
X144353475Y-47206632D01*
X144515990Y-46963411D01*
X144627932Y-46693158D01*
X144685000Y-46406260D01*
X144685000Y-46113740D01*
X144627932Y-45826842D01*
X144515990Y-45556589D01*
X144353475Y-45313368D01*
X144146632Y-45106525D01*
X143972240Y-44990000D01*
X144146632Y-44873475D01*
X144353475Y-44666632D01*
X144515990Y-44423411D01*
X144627932Y-44153158D01*
X144685000Y-43866260D01*
X144685000Y-43573740D01*
X144627932Y-43286842D01*
X144515990Y-43016589D01*
X144353475Y-42773368D01*
X144146632Y-42566525D01*
X143972240Y-42450000D01*
X144146632Y-42333475D01*
X144353475Y-42126632D01*
X144515990Y-41883411D01*
X144627932Y-41613158D01*
X144685000Y-41326260D01*
X144685000Y-41033740D01*
X144627932Y-40746842D01*
X144515990Y-40476589D01*
X144353475Y-40233368D01*
X144146632Y-40026525D01*
X143972240Y-39910000D01*
X144146632Y-39793475D01*
X144353475Y-39586632D01*
X144515990Y-39343411D01*
X144627932Y-39073158D01*
X144685000Y-38786260D01*
X144685000Y-38493740D01*
X144627932Y-38206842D01*
X144515990Y-37936589D01*
X144353475Y-37693368D01*
X144146632Y-37486525D01*
X143972240Y-37370000D01*
X144146632Y-37253475D01*
X144353475Y-37046632D01*
X144515990Y-36803411D01*
X144627932Y-36533158D01*
X144685000Y-36246260D01*
X144685000Y-35953740D01*
X144627932Y-35666842D01*
X144515990Y-35396589D01*
X144353475Y-35153368D01*
X144146632Y-34946525D01*
X143972240Y-34830000D01*
X144146632Y-34713475D01*
X144353475Y-34506632D01*
X144515990Y-34263411D01*
X144627932Y-33993158D01*
X144685000Y-33706260D01*
X144685000Y-33413740D01*
X144627932Y-33126842D01*
X144515990Y-32856589D01*
X144353475Y-32613368D01*
X144146632Y-32406525D01*
X143972240Y-32290000D01*
X144146632Y-32173475D01*
X144353475Y-31966632D01*
X144515990Y-31723411D01*
X144627932Y-31453158D01*
X144685000Y-31166260D01*
X144685000Y-30873740D01*
X144627932Y-30586842D01*
X144515990Y-30316589D01*
X144353475Y-30073368D01*
X144146632Y-29866525D01*
X143972240Y-29750000D01*
X144146632Y-29633475D01*
X144353475Y-29426632D01*
X144515990Y-29183411D01*
X144627932Y-28913158D01*
X144685000Y-28626260D01*
X144685000Y-28333740D01*
X156955000Y-28333740D01*
X156955000Y-28626260D01*
X157012068Y-28913158D01*
X157124010Y-29183411D01*
X157286525Y-29426632D01*
X157493368Y-29633475D01*
X157667760Y-29750000D01*
X157493368Y-29866525D01*
X157286525Y-30073368D01*
X157124010Y-30316589D01*
X157012068Y-30586842D01*
X156955000Y-30873740D01*
X156955000Y-31166260D01*
X157012068Y-31453158D01*
X157124010Y-31723411D01*
X157286525Y-31966632D01*
X157493368Y-32173475D01*
X157667760Y-32290000D01*
X157493368Y-32406525D01*
X157286525Y-32613368D01*
X157124010Y-32856589D01*
X157012068Y-33126842D01*
X156955000Y-33413740D01*
X156955000Y-33706260D01*
X157012068Y-33993158D01*
X157124010Y-34263411D01*
X157286525Y-34506632D01*
X157493368Y-34713475D01*
X157667760Y-34830000D01*
X157493368Y-34946525D01*
X157286525Y-35153368D01*
X157124010Y-35396589D01*
X157012068Y-35666842D01*
X156955000Y-35953740D01*
X156955000Y-36246260D01*
X157012068Y-36533158D01*
X157124010Y-36803411D01*
X157286525Y-37046632D01*
X157493368Y-37253475D01*
X157667760Y-37370000D01*
X157493368Y-37486525D01*
X157286525Y-37693368D01*
X157124010Y-37936589D01*
X157012068Y-38206842D01*
X156955000Y-38493740D01*
X156955000Y-38786260D01*
X157012068Y-39073158D01*
X157124010Y-39343411D01*
X157286525Y-39586632D01*
X157493368Y-39793475D01*
X157667760Y-39910000D01*
X157493368Y-40026525D01*
X157286525Y-40233368D01*
X157124010Y-40476589D01*
X157012068Y-40746842D01*
X156955000Y-41033740D01*
X156955000Y-41326260D01*
X157012068Y-41613158D01*
X157124010Y-41883411D01*
X157286525Y-42126632D01*
X157493368Y-42333475D01*
X157667760Y-42450000D01*
X157493368Y-42566525D01*
X157286525Y-42773368D01*
X157124010Y-43016589D01*
X157012068Y-43286842D01*
X156955000Y-43573740D01*
X156955000Y-43866260D01*
X157012068Y-44153158D01*
X157124010Y-44423411D01*
X157286525Y-44666632D01*
X157493368Y-44873475D01*
X157667760Y-44990000D01*
X157493368Y-45106525D01*
X157286525Y-45313368D01*
X157124010Y-45556589D01*
X157012068Y-45826842D01*
X156955000Y-46113740D01*
X156955000Y-46406260D01*
X157012068Y-46693158D01*
X157124010Y-46963411D01*
X157286525Y-47206632D01*
X157493368Y-47413475D01*
X157667760Y-47530000D01*
X157493368Y-47646525D01*
X157286525Y-47853368D01*
X157124010Y-48096589D01*
X157012068Y-48366842D01*
X156955000Y-48653740D01*
X156955000Y-48946260D01*
X157012068Y-49233158D01*
X157124010Y-49503411D01*
X157286525Y-49746632D01*
X157493368Y-49953475D01*
X157667760Y-50070000D01*
X157493368Y-50186525D01*
X157286525Y-50393368D01*
X157124010Y-50636589D01*
X157012068Y-50906842D01*
X156955000Y-51193740D01*
X156955000Y-51486260D01*
X157012068Y-51773158D01*
X157124010Y-52043411D01*
X157286525Y-52286632D01*
X157493368Y-52493475D01*
X157667760Y-52610000D01*
X157493368Y-52726525D01*
X157286525Y-52933368D01*
X157124010Y-53176589D01*
X157012068Y-53446842D01*
X156955000Y-53733740D01*
X156955000Y-54026260D01*
X157012068Y-54313158D01*
X157124010Y-54583411D01*
X157286525Y-54826632D01*
X157493368Y-55033475D01*
X157667760Y-55150000D01*
X157493368Y-55266525D01*
X157286525Y-55473368D01*
X157124010Y-55716589D01*
X157012068Y-55986842D01*
X156955000Y-56273740D01*
X156955000Y-56566260D01*
X157012068Y-56853158D01*
X157124010Y-57123411D01*
X157286525Y-57366632D01*
X157493368Y-57573475D01*
X157667760Y-57690000D01*
X157493368Y-57806525D01*
X157286525Y-58013368D01*
X157124010Y-58256589D01*
X157012068Y-58526842D01*
X156955000Y-58813740D01*
X156955000Y-59106260D01*
X157012068Y-59393158D01*
X157124010Y-59663411D01*
X157286525Y-59906632D01*
X157493368Y-60113475D01*
X157667760Y-60230000D01*
X157493368Y-60346525D01*
X157286525Y-60553368D01*
X157124010Y-60796589D01*
X157012068Y-61066842D01*
X156955000Y-61353740D01*
X156955000Y-61646260D01*
X157012068Y-61933158D01*
X157124010Y-62203411D01*
X157286525Y-62446632D01*
X157493368Y-62653475D01*
X157667760Y-62770000D01*
X157493368Y-62886525D01*
X157286525Y-63093368D01*
X157124010Y-63336589D01*
X157012068Y-63606842D01*
X156955000Y-63893740D01*
X156955000Y-64186260D01*
X157012068Y-64473158D01*
X157124010Y-64743411D01*
X157286525Y-64986632D01*
X157493368Y-65193475D01*
X157667760Y-65310000D01*
X157493368Y-65426525D01*
X157286525Y-65633368D01*
X157124010Y-65876589D01*
X157012068Y-66146842D01*
X156955000Y-66433740D01*
X156955000Y-66726260D01*
X157012068Y-67013158D01*
X157124010Y-67283411D01*
X157286525Y-67526632D01*
X157493368Y-67733475D01*
X157667760Y-67850000D01*
X157493368Y-67966525D01*
X157286525Y-68173368D01*
X157124010Y-68416589D01*
X157012068Y-68686842D01*
X156955000Y-68973740D01*
X156955000Y-69266260D01*
X157012068Y-69553158D01*
X157124010Y-69823411D01*
X157286525Y-70066632D01*
X157493368Y-70273475D01*
X157667760Y-70390000D01*
X157493368Y-70506525D01*
X157286525Y-70713368D01*
X157124010Y-70956589D01*
X157012068Y-71226842D01*
X156955000Y-71513740D01*
X156955000Y-71806260D01*
X157012068Y-72093158D01*
X157124010Y-72363411D01*
X157286525Y-72606632D01*
X157493368Y-72813475D01*
X157736589Y-72975990D01*
X158006842Y-73087932D01*
X158293740Y-73145000D01*
X158586260Y-73145000D01*
X158873158Y-73087932D01*
X159143411Y-72975990D01*
X159386632Y-72813475D01*
X159593475Y-72606632D01*
X159755990Y-72363411D01*
X159867932Y-72093158D01*
X159925000Y-71806260D01*
X159925000Y-71513740D01*
X159867932Y-71226842D01*
X159755990Y-70956589D01*
X159593475Y-70713368D01*
X159386632Y-70506525D01*
X159212240Y-70390000D01*
X159386632Y-70273475D01*
X159593475Y-70066632D01*
X159755990Y-69823411D01*
X159867932Y-69553158D01*
X159925000Y-69266260D01*
X159925000Y-68973740D01*
X159867932Y-68686842D01*
X159755990Y-68416589D01*
X159593475Y-68173368D01*
X159386632Y-67966525D01*
X159212240Y-67850000D01*
X159386632Y-67733475D01*
X159593475Y-67526632D01*
X159755990Y-67283411D01*
X159867932Y-67013158D01*
X159925000Y-66726260D01*
X159925000Y-66433740D01*
X159867932Y-66146842D01*
X159755990Y-65876589D01*
X159593475Y-65633368D01*
X159386632Y-65426525D01*
X159212240Y-65310000D01*
X159386632Y-65193475D01*
X159593475Y-64986632D01*
X159755990Y-64743411D01*
X159867932Y-64473158D01*
X159925000Y-64186260D01*
X159925000Y-63893740D01*
X159867932Y-63606842D01*
X159755990Y-63336589D01*
X159593475Y-63093368D01*
X159386632Y-62886525D01*
X159212240Y-62770000D01*
X159386632Y-62653475D01*
X159593475Y-62446632D01*
X159755990Y-62203411D01*
X159867932Y-61933158D01*
X159925000Y-61646260D01*
X159925000Y-61353740D01*
X159867932Y-61066842D01*
X159844336Y-61009874D01*
X164135881Y-61009874D01*
X164215724Y-61232976D01*
X164337631Y-61420764D01*
X164493831Y-61581161D01*
X164678322Y-61708003D01*
X164884013Y-61796415D01*
X165103000Y-61843000D01*
X165653000Y-61843000D01*
X165653000Y-60835000D01*
X165907000Y-60835000D01*
X165907000Y-61843000D01*
X166457000Y-61843000D01*
X166675987Y-61796415D01*
X166881678Y-61708003D01*
X167066169Y-61581161D01*
X167222369Y-61420764D01*
X167344276Y-61232976D01*
X167424119Y-61009874D01*
X168565881Y-61009874D01*
X168645724Y-61232976D01*
X168767631Y-61420764D01*
X168923831Y-61581161D01*
X169108322Y-61708003D01*
X169314013Y-61796415D01*
X169533000Y-61843000D01*
X169833000Y-61843000D01*
X169833000Y-60835000D01*
X170087000Y-60835000D01*
X170087000Y-61843000D01*
X170387000Y-61843000D01*
X170605987Y-61796415D01*
X170811678Y-61708003D01*
X170996169Y-61581161D01*
X171152369Y-61420764D01*
X171274276Y-61232976D01*
X171354119Y-61009874D01*
X171227954Y-60835000D01*
X170087000Y-60835000D01*
X169833000Y-60835000D01*
X168692046Y-60835000D01*
X168565881Y-61009874D01*
X167424119Y-61009874D01*
X167297954Y-60835000D01*
X165907000Y-60835000D01*
X165653000Y-60835000D01*
X164262046Y-60835000D01*
X164135881Y-61009874D01*
X159844336Y-61009874D01*
X159755990Y-60796589D01*
X159593475Y-60553368D01*
X159446233Y-60406126D01*
X164135881Y-60406126D01*
X164262046Y-60581000D01*
X165653000Y-60581000D01*
X165653000Y-60561000D01*
X165907000Y-60561000D01*
X165907000Y-60581000D01*
X167297954Y-60581000D01*
X167424119Y-60406126D01*
X168565881Y-60406126D01*
X168692046Y-60581000D01*
X169833000Y-60581000D01*
X169833000Y-59573000D01*
X170087000Y-59573000D01*
X170087000Y-60581000D01*
X171227954Y-60581000D01*
X171354119Y-60406126D01*
X171274276Y-60183024D01*
X171152369Y-59995236D01*
X170996169Y-59834839D01*
X170811678Y-59707997D01*
X170605987Y-59619585D01*
X170387000Y-59573000D01*
X170087000Y-59573000D01*
X169833000Y-59573000D01*
X169533000Y-59573000D01*
X169314013Y-59619585D01*
X169108322Y-59707997D01*
X168923831Y-59834839D01*
X168767631Y-59995236D01*
X168645724Y-60183024D01*
X168565881Y-60406126D01*
X167424119Y-60406126D01*
X167344276Y-60183024D01*
X167222369Y-59995236D01*
X167081794Y-59850884D01*
X167160741Y-59732731D01*
X167233108Y-59558022D01*
X167270000Y-59372552D01*
X167270000Y-59183448D01*
X167233108Y-58997978D01*
X167160741Y-58823269D01*
X167055681Y-58666036D01*
X166921964Y-58532319D01*
X166764731Y-58427259D01*
X166590022Y-58354892D01*
X166404552Y-58318000D01*
X166215448Y-58318000D01*
X166029978Y-58354892D01*
X165855269Y-58427259D01*
X165698036Y-58532319D01*
X165564319Y-58666036D01*
X165459259Y-58823269D01*
X165386892Y-58997978D01*
X165350000Y-59183448D01*
X165350000Y-59372552D01*
X165386892Y-59558022D01*
X165393096Y-59573000D01*
X165103000Y-59573000D01*
X164884013Y-59619585D01*
X164678322Y-59707997D01*
X164493831Y-59834839D01*
X164337631Y-59995236D01*
X164215724Y-60183024D01*
X164135881Y-60406126D01*
X159446233Y-60406126D01*
X159386632Y-60346525D01*
X159212240Y-60230000D01*
X159386632Y-60113475D01*
X159593475Y-59906632D01*
X159755990Y-59663411D01*
X159867932Y-59393158D01*
X159925000Y-59106260D01*
X159925000Y-58813740D01*
X159867932Y-58526842D01*
X159755990Y-58256589D01*
X159593475Y-58013368D01*
X159386632Y-57806525D01*
X159212240Y-57690000D01*
X159386632Y-57573475D01*
X159593475Y-57366632D01*
X159755990Y-57123411D01*
X159867932Y-56853158D01*
X159925000Y-56566260D01*
X159925000Y-56273740D01*
X159867932Y-55986842D01*
X159755990Y-55716589D01*
X159593475Y-55473368D01*
X159386632Y-55266525D01*
X159212240Y-55150000D01*
X159386632Y-55033475D01*
X159593475Y-54826632D01*
X159755990Y-54583411D01*
X159867932Y-54313158D01*
X159925000Y-54026260D01*
X159925000Y-53733740D01*
X159867932Y-53446842D01*
X159755990Y-53176589D01*
X159593475Y-52933368D01*
X159386632Y-52726525D01*
X159212240Y-52610000D01*
X159386632Y-52493475D01*
X159510233Y-52369874D01*
X164135881Y-52369874D01*
X164215724Y-52592976D01*
X164337631Y-52780764D01*
X164493831Y-52941161D01*
X164678322Y-53068003D01*
X164884013Y-53156415D01*
X165103000Y-53203000D01*
X165393096Y-53203000D01*
X165386892Y-53217978D01*
X165350000Y-53403448D01*
X165350000Y-53592552D01*
X165386892Y-53778022D01*
X165459259Y-53952731D01*
X165564319Y-54109964D01*
X165698036Y-54243681D01*
X165855269Y-54348741D01*
X166029978Y-54421108D01*
X166215448Y-54458000D01*
X166404552Y-54458000D01*
X166590022Y-54421108D01*
X166764731Y-54348741D01*
X166921964Y-54243681D01*
X167055681Y-54109964D01*
X167160741Y-53952731D01*
X167233108Y-53778022D01*
X167270000Y-53592552D01*
X167270000Y-53403448D01*
X167233108Y-53217978D01*
X167160741Y-53043269D01*
X167081794Y-52925116D01*
X167222369Y-52780764D01*
X167344276Y-52592976D01*
X167424119Y-52369874D01*
X168565881Y-52369874D01*
X168645724Y-52592976D01*
X168767631Y-52780764D01*
X168923831Y-52941161D01*
X169108322Y-53068003D01*
X169314013Y-53156415D01*
X169533000Y-53203000D01*
X169833000Y-53203000D01*
X169833000Y-52195000D01*
X170087000Y-52195000D01*
X170087000Y-53203000D01*
X170387000Y-53203000D01*
X170605987Y-53156415D01*
X170811678Y-53068003D01*
X170996169Y-52941161D01*
X171152369Y-52780764D01*
X171274276Y-52592976D01*
X171354119Y-52369874D01*
X171227954Y-52195000D01*
X170087000Y-52195000D01*
X169833000Y-52195000D01*
X168692046Y-52195000D01*
X168565881Y-52369874D01*
X167424119Y-52369874D01*
X167297954Y-52195000D01*
X165907000Y-52195000D01*
X165907000Y-52215000D01*
X165653000Y-52215000D01*
X165653000Y-52195000D01*
X164262046Y-52195000D01*
X164135881Y-52369874D01*
X159510233Y-52369874D01*
X159593475Y-52286632D01*
X159755990Y-52043411D01*
X159867932Y-51773158D01*
X159869330Y-51766126D01*
X164135881Y-51766126D01*
X164262046Y-51941000D01*
X165653000Y-51941000D01*
X165653000Y-50933000D01*
X165907000Y-50933000D01*
X165907000Y-51941000D01*
X167297954Y-51941000D01*
X167424119Y-51766126D01*
X168565881Y-51766126D01*
X168692046Y-51941000D01*
X169833000Y-51941000D01*
X169833000Y-50933000D01*
X170087000Y-50933000D01*
X170087000Y-51941000D01*
X171227954Y-51941000D01*
X171354119Y-51766126D01*
X171274276Y-51543024D01*
X171152369Y-51355236D01*
X170996169Y-51194839D01*
X170811678Y-51067997D01*
X170605987Y-50979585D01*
X170387000Y-50933000D01*
X170087000Y-50933000D01*
X169833000Y-50933000D01*
X169533000Y-50933000D01*
X169314013Y-50979585D01*
X169108322Y-51067997D01*
X168923831Y-51194839D01*
X168767631Y-51355236D01*
X168645724Y-51543024D01*
X168565881Y-51766126D01*
X167424119Y-51766126D01*
X167344276Y-51543024D01*
X167222369Y-51355236D01*
X167066169Y-51194839D01*
X166881678Y-51067997D01*
X166675987Y-50979585D01*
X166457000Y-50933000D01*
X165907000Y-50933000D01*
X165653000Y-50933000D01*
X165103000Y-50933000D01*
X164884013Y-50979585D01*
X164678322Y-51067997D01*
X164493831Y-51194839D01*
X164337631Y-51355236D01*
X164215724Y-51543024D01*
X164135881Y-51766126D01*
X159869330Y-51766126D01*
X159925000Y-51486260D01*
X159925000Y-51193740D01*
X159867932Y-50906842D01*
X159755990Y-50636589D01*
X159593475Y-50393368D01*
X159386632Y-50186525D01*
X159212240Y-50070000D01*
X159386632Y-49953475D01*
X159593475Y-49746632D01*
X159755990Y-49503411D01*
X159867932Y-49233158D01*
X159925000Y-48946260D01*
X159925000Y-48653740D01*
X159867932Y-48366842D01*
X159755990Y-48096589D01*
X159593475Y-47853368D01*
X159386632Y-47646525D01*
X159212240Y-47530000D01*
X159386632Y-47413475D01*
X159593475Y-47206632D01*
X159755990Y-46963411D01*
X159867932Y-46693158D01*
X159925000Y-46406260D01*
X159925000Y-46113740D01*
X159867932Y-45826842D01*
X159755990Y-45556589D01*
X159593475Y-45313368D01*
X159386632Y-45106525D01*
X159212240Y-44990000D01*
X159386632Y-44873475D01*
X159593475Y-44666632D01*
X159755990Y-44423411D01*
X159867932Y-44153158D01*
X159925000Y-43866260D01*
X159925000Y-43573740D01*
X159867932Y-43286842D01*
X159755990Y-43016589D01*
X159593475Y-42773368D01*
X159386632Y-42566525D01*
X159212240Y-42450000D01*
X159386632Y-42333475D01*
X159593475Y-42126632D01*
X159755990Y-41883411D01*
X159867932Y-41613158D01*
X159925000Y-41326260D01*
X159925000Y-41033740D01*
X159867932Y-40746842D01*
X159755990Y-40476589D01*
X159593475Y-40233368D01*
X159386632Y-40026525D01*
X159212240Y-39910000D01*
X159386632Y-39793475D01*
X159593475Y-39586632D01*
X159755990Y-39343411D01*
X159867932Y-39073158D01*
X159925000Y-38786260D01*
X159925000Y-38493740D01*
X159867932Y-38206842D01*
X159755990Y-37936589D01*
X159593475Y-37693368D01*
X159386632Y-37486525D01*
X159212240Y-37370000D01*
X159386632Y-37253475D01*
X159593475Y-37046632D01*
X159755990Y-36803411D01*
X159867932Y-36533158D01*
X159925000Y-36246260D01*
X159925000Y-35953740D01*
X159867932Y-35666842D01*
X159755990Y-35396589D01*
X159593475Y-35153368D01*
X159386632Y-34946525D01*
X159212240Y-34830000D01*
X159386632Y-34713475D01*
X159593475Y-34506632D01*
X159755990Y-34263411D01*
X159867932Y-33993158D01*
X159925000Y-33706260D01*
X159925000Y-33413740D01*
X159867932Y-33126842D01*
X159755990Y-32856589D01*
X159593475Y-32613368D01*
X159386632Y-32406525D01*
X159212240Y-32290000D01*
X159386632Y-32173475D01*
X159593475Y-31966632D01*
X159755990Y-31723411D01*
X159867932Y-31453158D01*
X159925000Y-31166260D01*
X159925000Y-30873740D01*
X159867932Y-30586842D01*
X159755990Y-30316589D01*
X159593475Y-30073368D01*
X159386632Y-29866525D01*
X159212240Y-29750000D01*
X159386632Y-29633475D01*
X159593475Y-29426632D01*
X159755990Y-29183411D01*
X159867932Y-28913158D01*
X159925000Y-28626260D01*
X159925000Y-28333740D01*
X159867932Y-28046842D01*
X159755990Y-27776589D01*
X159593475Y-27533368D01*
X159386632Y-27326525D01*
X159213271Y-27210689D01*
X159288792Y-26968397D01*
X158440000Y-26119605D01*
X157591208Y-26968397D01*
X157666729Y-27210689D01*
X157493368Y-27326525D01*
X157286525Y-27533368D01*
X157124010Y-27776589D01*
X157012068Y-28046842D01*
X156955000Y-28333740D01*
X144685000Y-28333740D01*
X144627932Y-28046842D01*
X144515990Y-27776589D01*
X144353475Y-27533368D01*
X144146632Y-27326525D01*
X143972240Y-27210000D01*
X144146632Y-27093475D01*
X144353475Y-26886632D01*
X144515990Y-26643411D01*
X144627932Y-26373158D01*
X144685000Y-26086260D01*
X144685000Y-26008531D01*
X156949389Y-26008531D01*
X156991401Y-26298019D01*
X157089081Y-26573747D01*
X157162528Y-26711157D01*
X157411603Y-26788792D01*
X158260395Y-25940000D01*
X158619605Y-25940000D01*
X159468397Y-26788792D01*
X159717472Y-26711157D01*
X159843371Y-26447117D01*
X159915339Y-26163589D01*
X159930611Y-25871469D01*
X159888599Y-25581981D01*
X159790919Y-25306253D01*
X159717472Y-25168843D01*
X159468397Y-25091208D01*
X158619605Y-25940000D01*
X158260395Y-25940000D01*
X157411603Y-25091208D01*
X157162528Y-25168843D01*
X157036629Y-25432883D01*
X156964661Y-25716411D01*
X156949389Y-26008531D01*
X144685000Y-26008531D01*
X144685000Y-25793740D01*
X144627932Y-25506842D01*
X144515990Y-25236589D01*
X144353475Y-24993368D01*
X144221620Y-24861513D01*
X144294180Y-24839502D01*
X144404494Y-24780537D01*
X144501185Y-24701185D01*
X144580537Y-24604494D01*
X144639502Y-24494180D01*
X144675812Y-24374482D01*
X144688072Y-24250000D01*
X144688072Y-23253740D01*
X156955000Y-23253740D01*
X156955000Y-23546260D01*
X157012068Y-23833158D01*
X157124010Y-24103411D01*
X157286525Y-24346632D01*
X157493368Y-24553475D01*
X157666729Y-24669311D01*
X157591208Y-24911603D01*
X158440000Y-25760395D01*
X159288792Y-24911603D01*
X159213271Y-24669311D01*
X159386632Y-24553475D01*
X159593475Y-24346632D01*
X159755990Y-24103411D01*
X159867932Y-23833158D01*
X159925000Y-23546260D01*
X159925000Y-23253740D01*
X159867932Y-22966842D01*
X159755990Y-22696589D01*
X159593475Y-22453368D01*
X159386632Y-22246525D01*
X159143411Y-22084010D01*
X158873158Y-21972068D01*
X158586260Y-21915000D01*
X158293740Y-21915000D01*
X158006842Y-21972068D01*
X157736589Y-22084010D01*
X157493368Y-22246525D01*
X157286525Y-22453368D01*
X157124010Y-22696589D01*
X157012068Y-22966842D01*
X156955000Y-23253740D01*
X144688072Y-23253740D01*
X144688072Y-22550000D01*
X144675812Y-22425518D01*
X144639502Y-22305820D01*
X144580537Y-22195506D01*
X144501185Y-22098815D01*
X144404494Y-22019463D01*
X144294180Y-21960498D01*
X144174482Y-21924188D01*
X144050000Y-21911928D01*
X142350000Y-21911928D01*
X142225518Y-21924188D01*
X142105820Y-21960498D01*
X141995506Y-22019463D01*
X141898815Y-22098815D01*
X141819463Y-22195506D01*
X141760498Y-22305820D01*
X141724188Y-22425518D01*
X141711928Y-22550000D01*
X139090000Y-22550000D01*
X139090000Y-21114281D01*
X139099885Y-21013467D01*
X139119789Y-20947543D01*
X139152115Y-20886745D01*
X139195639Y-20833381D01*
X139248696Y-20789488D01*
X139309271Y-20756734D01*
X139375053Y-20736372D01*
X139473730Y-20726000D01*
X162146719Y-20726000D01*
X162247533Y-20735885D01*
%TA.AperFunction,Conductor*%
D16*
G36*
X162247533Y-20735885D02*
G01*
X162313457Y-20755789D01*
X162374255Y-20788115D01*
X162427619Y-20831639D01*
X162471512Y-20884696D01*
X162504266Y-20945271D01*
X162524628Y-21011053D01*
X162535001Y-21109740D01*
X162535000Y-47149418D01*
X162537854Y-47178396D01*
X162537766Y-47191003D01*
X162538665Y-47200174D01*
X162580118Y-47594577D01*
X162592148Y-47653183D01*
X162603355Y-47711935D01*
X162606019Y-47720757D01*
X162723290Y-48099599D01*
X162746474Y-48154750D01*
X162768880Y-48210208D01*
X162773206Y-48218345D01*
X162961828Y-48567193D01*
X162995283Y-48616792D01*
X163028032Y-48666838D01*
X163033855Y-48673977D01*
X163033858Y-48673981D01*
X163033862Y-48673985D01*
X163286644Y-48979547D01*
X163329061Y-49021669D01*
X163370943Y-49064438D01*
X163378044Y-49070311D01*
X163685369Y-49320960D01*
X163735178Y-49354052D01*
X163784550Y-49387859D01*
X163792656Y-49392241D01*
X164142813Y-49578423D01*
X164198105Y-49601212D01*
X164253101Y-49624784D01*
X164261905Y-49627509D01*
X164641556Y-49742132D01*
X164700250Y-49753754D01*
X164758747Y-49766188D01*
X164767911Y-49767151D01*
X165162596Y-49805850D01*
X165162598Y-49805850D01*
X165194581Y-49809000D01*
X170985921Y-49809000D01*
X171284075Y-49838234D01*
X171539822Y-49915448D01*
X171775704Y-50040869D01*
X171982730Y-50209716D01*
X172153013Y-50415554D01*
X172280079Y-50650556D01*
X172359076Y-50905756D01*
X172390200Y-51201882D01*
X172390201Y-65411530D01*
X163208138Y-74617950D01*
X138494952Y-74570228D01*
X135430378Y-71513740D01*
X141715000Y-71513740D01*
X141715000Y-71806260D01*
X141772068Y-72093158D01*
X141884010Y-72363411D01*
X142046525Y-72606632D01*
X142253368Y-72813475D01*
X142496589Y-72975990D01*
X142766842Y-73087932D01*
X143053740Y-73145000D01*
X143346260Y-73145000D01*
X143633158Y-73087932D01*
X143903411Y-72975990D01*
X144146632Y-72813475D01*
X144353475Y-72606632D01*
X144515990Y-72363411D01*
X144627932Y-72093158D01*
X144685000Y-71806260D01*
X144685000Y-71513740D01*
X144627932Y-71226842D01*
X144515990Y-70956589D01*
X144353475Y-70713368D01*
X144146632Y-70506525D01*
X143973271Y-70390689D01*
X144048792Y-70148397D01*
X143200000Y-69299605D01*
X142351208Y-70148397D01*
X142426729Y-70390689D01*
X142253368Y-70506525D01*
X142046525Y-70713368D01*
X141884010Y-70956589D01*
X141772068Y-71226842D01*
X141715000Y-71513740D01*
X135430378Y-71513740D01*
X133099017Y-69188531D01*
X141709389Y-69188531D01*
X141751401Y-69478019D01*
X141849081Y-69753747D01*
X141922528Y-69891157D01*
X142171603Y-69968792D01*
X143020395Y-69120000D01*
X143379605Y-69120000D01*
X144228397Y-69968792D01*
X144477472Y-69891157D01*
X144603371Y-69627117D01*
X144675339Y-69343589D01*
X144690611Y-69051469D01*
X144648599Y-68761981D01*
X144550919Y-68486253D01*
X144477472Y-68348843D01*
X144228397Y-68271208D01*
X143379605Y-69120000D01*
X143020395Y-69120000D01*
X142171603Y-68271208D01*
X141922528Y-68348843D01*
X141796629Y-68612883D01*
X141724661Y-68896411D01*
X141709389Y-69188531D01*
X133099017Y-69188531D01*
X129311000Y-65410510D01*
X129311000Y-61009874D01*
X130397881Y-61009874D01*
X130477724Y-61232976D01*
X130599631Y-61420764D01*
X130755831Y-61581161D01*
X130940322Y-61708003D01*
X131146013Y-61796415D01*
X131365000Y-61843000D01*
X131665000Y-61843000D01*
X131665000Y-60835000D01*
X131919000Y-60835000D01*
X131919000Y-61843000D01*
X132219000Y-61843000D01*
X132437987Y-61796415D01*
X132643678Y-61708003D01*
X132828169Y-61581161D01*
X132984369Y-61420764D01*
X133106276Y-61232976D01*
X133186119Y-61009874D01*
X134327881Y-61009874D01*
X134407724Y-61232976D01*
X134529631Y-61420764D01*
X134685831Y-61581161D01*
X134870322Y-61708003D01*
X135076013Y-61796415D01*
X135295000Y-61843000D01*
X135845000Y-61843000D01*
X135845000Y-60835000D01*
X136099000Y-60835000D01*
X136099000Y-61843000D01*
X136649000Y-61843000D01*
X136867987Y-61796415D01*
X137073678Y-61708003D01*
X137258169Y-61581161D01*
X137414369Y-61420764D01*
X137536276Y-61232976D01*
X137616119Y-61009874D01*
X137489954Y-60835000D01*
X136099000Y-60835000D01*
X135845000Y-60835000D01*
X134454046Y-60835000D01*
X134327881Y-61009874D01*
X133186119Y-61009874D01*
X133059954Y-60835000D01*
X131919000Y-60835000D01*
X131665000Y-60835000D01*
X130524046Y-60835000D01*
X130397881Y-61009874D01*
X129311000Y-61009874D01*
X129311000Y-60406126D01*
X130397881Y-60406126D01*
X130524046Y-60581000D01*
X131665000Y-60581000D01*
X131665000Y-59573000D01*
X131919000Y-59573000D01*
X131919000Y-60581000D01*
X133059954Y-60581000D01*
X133186119Y-60406126D01*
X134327881Y-60406126D01*
X134454046Y-60581000D01*
X135845000Y-60581000D01*
X135845000Y-60561000D01*
X136099000Y-60561000D01*
X136099000Y-60581000D01*
X137489954Y-60581000D01*
X137616119Y-60406126D01*
X137536276Y-60183024D01*
X137414369Y-59995236D01*
X137258169Y-59834839D01*
X137073678Y-59707997D01*
X136867987Y-59619585D01*
X136649000Y-59573000D01*
X136358904Y-59573000D01*
X136365108Y-59558022D01*
X136402000Y-59372552D01*
X136402000Y-59183448D01*
X136365108Y-58997978D01*
X136292741Y-58823269D01*
X136187681Y-58666036D01*
X136053964Y-58532319D01*
X135896731Y-58427259D01*
X135722022Y-58354892D01*
X135536552Y-58318000D01*
X135347448Y-58318000D01*
X135161978Y-58354892D01*
X134987269Y-58427259D01*
X134830036Y-58532319D01*
X134696319Y-58666036D01*
X134591259Y-58823269D01*
X134518892Y-58997978D01*
X134482000Y-59183448D01*
X134482000Y-59372552D01*
X134518892Y-59558022D01*
X134591259Y-59732731D01*
X134670206Y-59850884D01*
X134529631Y-59995236D01*
X134407724Y-60183024D01*
X134327881Y-60406126D01*
X133186119Y-60406126D01*
X133106276Y-60183024D01*
X132984369Y-59995236D01*
X132828169Y-59834839D01*
X132643678Y-59707997D01*
X132437987Y-59619585D01*
X132219000Y-59573000D01*
X131919000Y-59573000D01*
X131665000Y-59573000D01*
X131365000Y-59573000D01*
X131146013Y-59619585D01*
X130940322Y-59707997D01*
X130755831Y-59834839D01*
X130599631Y-59995236D01*
X130477724Y-60183024D01*
X130397881Y-60406126D01*
X129311000Y-60406126D01*
X129311000Y-52369874D01*
X130397881Y-52369874D01*
X130477724Y-52592976D01*
X130599631Y-52780764D01*
X130755831Y-52941161D01*
X130940322Y-53068003D01*
X131146013Y-53156415D01*
X131365000Y-53203000D01*
X131665000Y-53203000D01*
X131665000Y-52195000D01*
X131919000Y-52195000D01*
X131919000Y-53203000D01*
X132219000Y-53203000D01*
X132437987Y-53156415D01*
X132643678Y-53068003D01*
X132828169Y-52941161D01*
X132984369Y-52780764D01*
X133106276Y-52592976D01*
X133186119Y-52369874D01*
X134327881Y-52369874D01*
X134407724Y-52592976D01*
X134529631Y-52780764D01*
X134670206Y-52925116D01*
X134591259Y-53043269D01*
X134518892Y-53217978D01*
X134482000Y-53403448D01*
X134482000Y-53592552D01*
X134518892Y-53778022D01*
X134591259Y-53952731D01*
X134696319Y-54109964D01*
X134830036Y-54243681D01*
X134987269Y-54348741D01*
X135161978Y-54421108D01*
X135347448Y-54458000D01*
X135536552Y-54458000D01*
X135722022Y-54421108D01*
X135896731Y-54348741D01*
X136053964Y-54243681D01*
X136187681Y-54109964D01*
X136292741Y-53952731D01*
X136365108Y-53778022D01*
X136402000Y-53592552D01*
X136402000Y-53403448D01*
X136365108Y-53217978D01*
X136358904Y-53203000D01*
X136649000Y-53203000D01*
X136867987Y-53156415D01*
X137073678Y-53068003D01*
X137258169Y-52941161D01*
X137414369Y-52780764D01*
X137536276Y-52592976D01*
X137616119Y-52369874D01*
X137489954Y-52195000D01*
X136099000Y-52195000D01*
X136099000Y-52215000D01*
X135845000Y-52215000D01*
X135845000Y-52195000D01*
X134454046Y-52195000D01*
X134327881Y-52369874D01*
X133186119Y-52369874D01*
X133059954Y-52195000D01*
X131919000Y-52195000D01*
X131665000Y-52195000D01*
X130524046Y-52195000D01*
X130397881Y-52369874D01*
X129311000Y-52369874D01*
X129311000Y-51766126D01*
X130397881Y-51766126D01*
X130524046Y-51941000D01*
X131665000Y-51941000D01*
X131665000Y-50933000D01*
X131919000Y-50933000D01*
X131919000Y-51941000D01*
X133059954Y-51941000D01*
X133186119Y-51766126D01*
X134327881Y-51766126D01*
X134454046Y-51941000D01*
X135845000Y-51941000D01*
X135845000Y-50933000D01*
X136099000Y-50933000D01*
X136099000Y-51941000D01*
X137489954Y-51941000D01*
X137616119Y-51766126D01*
X137536276Y-51543024D01*
X137414369Y-51355236D01*
X137258169Y-51194839D01*
X137073678Y-51067997D01*
X136867987Y-50979585D01*
X136649000Y-50933000D01*
X136099000Y-50933000D01*
X135845000Y-50933000D01*
X135295000Y-50933000D01*
X135076013Y-50979585D01*
X134870322Y-51067997D01*
X134685831Y-51194839D01*
X134529631Y-51355236D01*
X134407724Y-51543024D01*
X134327881Y-51766126D01*
X133186119Y-51766126D01*
X133106276Y-51543024D01*
X132984369Y-51355236D01*
X132828169Y-51194839D01*
X132643678Y-51067997D01*
X132437987Y-50979585D01*
X132219000Y-50933000D01*
X131919000Y-50933000D01*
X131665000Y-50933000D01*
X131365000Y-50933000D01*
X131146013Y-50979585D01*
X130940322Y-51067997D01*
X130755831Y-51194839D01*
X130599631Y-51355236D01*
X130477724Y-51543024D01*
X130397881Y-51766126D01*
X129311000Y-51766126D01*
X129311000Y-51213279D01*
X129340234Y-50915125D01*
X129417448Y-50659378D01*
X129542869Y-50423496D01*
X129711716Y-50216470D01*
X129917554Y-50046187D01*
X130152556Y-49919121D01*
X130407756Y-49840124D01*
X130703882Y-49809000D01*
X136430419Y-49809000D01*
X136459397Y-49806146D01*
X136472003Y-49806234D01*
X136481174Y-49805335D01*
X136875577Y-49763882D01*
X136934183Y-49751852D01*
X136992935Y-49740645D01*
X137001757Y-49737981D01*
X137380599Y-49620710D01*
X137435750Y-49597526D01*
X137491208Y-49575120D01*
X137499345Y-49570794D01*
X137848193Y-49382172D01*
X137897792Y-49348717D01*
X137947838Y-49315968D01*
X137954977Y-49310145D01*
X137954981Y-49310142D01*
X137954985Y-49310138D01*
X138260547Y-49057356D01*
X138302669Y-49014939D01*
X138345438Y-48973057D01*
X138351311Y-48965956D01*
X138601960Y-48658631D01*
X138635052Y-48608822D01*
X138668859Y-48559450D01*
X138673241Y-48551344D01*
X138859423Y-48201187D01*
X138882212Y-48145895D01*
X138905784Y-48090899D01*
X138908509Y-48082095D01*
X139023132Y-47702444D01*
X139034754Y-47643750D01*
X139047188Y-47585253D01*
X139048151Y-47576089D01*
X139086850Y-47181404D01*
X139086850Y-47181402D01*
X139090000Y-47149419D01*
X139090000Y-22550000D01*
X141711928Y-22550000D01*
X141711928Y-24250000D01*
X141724188Y-24374482D01*
X141760498Y-24494180D01*
X141819463Y-24604494D01*
X141898815Y-24701185D01*
X141995506Y-24780537D01*
X142105820Y-24839502D01*
X142178380Y-24861513D01*
X142046525Y-24993368D01*
X141884010Y-25236589D01*
X141772068Y-25506842D01*
X141715000Y-25793740D01*
X141715000Y-26086260D01*
X141772068Y-26373158D01*
X141884010Y-26643411D01*
X142046525Y-26886632D01*
X142253368Y-27093475D01*
X142427760Y-27210000D01*
X142253368Y-27326525D01*
X142046525Y-27533368D01*
X141884010Y-27776589D01*
X141772068Y-28046842D01*
X141715000Y-28333740D01*
X141715000Y-28626260D01*
X141772068Y-28913158D01*
X141884010Y-29183411D01*
X142046525Y-29426632D01*
X142253368Y-29633475D01*
X142427760Y-29750000D01*
X142253368Y-29866525D01*
X142046525Y-30073368D01*
X141884010Y-30316589D01*
X141772068Y-30586842D01*
X141715000Y-30873740D01*
X141715000Y-31166260D01*
X141772068Y-31453158D01*
X141884010Y-31723411D01*
X142046525Y-31966632D01*
X142253368Y-32173475D01*
X142427760Y-32290000D01*
X142253368Y-32406525D01*
X142046525Y-32613368D01*
X141884010Y-32856589D01*
X141772068Y-33126842D01*
X141715000Y-33413740D01*
X141715000Y-33706260D01*
X141772068Y-33993158D01*
X141884010Y-34263411D01*
X142046525Y-34506632D01*
X142253368Y-34713475D01*
X142427760Y-34830000D01*
X142253368Y-34946525D01*
X142046525Y-35153368D01*
X141884010Y-35396589D01*
X141772068Y-35666842D01*
X141715000Y-35953740D01*
X141715000Y-36246260D01*
X141772068Y-36533158D01*
X141884010Y-36803411D01*
X142046525Y-37046632D01*
X142253368Y-37253475D01*
X142427760Y-37370000D01*
X142253368Y-37486525D01*
X142046525Y-37693368D01*
X141884010Y-37936589D01*
X141772068Y-38206842D01*
X141715000Y-38493740D01*
X141715000Y-38786260D01*
X141772068Y-39073158D01*
X141884010Y-39343411D01*
X142046525Y-39586632D01*
X142253368Y-39793475D01*
X142427760Y-39910000D01*
X142253368Y-40026525D01*
X142046525Y-40233368D01*
X141884010Y-40476589D01*
X141772068Y-40746842D01*
X141715000Y-41033740D01*
X141715000Y-41326260D01*
X141772068Y-41613158D01*
X141884010Y-41883411D01*
X142046525Y-42126632D01*
X142253368Y-42333475D01*
X142427760Y-42450000D01*
X142253368Y-42566525D01*
X142046525Y-42773368D01*
X141884010Y-43016589D01*
X141772068Y-43286842D01*
X141715000Y-43573740D01*
X141715000Y-43866260D01*
X141772068Y-44153158D01*
X141884010Y-44423411D01*
X142046525Y-44666632D01*
X142253368Y-44873475D01*
X142427760Y-44990000D01*
X142253368Y-45106525D01*
X142046525Y-45313368D01*
X141884010Y-45556589D01*
X141772068Y-45826842D01*
X141715000Y-46113740D01*
X141715000Y-46406260D01*
X141772068Y-46693158D01*
X141884010Y-46963411D01*
X142046525Y-47206632D01*
X142253368Y-47413475D01*
X142427760Y-47530000D01*
X142253368Y-47646525D01*
X142046525Y-47853368D01*
X141884010Y-48096589D01*
X141772068Y-48366842D01*
X141715000Y-48653740D01*
X141715000Y-48946260D01*
X141772068Y-49233158D01*
X141884010Y-49503411D01*
X142046525Y-49746632D01*
X142253368Y-49953475D01*
X142427760Y-50070000D01*
X142253368Y-50186525D01*
X142046525Y-50393368D01*
X141884010Y-50636589D01*
X141772068Y-50906842D01*
X141715000Y-51193740D01*
X141715000Y-51486260D01*
X141772068Y-51773158D01*
X141884010Y-52043411D01*
X142046525Y-52286632D01*
X142253368Y-52493475D01*
X142427760Y-52610000D01*
X142253368Y-52726525D01*
X142046525Y-52933368D01*
X141884010Y-53176589D01*
X141772068Y-53446842D01*
X141715000Y-53733740D01*
X141715000Y-54026260D01*
X141772068Y-54313158D01*
X141884010Y-54583411D01*
X142046525Y-54826632D01*
X142253368Y-55033475D01*
X142427760Y-55150000D01*
X142253368Y-55266525D01*
X142046525Y-55473368D01*
X141884010Y-55716589D01*
X141772068Y-55986842D01*
X141715000Y-56273740D01*
X141715000Y-56566260D01*
X141772068Y-56853158D01*
X141884010Y-57123411D01*
X142046525Y-57366632D01*
X142253368Y-57573475D01*
X142427760Y-57690000D01*
X142253368Y-57806525D01*
X142046525Y-58013368D01*
X141884010Y-58256589D01*
X141772068Y-58526842D01*
X141715000Y-58813740D01*
X141715000Y-59106260D01*
X141772068Y-59393158D01*
X141884010Y-59663411D01*
X142046525Y-59906632D01*
X142253368Y-60113475D01*
X142427760Y-60230000D01*
X142253368Y-60346525D01*
X142046525Y-60553368D01*
X141884010Y-60796589D01*
X141772068Y-61066842D01*
X141715000Y-61353740D01*
X141715000Y-61646260D01*
X141772068Y-61933158D01*
X141884010Y-62203411D01*
X142046525Y-62446632D01*
X142253368Y-62653475D01*
X142427760Y-62770000D01*
X142253368Y-62886525D01*
X142046525Y-63093368D01*
X141884010Y-63336589D01*
X141772068Y-63606842D01*
X141715000Y-63893740D01*
X141715000Y-64186260D01*
X141772068Y-64473158D01*
X141884010Y-64743411D01*
X142046525Y-64986632D01*
X142253368Y-65193475D01*
X142427760Y-65310000D01*
X142253368Y-65426525D01*
X142046525Y-65633368D01*
X141884010Y-65876589D01*
X141772068Y-66146842D01*
X141715000Y-66433740D01*
X141715000Y-66726260D01*
X141772068Y-67013158D01*
X141884010Y-67283411D01*
X142046525Y-67526632D01*
X142253368Y-67733475D01*
X142426729Y-67849311D01*
X142351208Y-68091603D01*
X143200000Y-68940395D01*
X144048792Y-68091603D01*
X143973271Y-67849311D01*
X144146632Y-67733475D01*
X144353475Y-67526632D01*
X144515990Y-67283411D01*
X144627932Y-67013158D01*
X144685000Y-66726260D01*
X144685000Y-66433740D01*
X144627932Y-66146842D01*
X144515990Y-65876589D01*
X144353475Y-65633368D01*
X144146632Y-65426525D01*
X143972240Y-65310000D01*
X144146632Y-65193475D01*
X144353475Y-64986632D01*
X144515990Y-64743411D01*
X144627932Y-64473158D01*
X144685000Y-64186260D01*
X144685000Y-63893740D01*
X144627932Y-63606842D01*
X144515990Y-63336589D01*
X144353475Y-63093368D01*
X144146632Y-62886525D01*
X143972240Y-62770000D01*
X144146632Y-62653475D01*
X144353475Y-62446632D01*
X144515990Y-62203411D01*
X144627932Y-61933158D01*
X144685000Y-61646260D01*
X144685000Y-61353740D01*
X144627932Y-61066842D01*
X144515990Y-60796589D01*
X144353475Y-60553368D01*
X144146632Y-60346525D01*
X143972240Y-60230000D01*
X144146632Y-60113475D01*
X144353475Y-59906632D01*
X144515990Y-59663411D01*
X144627932Y-59393158D01*
X144685000Y-59106260D01*
X144685000Y-58813740D01*
X144627932Y-58526842D01*
X144515990Y-58256589D01*
X144353475Y-58013368D01*
X144146632Y-57806525D01*
X143972240Y-57690000D01*
X144146632Y-57573475D01*
X144353475Y-57366632D01*
X144515990Y-57123411D01*
X144627932Y-56853158D01*
X144685000Y-56566260D01*
X144685000Y-56273740D01*
X144627932Y-55986842D01*
X144515990Y-55716589D01*
X144353475Y-55473368D01*
X144146632Y-55266525D01*
X143972240Y-55150000D01*
X144146632Y-55033475D01*
X144353475Y-54826632D01*
X144515990Y-54583411D01*
X144627932Y-54313158D01*
X144685000Y-54026260D01*
X144685000Y-53733740D01*
X144627932Y-53446842D01*
X144515990Y-53176589D01*
X144353475Y-52933368D01*
X144146632Y-52726525D01*
X143972240Y-52610000D01*
X144146632Y-52493475D01*
X144353475Y-52286632D01*
X144515990Y-52043411D01*
X144627932Y-51773158D01*
X144685000Y-51486260D01*
X144685000Y-51193740D01*
X144627932Y-50906842D01*
X144515990Y-50636589D01*
X144353475Y-50393368D01*
X144146632Y-50186525D01*
X143972240Y-50070000D01*
X144146632Y-49953475D01*
X144353475Y-49746632D01*
X144515990Y-49503411D01*
X144627932Y-49233158D01*
X144685000Y-48946260D01*
X144685000Y-48653740D01*
X144627932Y-48366842D01*
X144515990Y-48096589D01*
X144353475Y-47853368D01*
X144146632Y-47646525D01*
X143972240Y-47530000D01*
X144146632Y-47413475D01*
X144353475Y-47206632D01*
X144515990Y-46963411D01*
X144627932Y-46693158D01*
X144685000Y-46406260D01*
X144685000Y-46113740D01*
X144627932Y-45826842D01*
X144515990Y-45556589D01*
X144353475Y-45313368D01*
X144146632Y-45106525D01*
X143972240Y-44990000D01*
X144146632Y-44873475D01*
X144353475Y-44666632D01*
X144515990Y-44423411D01*
X144627932Y-44153158D01*
X144685000Y-43866260D01*
X144685000Y-43573740D01*
X144627932Y-43286842D01*
X144515990Y-43016589D01*
X144353475Y-42773368D01*
X144146632Y-42566525D01*
X143972240Y-42450000D01*
X144146632Y-42333475D01*
X144353475Y-42126632D01*
X144515990Y-41883411D01*
X144627932Y-41613158D01*
X144685000Y-41326260D01*
X144685000Y-41033740D01*
X144627932Y-40746842D01*
X144515990Y-40476589D01*
X144353475Y-40233368D01*
X144146632Y-40026525D01*
X143972240Y-39910000D01*
X144146632Y-39793475D01*
X144353475Y-39586632D01*
X144515990Y-39343411D01*
X144627932Y-39073158D01*
X144685000Y-38786260D01*
X144685000Y-38493740D01*
X144627932Y-38206842D01*
X144515990Y-37936589D01*
X144353475Y-37693368D01*
X144146632Y-37486525D01*
X143972240Y-37370000D01*
X144146632Y-37253475D01*
X144353475Y-37046632D01*
X144515990Y-36803411D01*
X144627932Y-36533158D01*
X144685000Y-36246260D01*
X144685000Y-35953740D01*
X144627932Y-35666842D01*
X144515990Y-35396589D01*
X144353475Y-35153368D01*
X144146632Y-34946525D01*
X143972240Y-34830000D01*
X144146632Y-34713475D01*
X144353475Y-34506632D01*
X144515990Y-34263411D01*
X144627932Y-33993158D01*
X144685000Y-33706260D01*
X144685000Y-33413740D01*
X144627932Y-33126842D01*
X144515990Y-32856589D01*
X144353475Y-32613368D01*
X144146632Y-32406525D01*
X143972240Y-32290000D01*
X144146632Y-32173475D01*
X144353475Y-31966632D01*
X144515990Y-31723411D01*
X144627932Y-31453158D01*
X144685000Y-31166260D01*
X144685000Y-30873740D01*
X144627932Y-30586842D01*
X144515990Y-30316589D01*
X144353475Y-30073368D01*
X144146632Y-29866525D01*
X143972240Y-29750000D01*
X144146632Y-29633475D01*
X144353475Y-29426632D01*
X144515990Y-29183411D01*
X144627932Y-28913158D01*
X144685000Y-28626260D01*
X144685000Y-28333740D01*
X156955000Y-28333740D01*
X156955000Y-28626260D01*
X157012068Y-28913158D01*
X157124010Y-29183411D01*
X157286525Y-29426632D01*
X157493368Y-29633475D01*
X157667760Y-29750000D01*
X157493368Y-29866525D01*
X157286525Y-30073368D01*
X157124010Y-30316589D01*
X157012068Y-30586842D01*
X156955000Y-30873740D01*
X156955000Y-31166260D01*
X157012068Y-31453158D01*
X157124010Y-31723411D01*
X157286525Y-31966632D01*
X157493368Y-32173475D01*
X157667760Y-32290000D01*
X157493368Y-32406525D01*
X157286525Y-32613368D01*
X157124010Y-32856589D01*
X157012068Y-33126842D01*
X156955000Y-33413740D01*
X156955000Y-33706260D01*
X157012068Y-33993158D01*
X157124010Y-34263411D01*
X157286525Y-34506632D01*
X157493368Y-34713475D01*
X157667760Y-34830000D01*
X157493368Y-34946525D01*
X157286525Y-35153368D01*
X157124010Y-35396589D01*
X157012068Y-35666842D01*
X156955000Y-35953740D01*
X156955000Y-36246260D01*
X157012068Y-36533158D01*
X157124010Y-36803411D01*
X157286525Y-37046632D01*
X157493368Y-37253475D01*
X157667760Y-37370000D01*
X157493368Y-37486525D01*
X157286525Y-37693368D01*
X157124010Y-37936589D01*
X157012068Y-38206842D01*
X156955000Y-38493740D01*
X156955000Y-38786260D01*
X157012068Y-39073158D01*
X157124010Y-39343411D01*
X157286525Y-39586632D01*
X157493368Y-39793475D01*
X157667760Y-39910000D01*
X157493368Y-40026525D01*
X157286525Y-40233368D01*
X157124010Y-40476589D01*
X157012068Y-40746842D01*
X156955000Y-41033740D01*
X156955000Y-41326260D01*
X157012068Y-41613158D01*
X157124010Y-41883411D01*
X157286525Y-42126632D01*
X157493368Y-42333475D01*
X157667760Y-42450000D01*
X157493368Y-42566525D01*
X157286525Y-42773368D01*
X157124010Y-43016589D01*
X157012068Y-43286842D01*
X156955000Y-43573740D01*
X156955000Y-43866260D01*
X157012068Y-44153158D01*
X157124010Y-44423411D01*
X157286525Y-44666632D01*
X157493368Y-44873475D01*
X157667760Y-44990000D01*
X157493368Y-45106525D01*
X157286525Y-45313368D01*
X157124010Y-45556589D01*
X157012068Y-45826842D01*
X156955000Y-46113740D01*
X156955000Y-46406260D01*
X157012068Y-46693158D01*
X157124010Y-46963411D01*
X157286525Y-47206632D01*
X157493368Y-47413475D01*
X157667760Y-47530000D01*
X157493368Y-47646525D01*
X157286525Y-47853368D01*
X157124010Y-48096589D01*
X157012068Y-48366842D01*
X156955000Y-48653740D01*
X156955000Y-48946260D01*
X157012068Y-49233158D01*
X157124010Y-49503411D01*
X157286525Y-49746632D01*
X157493368Y-49953475D01*
X157667760Y-50070000D01*
X157493368Y-50186525D01*
X157286525Y-50393368D01*
X157124010Y-50636589D01*
X157012068Y-50906842D01*
X156955000Y-51193740D01*
X156955000Y-51486260D01*
X157012068Y-51773158D01*
X157124010Y-52043411D01*
X157286525Y-52286632D01*
X157493368Y-52493475D01*
X157667760Y-52610000D01*
X157493368Y-52726525D01*
X157286525Y-52933368D01*
X157124010Y-53176589D01*
X157012068Y-53446842D01*
X156955000Y-53733740D01*
X156955000Y-54026260D01*
X157012068Y-54313158D01*
X157124010Y-54583411D01*
X157286525Y-54826632D01*
X157493368Y-55033475D01*
X157667760Y-55150000D01*
X157493368Y-55266525D01*
X157286525Y-55473368D01*
X157124010Y-55716589D01*
X157012068Y-55986842D01*
X156955000Y-56273740D01*
X156955000Y-56566260D01*
X157012068Y-56853158D01*
X157124010Y-57123411D01*
X157286525Y-57366632D01*
X157493368Y-57573475D01*
X157667760Y-57690000D01*
X157493368Y-57806525D01*
X157286525Y-58013368D01*
X157124010Y-58256589D01*
X157012068Y-58526842D01*
X156955000Y-58813740D01*
X156955000Y-59106260D01*
X157012068Y-59393158D01*
X157124010Y-59663411D01*
X157286525Y-59906632D01*
X157493368Y-60113475D01*
X157667760Y-60230000D01*
X157493368Y-60346525D01*
X157286525Y-60553368D01*
X157124010Y-60796589D01*
X157012068Y-61066842D01*
X156955000Y-61353740D01*
X156955000Y-61646260D01*
X157012068Y-61933158D01*
X157124010Y-62203411D01*
X157286525Y-62446632D01*
X157493368Y-62653475D01*
X157667760Y-62770000D01*
X157493368Y-62886525D01*
X157286525Y-63093368D01*
X157124010Y-63336589D01*
X157012068Y-63606842D01*
X156955000Y-63893740D01*
X156955000Y-64186260D01*
X157012068Y-64473158D01*
X157124010Y-64743411D01*
X157286525Y-64986632D01*
X157493368Y-65193475D01*
X157667760Y-65310000D01*
X157493368Y-65426525D01*
X157286525Y-65633368D01*
X157124010Y-65876589D01*
X157012068Y-66146842D01*
X156955000Y-66433740D01*
X156955000Y-66726260D01*
X157012068Y-67013158D01*
X157124010Y-67283411D01*
X157286525Y-67526632D01*
X157493368Y-67733475D01*
X157667760Y-67850000D01*
X157493368Y-67966525D01*
X157286525Y-68173368D01*
X157124010Y-68416589D01*
X157012068Y-68686842D01*
X156955000Y-68973740D01*
X156955000Y-69266260D01*
X157012068Y-69553158D01*
X157124010Y-69823411D01*
X157286525Y-70066632D01*
X157493368Y-70273475D01*
X157667760Y-70390000D01*
X157493368Y-70506525D01*
X157286525Y-70713368D01*
X157124010Y-70956589D01*
X157012068Y-71226842D01*
X156955000Y-71513740D01*
X156955000Y-71806260D01*
X157012068Y-72093158D01*
X157124010Y-72363411D01*
X157286525Y-72606632D01*
X157493368Y-72813475D01*
X157736589Y-72975990D01*
X158006842Y-73087932D01*
X158293740Y-73145000D01*
X158586260Y-73145000D01*
X158873158Y-73087932D01*
X159143411Y-72975990D01*
X159386632Y-72813475D01*
X159593475Y-72606632D01*
X159755990Y-72363411D01*
X159867932Y-72093158D01*
X159925000Y-71806260D01*
X159925000Y-71513740D01*
X159867932Y-71226842D01*
X159755990Y-70956589D01*
X159593475Y-70713368D01*
X159386632Y-70506525D01*
X159212240Y-70390000D01*
X159386632Y-70273475D01*
X159593475Y-70066632D01*
X159755990Y-69823411D01*
X159867932Y-69553158D01*
X159925000Y-69266260D01*
X159925000Y-68973740D01*
X159867932Y-68686842D01*
X159755990Y-68416589D01*
X159593475Y-68173368D01*
X159386632Y-67966525D01*
X159212240Y-67850000D01*
X159386632Y-67733475D01*
X159593475Y-67526632D01*
X159755990Y-67283411D01*
X159867932Y-67013158D01*
X159925000Y-66726260D01*
X159925000Y-66433740D01*
X159867932Y-66146842D01*
X159755990Y-65876589D01*
X159593475Y-65633368D01*
X159386632Y-65426525D01*
X159212240Y-65310000D01*
X159386632Y-65193475D01*
X159593475Y-64986632D01*
X159755990Y-64743411D01*
X159867932Y-64473158D01*
X159925000Y-64186260D01*
X159925000Y-63893740D01*
X159867932Y-63606842D01*
X159755990Y-63336589D01*
X159593475Y-63093368D01*
X159386632Y-62886525D01*
X159212240Y-62770000D01*
X159386632Y-62653475D01*
X159593475Y-62446632D01*
X159755990Y-62203411D01*
X159867932Y-61933158D01*
X159925000Y-61646260D01*
X159925000Y-61353740D01*
X159867932Y-61066842D01*
X159844336Y-61009874D01*
X164135881Y-61009874D01*
X164215724Y-61232976D01*
X164337631Y-61420764D01*
X164493831Y-61581161D01*
X164678322Y-61708003D01*
X164884013Y-61796415D01*
X165103000Y-61843000D01*
X165653000Y-61843000D01*
X165653000Y-60835000D01*
X165907000Y-60835000D01*
X165907000Y-61843000D01*
X166457000Y-61843000D01*
X166675987Y-61796415D01*
X166881678Y-61708003D01*
X167066169Y-61581161D01*
X167222369Y-61420764D01*
X167344276Y-61232976D01*
X167424119Y-61009874D01*
X168565881Y-61009874D01*
X168645724Y-61232976D01*
X168767631Y-61420764D01*
X168923831Y-61581161D01*
X169108322Y-61708003D01*
X169314013Y-61796415D01*
X169533000Y-61843000D01*
X169833000Y-61843000D01*
X169833000Y-60835000D01*
X170087000Y-60835000D01*
X170087000Y-61843000D01*
X170387000Y-61843000D01*
X170605987Y-61796415D01*
X170811678Y-61708003D01*
X170996169Y-61581161D01*
X171152369Y-61420764D01*
X171274276Y-61232976D01*
X171354119Y-61009874D01*
X171227954Y-60835000D01*
X170087000Y-60835000D01*
X169833000Y-60835000D01*
X168692046Y-60835000D01*
X168565881Y-61009874D01*
X167424119Y-61009874D01*
X167297954Y-60835000D01*
X165907000Y-60835000D01*
X165653000Y-60835000D01*
X164262046Y-60835000D01*
X164135881Y-61009874D01*
X159844336Y-61009874D01*
X159755990Y-60796589D01*
X159593475Y-60553368D01*
X159446233Y-60406126D01*
X164135881Y-60406126D01*
X164262046Y-60581000D01*
X165653000Y-60581000D01*
X165653000Y-60561000D01*
X165907000Y-60561000D01*
X165907000Y-60581000D01*
X167297954Y-60581000D01*
X167424119Y-60406126D01*
X168565881Y-60406126D01*
X168692046Y-60581000D01*
X169833000Y-60581000D01*
X169833000Y-59573000D01*
X170087000Y-59573000D01*
X170087000Y-60581000D01*
X171227954Y-60581000D01*
X171354119Y-60406126D01*
X171274276Y-60183024D01*
X171152369Y-59995236D01*
X170996169Y-59834839D01*
X170811678Y-59707997D01*
X170605987Y-59619585D01*
X170387000Y-59573000D01*
X170087000Y-59573000D01*
X169833000Y-59573000D01*
X169533000Y-59573000D01*
X169314013Y-59619585D01*
X169108322Y-59707997D01*
X168923831Y-59834839D01*
X168767631Y-59995236D01*
X168645724Y-60183024D01*
X168565881Y-60406126D01*
X167424119Y-60406126D01*
X167344276Y-60183024D01*
X167222369Y-59995236D01*
X167081794Y-59850884D01*
X167160741Y-59732731D01*
X167233108Y-59558022D01*
X167270000Y-59372552D01*
X167270000Y-59183448D01*
X167233108Y-58997978D01*
X167160741Y-58823269D01*
X167055681Y-58666036D01*
X166921964Y-58532319D01*
X166764731Y-58427259D01*
X166590022Y-58354892D01*
X166404552Y-58318000D01*
X166215448Y-58318000D01*
X166029978Y-58354892D01*
X165855269Y-58427259D01*
X165698036Y-58532319D01*
X165564319Y-58666036D01*
X165459259Y-58823269D01*
X165386892Y-58997978D01*
X165350000Y-59183448D01*
X165350000Y-59372552D01*
X165386892Y-59558022D01*
X165393096Y-59573000D01*
X165103000Y-59573000D01*
X164884013Y-59619585D01*
X164678322Y-59707997D01*
X164493831Y-59834839D01*
X164337631Y-59995236D01*
X164215724Y-60183024D01*
X164135881Y-60406126D01*
X159446233Y-60406126D01*
X159386632Y-60346525D01*
X159212240Y-60230000D01*
X159386632Y-60113475D01*
X159593475Y-59906632D01*
X159755990Y-59663411D01*
X159867932Y-59393158D01*
X159925000Y-59106260D01*
X159925000Y-58813740D01*
X159867932Y-58526842D01*
X159755990Y-58256589D01*
X159593475Y-58013368D01*
X159386632Y-57806525D01*
X159212240Y-57690000D01*
X159386632Y-57573475D01*
X159593475Y-57366632D01*
X159755990Y-57123411D01*
X159867932Y-56853158D01*
X159925000Y-56566260D01*
X159925000Y-56273740D01*
X159867932Y-55986842D01*
X159755990Y-55716589D01*
X159593475Y-55473368D01*
X159386632Y-55266525D01*
X159212240Y-55150000D01*
X159386632Y-55033475D01*
X159593475Y-54826632D01*
X159755990Y-54583411D01*
X159867932Y-54313158D01*
X159925000Y-54026260D01*
X159925000Y-53733740D01*
X159867932Y-53446842D01*
X159755990Y-53176589D01*
X159593475Y-52933368D01*
X159386632Y-52726525D01*
X159212240Y-52610000D01*
X159386632Y-52493475D01*
X159510233Y-52369874D01*
X164135881Y-52369874D01*
X164215724Y-52592976D01*
X164337631Y-52780764D01*
X164493831Y-52941161D01*
X164678322Y-53068003D01*
X164884013Y-53156415D01*
X165103000Y-53203000D01*
X165393096Y-53203000D01*
X165386892Y-53217978D01*
X165350000Y-53403448D01*
X165350000Y-53592552D01*
X165386892Y-53778022D01*
X165459259Y-53952731D01*
X165564319Y-54109964D01*
X165698036Y-54243681D01*
X165855269Y-54348741D01*
X166029978Y-54421108D01*
X166215448Y-54458000D01*
X166404552Y-54458000D01*
X166590022Y-54421108D01*
X166764731Y-54348741D01*
X166921964Y-54243681D01*
X167055681Y-54109964D01*
X167160741Y-53952731D01*
X167233108Y-53778022D01*
X167270000Y-53592552D01*
X167270000Y-53403448D01*
X167233108Y-53217978D01*
X167160741Y-53043269D01*
X167081794Y-52925116D01*
X167222369Y-52780764D01*
X167344276Y-52592976D01*
X167424119Y-52369874D01*
X168565881Y-52369874D01*
X168645724Y-52592976D01*
X168767631Y-52780764D01*
X168923831Y-52941161D01*
X169108322Y-53068003D01*
X169314013Y-53156415D01*
X169533000Y-53203000D01*
X169833000Y-53203000D01*
X169833000Y-52195000D01*
X170087000Y-52195000D01*
X170087000Y-53203000D01*
X170387000Y-53203000D01*
X170605987Y-53156415D01*
X170811678Y-53068003D01*
X170996169Y-52941161D01*
X171152369Y-52780764D01*
X171274276Y-52592976D01*
X171354119Y-52369874D01*
X171227954Y-52195000D01*
X170087000Y-52195000D01*
X169833000Y-52195000D01*
X168692046Y-52195000D01*
X168565881Y-52369874D01*
X167424119Y-52369874D01*
X167297954Y-52195000D01*
X165907000Y-52195000D01*
X165907000Y-52215000D01*
X165653000Y-52215000D01*
X165653000Y-52195000D01*
X164262046Y-52195000D01*
X164135881Y-52369874D01*
X159510233Y-52369874D01*
X159593475Y-52286632D01*
X159755990Y-52043411D01*
X159867932Y-51773158D01*
X159869330Y-51766126D01*
X164135881Y-51766126D01*
X164262046Y-51941000D01*
X165653000Y-51941000D01*
X165653000Y-50933000D01*
X165907000Y-50933000D01*
X165907000Y-51941000D01*
X167297954Y-51941000D01*
X167424119Y-51766126D01*
X168565881Y-51766126D01*
X168692046Y-51941000D01*
X169833000Y-51941000D01*
X169833000Y-50933000D01*
X170087000Y-50933000D01*
X170087000Y-51941000D01*
X171227954Y-51941000D01*
X171354119Y-51766126D01*
X171274276Y-51543024D01*
X171152369Y-51355236D01*
X170996169Y-51194839D01*
X170811678Y-51067997D01*
X170605987Y-50979585D01*
X170387000Y-50933000D01*
X170087000Y-50933000D01*
X169833000Y-50933000D01*
X169533000Y-50933000D01*
X169314013Y-50979585D01*
X169108322Y-51067997D01*
X168923831Y-51194839D01*
X168767631Y-51355236D01*
X168645724Y-51543024D01*
X168565881Y-51766126D01*
X167424119Y-51766126D01*
X167344276Y-51543024D01*
X167222369Y-51355236D01*
X167066169Y-51194839D01*
X166881678Y-51067997D01*
X166675987Y-50979585D01*
X166457000Y-50933000D01*
X165907000Y-50933000D01*
X165653000Y-50933000D01*
X165103000Y-50933000D01*
X164884013Y-50979585D01*
X164678322Y-51067997D01*
X164493831Y-51194839D01*
X164337631Y-51355236D01*
X164215724Y-51543024D01*
X164135881Y-51766126D01*
X159869330Y-51766126D01*
X159925000Y-51486260D01*
X159925000Y-51193740D01*
X159867932Y-50906842D01*
X159755990Y-50636589D01*
X159593475Y-50393368D01*
X159386632Y-50186525D01*
X159212240Y-50070000D01*
X159386632Y-49953475D01*
X159593475Y-49746632D01*
X159755990Y-49503411D01*
X159867932Y-49233158D01*
X159925000Y-48946260D01*
X159925000Y-48653740D01*
X159867932Y-48366842D01*
X159755990Y-48096589D01*
X159593475Y-47853368D01*
X159386632Y-47646525D01*
X159212240Y-47530000D01*
X159386632Y-47413475D01*
X159593475Y-47206632D01*
X159755990Y-46963411D01*
X159867932Y-46693158D01*
X159925000Y-46406260D01*
X159925000Y-46113740D01*
X159867932Y-45826842D01*
X159755990Y-45556589D01*
X159593475Y-45313368D01*
X159386632Y-45106525D01*
X159212240Y-44990000D01*
X159386632Y-44873475D01*
X159593475Y-44666632D01*
X159755990Y-44423411D01*
X159867932Y-44153158D01*
X159925000Y-43866260D01*
X159925000Y-43573740D01*
X159867932Y-43286842D01*
X159755990Y-43016589D01*
X159593475Y-42773368D01*
X159386632Y-42566525D01*
X159212240Y-42450000D01*
X159386632Y-42333475D01*
X159593475Y-42126632D01*
X159755990Y-41883411D01*
X159867932Y-41613158D01*
X159925000Y-41326260D01*
X159925000Y-41033740D01*
X159867932Y-40746842D01*
X159755990Y-40476589D01*
X159593475Y-40233368D01*
X159386632Y-40026525D01*
X159212240Y-39910000D01*
X159386632Y-39793475D01*
X159593475Y-39586632D01*
X159755990Y-39343411D01*
X159867932Y-39073158D01*
X159925000Y-38786260D01*
X159925000Y-38493740D01*
X159867932Y-38206842D01*
X159755990Y-37936589D01*
X159593475Y-37693368D01*
X159386632Y-37486525D01*
X159212240Y-37370000D01*
X159386632Y-37253475D01*
X159593475Y-37046632D01*
X159755990Y-36803411D01*
X159867932Y-36533158D01*
X159925000Y-36246260D01*
X159925000Y-35953740D01*
X159867932Y-35666842D01*
X159755990Y-35396589D01*
X159593475Y-35153368D01*
X159386632Y-34946525D01*
X159212240Y-34830000D01*
X159386632Y-34713475D01*
X159593475Y-34506632D01*
X159755990Y-34263411D01*
X159867932Y-33993158D01*
X159925000Y-33706260D01*
X159925000Y-33413740D01*
X159867932Y-33126842D01*
X159755990Y-32856589D01*
X159593475Y-32613368D01*
X159386632Y-32406525D01*
X159212240Y-32290000D01*
X159386632Y-32173475D01*
X159593475Y-31966632D01*
X159755990Y-31723411D01*
X159867932Y-31453158D01*
X159925000Y-31166260D01*
X159925000Y-30873740D01*
X159867932Y-30586842D01*
X159755990Y-30316589D01*
X159593475Y-30073368D01*
X159386632Y-29866525D01*
X159212240Y-29750000D01*
X159386632Y-29633475D01*
X159593475Y-29426632D01*
X159755990Y-29183411D01*
X159867932Y-28913158D01*
X159925000Y-28626260D01*
X159925000Y-28333740D01*
X159867932Y-28046842D01*
X159755990Y-27776589D01*
X159593475Y-27533368D01*
X159386632Y-27326525D01*
X159213271Y-27210689D01*
X159288792Y-26968397D01*
X158440000Y-26119605D01*
X157591208Y-26968397D01*
X157666729Y-27210689D01*
X157493368Y-27326525D01*
X157286525Y-27533368D01*
X157124010Y-27776589D01*
X157012068Y-28046842D01*
X156955000Y-28333740D01*
X144685000Y-28333740D01*
X144627932Y-28046842D01*
X144515990Y-27776589D01*
X144353475Y-27533368D01*
X144146632Y-27326525D01*
X143972240Y-27210000D01*
X144146632Y-27093475D01*
X144353475Y-26886632D01*
X144515990Y-26643411D01*
X144627932Y-26373158D01*
X144685000Y-26086260D01*
X144685000Y-26008531D01*
X156949389Y-26008531D01*
X156991401Y-26298019D01*
X157089081Y-26573747D01*
X157162528Y-26711157D01*
X157411603Y-26788792D01*
X158260395Y-25940000D01*
X158619605Y-25940000D01*
X159468397Y-26788792D01*
X159717472Y-26711157D01*
X159843371Y-26447117D01*
X159915339Y-26163589D01*
X159930611Y-25871469D01*
X159888599Y-25581981D01*
X159790919Y-25306253D01*
X159717472Y-25168843D01*
X159468397Y-25091208D01*
X158619605Y-25940000D01*
X158260395Y-25940000D01*
X157411603Y-25091208D01*
X157162528Y-25168843D01*
X157036629Y-25432883D01*
X156964661Y-25716411D01*
X156949389Y-26008531D01*
X144685000Y-26008531D01*
X144685000Y-25793740D01*
X144627932Y-25506842D01*
X144515990Y-25236589D01*
X144353475Y-24993368D01*
X144221620Y-24861513D01*
X144294180Y-24839502D01*
X144404494Y-24780537D01*
X144501185Y-24701185D01*
X144580537Y-24604494D01*
X144639502Y-24494180D01*
X144675812Y-24374482D01*
X144688072Y-24250000D01*
X144688072Y-23253740D01*
X156955000Y-23253740D01*
X156955000Y-23546260D01*
X157012068Y-23833158D01*
X157124010Y-24103411D01*
X157286525Y-24346632D01*
X157493368Y-24553475D01*
X157666729Y-24669311D01*
X157591208Y-24911603D01*
X158440000Y-25760395D01*
X159288792Y-24911603D01*
X159213271Y-24669311D01*
X159386632Y-24553475D01*
X159593475Y-24346632D01*
X159755990Y-24103411D01*
X159867932Y-23833158D01*
X159925000Y-23546260D01*
X159925000Y-23253740D01*
X159867932Y-22966842D01*
X159755990Y-22696589D01*
X159593475Y-22453368D01*
X159386632Y-22246525D01*
X159143411Y-22084010D01*
X158873158Y-21972068D01*
X158586260Y-21915000D01*
X158293740Y-21915000D01*
X158006842Y-21972068D01*
X157736589Y-22084010D01*
X157493368Y-22246525D01*
X157286525Y-22453368D01*
X157124010Y-22696589D01*
X157012068Y-22966842D01*
X156955000Y-23253740D01*
X144688072Y-23253740D01*
X144688072Y-22550000D01*
X144675812Y-22425518D01*
X144639502Y-22305820D01*
X144580537Y-22195506D01*
X144501185Y-22098815D01*
X144404494Y-22019463D01*
X144294180Y-21960498D01*
X144174482Y-21924188D01*
X144050000Y-21911928D01*
X142350000Y-21911928D01*
X142225518Y-21924188D01*
X142105820Y-21960498D01*
X141995506Y-22019463D01*
X141898815Y-22098815D01*
X141819463Y-22195506D01*
X141760498Y-22305820D01*
X141724188Y-22425518D01*
X141711928Y-22550000D01*
X139090000Y-22550000D01*
X139090000Y-21114281D01*
X139099885Y-21013467D01*
X139119789Y-20947543D01*
X139152115Y-20886745D01*
X139195639Y-20833381D01*
X139248696Y-20789488D01*
X139309271Y-20756734D01*
X139375053Y-20736372D01*
X139473730Y-20726000D01*
X162146719Y-20726000D01*
X162247533Y-20735885D01*
G37*
%TD.AperFunction*%
%TD*%
M02*
