M48
; DRILL file {KiCad (5.1.10-1-10_14)} date Tuesday, July 13, 2021 at 06:28:43 AM
; FORMAT={-:-/ absolute / inch / decimal}
; #@! TF.CreationDate,2021-07-13T06:28:43-07:00
; #@! TF.GenerationSoftware,Kicad,Pcbnew,(5.1.10-1-10_14)
FMAT,2
INCH
T1C0.0236
T2C0.0394
T3C0.0256
%
G90
G05
T2
X5.6378Y-0.9213
X5.6378Y-1.0213
X5.6378Y-1.1213
X5.6378Y-1.2213
X5.6378Y-1.3213
X5.6378Y-1.4213
X5.6378Y-1.5213
X5.6378Y-1.6213
X5.6378Y-1.7213
X5.6378Y-1.8213
X5.6378Y-1.9213
X5.6378Y-2.0213
X5.6378Y-2.1213
X5.6378Y-2.2213
X5.6378Y-2.3213
X5.6378Y-2.4213
X5.6378Y-2.5213
X5.6378Y-2.6213
X5.6378Y-2.7213
X5.6378Y-2.8213
X6.2378Y-0.9213
X6.2378Y-1.0213
X6.2378Y-1.1213
X6.2378Y-1.2213
X6.2378Y-1.3213
X6.2378Y-1.4213
X6.2378Y-1.5213
X6.2378Y-1.6213
X6.2378Y-1.7213
X6.2378Y-1.8213
X6.2378Y-1.9213
X6.2378Y-2.0213
X6.2378Y-2.1213
X6.2378Y-2.2213
X6.2378Y-2.3213
X6.2378Y-2.4213
X6.2378Y-2.5213
X6.2378Y-2.6213
X6.2378Y-2.7213
X6.2378Y-2.8213
T3
X5.3324Y-2.1062
X5.3324Y-2.3338
X6.5476Y-2.1062
X6.5476Y-2.3338
T1
G00X5.2005Y-2.0499
M15
G01X5.1769Y-2.0499
M16
G05
G00X5.2005Y-2.3901
M15
G01X5.1769Y-2.3901
M16
G05
G00X5.3749Y-2.0499
M15
G01X5.3316Y-2.0499
M16
G05
G00X5.3749Y-2.3901
M15
G01X5.3316Y-2.3901
M16
G05
G00X6.5051Y-2.0499
M15
G01X6.5484Y-2.0499
M16
G05
G00X6.5051Y-2.3901
M15
G01X6.5484Y-2.3901
M16
G05
G00X6.6795Y-2.0499
M15
G01X6.7031Y-2.0499
M16
G05
G00X6.6795Y-2.3901
M15
G01X6.7031Y-2.3901
M16
G05
T0
M30
