G04 #@! TF.GenerationSoftware,KiCad,Pcbnew,(5.1.10-1-10_14)*
G04 #@! TF.CreationDate,2021-07-14T14:00:36-07:00*
G04 #@! TF.ProjectId,Synapse,53796e61-7073-4652-9e6b-696361645f70,rev?*
G04 #@! TF.SameCoordinates,Original*
G04 #@! TF.FileFunction,Copper,L1,Top*
G04 #@! TF.FilePolarity,Positive*
%FSLAX46Y46*%
G04 Gerber Fmt 4.6, Leading zero omitted, Abs format (unit mm)*
G04 Created by KiCad (PCBNEW (5.1.10-1-10_14)) date 2021-07-14 14:00:36*
%MOMM*%
%LPD*%
G01*
G04 APERTURE LIST*
G04 #@! TA.AperFunction,ComponentPad*
%ADD10C,1.700000*%
G04 #@! TD*
G04 #@! TA.AperFunction,SMDPad,CuDef*
%ADD11R,1.450000X0.600000*%
G04 #@! TD*
G04 #@! TA.AperFunction,SMDPad,CuDef*
%ADD12R,1.450000X0.300000*%
G04 #@! TD*
G04 #@! TA.AperFunction,ComponentPad*
%ADD13O,2.100000X1.000000*%
G04 #@! TD*
G04 #@! TA.AperFunction,ComponentPad*
%ADD14O,1.600000X1.000000*%
G04 #@! TD*
G04 #@! TA.AperFunction,ViaPad*
%ADD15C,0.600000*%
G04 #@! TD*
G04 #@! TA.AperFunction,Conductor*
%ADD16C,0.600000*%
G04 #@! TD*
G04 #@! TA.AperFunction,Conductor*
%ADD17C,0.300000*%
G04 #@! TD*
G04 #@! TA.AperFunction,Conductor*
%ADD18C,0.400000*%
G04 #@! TD*
G04 #@! TA.AperFunction,Conductor*
%ADD19C,0.254000*%
G04 #@! TD*
G04 #@! TA.AperFunction,Conductor*
%ADD20C,0.100000*%
G04 #@! TD*
G04 APERTURE END LIST*
D10*
X165240000Y-65478600D03*
X150000000Y-65478600D03*
X165240000Y-68018600D03*
X150000000Y-68018600D03*
X165240000Y-70558600D03*
X150000000Y-70558600D03*
X165240000Y-73098600D03*
X150000000Y-73098600D03*
X165240000Y-75638600D03*
X150000000Y-75638600D03*
X165240000Y-78178600D03*
X150000000Y-78178600D03*
X165240000Y-80718600D03*
X150000000Y-80718600D03*
X165240000Y-83258600D03*
X150000000Y-83258600D03*
G04 #@! TA.AperFunction,SMDPad,CuDef*
G36*
G01*
X143342199Y-75068000D02*
X144592201Y-75068000D01*
G75*
G02*
X144842200Y-75317999I0J-249999D01*
G01*
X144842200Y-75943001D01*
G75*
G02*
X144592201Y-76193000I-249999J0D01*
G01*
X143342199Y-76193000D01*
G75*
G02*
X143092200Y-75943001I0J249999D01*
G01*
X143092200Y-75317999D01*
G75*
G02*
X143342199Y-75068000I249999J0D01*
G01*
G37*
G04 #@! TD.AperFunction*
G04 #@! TA.AperFunction,SMDPad,CuDef*
G36*
G01*
X143342199Y-72143000D02*
X144592201Y-72143000D01*
G75*
G02*
X144842200Y-72392999I0J-249999D01*
G01*
X144842200Y-73018001D01*
G75*
G02*
X144592201Y-73268000I-249999J0D01*
G01*
X143342199Y-73268000D01*
G75*
G02*
X143092200Y-73018001I0J249999D01*
G01*
X143092200Y-72392999D01*
G75*
G02*
X143342199Y-72143000I249999J0D01*
G01*
G37*
G04 #@! TD.AperFunction*
G04 #@! TA.AperFunction,SMDPad,CuDef*
G36*
G01*
X170723399Y-75017200D02*
X171973401Y-75017200D01*
G75*
G02*
X172223400Y-75267199I0J-249999D01*
G01*
X172223400Y-75892201D01*
G75*
G02*
X171973401Y-76142200I-249999J0D01*
G01*
X170723399Y-76142200D01*
G75*
G02*
X170473400Y-75892201I0J249999D01*
G01*
X170473400Y-75267199D01*
G75*
G02*
X170723399Y-75017200I249999J0D01*
G01*
G37*
G04 #@! TD.AperFunction*
G04 #@! TA.AperFunction,SMDPad,CuDef*
G36*
G01*
X170723399Y-72092200D02*
X171973401Y-72092200D01*
G75*
G02*
X172223400Y-72342199I0J-249999D01*
G01*
X172223400Y-72967201D01*
G75*
G02*
X171973401Y-73217200I-249999J0D01*
G01*
X170723399Y-73217200D01*
G75*
G02*
X170473400Y-72967201I0J249999D01*
G01*
X170473400Y-72342199D01*
G75*
G02*
X170723399Y-72092200I249999J0D01*
G01*
G37*
G04 #@! TD.AperFunction*
G04 #@! TA.AperFunction,SMDPad,CuDef*
G36*
G01*
X139126800Y-74386601D02*
X139126800Y-73136599D01*
G75*
G02*
X139376799Y-72886600I249999J0D01*
G01*
X140001801Y-72886600D01*
G75*
G02*
X140251800Y-73136599I0J-249999D01*
G01*
X140251800Y-74386601D01*
G75*
G02*
X140001801Y-74636600I-249999J0D01*
G01*
X139376799Y-74636600D01*
G75*
G02*
X139126800Y-74386601I0J249999D01*
G01*
G37*
G04 #@! TD.AperFunction*
G04 #@! TA.AperFunction,SMDPad,CuDef*
G36*
G01*
X136201800Y-74386601D02*
X136201800Y-73136599D01*
G75*
G02*
X136451799Y-72886600I249999J0D01*
G01*
X137076801Y-72886600D01*
G75*
G02*
X137326800Y-73136599I0J-249999D01*
G01*
X137326800Y-74386601D01*
G75*
G02*
X137076801Y-74636600I-249999J0D01*
G01*
X136451799Y-74636600D01*
G75*
G02*
X136201800Y-74386601I0J249999D01*
G01*
G37*
G04 #@! TD.AperFunction*
G04 #@! TA.AperFunction,SMDPad,CuDef*
G36*
G01*
X176087200Y-73136599D02*
X176087200Y-74386601D01*
G75*
G02*
X175837201Y-74636600I-249999J0D01*
G01*
X175212199Y-74636600D01*
G75*
G02*
X174962200Y-74386601I0J249999D01*
G01*
X174962200Y-73136599D01*
G75*
G02*
X175212199Y-72886600I249999J0D01*
G01*
X175837201Y-72886600D01*
G75*
G02*
X176087200Y-73136599I0J-249999D01*
G01*
G37*
G04 #@! TD.AperFunction*
G04 #@! TA.AperFunction,SMDPad,CuDef*
G36*
G01*
X179012200Y-73136599D02*
X179012200Y-74386601D01*
G75*
G02*
X178762201Y-74636600I-249999J0D01*
G01*
X178137199Y-74636600D01*
G75*
G02*
X177887200Y-74386601I0J249999D01*
G01*
X177887200Y-73136599D01*
G75*
G02*
X178137199Y-72886600I249999J0D01*
G01*
X178762201Y-72886600D01*
G75*
G02*
X179012200Y-73136599I0J-249999D01*
G01*
G37*
G04 #@! TD.AperFunction*
D11*
X139274600Y-83971200D03*
X139274600Y-83171200D03*
X139274600Y-78271200D03*
X139274600Y-77471200D03*
X139274600Y-77471200D03*
X139274600Y-78271200D03*
X139274600Y-83171200D03*
X139274600Y-83971200D03*
D12*
X139274600Y-78971200D03*
X139274600Y-79471200D03*
X139274600Y-79971200D03*
X139274600Y-80971200D03*
X139274600Y-81471200D03*
X139274600Y-81971200D03*
X139274600Y-82471200D03*
X139274600Y-80471200D03*
D13*
X138359600Y-85041200D03*
X138359600Y-76401200D03*
D14*
X134179600Y-76401200D03*
X134179600Y-85041200D03*
D11*
X175939400Y-77420400D03*
X175939400Y-78220400D03*
X175939400Y-83120400D03*
X175939400Y-83920400D03*
X175939400Y-83920400D03*
X175939400Y-83120400D03*
X175939400Y-78220400D03*
X175939400Y-77420400D03*
D12*
X175939400Y-82420400D03*
X175939400Y-81920400D03*
X175939400Y-81420400D03*
X175939400Y-80420400D03*
X175939400Y-79920400D03*
X175939400Y-79420400D03*
X175939400Y-78920400D03*
X175939400Y-80920400D03*
D13*
X176854400Y-76350400D03*
X176854400Y-84990400D03*
D14*
X181034400Y-84990400D03*
X181034400Y-76350400D03*
D15*
X142494000Y-80010000D03*
X145034000Y-80010000D03*
D16*
X175939400Y-78220400D02*
X174509600Y-78220400D01*
X175939400Y-83120400D02*
X174435600Y-83120400D01*
X139274600Y-83171200D02*
X141083200Y-83171200D01*
X139274600Y-78271200D02*
X140930800Y-78271200D01*
D17*
X140276601Y-81342801D02*
X140148202Y-81471200D01*
X140148202Y-81471200D02*
X139274600Y-81471200D01*
X140148202Y-80471200D02*
X140276601Y-80599599D01*
X139274600Y-80471200D02*
X140148202Y-80471200D01*
X176941401Y-80792001D02*
X176813002Y-80920400D01*
X176941401Y-80048799D02*
X176941401Y-80792001D01*
X176813002Y-79920400D02*
X176941401Y-80048799D01*
X176813002Y-80920400D02*
X175939400Y-80920400D01*
X175939400Y-79920400D02*
X176813002Y-79920400D01*
X175939400Y-79920400D02*
X173900400Y-79920400D01*
X140276601Y-80599599D02*
X140276601Y-81145401D01*
X140276601Y-81145401D02*
X141206199Y-81145401D01*
X140276601Y-81145401D02*
X140276601Y-81342801D01*
D18*
X141206199Y-81145401D02*
X142882599Y-81145401D01*
X142882599Y-81145401D02*
X144080019Y-79947981D01*
X144080019Y-79947981D02*
X144080019Y-75754019D01*
X143967200Y-75630500D02*
X143967200Y-74850838D01*
X165763962Y-71882000D02*
X153063962Y-71882000D01*
X167817951Y-73935989D02*
X165763962Y-71882000D01*
X171458209Y-73935989D02*
X167817951Y-73935989D01*
X172550410Y-75028190D02*
X171458209Y-73935989D01*
X172550410Y-78570410D02*
X172550410Y-75028190D01*
X173900400Y-79920400D02*
X172550410Y-78570410D01*
X143967200Y-74850838D02*
X149922019Y-68896019D01*
X150077981Y-68896019D02*
X149922019Y-68896019D01*
X153063962Y-71882000D02*
X150077981Y-68896019D01*
X149922019Y-68896019D02*
X150114000Y-68704038D01*
D17*
X138400998Y-80971200D02*
X139274600Y-80971200D01*
X138272599Y-80842801D02*
X138400998Y-80971200D01*
X174937399Y-80548799D02*
X174937399Y-80789801D01*
X138400998Y-79971200D02*
X138272599Y-80099599D01*
X138272599Y-80099599D02*
X138272599Y-80842801D01*
X174937399Y-80789801D02*
X174937399Y-81292001D01*
X174937399Y-80789801D02*
X173972199Y-80789801D01*
X175939400Y-80420400D02*
X175065798Y-80420400D01*
X175065798Y-80420400D02*
X174937399Y-80548799D01*
X174937399Y-81292001D02*
X175065798Y-81420400D01*
X175065798Y-81420400D02*
X175939400Y-81420400D01*
X139274600Y-79971200D02*
X138400998Y-79971200D01*
X139274600Y-79971200D02*
X141212000Y-79971200D01*
D18*
X142455200Y-79971200D02*
X142494000Y-80010000D01*
X141212000Y-79971200D02*
X142455200Y-79971200D01*
X148822999Y-76221001D02*
X145034000Y-80010000D01*
X148822999Y-71737001D02*
X148822999Y-76221001D01*
X171348400Y-78166002D02*
X173972199Y-80789801D01*
X171348400Y-75579700D02*
X171348400Y-78166002D01*
X149269000Y-71291000D02*
X148822999Y-71737001D01*
X150000000Y-70560000D02*
X149269000Y-71291000D01*
X167412259Y-74275601D02*
X153717001Y-74275601D01*
X153717001Y-74275601D02*
X150000000Y-70558600D01*
X168716358Y-75579700D02*
X167412259Y-74275601D01*
X171348400Y-75579700D02*
X168716358Y-75579700D01*
D16*
X175939400Y-77265400D02*
X176854400Y-76350400D01*
X175939400Y-77420400D02*
X175939400Y-77265400D01*
X139274600Y-84126200D02*
X138359600Y-85041200D01*
X139274600Y-83971200D02*
X139274600Y-84126200D01*
X139274600Y-77316200D02*
X138359600Y-76401200D01*
X139274600Y-77471200D02*
X139274600Y-77316200D01*
X175939400Y-84075400D02*
X176854400Y-84990400D01*
X175939400Y-83920400D02*
X175939400Y-84075400D01*
X139689300Y-75071500D02*
X138359600Y-76401200D01*
X139689300Y-73761600D02*
X139689300Y-75071500D01*
X175524700Y-75020700D02*
X176854400Y-76350400D01*
X175524700Y-73761600D02*
X175524700Y-75020700D01*
D17*
X138400998Y-82471200D02*
X139274600Y-82471200D01*
X137845589Y-81915791D02*
X138400998Y-82471200D01*
X138297115Y-79471200D02*
X137845589Y-79922726D01*
X139274600Y-79471200D02*
X138297115Y-79471200D01*
D18*
X136764300Y-80071500D02*
X137845589Y-81152789D01*
X136764300Y-73761600D02*
X136764300Y-80071500D01*
D17*
X137845589Y-81152789D02*
X137845589Y-81915791D01*
X137845589Y-79922726D02*
X137845589Y-81152789D01*
X177368411Y-79324411D02*
X177368411Y-81364991D01*
X176964400Y-78920400D02*
X177368411Y-79324411D01*
X176813002Y-81920400D02*
X175939400Y-81920400D01*
X177368411Y-81364991D02*
X176813002Y-81920400D01*
X175939400Y-78920400D02*
X176964400Y-78920400D01*
D18*
X178449700Y-79054700D02*
X177418411Y-80085989D01*
X178449700Y-73761600D02*
X178449700Y-79054700D01*
D19*
X148684010Y-64775189D02*
X148572068Y-65045442D01*
X148515000Y-65332340D01*
X148515000Y-65624860D01*
X148572068Y-65911758D01*
X148684010Y-66182011D01*
X148846525Y-66425232D01*
X149053368Y-66632075D01*
X149227760Y-66748600D01*
X149053368Y-66865125D01*
X148846525Y-67071968D01*
X148684010Y-67315189D01*
X148572068Y-67585442D01*
X148515000Y-67872340D01*
X148515000Y-68164860D01*
X148572068Y-68451758D01*
X148684010Y-68722011D01*
X148776595Y-68860574D01*
X145480116Y-72157054D01*
X145480272Y-72143000D01*
X145468012Y-72018518D01*
X145431702Y-71898820D01*
X145372737Y-71788506D01*
X145293385Y-71691815D01*
X145196694Y-71612463D01*
X145086380Y-71553498D01*
X144966682Y-71517188D01*
X144842200Y-71504928D01*
X144252950Y-71508000D01*
X144094200Y-71666750D01*
X144094200Y-72578500D01*
X144114200Y-72578500D01*
X144114200Y-72832500D01*
X144094200Y-72832500D01*
X144094200Y-72852500D01*
X143840200Y-72852500D01*
X143840200Y-72832500D01*
X142615950Y-72832500D01*
X142457200Y-72991250D01*
X142454128Y-73268000D01*
X142466388Y-73392482D01*
X142502698Y-73512180D01*
X142561663Y-73622494D01*
X142641015Y-73719185D01*
X142737706Y-73798537D01*
X142848020Y-73857502D01*
X142967718Y-73893812D01*
X143092200Y-73906072D01*
X143681450Y-73903000D01*
X143840198Y-73744252D01*
X143840198Y-73796973D01*
X143405774Y-74231397D01*
X143373910Y-74257547D01*
X143347762Y-74289409D01*
X143269564Y-74384693D01*
X143240005Y-74439993D01*
X143168945Y-74446992D01*
X143002349Y-74497528D01*
X142848813Y-74579595D01*
X142714238Y-74690038D01*
X142603795Y-74824613D01*
X142521728Y-74978149D01*
X142471192Y-75144745D01*
X142454128Y-75317999D01*
X142454128Y-75943001D01*
X142471192Y-76116255D01*
X142521728Y-76282851D01*
X142603795Y-76436387D01*
X142714238Y-76570962D01*
X142848813Y-76681405D01*
X143002349Y-76763472D01*
X143168945Y-76814008D01*
X143245020Y-76821501D01*
X143245019Y-79451024D01*
X143220262Y-79413972D01*
X143090028Y-79283738D01*
X142936889Y-79181414D01*
X142766729Y-79110932D01*
X142586089Y-79075000D01*
X142401911Y-79075000D01*
X142221271Y-79110932D01*
X142160268Y-79136200D01*
X141170981Y-79136200D01*
X141048311Y-79148282D01*
X140923312Y-79186200D01*
X140631270Y-79186200D01*
X140637672Y-79121200D01*
X140637672Y-78821200D01*
X140625412Y-78696718D01*
X140625255Y-78696200D01*
X140625412Y-78695682D01*
X140637672Y-78571200D01*
X140634600Y-78556950D01*
X140475850Y-78398200D01*
X140473916Y-78398200D01*
X140450785Y-78370015D01*
X140360841Y-78296200D01*
X140450785Y-78222385D01*
X140530137Y-78125694D01*
X140571225Y-78048825D01*
X140634600Y-77985450D01*
X140637672Y-77971200D01*
X140627823Y-77871200D01*
X140637672Y-77771200D01*
X140637672Y-77171200D01*
X140625412Y-77046718D01*
X140589102Y-76927020D01*
X140530137Y-76816706D01*
X140450785Y-76720015D01*
X140354094Y-76640663D01*
X140243780Y-76581698D01*
X140124082Y-76545388D01*
X140036737Y-76536786D01*
X140050091Y-76401200D01*
X140028177Y-76178701D01*
X139999366Y-76083723D01*
X140317959Y-75765130D01*
X140353644Y-75735844D01*
X140470486Y-75593472D01*
X140557307Y-75431040D01*
X140582641Y-75347524D01*
X140610772Y-75254792D01*
X140628824Y-75071500D01*
X140624300Y-75025565D01*
X140624300Y-75019045D01*
X140629762Y-75014562D01*
X140740205Y-74879987D01*
X140822272Y-74726451D01*
X140872808Y-74559855D01*
X140889872Y-74386601D01*
X140889872Y-73136599D01*
X140872808Y-72963345D01*
X140822272Y-72796749D01*
X140740205Y-72643213D01*
X140629762Y-72508638D01*
X140495187Y-72398195D01*
X140341651Y-72316128D01*
X140175055Y-72265592D01*
X140001801Y-72248528D01*
X139376799Y-72248528D01*
X139203545Y-72265592D01*
X139036949Y-72316128D01*
X138883413Y-72398195D01*
X138748838Y-72508638D01*
X138638395Y-72643213D01*
X138556328Y-72796749D01*
X138505792Y-72963345D01*
X138488728Y-73136599D01*
X138488728Y-74386601D01*
X138505792Y-74559855D01*
X138556328Y-74726451D01*
X138610574Y-74827937D01*
X138172311Y-75266200D01*
X137753848Y-75266200D01*
X137599300Y-75281422D01*
X137599300Y-75101113D01*
X137704762Y-75014562D01*
X137815205Y-74879987D01*
X137897272Y-74726451D01*
X137947808Y-74559855D01*
X137964872Y-74386601D01*
X137964872Y-73136599D01*
X137947808Y-72963345D01*
X137897272Y-72796749D01*
X137815205Y-72643213D01*
X137704762Y-72508638D01*
X137570187Y-72398195D01*
X137416651Y-72316128D01*
X137250055Y-72265592D01*
X137076801Y-72248528D01*
X136451799Y-72248528D01*
X136278545Y-72265592D01*
X136111949Y-72316128D01*
X135958413Y-72398195D01*
X135823838Y-72508638D01*
X135713395Y-72643213D01*
X135631328Y-72796749D01*
X135580792Y-72963345D01*
X135563728Y-73136599D01*
X135563728Y-74386601D01*
X135580792Y-74559855D01*
X135631328Y-74726451D01*
X135713395Y-74879987D01*
X135823838Y-75014562D01*
X135929300Y-75101113D01*
X135929301Y-80030472D01*
X135925260Y-80071500D01*
X135941382Y-80235188D01*
X135989128Y-80392586D01*
X136062024Y-80528964D01*
X136066665Y-80537646D01*
X136171010Y-80664791D01*
X136202874Y-80690941D01*
X137060589Y-81548658D01*
X137060589Y-81877238D01*
X137056792Y-81915791D01*
X137060589Y-81954344D01*
X137060589Y-81954352D01*
X137071948Y-82069678D01*
X137074175Y-82077020D01*
X137116835Y-82217650D01*
X137139470Y-82259997D01*
X137189728Y-82354024D01*
X137223316Y-82394950D01*
X137263244Y-82443603D01*
X137263248Y-82443607D01*
X137287826Y-82473555D01*
X137317774Y-82498133D01*
X137519989Y-82700348D01*
X137374869Y-82760459D01*
X137217636Y-82865519D01*
X137083919Y-82999236D01*
X136978859Y-83156469D01*
X136906492Y-83331178D01*
X136869600Y-83516648D01*
X136869600Y-83705752D01*
X136906492Y-83891222D01*
X136978859Y-84065931D01*
X137060315Y-84187838D01*
X137003151Y-84234751D01*
X136861316Y-84407577D01*
X136755924Y-84604753D01*
X136691023Y-84818701D01*
X136669109Y-85041200D01*
X136691023Y-85263699D01*
X136755924Y-85477647D01*
X136861316Y-85674823D01*
X137003151Y-85847649D01*
X137175977Y-85989484D01*
X137373153Y-86094876D01*
X137587101Y-86159777D01*
X137753848Y-86176200D01*
X138965352Y-86176200D01*
X139132099Y-86159777D01*
X139346047Y-86094876D01*
X139543223Y-85989484D01*
X139716049Y-85847649D01*
X139857884Y-85674823D01*
X139963276Y-85477647D01*
X140028177Y-85263699D01*
X140050091Y-85041200D01*
X140036737Y-84905614D01*
X140124082Y-84897012D01*
X140243780Y-84860702D01*
X140354094Y-84801737D01*
X140450785Y-84722385D01*
X140530137Y-84625694D01*
X140589102Y-84515380D01*
X140625412Y-84395682D01*
X140637672Y-84271200D01*
X140637672Y-83671200D01*
X140627823Y-83571200D01*
X140637672Y-83471200D01*
X140634600Y-83456950D01*
X140571225Y-83393575D01*
X140530137Y-83316706D01*
X140450785Y-83220015D01*
X140360841Y-83146200D01*
X140450785Y-83072385D01*
X140473916Y-83044200D01*
X140475850Y-83044200D01*
X140634600Y-82885450D01*
X140637672Y-82871200D01*
X140625412Y-82746718D01*
X140625255Y-82746200D01*
X140625412Y-82745682D01*
X140637672Y-82621200D01*
X140637672Y-82321200D01*
X140627823Y-82221200D01*
X140637672Y-82121200D01*
X140637672Y-82085012D01*
X140705966Y-82028964D01*
X140730550Y-81999008D01*
X140799157Y-81930401D01*
X140917511Y-81930401D01*
X141042510Y-81968319D01*
X141165180Y-81980401D01*
X142841581Y-81980401D01*
X142882599Y-81984441D01*
X142923617Y-81980401D01*
X142923618Y-81980401D01*
X143046288Y-81968319D01*
X143203686Y-81920573D01*
X143348745Y-81843037D01*
X143475890Y-81738692D01*
X143502044Y-81706823D01*
X144458734Y-80750135D01*
X144591111Y-80838586D01*
X144761271Y-80909068D01*
X144941911Y-80945000D01*
X145126089Y-80945000D01*
X145306729Y-80909068D01*
X145476889Y-80838586D01*
X145630028Y-80736262D01*
X145760262Y-80606028D01*
X145782771Y-80572340D01*
X148515000Y-80572340D01*
X148515000Y-80864860D01*
X148572068Y-81151758D01*
X148684010Y-81422011D01*
X148846525Y-81665232D01*
X149053368Y-81872075D01*
X149227760Y-81988600D01*
X149053368Y-82105125D01*
X148846525Y-82311968D01*
X148684010Y-82555189D01*
X148572068Y-82825442D01*
X148515000Y-83112340D01*
X148515000Y-83404860D01*
X148572068Y-83691758D01*
X148684010Y-83962011D01*
X148846525Y-84205232D01*
X149053368Y-84412075D01*
X149296589Y-84574590D01*
X149566842Y-84686532D01*
X149853740Y-84743600D01*
X150146260Y-84743600D01*
X150433158Y-84686532D01*
X150703411Y-84574590D01*
X150946632Y-84412075D01*
X151153475Y-84205232D01*
X151315990Y-83962011D01*
X151427932Y-83691758D01*
X151485000Y-83404860D01*
X151485000Y-83112340D01*
X151427932Y-82825442D01*
X151315990Y-82555189D01*
X151153475Y-82311968D01*
X150946632Y-82105125D01*
X150772240Y-81988600D01*
X150946632Y-81872075D01*
X151153475Y-81665232D01*
X151315990Y-81422011D01*
X151427932Y-81151758D01*
X151485000Y-80864860D01*
X151485000Y-80572340D01*
X151427932Y-80285442D01*
X151315990Y-80015189D01*
X151153475Y-79771968D01*
X150946632Y-79565125D01*
X150773271Y-79449289D01*
X150848792Y-79206997D01*
X150000000Y-78358205D01*
X149151208Y-79206997D01*
X149226729Y-79449289D01*
X149053368Y-79565125D01*
X148846525Y-79771968D01*
X148684010Y-80015189D01*
X148572068Y-80285442D01*
X148515000Y-80572340D01*
X145782771Y-80572340D01*
X145862586Y-80452889D01*
X145926655Y-80298213D01*
X148636040Y-77588828D01*
X148596629Y-77671483D01*
X148524661Y-77955011D01*
X148509389Y-78247131D01*
X148551401Y-78536619D01*
X148649081Y-78812347D01*
X148722528Y-78949757D01*
X148971603Y-79027392D01*
X149820395Y-78178600D01*
X150179605Y-78178600D01*
X151028397Y-79027392D01*
X151277472Y-78949757D01*
X151403371Y-78685717D01*
X151475339Y-78402189D01*
X151490611Y-78110069D01*
X151448599Y-77820581D01*
X151350919Y-77544853D01*
X151277472Y-77407443D01*
X151028397Y-77329808D01*
X150179605Y-78178600D01*
X149820395Y-78178600D01*
X149806253Y-78164458D01*
X149985858Y-77984853D01*
X150000000Y-77998995D01*
X150848792Y-77150203D01*
X150773271Y-76907911D01*
X150946632Y-76792075D01*
X151153475Y-76585232D01*
X151315990Y-76342011D01*
X151427932Y-76071758D01*
X151485000Y-75784860D01*
X151485000Y-75492340D01*
X151427932Y-75205442D01*
X151315990Y-74935189D01*
X151153475Y-74691968D01*
X150946632Y-74485125D01*
X150772240Y-74368600D01*
X150946632Y-74252075D01*
X151153475Y-74045232D01*
X151315990Y-73802011D01*
X151427932Y-73531758D01*
X151485000Y-73244860D01*
X151485000Y-73224468D01*
X153097560Y-74837028D01*
X153123710Y-74868892D01*
X153250855Y-74973237D01*
X153395914Y-75050773D01*
X153553312Y-75098519D01*
X153675982Y-75110601D01*
X153675984Y-75110601D01*
X153717000Y-75114641D01*
X153758016Y-75110601D01*
X163851352Y-75110601D01*
X163812068Y-75205442D01*
X163755000Y-75492340D01*
X163755000Y-75784860D01*
X163812068Y-76071758D01*
X163924010Y-76342011D01*
X164086525Y-76585232D01*
X164293368Y-76792075D01*
X164467760Y-76908600D01*
X164293368Y-77025125D01*
X164086525Y-77231968D01*
X163924010Y-77475189D01*
X163812068Y-77745442D01*
X163755000Y-78032340D01*
X163755000Y-78324860D01*
X163812068Y-78611758D01*
X163924010Y-78882011D01*
X164086525Y-79125232D01*
X164293368Y-79332075D01*
X164467760Y-79448600D01*
X164293368Y-79565125D01*
X164086525Y-79771968D01*
X163924010Y-80015189D01*
X163812068Y-80285442D01*
X163755000Y-80572340D01*
X163755000Y-80864860D01*
X163812068Y-81151758D01*
X163924010Y-81422011D01*
X164086525Y-81665232D01*
X164293368Y-81872075D01*
X164467760Y-81988600D01*
X164293368Y-82105125D01*
X164086525Y-82311968D01*
X163924010Y-82555189D01*
X163812068Y-82825442D01*
X163755000Y-83112340D01*
X163755000Y-83404860D01*
X163812068Y-83691758D01*
X163924010Y-83962011D01*
X164086525Y-84205232D01*
X164293368Y-84412075D01*
X164536589Y-84574590D01*
X164806842Y-84686532D01*
X165093740Y-84743600D01*
X165386260Y-84743600D01*
X165673158Y-84686532D01*
X165943411Y-84574590D01*
X166186632Y-84412075D01*
X166393475Y-84205232D01*
X166555990Y-83962011D01*
X166667932Y-83691758D01*
X166725000Y-83404860D01*
X166725000Y-83112340D01*
X166667932Y-82825442D01*
X166555990Y-82555189D01*
X166393475Y-82311968D01*
X166186632Y-82105125D01*
X166012240Y-81988600D01*
X166186632Y-81872075D01*
X166393475Y-81665232D01*
X166555990Y-81422011D01*
X166667932Y-81151758D01*
X166725000Y-80864860D01*
X166725000Y-80572340D01*
X166667932Y-80285442D01*
X166555990Y-80015189D01*
X166393475Y-79771968D01*
X166186632Y-79565125D01*
X166012240Y-79448600D01*
X166186632Y-79332075D01*
X166393475Y-79125232D01*
X166555990Y-78882011D01*
X166667932Y-78611758D01*
X166725000Y-78324860D01*
X166725000Y-78032340D01*
X166667932Y-77745442D01*
X166555990Y-77475189D01*
X166393475Y-77231968D01*
X166186632Y-77025125D01*
X166012240Y-76908600D01*
X166186632Y-76792075D01*
X166393475Y-76585232D01*
X166555990Y-76342011D01*
X166667932Y-76071758D01*
X166725000Y-75784860D01*
X166725000Y-75492340D01*
X166667932Y-75205442D01*
X166628648Y-75110601D01*
X167066392Y-75110601D01*
X168096916Y-76141126D01*
X168123067Y-76172991D01*
X168250212Y-76277336D01*
X168395271Y-76354872D01*
X168552669Y-76402618D01*
X168675339Y-76414700D01*
X168675349Y-76414700D01*
X168716357Y-76418739D01*
X168757365Y-76414700D01*
X170008887Y-76414700D01*
X170095438Y-76520162D01*
X170230013Y-76630605D01*
X170383549Y-76712672D01*
X170513400Y-76752062D01*
X170513401Y-78124974D01*
X170509360Y-78166002D01*
X170525482Y-78329690D01*
X170573228Y-78487088D01*
X170650764Y-78632147D01*
X170662066Y-78645918D01*
X170755110Y-78759293D01*
X170786974Y-78785443D01*
X173410769Y-81409239D01*
X173506053Y-81487437D01*
X173651112Y-81564973D01*
X173808510Y-81612719D01*
X173972198Y-81628841D01*
X174135887Y-81612719D01*
X174207753Y-81590919D01*
X174208645Y-81593861D01*
X174281537Y-81730234D01*
X174323227Y-81781032D01*
X174354564Y-81819215D01*
X174379636Y-81849765D01*
X174409586Y-81874345D01*
X174483448Y-81948206D01*
X174508034Y-81978164D01*
X174576328Y-82034212D01*
X174576328Y-82070400D01*
X174586177Y-82170400D01*
X174576328Y-82270400D01*
X174576328Y-82570400D01*
X174588588Y-82694882D01*
X174588745Y-82695400D01*
X174588588Y-82695918D01*
X174576328Y-82820400D01*
X174579400Y-82834650D01*
X174738150Y-82993400D01*
X174740084Y-82993400D01*
X174763215Y-83021585D01*
X174853159Y-83095400D01*
X174763215Y-83169215D01*
X174683863Y-83265906D01*
X174642775Y-83342775D01*
X174579400Y-83406150D01*
X174576328Y-83420400D01*
X174586177Y-83520400D01*
X174576328Y-83620400D01*
X174576328Y-84220400D01*
X174588588Y-84344882D01*
X174624898Y-84464580D01*
X174683863Y-84574894D01*
X174763215Y-84671585D01*
X174859906Y-84750937D01*
X174970220Y-84809902D01*
X175089918Y-84846212D01*
X175177263Y-84854814D01*
X175163909Y-84990400D01*
X175185823Y-85212899D01*
X175250724Y-85426847D01*
X175356116Y-85624023D01*
X175497951Y-85796849D01*
X175670777Y-85938684D01*
X175867953Y-86044076D01*
X176081901Y-86108977D01*
X176248648Y-86125400D01*
X177460152Y-86125400D01*
X177626899Y-86108977D01*
X177840847Y-86044076D01*
X178038023Y-85938684D01*
X178210849Y-85796849D01*
X178352684Y-85624023D01*
X178458076Y-85426847D01*
X178522977Y-85212899D01*
X178544891Y-84990400D01*
X178522977Y-84767901D01*
X178458076Y-84553953D01*
X178352684Y-84356777D01*
X178210849Y-84183951D01*
X178153685Y-84137038D01*
X178235141Y-84015131D01*
X178307508Y-83840422D01*
X178344400Y-83654952D01*
X178344400Y-83465848D01*
X178307508Y-83280378D01*
X178235141Y-83105669D01*
X178130081Y-82948436D01*
X177996364Y-82814719D01*
X177839131Y-82709659D01*
X177664422Y-82637292D01*
X177478952Y-82600400D01*
X177299517Y-82600400D01*
X177302472Y-82570400D01*
X177302472Y-82534212D01*
X177370766Y-82478164D01*
X177395348Y-82448211D01*
X177896226Y-81947334D01*
X177926175Y-81922755D01*
X177959998Y-81881543D01*
X177978800Y-81858632D01*
X178024273Y-81803224D01*
X178097165Y-81666851D01*
X178103897Y-81644660D01*
X178142053Y-81518878D01*
X178151593Y-81422011D01*
X178153411Y-81403552D01*
X178153411Y-81403547D01*
X178157208Y-81364991D01*
X178153411Y-81326436D01*
X178153411Y-80531856D01*
X179011132Y-79674137D01*
X179042991Y-79647991D01*
X179073704Y-79610568D01*
X179147336Y-79520846D01*
X179224872Y-79375787D01*
X179272618Y-79218389D01*
X179288740Y-79054700D01*
X179284700Y-79013682D01*
X179284700Y-75101113D01*
X179390162Y-75014562D01*
X179500605Y-74879987D01*
X179582672Y-74726451D01*
X179633208Y-74559855D01*
X179650272Y-74386601D01*
X179650272Y-73136599D01*
X179633208Y-72963345D01*
X179582672Y-72796749D01*
X179500605Y-72643213D01*
X179390162Y-72508638D01*
X179255587Y-72398195D01*
X179102051Y-72316128D01*
X178935455Y-72265592D01*
X178762201Y-72248528D01*
X178137199Y-72248528D01*
X177963945Y-72265592D01*
X177797349Y-72316128D01*
X177643813Y-72398195D01*
X177509238Y-72508638D01*
X177398795Y-72643213D01*
X177316728Y-72796749D01*
X177266192Y-72963345D01*
X177249128Y-73136599D01*
X177249128Y-74386601D01*
X177266192Y-74559855D01*
X177316728Y-74726451D01*
X177398795Y-74879987D01*
X177509238Y-75014562D01*
X177614700Y-75101113D01*
X177614700Y-75230622D01*
X177460152Y-75215400D01*
X177041689Y-75215400D01*
X176621121Y-74794832D01*
X176657672Y-74726451D01*
X176708208Y-74559855D01*
X176725272Y-74386601D01*
X176725272Y-73136599D01*
X176708208Y-72963345D01*
X176657672Y-72796749D01*
X176575605Y-72643213D01*
X176465162Y-72508638D01*
X176330587Y-72398195D01*
X176177051Y-72316128D01*
X176010455Y-72265592D01*
X175837201Y-72248528D01*
X175212199Y-72248528D01*
X175038945Y-72265592D01*
X174872349Y-72316128D01*
X174718813Y-72398195D01*
X174584238Y-72508638D01*
X174473795Y-72643213D01*
X174391728Y-72796749D01*
X174341192Y-72963345D01*
X174324128Y-73136599D01*
X174324128Y-74386601D01*
X174341192Y-74559855D01*
X174391728Y-74726451D01*
X174473795Y-74879987D01*
X174584238Y-75014562D01*
X174585665Y-75015733D01*
X174585176Y-75020700D01*
X174603229Y-75203991D01*
X174637505Y-75316983D01*
X174656694Y-75380240D01*
X174743515Y-75542672D01*
X174860357Y-75685044D01*
X174896036Y-75714325D01*
X175214634Y-76032923D01*
X175185823Y-76127901D01*
X175163909Y-76350400D01*
X175177263Y-76485986D01*
X175089918Y-76494588D01*
X174970220Y-76530898D01*
X174859906Y-76589863D01*
X174763215Y-76669215D01*
X174683863Y-76765906D01*
X174624898Y-76876220D01*
X174588588Y-76995918D01*
X174576328Y-77120400D01*
X174576328Y-77720400D01*
X174586177Y-77820400D01*
X174576328Y-77920400D01*
X174579400Y-77934650D01*
X174642775Y-77998025D01*
X174683863Y-78074894D01*
X174763215Y-78171585D01*
X174853159Y-78245400D01*
X174763215Y-78319215D01*
X174740084Y-78347400D01*
X174738150Y-78347400D01*
X174579400Y-78506150D01*
X174576328Y-78520400D01*
X174588588Y-78644882D01*
X174588745Y-78645400D01*
X174588588Y-78645918D01*
X174576328Y-78770400D01*
X174576328Y-79070400D01*
X174582730Y-79135400D01*
X174296268Y-79135400D01*
X173385410Y-78224543D01*
X173385410Y-75069197D01*
X173389449Y-75028189D01*
X173385410Y-74987181D01*
X173385410Y-74987171D01*
X173373328Y-74864501D01*
X173325582Y-74707103D01*
X173248046Y-74562044D01*
X173143701Y-74434899D01*
X173111836Y-74408748D01*
X172495087Y-73791999D01*
X172577894Y-73747737D01*
X172674585Y-73668385D01*
X172753937Y-73571694D01*
X172812902Y-73461380D01*
X172849212Y-73341682D01*
X172861472Y-73217200D01*
X172858400Y-72940450D01*
X172699650Y-72781700D01*
X171475400Y-72781700D01*
X171475400Y-72801700D01*
X171221400Y-72801700D01*
X171221400Y-72781700D01*
X169997150Y-72781700D01*
X169838400Y-72940450D01*
X169836618Y-73100989D01*
X168163819Y-73100989D01*
X167155030Y-72092200D01*
X169835328Y-72092200D01*
X169838400Y-72368950D01*
X169997150Y-72527700D01*
X171221400Y-72527700D01*
X171221400Y-71615950D01*
X171475400Y-71615950D01*
X171475400Y-72527700D01*
X172699650Y-72527700D01*
X172858400Y-72368950D01*
X172861472Y-72092200D01*
X172849212Y-71967718D01*
X172812902Y-71848020D01*
X172753937Y-71737706D01*
X172674585Y-71641015D01*
X172577894Y-71561663D01*
X172467580Y-71502698D01*
X172347882Y-71466388D01*
X172223400Y-71454128D01*
X171634150Y-71457200D01*
X171475400Y-71615950D01*
X171221400Y-71615950D01*
X171062650Y-71457200D01*
X170473400Y-71454128D01*
X170348918Y-71466388D01*
X170229220Y-71502698D01*
X170118906Y-71561663D01*
X170022215Y-71641015D01*
X169942863Y-71737706D01*
X169883898Y-71848020D01*
X169847588Y-71967718D01*
X169835328Y-72092200D01*
X167155030Y-72092200D01*
X166463404Y-71400575D01*
X166555990Y-71262011D01*
X166667932Y-70991758D01*
X166725000Y-70704860D01*
X166725000Y-70412340D01*
X166667932Y-70125442D01*
X166555990Y-69855189D01*
X166393475Y-69611968D01*
X166186632Y-69405125D01*
X166012240Y-69288600D01*
X166186632Y-69172075D01*
X166393475Y-68965232D01*
X166555990Y-68722011D01*
X166667932Y-68451758D01*
X166725000Y-68164860D01*
X166725000Y-67872340D01*
X166667932Y-67585442D01*
X166555990Y-67315189D01*
X166393475Y-67071968D01*
X166186632Y-66865125D01*
X166012240Y-66748600D01*
X166186632Y-66632075D01*
X166393475Y-66425232D01*
X166555990Y-66182011D01*
X166667932Y-65911758D01*
X166725000Y-65624860D01*
X166725000Y-65332340D01*
X166667932Y-65045442D01*
X166555990Y-64775189D01*
X166439233Y-64600450D01*
X169621215Y-64600450D01*
X169914018Y-64629160D01*
X170164908Y-64704908D01*
X170396301Y-64827942D01*
X170599390Y-64993577D01*
X170766444Y-65195511D01*
X170891089Y-65426037D01*
X170968586Y-65676390D01*
X170999150Y-65967180D01*
X170999150Y-66005828D01*
X171008614Y-66101919D01*
X171046013Y-66225208D01*
X171075560Y-66280485D01*
X171377002Y-66850780D01*
X171393355Y-66876838D01*
X171408271Y-66903748D01*
X171417846Y-66917943D01*
X172010538Y-67772305D01*
X172035661Y-67803330D01*
X172059977Y-67835019D01*
X172071545Y-67847643D01*
X172784009Y-68605014D01*
X172813430Y-68631974D01*
X172842174Y-68659731D01*
X172855481Y-68670506D01*
X173672065Y-69314250D01*
X173705167Y-69336578D01*
X173737681Y-69359769D01*
X173752434Y-69368460D01*
X174655201Y-69884433D01*
X174691234Y-69901620D01*
X174726822Y-69919753D01*
X174742698Y-69926167D01*
X175711814Y-70303036D01*
X175749995Y-70314709D01*
X175787870Y-70327382D01*
X175804515Y-70331378D01*
X175804519Y-70331379D01*
X175804522Y-70331379D01*
X176818696Y-70560864D01*
X176858204Y-70566769D01*
X176897516Y-70573700D01*
X176914557Y-70575191D01*
X176914573Y-70575193D01*
X176914586Y-70575193D01*
X177943708Y-70651670D01*
X177967875Y-70654050D01*
X179968015Y-70654050D01*
X180455052Y-70701805D01*
X180892779Y-70833962D01*
X181296493Y-71048620D01*
X181650827Y-71337608D01*
X181942279Y-71689913D01*
X182159752Y-72092122D01*
X182294962Y-72528910D01*
X182345951Y-73014036D01*
X182345951Y-75835142D01*
X182282684Y-75716777D01*
X182140849Y-75543951D01*
X181968023Y-75402116D01*
X181770847Y-75296724D01*
X181556899Y-75231823D01*
X181390152Y-75215400D01*
X180678648Y-75215400D01*
X180511901Y-75231823D01*
X180297953Y-75296724D01*
X180100777Y-75402116D01*
X179927951Y-75543951D01*
X179786116Y-75716777D01*
X179680724Y-75913953D01*
X179615823Y-76127901D01*
X179593909Y-76350400D01*
X179615823Y-76572899D01*
X179680724Y-76786847D01*
X179786116Y-76984023D01*
X179927951Y-77156849D01*
X180100777Y-77298684D01*
X180297953Y-77404076D01*
X180511901Y-77468977D01*
X180678648Y-77485400D01*
X181390152Y-77485400D01*
X181556899Y-77468977D01*
X181770847Y-77404076D01*
X181968023Y-77298684D01*
X182140849Y-77156849D01*
X182282684Y-76984023D01*
X182345951Y-76865658D01*
X182345950Y-84475140D01*
X182282684Y-84356777D01*
X182140849Y-84183951D01*
X181968023Y-84042116D01*
X181770847Y-83936724D01*
X181556899Y-83871823D01*
X181390152Y-83855400D01*
X180678648Y-83855400D01*
X180511901Y-83871823D01*
X180297953Y-83936724D01*
X180100777Y-84042116D01*
X179927951Y-84183951D01*
X179786116Y-84356777D01*
X179680724Y-84553953D01*
X179615823Y-84767901D01*
X179593909Y-84990400D01*
X179615823Y-85212899D01*
X179680724Y-85426847D01*
X179786116Y-85624023D01*
X179927951Y-85796849D01*
X180100777Y-85938684D01*
X180297953Y-86044076D01*
X180511901Y-86108977D01*
X180678648Y-86125400D01*
X181390152Y-86125400D01*
X181556899Y-86108977D01*
X181770847Y-86044076D01*
X181968023Y-85938684D01*
X182140849Y-85796849D01*
X182282684Y-85624023D01*
X182345950Y-85505660D01*
X182345950Y-85968016D01*
X182336285Y-86066583D01*
X182316946Y-86130637D01*
X182285536Y-86189711D01*
X182243250Y-86241559D01*
X182191702Y-86284204D01*
X182132845Y-86316027D01*
X182068933Y-86335811D01*
X181972473Y-86345950D01*
X133031984Y-86345950D01*
X132933417Y-86336285D01*
X132869363Y-86316946D01*
X132810289Y-86285536D01*
X132758441Y-86243250D01*
X132715796Y-86191702D01*
X132683973Y-86132845D01*
X132664189Y-86068933D01*
X132654050Y-85972473D01*
X132654050Y-85041200D01*
X132739109Y-85041200D01*
X132761023Y-85263699D01*
X132825924Y-85477647D01*
X132931316Y-85674823D01*
X133073151Y-85847649D01*
X133245977Y-85989484D01*
X133443153Y-86094876D01*
X133657101Y-86159777D01*
X133823848Y-86176200D01*
X134535352Y-86176200D01*
X134702099Y-86159777D01*
X134916047Y-86094876D01*
X135113223Y-85989484D01*
X135286049Y-85847649D01*
X135427884Y-85674823D01*
X135533276Y-85477647D01*
X135598177Y-85263699D01*
X135620091Y-85041200D01*
X135598177Y-84818701D01*
X135533276Y-84604753D01*
X135427884Y-84407577D01*
X135286049Y-84234751D01*
X135113223Y-84092916D01*
X134916047Y-83987524D01*
X134702099Y-83922623D01*
X134535352Y-83906200D01*
X133823848Y-83906200D01*
X133657101Y-83922623D01*
X133443153Y-83987524D01*
X133245977Y-84092916D01*
X133073151Y-84234751D01*
X132931316Y-84407577D01*
X132825924Y-84604753D01*
X132761023Y-84818701D01*
X132739109Y-85041200D01*
X132654050Y-85041200D01*
X132654050Y-76401200D01*
X132739109Y-76401200D01*
X132761023Y-76623699D01*
X132825924Y-76837647D01*
X132931316Y-77034823D01*
X133073151Y-77207649D01*
X133245977Y-77349484D01*
X133443153Y-77454876D01*
X133657101Y-77519777D01*
X133823848Y-77536200D01*
X134535352Y-77536200D01*
X134702099Y-77519777D01*
X134916047Y-77454876D01*
X135113223Y-77349484D01*
X135286049Y-77207649D01*
X135427884Y-77034823D01*
X135533276Y-76837647D01*
X135598177Y-76623699D01*
X135620091Y-76401200D01*
X135598177Y-76178701D01*
X135533276Y-75964753D01*
X135427884Y-75767577D01*
X135286049Y-75594751D01*
X135113223Y-75452916D01*
X134916047Y-75347524D01*
X134702099Y-75282623D01*
X134535352Y-75266200D01*
X133823848Y-75266200D01*
X133657101Y-75282623D01*
X133443153Y-75347524D01*
X133245977Y-75452916D01*
X133073151Y-75594751D01*
X132931316Y-75767577D01*
X132825924Y-75964753D01*
X132761023Y-76178701D01*
X132739109Y-76401200D01*
X132654050Y-76401200D01*
X132654050Y-73031985D01*
X132701805Y-72544948D01*
X132823159Y-72143000D01*
X142454128Y-72143000D01*
X142457200Y-72419750D01*
X142615950Y-72578500D01*
X143840200Y-72578500D01*
X143840200Y-71666750D01*
X143681450Y-71508000D01*
X143092200Y-71504928D01*
X142967718Y-71517188D01*
X142848020Y-71553498D01*
X142737706Y-71612463D01*
X142641015Y-71691815D01*
X142561663Y-71788506D01*
X142502698Y-71898820D01*
X142466388Y-72018518D01*
X142454128Y-72143000D01*
X132823159Y-72143000D01*
X132833962Y-72107221D01*
X133048620Y-71703507D01*
X133337608Y-71349173D01*
X133689913Y-71057721D01*
X134092122Y-70840248D01*
X134528910Y-70705038D01*
X135014027Y-70654050D01*
X137032125Y-70654050D01*
X137048153Y-70652471D01*
X137719467Y-70619434D01*
X137750992Y-70615526D01*
X137782692Y-70613234D01*
X137799598Y-70610516D01*
X138821714Y-70432407D01*
X138860441Y-70422654D01*
X138899404Y-70413920D01*
X138915721Y-70408733D01*
X139900285Y-70081501D01*
X139937132Y-70066137D01*
X139974387Y-70051735D01*
X139989753Y-70044195D01*
X139989760Y-70044192D01*
X139989765Y-70044189D01*
X140915140Y-69575027D01*
X140949313Y-69554384D01*
X140984029Y-69534635D01*
X140998117Y-69524904D01*
X141843986Y-68924113D01*
X141874744Y-68898637D01*
X141906148Y-68873981D01*
X141918634Y-68862283D01*
X141918643Y-68862275D01*
X141918649Y-68862268D01*
X142666419Y-68143055D01*
X142693076Y-68113309D01*
X142720488Y-68084286D01*
X142731109Y-68070869D01*
X142731116Y-68070861D01*
X142731121Y-68070854D01*
X143364370Y-67249012D01*
X143386337Y-67215653D01*
X143409158Y-67182897D01*
X143417685Y-67168049D01*
X143921618Y-66263221D01*
X143952296Y-66208894D01*
X143982458Y-66117170D01*
X144003228Y-66024079D01*
X144014916Y-65928234D01*
X144014746Y-65925965D01*
X144044899Y-65663621D01*
X144124825Y-65414036D01*
X144251706Y-65184726D01*
X144420713Y-64984428D01*
X144625401Y-64820775D01*
X144857980Y-64699994D01*
X145111131Y-64626240D01*
X145387998Y-64600450D01*
X148800767Y-64600450D01*
X148684010Y-64775189D01*
G04 #@! TA.AperFunction,Conductor*
D20*
G36*
X148684010Y-64775189D02*
G01*
X148572068Y-65045442D01*
X148515000Y-65332340D01*
X148515000Y-65624860D01*
X148572068Y-65911758D01*
X148684010Y-66182011D01*
X148846525Y-66425232D01*
X149053368Y-66632075D01*
X149227760Y-66748600D01*
X149053368Y-66865125D01*
X148846525Y-67071968D01*
X148684010Y-67315189D01*
X148572068Y-67585442D01*
X148515000Y-67872340D01*
X148515000Y-68164860D01*
X148572068Y-68451758D01*
X148684010Y-68722011D01*
X148776595Y-68860574D01*
X145480116Y-72157054D01*
X145480272Y-72143000D01*
X145468012Y-72018518D01*
X145431702Y-71898820D01*
X145372737Y-71788506D01*
X145293385Y-71691815D01*
X145196694Y-71612463D01*
X145086380Y-71553498D01*
X144966682Y-71517188D01*
X144842200Y-71504928D01*
X144252950Y-71508000D01*
X144094200Y-71666750D01*
X144094200Y-72578500D01*
X144114200Y-72578500D01*
X144114200Y-72832500D01*
X144094200Y-72832500D01*
X144094200Y-72852500D01*
X143840200Y-72852500D01*
X143840200Y-72832500D01*
X142615950Y-72832500D01*
X142457200Y-72991250D01*
X142454128Y-73268000D01*
X142466388Y-73392482D01*
X142502698Y-73512180D01*
X142561663Y-73622494D01*
X142641015Y-73719185D01*
X142737706Y-73798537D01*
X142848020Y-73857502D01*
X142967718Y-73893812D01*
X143092200Y-73906072D01*
X143681450Y-73903000D01*
X143840198Y-73744252D01*
X143840198Y-73796973D01*
X143405774Y-74231397D01*
X143373910Y-74257547D01*
X143347762Y-74289409D01*
X143269564Y-74384693D01*
X143240005Y-74439993D01*
X143168945Y-74446992D01*
X143002349Y-74497528D01*
X142848813Y-74579595D01*
X142714238Y-74690038D01*
X142603795Y-74824613D01*
X142521728Y-74978149D01*
X142471192Y-75144745D01*
X142454128Y-75317999D01*
X142454128Y-75943001D01*
X142471192Y-76116255D01*
X142521728Y-76282851D01*
X142603795Y-76436387D01*
X142714238Y-76570962D01*
X142848813Y-76681405D01*
X143002349Y-76763472D01*
X143168945Y-76814008D01*
X143245020Y-76821501D01*
X143245019Y-79451024D01*
X143220262Y-79413972D01*
X143090028Y-79283738D01*
X142936889Y-79181414D01*
X142766729Y-79110932D01*
X142586089Y-79075000D01*
X142401911Y-79075000D01*
X142221271Y-79110932D01*
X142160268Y-79136200D01*
X141170981Y-79136200D01*
X141048311Y-79148282D01*
X140923312Y-79186200D01*
X140631270Y-79186200D01*
X140637672Y-79121200D01*
X140637672Y-78821200D01*
X140625412Y-78696718D01*
X140625255Y-78696200D01*
X140625412Y-78695682D01*
X140637672Y-78571200D01*
X140634600Y-78556950D01*
X140475850Y-78398200D01*
X140473916Y-78398200D01*
X140450785Y-78370015D01*
X140360841Y-78296200D01*
X140450785Y-78222385D01*
X140530137Y-78125694D01*
X140571225Y-78048825D01*
X140634600Y-77985450D01*
X140637672Y-77971200D01*
X140627823Y-77871200D01*
X140637672Y-77771200D01*
X140637672Y-77171200D01*
X140625412Y-77046718D01*
X140589102Y-76927020D01*
X140530137Y-76816706D01*
X140450785Y-76720015D01*
X140354094Y-76640663D01*
X140243780Y-76581698D01*
X140124082Y-76545388D01*
X140036737Y-76536786D01*
X140050091Y-76401200D01*
X140028177Y-76178701D01*
X139999366Y-76083723D01*
X140317959Y-75765130D01*
X140353644Y-75735844D01*
X140470486Y-75593472D01*
X140557307Y-75431040D01*
X140582641Y-75347524D01*
X140610772Y-75254792D01*
X140628824Y-75071500D01*
X140624300Y-75025565D01*
X140624300Y-75019045D01*
X140629762Y-75014562D01*
X140740205Y-74879987D01*
X140822272Y-74726451D01*
X140872808Y-74559855D01*
X140889872Y-74386601D01*
X140889872Y-73136599D01*
X140872808Y-72963345D01*
X140822272Y-72796749D01*
X140740205Y-72643213D01*
X140629762Y-72508638D01*
X140495187Y-72398195D01*
X140341651Y-72316128D01*
X140175055Y-72265592D01*
X140001801Y-72248528D01*
X139376799Y-72248528D01*
X139203545Y-72265592D01*
X139036949Y-72316128D01*
X138883413Y-72398195D01*
X138748838Y-72508638D01*
X138638395Y-72643213D01*
X138556328Y-72796749D01*
X138505792Y-72963345D01*
X138488728Y-73136599D01*
X138488728Y-74386601D01*
X138505792Y-74559855D01*
X138556328Y-74726451D01*
X138610574Y-74827937D01*
X138172311Y-75266200D01*
X137753848Y-75266200D01*
X137599300Y-75281422D01*
X137599300Y-75101113D01*
X137704762Y-75014562D01*
X137815205Y-74879987D01*
X137897272Y-74726451D01*
X137947808Y-74559855D01*
X137964872Y-74386601D01*
X137964872Y-73136599D01*
X137947808Y-72963345D01*
X137897272Y-72796749D01*
X137815205Y-72643213D01*
X137704762Y-72508638D01*
X137570187Y-72398195D01*
X137416651Y-72316128D01*
X137250055Y-72265592D01*
X137076801Y-72248528D01*
X136451799Y-72248528D01*
X136278545Y-72265592D01*
X136111949Y-72316128D01*
X135958413Y-72398195D01*
X135823838Y-72508638D01*
X135713395Y-72643213D01*
X135631328Y-72796749D01*
X135580792Y-72963345D01*
X135563728Y-73136599D01*
X135563728Y-74386601D01*
X135580792Y-74559855D01*
X135631328Y-74726451D01*
X135713395Y-74879987D01*
X135823838Y-75014562D01*
X135929300Y-75101113D01*
X135929301Y-80030472D01*
X135925260Y-80071500D01*
X135941382Y-80235188D01*
X135989128Y-80392586D01*
X136062024Y-80528964D01*
X136066665Y-80537646D01*
X136171010Y-80664791D01*
X136202874Y-80690941D01*
X137060589Y-81548658D01*
X137060589Y-81877238D01*
X137056792Y-81915791D01*
X137060589Y-81954344D01*
X137060589Y-81954352D01*
X137071948Y-82069678D01*
X137074175Y-82077020D01*
X137116835Y-82217650D01*
X137139470Y-82259997D01*
X137189728Y-82354024D01*
X137223316Y-82394950D01*
X137263244Y-82443603D01*
X137263248Y-82443607D01*
X137287826Y-82473555D01*
X137317774Y-82498133D01*
X137519989Y-82700348D01*
X137374869Y-82760459D01*
X137217636Y-82865519D01*
X137083919Y-82999236D01*
X136978859Y-83156469D01*
X136906492Y-83331178D01*
X136869600Y-83516648D01*
X136869600Y-83705752D01*
X136906492Y-83891222D01*
X136978859Y-84065931D01*
X137060315Y-84187838D01*
X137003151Y-84234751D01*
X136861316Y-84407577D01*
X136755924Y-84604753D01*
X136691023Y-84818701D01*
X136669109Y-85041200D01*
X136691023Y-85263699D01*
X136755924Y-85477647D01*
X136861316Y-85674823D01*
X137003151Y-85847649D01*
X137175977Y-85989484D01*
X137373153Y-86094876D01*
X137587101Y-86159777D01*
X137753848Y-86176200D01*
X138965352Y-86176200D01*
X139132099Y-86159777D01*
X139346047Y-86094876D01*
X139543223Y-85989484D01*
X139716049Y-85847649D01*
X139857884Y-85674823D01*
X139963276Y-85477647D01*
X140028177Y-85263699D01*
X140050091Y-85041200D01*
X140036737Y-84905614D01*
X140124082Y-84897012D01*
X140243780Y-84860702D01*
X140354094Y-84801737D01*
X140450785Y-84722385D01*
X140530137Y-84625694D01*
X140589102Y-84515380D01*
X140625412Y-84395682D01*
X140637672Y-84271200D01*
X140637672Y-83671200D01*
X140627823Y-83571200D01*
X140637672Y-83471200D01*
X140634600Y-83456950D01*
X140571225Y-83393575D01*
X140530137Y-83316706D01*
X140450785Y-83220015D01*
X140360841Y-83146200D01*
X140450785Y-83072385D01*
X140473916Y-83044200D01*
X140475850Y-83044200D01*
X140634600Y-82885450D01*
X140637672Y-82871200D01*
X140625412Y-82746718D01*
X140625255Y-82746200D01*
X140625412Y-82745682D01*
X140637672Y-82621200D01*
X140637672Y-82321200D01*
X140627823Y-82221200D01*
X140637672Y-82121200D01*
X140637672Y-82085012D01*
X140705966Y-82028964D01*
X140730550Y-81999008D01*
X140799157Y-81930401D01*
X140917511Y-81930401D01*
X141042510Y-81968319D01*
X141165180Y-81980401D01*
X142841581Y-81980401D01*
X142882599Y-81984441D01*
X142923617Y-81980401D01*
X142923618Y-81980401D01*
X143046288Y-81968319D01*
X143203686Y-81920573D01*
X143348745Y-81843037D01*
X143475890Y-81738692D01*
X143502044Y-81706823D01*
X144458734Y-80750135D01*
X144591111Y-80838586D01*
X144761271Y-80909068D01*
X144941911Y-80945000D01*
X145126089Y-80945000D01*
X145306729Y-80909068D01*
X145476889Y-80838586D01*
X145630028Y-80736262D01*
X145760262Y-80606028D01*
X145782771Y-80572340D01*
X148515000Y-80572340D01*
X148515000Y-80864860D01*
X148572068Y-81151758D01*
X148684010Y-81422011D01*
X148846525Y-81665232D01*
X149053368Y-81872075D01*
X149227760Y-81988600D01*
X149053368Y-82105125D01*
X148846525Y-82311968D01*
X148684010Y-82555189D01*
X148572068Y-82825442D01*
X148515000Y-83112340D01*
X148515000Y-83404860D01*
X148572068Y-83691758D01*
X148684010Y-83962011D01*
X148846525Y-84205232D01*
X149053368Y-84412075D01*
X149296589Y-84574590D01*
X149566842Y-84686532D01*
X149853740Y-84743600D01*
X150146260Y-84743600D01*
X150433158Y-84686532D01*
X150703411Y-84574590D01*
X150946632Y-84412075D01*
X151153475Y-84205232D01*
X151315990Y-83962011D01*
X151427932Y-83691758D01*
X151485000Y-83404860D01*
X151485000Y-83112340D01*
X151427932Y-82825442D01*
X151315990Y-82555189D01*
X151153475Y-82311968D01*
X150946632Y-82105125D01*
X150772240Y-81988600D01*
X150946632Y-81872075D01*
X151153475Y-81665232D01*
X151315990Y-81422011D01*
X151427932Y-81151758D01*
X151485000Y-80864860D01*
X151485000Y-80572340D01*
X151427932Y-80285442D01*
X151315990Y-80015189D01*
X151153475Y-79771968D01*
X150946632Y-79565125D01*
X150773271Y-79449289D01*
X150848792Y-79206997D01*
X150000000Y-78358205D01*
X149151208Y-79206997D01*
X149226729Y-79449289D01*
X149053368Y-79565125D01*
X148846525Y-79771968D01*
X148684010Y-80015189D01*
X148572068Y-80285442D01*
X148515000Y-80572340D01*
X145782771Y-80572340D01*
X145862586Y-80452889D01*
X145926655Y-80298213D01*
X148636040Y-77588828D01*
X148596629Y-77671483D01*
X148524661Y-77955011D01*
X148509389Y-78247131D01*
X148551401Y-78536619D01*
X148649081Y-78812347D01*
X148722528Y-78949757D01*
X148971603Y-79027392D01*
X149820395Y-78178600D01*
X150179605Y-78178600D01*
X151028397Y-79027392D01*
X151277472Y-78949757D01*
X151403371Y-78685717D01*
X151475339Y-78402189D01*
X151490611Y-78110069D01*
X151448599Y-77820581D01*
X151350919Y-77544853D01*
X151277472Y-77407443D01*
X151028397Y-77329808D01*
X150179605Y-78178600D01*
X149820395Y-78178600D01*
X149806253Y-78164458D01*
X149985858Y-77984853D01*
X150000000Y-77998995D01*
X150848792Y-77150203D01*
X150773271Y-76907911D01*
X150946632Y-76792075D01*
X151153475Y-76585232D01*
X151315990Y-76342011D01*
X151427932Y-76071758D01*
X151485000Y-75784860D01*
X151485000Y-75492340D01*
X151427932Y-75205442D01*
X151315990Y-74935189D01*
X151153475Y-74691968D01*
X150946632Y-74485125D01*
X150772240Y-74368600D01*
X150946632Y-74252075D01*
X151153475Y-74045232D01*
X151315990Y-73802011D01*
X151427932Y-73531758D01*
X151485000Y-73244860D01*
X151485000Y-73224468D01*
X153097560Y-74837028D01*
X153123710Y-74868892D01*
X153250855Y-74973237D01*
X153395914Y-75050773D01*
X153553312Y-75098519D01*
X153675982Y-75110601D01*
X153675984Y-75110601D01*
X153717000Y-75114641D01*
X153758016Y-75110601D01*
X163851352Y-75110601D01*
X163812068Y-75205442D01*
X163755000Y-75492340D01*
X163755000Y-75784860D01*
X163812068Y-76071758D01*
X163924010Y-76342011D01*
X164086525Y-76585232D01*
X164293368Y-76792075D01*
X164467760Y-76908600D01*
X164293368Y-77025125D01*
X164086525Y-77231968D01*
X163924010Y-77475189D01*
X163812068Y-77745442D01*
X163755000Y-78032340D01*
X163755000Y-78324860D01*
X163812068Y-78611758D01*
X163924010Y-78882011D01*
X164086525Y-79125232D01*
X164293368Y-79332075D01*
X164467760Y-79448600D01*
X164293368Y-79565125D01*
X164086525Y-79771968D01*
X163924010Y-80015189D01*
X163812068Y-80285442D01*
X163755000Y-80572340D01*
X163755000Y-80864860D01*
X163812068Y-81151758D01*
X163924010Y-81422011D01*
X164086525Y-81665232D01*
X164293368Y-81872075D01*
X164467760Y-81988600D01*
X164293368Y-82105125D01*
X164086525Y-82311968D01*
X163924010Y-82555189D01*
X163812068Y-82825442D01*
X163755000Y-83112340D01*
X163755000Y-83404860D01*
X163812068Y-83691758D01*
X163924010Y-83962011D01*
X164086525Y-84205232D01*
X164293368Y-84412075D01*
X164536589Y-84574590D01*
X164806842Y-84686532D01*
X165093740Y-84743600D01*
X165386260Y-84743600D01*
X165673158Y-84686532D01*
X165943411Y-84574590D01*
X166186632Y-84412075D01*
X166393475Y-84205232D01*
X166555990Y-83962011D01*
X166667932Y-83691758D01*
X166725000Y-83404860D01*
X166725000Y-83112340D01*
X166667932Y-82825442D01*
X166555990Y-82555189D01*
X166393475Y-82311968D01*
X166186632Y-82105125D01*
X166012240Y-81988600D01*
X166186632Y-81872075D01*
X166393475Y-81665232D01*
X166555990Y-81422011D01*
X166667932Y-81151758D01*
X166725000Y-80864860D01*
X166725000Y-80572340D01*
X166667932Y-80285442D01*
X166555990Y-80015189D01*
X166393475Y-79771968D01*
X166186632Y-79565125D01*
X166012240Y-79448600D01*
X166186632Y-79332075D01*
X166393475Y-79125232D01*
X166555990Y-78882011D01*
X166667932Y-78611758D01*
X166725000Y-78324860D01*
X166725000Y-78032340D01*
X166667932Y-77745442D01*
X166555990Y-77475189D01*
X166393475Y-77231968D01*
X166186632Y-77025125D01*
X166012240Y-76908600D01*
X166186632Y-76792075D01*
X166393475Y-76585232D01*
X166555990Y-76342011D01*
X166667932Y-76071758D01*
X166725000Y-75784860D01*
X166725000Y-75492340D01*
X166667932Y-75205442D01*
X166628648Y-75110601D01*
X167066392Y-75110601D01*
X168096916Y-76141126D01*
X168123067Y-76172991D01*
X168250212Y-76277336D01*
X168395271Y-76354872D01*
X168552669Y-76402618D01*
X168675339Y-76414700D01*
X168675349Y-76414700D01*
X168716357Y-76418739D01*
X168757365Y-76414700D01*
X170008887Y-76414700D01*
X170095438Y-76520162D01*
X170230013Y-76630605D01*
X170383549Y-76712672D01*
X170513400Y-76752062D01*
X170513401Y-78124974D01*
X170509360Y-78166002D01*
X170525482Y-78329690D01*
X170573228Y-78487088D01*
X170650764Y-78632147D01*
X170662066Y-78645918D01*
X170755110Y-78759293D01*
X170786974Y-78785443D01*
X173410769Y-81409239D01*
X173506053Y-81487437D01*
X173651112Y-81564973D01*
X173808510Y-81612719D01*
X173972198Y-81628841D01*
X174135887Y-81612719D01*
X174207753Y-81590919D01*
X174208645Y-81593861D01*
X174281537Y-81730234D01*
X174323227Y-81781032D01*
X174354564Y-81819215D01*
X174379636Y-81849765D01*
X174409586Y-81874345D01*
X174483448Y-81948206D01*
X174508034Y-81978164D01*
X174576328Y-82034212D01*
X174576328Y-82070400D01*
X174586177Y-82170400D01*
X174576328Y-82270400D01*
X174576328Y-82570400D01*
X174588588Y-82694882D01*
X174588745Y-82695400D01*
X174588588Y-82695918D01*
X174576328Y-82820400D01*
X174579400Y-82834650D01*
X174738150Y-82993400D01*
X174740084Y-82993400D01*
X174763215Y-83021585D01*
X174853159Y-83095400D01*
X174763215Y-83169215D01*
X174683863Y-83265906D01*
X174642775Y-83342775D01*
X174579400Y-83406150D01*
X174576328Y-83420400D01*
X174586177Y-83520400D01*
X174576328Y-83620400D01*
X174576328Y-84220400D01*
X174588588Y-84344882D01*
X174624898Y-84464580D01*
X174683863Y-84574894D01*
X174763215Y-84671585D01*
X174859906Y-84750937D01*
X174970220Y-84809902D01*
X175089918Y-84846212D01*
X175177263Y-84854814D01*
X175163909Y-84990400D01*
X175185823Y-85212899D01*
X175250724Y-85426847D01*
X175356116Y-85624023D01*
X175497951Y-85796849D01*
X175670777Y-85938684D01*
X175867953Y-86044076D01*
X176081901Y-86108977D01*
X176248648Y-86125400D01*
X177460152Y-86125400D01*
X177626899Y-86108977D01*
X177840847Y-86044076D01*
X178038023Y-85938684D01*
X178210849Y-85796849D01*
X178352684Y-85624023D01*
X178458076Y-85426847D01*
X178522977Y-85212899D01*
X178544891Y-84990400D01*
X178522977Y-84767901D01*
X178458076Y-84553953D01*
X178352684Y-84356777D01*
X178210849Y-84183951D01*
X178153685Y-84137038D01*
X178235141Y-84015131D01*
X178307508Y-83840422D01*
X178344400Y-83654952D01*
X178344400Y-83465848D01*
X178307508Y-83280378D01*
X178235141Y-83105669D01*
X178130081Y-82948436D01*
X177996364Y-82814719D01*
X177839131Y-82709659D01*
X177664422Y-82637292D01*
X177478952Y-82600400D01*
X177299517Y-82600400D01*
X177302472Y-82570400D01*
X177302472Y-82534212D01*
X177370766Y-82478164D01*
X177395348Y-82448211D01*
X177896226Y-81947334D01*
X177926175Y-81922755D01*
X177959998Y-81881543D01*
X177978800Y-81858632D01*
X178024273Y-81803224D01*
X178097165Y-81666851D01*
X178103897Y-81644660D01*
X178142053Y-81518878D01*
X178151593Y-81422011D01*
X178153411Y-81403552D01*
X178153411Y-81403547D01*
X178157208Y-81364991D01*
X178153411Y-81326436D01*
X178153411Y-80531856D01*
X179011132Y-79674137D01*
X179042991Y-79647991D01*
X179073704Y-79610568D01*
X179147336Y-79520846D01*
X179224872Y-79375787D01*
X179272618Y-79218389D01*
X179288740Y-79054700D01*
X179284700Y-79013682D01*
X179284700Y-75101113D01*
X179390162Y-75014562D01*
X179500605Y-74879987D01*
X179582672Y-74726451D01*
X179633208Y-74559855D01*
X179650272Y-74386601D01*
X179650272Y-73136599D01*
X179633208Y-72963345D01*
X179582672Y-72796749D01*
X179500605Y-72643213D01*
X179390162Y-72508638D01*
X179255587Y-72398195D01*
X179102051Y-72316128D01*
X178935455Y-72265592D01*
X178762201Y-72248528D01*
X178137199Y-72248528D01*
X177963945Y-72265592D01*
X177797349Y-72316128D01*
X177643813Y-72398195D01*
X177509238Y-72508638D01*
X177398795Y-72643213D01*
X177316728Y-72796749D01*
X177266192Y-72963345D01*
X177249128Y-73136599D01*
X177249128Y-74386601D01*
X177266192Y-74559855D01*
X177316728Y-74726451D01*
X177398795Y-74879987D01*
X177509238Y-75014562D01*
X177614700Y-75101113D01*
X177614700Y-75230622D01*
X177460152Y-75215400D01*
X177041689Y-75215400D01*
X176621121Y-74794832D01*
X176657672Y-74726451D01*
X176708208Y-74559855D01*
X176725272Y-74386601D01*
X176725272Y-73136599D01*
X176708208Y-72963345D01*
X176657672Y-72796749D01*
X176575605Y-72643213D01*
X176465162Y-72508638D01*
X176330587Y-72398195D01*
X176177051Y-72316128D01*
X176010455Y-72265592D01*
X175837201Y-72248528D01*
X175212199Y-72248528D01*
X175038945Y-72265592D01*
X174872349Y-72316128D01*
X174718813Y-72398195D01*
X174584238Y-72508638D01*
X174473795Y-72643213D01*
X174391728Y-72796749D01*
X174341192Y-72963345D01*
X174324128Y-73136599D01*
X174324128Y-74386601D01*
X174341192Y-74559855D01*
X174391728Y-74726451D01*
X174473795Y-74879987D01*
X174584238Y-75014562D01*
X174585665Y-75015733D01*
X174585176Y-75020700D01*
X174603229Y-75203991D01*
X174637505Y-75316983D01*
X174656694Y-75380240D01*
X174743515Y-75542672D01*
X174860357Y-75685044D01*
X174896036Y-75714325D01*
X175214634Y-76032923D01*
X175185823Y-76127901D01*
X175163909Y-76350400D01*
X175177263Y-76485986D01*
X175089918Y-76494588D01*
X174970220Y-76530898D01*
X174859906Y-76589863D01*
X174763215Y-76669215D01*
X174683863Y-76765906D01*
X174624898Y-76876220D01*
X174588588Y-76995918D01*
X174576328Y-77120400D01*
X174576328Y-77720400D01*
X174586177Y-77820400D01*
X174576328Y-77920400D01*
X174579400Y-77934650D01*
X174642775Y-77998025D01*
X174683863Y-78074894D01*
X174763215Y-78171585D01*
X174853159Y-78245400D01*
X174763215Y-78319215D01*
X174740084Y-78347400D01*
X174738150Y-78347400D01*
X174579400Y-78506150D01*
X174576328Y-78520400D01*
X174588588Y-78644882D01*
X174588745Y-78645400D01*
X174588588Y-78645918D01*
X174576328Y-78770400D01*
X174576328Y-79070400D01*
X174582730Y-79135400D01*
X174296268Y-79135400D01*
X173385410Y-78224543D01*
X173385410Y-75069197D01*
X173389449Y-75028189D01*
X173385410Y-74987181D01*
X173385410Y-74987171D01*
X173373328Y-74864501D01*
X173325582Y-74707103D01*
X173248046Y-74562044D01*
X173143701Y-74434899D01*
X173111836Y-74408748D01*
X172495087Y-73791999D01*
X172577894Y-73747737D01*
X172674585Y-73668385D01*
X172753937Y-73571694D01*
X172812902Y-73461380D01*
X172849212Y-73341682D01*
X172861472Y-73217200D01*
X172858400Y-72940450D01*
X172699650Y-72781700D01*
X171475400Y-72781700D01*
X171475400Y-72801700D01*
X171221400Y-72801700D01*
X171221400Y-72781700D01*
X169997150Y-72781700D01*
X169838400Y-72940450D01*
X169836618Y-73100989D01*
X168163819Y-73100989D01*
X167155030Y-72092200D01*
X169835328Y-72092200D01*
X169838400Y-72368950D01*
X169997150Y-72527700D01*
X171221400Y-72527700D01*
X171221400Y-71615950D01*
X171475400Y-71615950D01*
X171475400Y-72527700D01*
X172699650Y-72527700D01*
X172858400Y-72368950D01*
X172861472Y-72092200D01*
X172849212Y-71967718D01*
X172812902Y-71848020D01*
X172753937Y-71737706D01*
X172674585Y-71641015D01*
X172577894Y-71561663D01*
X172467580Y-71502698D01*
X172347882Y-71466388D01*
X172223400Y-71454128D01*
X171634150Y-71457200D01*
X171475400Y-71615950D01*
X171221400Y-71615950D01*
X171062650Y-71457200D01*
X170473400Y-71454128D01*
X170348918Y-71466388D01*
X170229220Y-71502698D01*
X170118906Y-71561663D01*
X170022215Y-71641015D01*
X169942863Y-71737706D01*
X169883898Y-71848020D01*
X169847588Y-71967718D01*
X169835328Y-72092200D01*
X167155030Y-72092200D01*
X166463404Y-71400575D01*
X166555990Y-71262011D01*
X166667932Y-70991758D01*
X166725000Y-70704860D01*
X166725000Y-70412340D01*
X166667932Y-70125442D01*
X166555990Y-69855189D01*
X166393475Y-69611968D01*
X166186632Y-69405125D01*
X166012240Y-69288600D01*
X166186632Y-69172075D01*
X166393475Y-68965232D01*
X166555990Y-68722011D01*
X166667932Y-68451758D01*
X166725000Y-68164860D01*
X166725000Y-67872340D01*
X166667932Y-67585442D01*
X166555990Y-67315189D01*
X166393475Y-67071968D01*
X166186632Y-66865125D01*
X166012240Y-66748600D01*
X166186632Y-66632075D01*
X166393475Y-66425232D01*
X166555990Y-66182011D01*
X166667932Y-65911758D01*
X166725000Y-65624860D01*
X166725000Y-65332340D01*
X166667932Y-65045442D01*
X166555990Y-64775189D01*
X166439233Y-64600450D01*
X169621215Y-64600450D01*
X169914018Y-64629160D01*
X170164908Y-64704908D01*
X170396301Y-64827942D01*
X170599390Y-64993577D01*
X170766444Y-65195511D01*
X170891089Y-65426037D01*
X170968586Y-65676390D01*
X170999150Y-65967180D01*
X170999150Y-66005828D01*
X171008614Y-66101919D01*
X171046013Y-66225208D01*
X171075560Y-66280485D01*
X171377002Y-66850780D01*
X171393355Y-66876838D01*
X171408271Y-66903748D01*
X171417846Y-66917943D01*
X172010538Y-67772305D01*
X172035661Y-67803330D01*
X172059977Y-67835019D01*
X172071545Y-67847643D01*
X172784009Y-68605014D01*
X172813430Y-68631974D01*
X172842174Y-68659731D01*
X172855481Y-68670506D01*
X173672065Y-69314250D01*
X173705167Y-69336578D01*
X173737681Y-69359769D01*
X173752434Y-69368460D01*
X174655201Y-69884433D01*
X174691234Y-69901620D01*
X174726822Y-69919753D01*
X174742698Y-69926167D01*
X175711814Y-70303036D01*
X175749995Y-70314709D01*
X175787870Y-70327382D01*
X175804515Y-70331378D01*
X175804519Y-70331379D01*
X175804522Y-70331379D01*
X176818696Y-70560864D01*
X176858204Y-70566769D01*
X176897516Y-70573700D01*
X176914557Y-70575191D01*
X176914573Y-70575193D01*
X176914586Y-70575193D01*
X177943708Y-70651670D01*
X177967875Y-70654050D01*
X179968015Y-70654050D01*
X180455052Y-70701805D01*
X180892779Y-70833962D01*
X181296493Y-71048620D01*
X181650827Y-71337608D01*
X181942279Y-71689913D01*
X182159752Y-72092122D01*
X182294962Y-72528910D01*
X182345951Y-73014036D01*
X182345951Y-75835142D01*
X182282684Y-75716777D01*
X182140849Y-75543951D01*
X181968023Y-75402116D01*
X181770847Y-75296724D01*
X181556899Y-75231823D01*
X181390152Y-75215400D01*
X180678648Y-75215400D01*
X180511901Y-75231823D01*
X180297953Y-75296724D01*
X180100777Y-75402116D01*
X179927951Y-75543951D01*
X179786116Y-75716777D01*
X179680724Y-75913953D01*
X179615823Y-76127901D01*
X179593909Y-76350400D01*
X179615823Y-76572899D01*
X179680724Y-76786847D01*
X179786116Y-76984023D01*
X179927951Y-77156849D01*
X180100777Y-77298684D01*
X180297953Y-77404076D01*
X180511901Y-77468977D01*
X180678648Y-77485400D01*
X181390152Y-77485400D01*
X181556899Y-77468977D01*
X181770847Y-77404076D01*
X181968023Y-77298684D01*
X182140849Y-77156849D01*
X182282684Y-76984023D01*
X182345951Y-76865658D01*
X182345950Y-84475140D01*
X182282684Y-84356777D01*
X182140849Y-84183951D01*
X181968023Y-84042116D01*
X181770847Y-83936724D01*
X181556899Y-83871823D01*
X181390152Y-83855400D01*
X180678648Y-83855400D01*
X180511901Y-83871823D01*
X180297953Y-83936724D01*
X180100777Y-84042116D01*
X179927951Y-84183951D01*
X179786116Y-84356777D01*
X179680724Y-84553953D01*
X179615823Y-84767901D01*
X179593909Y-84990400D01*
X179615823Y-85212899D01*
X179680724Y-85426847D01*
X179786116Y-85624023D01*
X179927951Y-85796849D01*
X180100777Y-85938684D01*
X180297953Y-86044076D01*
X180511901Y-86108977D01*
X180678648Y-86125400D01*
X181390152Y-86125400D01*
X181556899Y-86108977D01*
X181770847Y-86044076D01*
X181968023Y-85938684D01*
X182140849Y-85796849D01*
X182282684Y-85624023D01*
X182345950Y-85505660D01*
X182345950Y-85968016D01*
X182336285Y-86066583D01*
X182316946Y-86130637D01*
X182285536Y-86189711D01*
X182243250Y-86241559D01*
X182191702Y-86284204D01*
X182132845Y-86316027D01*
X182068933Y-86335811D01*
X181972473Y-86345950D01*
X133031984Y-86345950D01*
X132933417Y-86336285D01*
X132869363Y-86316946D01*
X132810289Y-86285536D01*
X132758441Y-86243250D01*
X132715796Y-86191702D01*
X132683973Y-86132845D01*
X132664189Y-86068933D01*
X132654050Y-85972473D01*
X132654050Y-85041200D01*
X132739109Y-85041200D01*
X132761023Y-85263699D01*
X132825924Y-85477647D01*
X132931316Y-85674823D01*
X133073151Y-85847649D01*
X133245977Y-85989484D01*
X133443153Y-86094876D01*
X133657101Y-86159777D01*
X133823848Y-86176200D01*
X134535352Y-86176200D01*
X134702099Y-86159777D01*
X134916047Y-86094876D01*
X135113223Y-85989484D01*
X135286049Y-85847649D01*
X135427884Y-85674823D01*
X135533276Y-85477647D01*
X135598177Y-85263699D01*
X135620091Y-85041200D01*
X135598177Y-84818701D01*
X135533276Y-84604753D01*
X135427884Y-84407577D01*
X135286049Y-84234751D01*
X135113223Y-84092916D01*
X134916047Y-83987524D01*
X134702099Y-83922623D01*
X134535352Y-83906200D01*
X133823848Y-83906200D01*
X133657101Y-83922623D01*
X133443153Y-83987524D01*
X133245977Y-84092916D01*
X133073151Y-84234751D01*
X132931316Y-84407577D01*
X132825924Y-84604753D01*
X132761023Y-84818701D01*
X132739109Y-85041200D01*
X132654050Y-85041200D01*
X132654050Y-76401200D01*
X132739109Y-76401200D01*
X132761023Y-76623699D01*
X132825924Y-76837647D01*
X132931316Y-77034823D01*
X133073151Y-77207649D01*
X133245977Y-77349484D01*
X133443153Y-77454876D01*
X133657101Y-77519777D01*
X133823848Y-77536200D01*
X134535352Y-77536200D01*
X134702099Y-77519777D01*
X134916047Y-77454876D01*
X135113223Y-77349484D01*
X135286049Y-77207649D01*
X135427884Y-77034823D01*
X135533276Y-76837647D01*
X135598177Y-76623699D01*
X135620091Y-76401200D01*
X135598177Y-76178701D01*
X135533276Y-75964753D01*
X135427884Y-75767577D01*
X135286049Y-75594751D01*
X135113223Y-75452916D01*
X134916047Y-75347524D01*
X134702099Y-75282623D01*
X134535352Y-75266200D01*
X133823848Y-75266200D01*
X133657101Y-75282623D01*
X133443153Y-75347524D01*
X133245977Y-75452916D01*
X133073151Y-75594751D01*
X132931316Y-75767577D01*
X132825924Y-75964753D01*
X132761023Y-76178701D01*
X132739109Y-76401200D01*
X132654050Y-76401200D01*
X132654050Y-73031985D01*
X132701805Y-72544948D01*
X132823159Y-72143000D01*
X142454128Y-72143000D01*
X142457200Y-72419750D01*
X142615950Y-72578500D01*
X143840200Y-72578500D01*
X143840200Y-71666750D01*
X143681450Y-71508000D01*
X143092200Y-71504928D01*
X142967718Y-71517188D01*
X142848020Y-71553498D01*
X142737706Y-71612463D01*
X142641015Y-71691815D01*
X142561663Y-71788506D01*
X142502698Y-71898820D01*
X142466388Y-72018518D01*
X142454128Y-72143000D01*
X132823159Y-72143000D01*
X132833962Y-72107221D01*
X133048620Y-71703507D01*
X133337608Y-71349173D01*
X133689913Y-71057721D01*
X134092122Y-70840248D01*
X134528910Y-70705038D01*
X135014027Y-70654050D01*
X137032125Y-70654050D01*
X137048153Y-70652471D01*
X137719467Y-70619434D01*
X137750992Y-70615526D01*
X137782692Y-70613234D01*
X137799598Y-70610516D01*
X138821714Y-70432407D01*
X138860441Y-70422654D01*
X138899404Y-70413920D01*
X138915721Y-70408733D01*
X139900285Y-70081501D01*
X139937132Y-70066137D01*
X139974387Y-70051735D01*
X139989753Y-70044195D01*
X139989760Y-70044192D01*
X139989765Y-70044189D01*
X140915140Y-69575027D01*
X140949313Y-69554384D01*
X140984029Y-69534635D01*
X140998117Y-69524904D01*
X141843986Y-68924113D01*
X141874744Y-68898637D01*
X141906148Y-68873981D01*
X141918634Y-68862283D01*
X141918643Y-68862275D01*
X141918649Y-68862268D01*
X142666419Y-68143055D01*
X142693076Y-68113309D01*
X142720488Y-68084286D01*
X142731109Y-68070869D01*
X142731116Y-68070861D01*
X142731121Y-68070854D01*
X143364370Y-67249012D01*
X143386337Y-67215653D01*
X143409158Y-67182897D01*
X143417685Y-67168049D01*
X143921618Y-66263221D01*
X143952296Y-66208894D01*
X143982458Y-66117170D01*
X144003228Y-66024079D01*
X144014916Y-65928234D01*
X144014746Y-65925965D01*
X144044899Y-65663621D01*
X144124825Y-65414036D01*
X144251706Y-65184726D01*
X144420713Y-64984428D01*
X144625401Y-64820775D01*
X144857980Y-64699994D01*
X145111131Y-64626240D01*
X145387998Y-64600450D01*
X148800767Y-64600450D01*
X148684010Y-64775189D01*
G37*
G04 #@! TD.AperFunction*
M02*
