M48
; DRILL file {KiCad (5.1.10-1-10_14)} date Wednesday, July 14, 2021 at 02:00:39 PM
; FORMAT={-:-/ absolute / metric / decimal}
; #@! TF.CreationDate,2021-07-14T14:00:39-07:00
; #@! TF.GenerationSoftware,Kicad,Pcbnew,(5.1.10-1-10_14)
; #@! TF.FileFunction,Plated,1,2,PTH
FMAT,2
METRIC
T1C0.300
T2C0.600
T3C1.000
%
G90
G05
T1
X142.494Y-80.01
X145.034Y-80.01
T3
X150.0Y-65.479
X150.0Y-68.019
X150.0Y-70.559
X150.0Y-73.099
X150.0Y-75.639
X150.0Y-78.179
X150.0Y-80.719
X150.0Y-83.259
X165.24Y-65.479
X165.24Y-68.019
X165.24Y-70.559
X165.24Y-73.099
X165.24Y-75.639
X165.24Y-78.179
X165.24Y-80.719
X165.24Y-83.259
T2
X134.48Y-76.401G85X133.88Y-76.401
G05
X134.48Y-85.041G85X133.88Y-85.041
G05
X138.91Y-76.401G85X137.81Y-76.401
G05
X138.91Y-85.041G85X137.81Y-85.041
G05
X176.304Y-76.35G85X177.404Y-76.35
G05
X176.304Y-84.99G85X177.404Y-84.99
G05
X180.734Y-76.35G85X181.334Y-76.35
G05
X180.734Y-84.99G85X181.334Y-84.99
G05
T0
M30
