G04 #@! TF.GenerationSoftware,KiCad,Pcbnew,(5.1.10-1-10_14)*
G04 #@! TF.CreationDate,2021-07-13T22:04:03-07:00*
G04 #@! TF.ProjectId,Synapse,53796e61-7073-4652-9e6b-696361645f70,rev?*
G04 #@! TF.SameCoordinates,Original*
G04 #@! TF.FileFunction,Soldermask,Bot*
G04 #@! TF.FilePolarity,Negative*
%FSLAX46Y46*%
G04 Gerber Fmt 4.6, Leading zero omitted, Abs format (unit mm)*
G04 Created by KiCad (PCBNEW (5.1.10-1-10_14)) date 2021-07-13 22:04:03*
%MOMM*%
%LPD*%
G01*
G04 APERTURE LIST*
%ADD10C,1.700000*%
%ADD11R,1.700000X1.700000*%
%ADD12O,1.600000X1.000000*%
%ADD13C,0.650000*%
%ADD14O,2.100000X1.000000*%
G04 APERTURE END LIST*
D10*
X165240000Y-35000000D03*
D11*
X150000000Y-35000000D03*
D10*
X165240000Y-37540000D03*
X150000000Y-37540000D03*
X165240000Y-40080000D03*
X150000000Y-40080000D03*
X165240000Y-42620000D03*
X150000000Y-42620000D03*
X165240000Y-45160000D03*
X150000000Y-45160000D03*
X165240000Y-47700000D03*
X150000000Y-47700000D03*
X165240000Y-50240000D03*
X150000000Y-50240000D03*
X165240000Y-52780000D03*
X150000000Y-52780000D03*
X165240000Y-55320000D03*
X150000000Y-55320000D03*
X165240000Y-57860000D03*
X150000000Y-57860000D03*
X165240000Y-60400000D03*
X150000000Y-60400000D03*
X165240000Y-62940000D03*
X150000000Y-62940000D03*
X165240000Y-65480000D03*
X150000000Y-65480000D03*
X165240000Y-68020000D03*
X150000000Y-68020000D03*
X165240000Y-70560000D03*
X150000000Y-70560000D03*
X165240000Y-73100000D03*
X150000000Y-73100000D03*
X165240000Y-75640000D03*
X150000000Y-75640000D03*
X165240000Y-78180000D03*
X150000000Y-78180000D03*
X165240000Y-80720000D03*
X150000000Y-80720000D03*
X165240000Y-83260000D03*
X150000000Y-83260000D03*
D12*
X134179600Y-85041200D03*
D13*
X137829600Y-83611200D03*
D12*
X134179600Y-76401200D03*
D13*
X137829600Y-77831200D03*
D14*
X138359600Y-76401200D03*
X138359600Y-85041200D03*
X176854400Y-76350400D03*
X176854400Y-84990400D03*
D13*
X177384400Y-83560400D03*
D12*
X181034400Y-84990400D03*
D13*
X177384400Y-77780400D03*
D12*
X181034400Y-76350400D03*
M02*
