G04 #@! TF.GenerationSoftware,KiCad,Pcbnew,(5.1.10-1-10_14)*
G04 #@! TF.CreationDate,2021-07-14T14:00:36-07:00*
G04 #@! TF.ProjectId,Synapse,53796e61-7073-4652-9e6b-696361645f70,rev?*
G04 #@! TF.SameCoordinates,Original*
G04 #@! TF.FileFunction,Legend,Top*
G04 #@! TF.FilePolarity,Positive*
%FSLAX46Y46*%
G04 Gerber Fmt 4.6, Leading zero omitted, Abs format (unit mm)*
G04 Created by KiCad (PCBNEW (5.1.10-1-10_14)) date 2021-07-14 14:00:36*
%MOMM*%
%LPD*%
G01*
G04 APERTURE LIST*
%ADD10C,0.120000*%
%ADD11C,0.150000*%
%ADD12C,1.700000*%
%ADD13R,1.450000X0.600000*%
%ADD14R,1.450000X0.300000*%
%ADD15O,2.100000X1.000000*%
%ADD16C,0.650000*%
%ADD17O,1.600000X1.000000*%
G04 APERTURE END LIST*
D10*
X146245000Y-63958600D02*
X168995000Y-63958600D01*
X168995000Y-63958600D02*
X168995000Y-85453600D01*
X168995000Y-85453600D02*
X146245000Y-85453600D01*
X146245000Y-85453600D02*
X146245000Y-63958600D01*
X151330000Y-63958600D02*
X151330000Y-84338600D01*
X151330000Y-84338600D02*
X148670000Y-84338600D01*
X148670000Y-84338600D02*
X148670000Y-63958600D01*
X166510000Y-63958600D02*
X166510000Y-84278600D01*
X166510000Y-84278600D02*
X163970000Y-84278600D01*
X163970000Y-84278600D02*
X163970000Y-63958600D01*
X144877200Y-73440936D02*
X144877200Y-74895064D01*
X143057200Y-73440936D02*
X143057200Y-74895064D01*
X172258400Y-73390136D02*
X172258400Y-74844264D01*
X170438400Y-73390136D02*
X170438400Y-74844264D01*
X137499736Y-72851600D02*
X138953864Y-72851600D01*
X137499736Y-74671600D02*
X138953864Y-74671600D01*
X177714264Y-74671600D02*
X176260136Y-74671600D01*
X177714264Y-72851600D02*
X176260136Y-72851600D01*
X131329600Y-76021200D02*
X131329600Y-85421200D01*
X137129600Y-85421200D02*
X135129600Y-85421200D01*
X133229600Y-85421200D02*
X131329600Y-85421200D01*
X137129600Y-76021200D02*
X135129600Y-76021200D01*
X133229600Y-76021200D02*
X131329600Y-76021200D01*
X183884400Y-85370400D02*
X183884400Y-75970400D01*
X178084400Y-75970400D02*
X180084400Y-75970400D01*
X181984400Y-75970400D02*
X183884400Y-75970400D01*
X178084400Y-85370400D02*
X180084400Y-85370400D01*
X181984400Y-85370400D02*
X183884400Y-85370400D01*
D11*
X156858095Y-59600980D02*
X156858095Y-60410504D01*
X156905714Y-60505742D01*
X156953333Y-60553361D01*
X157048571Y-60600980D01*
X157239047Y-60600980D01*
X157334285Y-60553361D01*
X157381904Y-60505742D01*
X157429523Y-60410504D01*
X157429523Y-59600980D01*
X157858095Y-59696219D02*
X157905714Y-59648600D01*
X158000952Y-59600980D01*
X158239047Y-59600980D01*
X158334285Y-59648600D01*
X158381904Y-59696219D01*
X158429523Y-59791457D01*
X158429523Y-59886695D01*
X158381904Y-60029552D01*
X157810476Y-60600980D01*
X158429523Y-60600980D01*
X143833333Y-72952380D02*
X143500000Y-72476190D01*
X143261904Y-72952380D02*
X143261904Y-71952380D01*
X143642857Y-71952380D01*
X143738095Y-72000000D01*
X143785714Y-72047619D01*
X143833333Y-72142857D01*
X143833333Y-72285714D01*
X143785714Y-72380952D01*
X143738095Y-72428571D01*
X143642857Y-72476190D01*
X143261904Y-72476190D01*
X144785714Y-72952380D02*
X144214285Y-72952380D01*
X144500000Y-72952380D02*
X144500000Y-71952380D01*
X144404761Y-72095238D01*
X144309523Y-72190476D01*
X144214285Y-72238095D01*
X171333333Y-72952380D02*
X171000000Y-72476190D01*
X170761904Y-72952380D02*
X170761904Y-71952380D01*
X171142857Y-71952380D01*
X171238095Y-72000000D01*
X171285714Y-72047619D01*
X171333333Y-72142857D01*
X171333333Y-72285714D01*
X171285714Y-72380952D01*
X171238095Y-72428571D01*
X171142857Y-72476190D01*
X170761904Y-72476190D01*
X171714285Y-72047619D02*
X171761904Y-72000000D01*
X171857142Y-71952380D01*
X172095238Y-71952380D01*
X172190476Y-72000000D01*
X172238095Y-72047619D01*
X172285714Y-72142857D01*
X172285714Y-72238095D01*
X172238095Y-72380952D01*
X171666666Y-72952380D01*
X172285714Y-72952380D01*
X134554933Y-74213980D02*
X134221600Y-73737790D01*
X133983504Y-74213980D02*
X133983504Y-73213980D01*
X134364457Y-73213980D01*
X134459695Y-73261600D01*
X134507314Y-73309219D01*
X134554933Y-73404457D01*
X134554933Y-73547314D01*
X134507314Y-73642552D01*
X134459695Y-73690171D01*
X134364457Y-73737790D01*
X133983504Y-73737790D01*
X134888266Y-73213980D02*
X135507314Y-73213980D01*
X135173980Y-73594933D01*
X135316838Y-73594933D01*
X135412076Y-73642552D01*
X135459695Y-73690171D01*
X135507314Y-73785409D01*
X135507314Y-74023504D01*
X135459695Y-74118742D01*
X135412076Y-74166361D01*
X135316838Y-74213980D01*
X135031123Y-74213980D01*
X134935885Y-74166361D01*
X134888266Y-74118742D01*
X180224133Y-74213980D02*
X179890800Y-73737790D01*
X179652704Y-74213980D02*
X179652704Y-73213980D01*
X180033657Y-73213980D01*
X180128895Y-73261600D01*
X180176514Y-73309219D01*
X180224133Y-73404457D01*
X180224133Y-73547314D01*
X180176514Y-73642552D01*
X180128895Y-73690171D01*
X180033657Y-73737790D01*
X179652704Y-73737790D01*
X181081276Y-73547314D02*
X181081276Y-74213980D01*
X180843180Y-73166361D02*
X180605085Y-73880647D01*
X181224133Y-73880647D01*
X140326980Y-82459295D02*
X141136504Y-82459295D01*
X141231742Y-82411676D01*
X141279361Y-82364057D01*
X141326980Y-82268819D01*
X141326980Y-82078342D01*
X141279361Y-81983104D01*
X141231742Y-81935485D01*
X141136504Y-81887866D01*
X140326980Y-81887866D01*
X141279361Y-81459295D02*
X141326980Y-81316438D01*
X141326980Y-81078342D01*
X141279361Y-80983104D01*
X141231742Y-80935485D01*
X141136504Y-80887866D01*
X141041266Y-80887866D01*
X140946028Y-80935485D01*
X140898409Y-80983104D01*
X140850790Y-81078342D01*
X140803171Y-81268819D01*
X140755552Y-81364057D01*
X140707933Y-81411676D01*
X140612695Y-81459295D01*
X140517457Y-81459295D01*
X140422219Y-81411676D01*
X140374600Y-81364057D01*
X140326980Y-81268819D01*
X140326980Y-81030723D01*
X140374600Y-80887866D01*
X140803171Y-80125961D02*
X140850790Y-79983104D01*
X140898409Y-79935485D01*
X140993647Y-79887866D01*
X141136504Y-79887866D01*
X141231742Y-79935485D01*
X141279361Y-79983104D01*
X141326980Y-80078342D01*
X141326980Y-80459295D01*
X140326980Y-80459295D01*
X140326980Y-80125961D01*
X140374600Y-80030723D01*
X140422219Y-79983104D01*
X140517457Y-79935485D01*
X140612695Y-79935485D01*
X140707933Y-79983104D01*
X140755552Y-80030723D01*
X140803171Y-80125961D01*
X140803171Y-80459295D01*
X141326980Y-78935485D02*
X141326980Y-79506914D01*
X141326980Y-79221200D02*
X140326980Y-79221200D01*
X140469838Y-79316438D01*
X140565076Y-79411676D01*
X140612695Y-79506914D01*
X173791780Y-82408495D02*
X174601304Y-82408495D01*
X174696542Y-82360876D01*
X174744161Y-82313257D01*
X174791780Y-82218019D01*
X174791780Y-82027542D01*
X174744161Y-81932304D01*
X174696542Y-81884685D01*
X174601304Y-81837066D01*
X173791780Y-81837066D01*
X174744161Y-81408495D02*
X174791780Y-81265638D01*
X174791780Y-81027542D01*
X174744161Y-80932304D01*
X174696542Y-80884685D01*
X174601304Y-80837066D01*
X174506066Y-80837066D01*
X174410828Y-80884685D01*
X174363209Y-80932304D01*
X174315590Y-81027542D01*
X174267971Y-81218019D01*
X174220352Y-81313257D01*
X174172733Y-81360876D01*
X174077495Y-81408495D01*
X173982257Y-81408495D01*
X173887019Y-81360876D01*
X173839400Y-81313257D01*
X173791780Y-81218019D01*
X173791780Y-80979923D01*
X173839400Y-80837066D01*
X174267971Y-80075161D02*
X174315590Y-79932304D01*
X174363209Y-79884685D01*
X174458447Y-79837066D01*
X174601304Y-79837066D01*
X174696542Y-79884685D01*
X174744161Y-79932304D01*
X174791780Y-80027542D01*
X174791780Y-80408495D01*
X173791780Y-80408495D01*
X173791780Y-80075161D01*
X173839400Y-79979923D01*
X173887019Y-79932304D01*
X173982257Y-79884685D01*
X174077495Y-79884685D01*
X174172733Y-79932304D01*
X174220352Y-79979923D01*
X174267971Y-80075161D01*
X174267971Y-80408495D01*
X173887019Y-79456114D02*
X173839400Y-79408495D01*
X173791780Y-79313257D01*
X173791780Y-79075161D01*
X173839400Y-78979923D01*
X173887019Y-78932304D01*
X173982257Y-78884685D01*
X174077495Y-78884685D01*
X174220352Y-78932304D01*
X174791780Y-79503733D01*
X174791780Y-78884685D01*
%LPC*%
D12*
X165240000Y-65478600D03*
X150000000Y-65478600D03*
X165240000Y-68018600D03*
X150000000Y-68018600D03*
X165240000Y-70558600D03*
X150000000Y-70558600D03*
X165240000Y-73098600D03*
X150000000Y-73098600D03*
X165240000Y-75638600D03*
X150000000Y-75638600D03*
X165240000Y-78178600D03*
X150000000Y-78178600D03*
X165240000Y-80718600D03*
X150000000Y-80718600D03*
X165240000Y-83258600D03*
X150000000Y-83258600D03*
G36*
G01*
X143342199Y-75068000D02*
X144592201Y-75068000D01*
G75*
G02*
X144842200Y-75317999I0J-249999D01*
G01*
X144842200Y-75943001D01*
G75*
G02*
X144592201Y-76193000I-249999J0D01*
G01*
X143342199Y-76193000D01*
G75*
G02*
X143092200Y-75943001I0J249999D01*
G01*
X143092200Y-75317999D01*
G75*
G02*
X143342199Y-75068000I249999J0D01*
G01*
G37*
G36*
G01*
X143342199Y-72143000D02*
X144592201Y-72143000D01*
G75*
G02*
X144842200Y-72392999I0J-249999D01*
G01*
X144842200Y-73018001D01*
G75*
G02*
X144592201Y-73268000I-249999J0D01*
G01*
X143342199Y-73268000D01*
G75*
G02*
X143092200Y-73018001I0J249999D01*
G01*
X143092200Y-72392999D01*
G75*
G02*
X143342199Y-72143000I249999J0D01*
G01*
G37*
G36*
G01*
X170723399Y-75017200D02*
X171973401Y-75017200D01*
G75*
G02*
X172223400Y-75267199I0J-249999D01*
G01*
X172223400Y-75892201D01*
G75*
G02*
X171973401Y-76142200I-249999J0D01*
G01*
X170723399Y-76142200D01*
G75*
G02*
X170473400Y-75892201I0J249999D01*
G01*
X170473400Y-75267199D01*
G75*
G02*
X170723399Y-75017200I249999J0D01*
G01*
G37*
G36*
G01*
X170723399Y-72092200D02*
X171973401Y-72092200D01*
G75*
G02*
X172223400Y-72342199I0J-249999D01*
G01*
X172223400Y-72967201D01*
G75*
G02*
X171973401Y-73217200I-249999J0D01*
G01*
X170723399Y-73217200D01*
G75*
G02*
X170473400Y-72967201I0J249999D01*
G01*
X170473400Y-72342199D01*
G75*
G02*
X170723399Y-72092200I249999J0D01*
G01*
G37*
G36*
G01*
X139126800Y-74386601D02*
X139126800Y-73136599D01*
G75*
G02*
X139376799Y-72886600I249999J0D01*
G01*
X140001801Y-72886600D01*
G75*
G02*
X140251800Y-73136599I0J-249999D01*
G01*
X140251800Y-74386601D01*
G75*
G02*
X140001801Y-74636600I-249999J0D01*
G01*
X139376799Y-74636600D01*
G75*
G02*
X139126800Y-74386601I0J249999D01*
G01*
G37*
G36*
G01*
X136201800Y-74386601D02*
X136201800Y-73136599D01*
G75*
G02*
X136451799Y-72886600I249999J0D01*
G01*
X137076801Y-72886600D01*
G75*
G02*
X137326800Y-73136599I0J-249999D01*
G01*
X137326800Y-74386601D01*
G75*
G02*
X137076801Y-74636600I-249999J0D01*
G01*
X136451799Y-74636600D01*
G75*
G02*
X136201800Y-74386601I0J249999D01*
G01*
G37*
G36*
G01*
X176087200Y-73136599D02*
X176087200Y-74386601D01*
G75*
G02*
X175837201Y-74636600I-249999J0D01*
G01*
X175212199Y-74636600D01*
G75*
G02*
X174962200Y-74386601I0J249999D01*
G01*
X174962200Y-73136599D01*
G75*
G02*
X175212199Y-72886600I249999J0D01*
G01*
X175837201Y-72886600D01*
G75*
G02*
X176087200Y-73136599I0J-249999D01*
G01*
G37*
G36*
G01*
X179012200Y-73136599D02*
X179012200Y-74386601D01*
G75*
G02*
X178762201Y-74636600I-249999J0D01*
G01*
X178137199Y-74636600D01*
G75*
G02*
X177887200Y-74386601I0J249999D01*
G01*
X177887200Y-73136599D01*
G75*
G02*
X178137199Y-72886600I249999J0D01*
G01*
X178762201Y-72886600D01*
G75*
G02*
X179012200Y-73136599I0J-249999D01*
G01*
G37*
D13*
X139274600Y-83971200D03*
X139274600Y-83171200D03*
X139274600Y-78271200D03*
X139274600Y-77471200D03*
X139274600Y-77471200D03*
X139274600Y-78271200D03*
X139274600Y-83171200D03*
X139274600Y-83971200D03*
D14*
X139274600Y-78971200D03*
X139274600Y-79471200D03*
X139274600Y-79971200D03*
X139274600Y-80971200D03*
X139274600Y-81471200D03*
X139274600Y-81971200D03*
X139274600Y-82471200D03*
X139274600Y-80471200D03*
D15*
X138359600Y-85041200D03*
X138359600Y-76401200D03*
D16*
X137829600Y-77831200D03*
D17*
X134179600Y-76401200D03*
D16*
X137829600Y-83611200D03*
D17*
X134179600Y-85041200D03*
D13*
X175939400Y-77420400D03*
X175939400Y-78220400D03*
X175939400Y-83120400D03*
X175939400Y-83920400D03*
X175939400Y-83920400D03*
X175939400Y-83120400D03*
X175939400Y-78220400D03*
X175939400Y-77420400D03*
D14*
X175939400Y-82420400D03*
X175939400Y-81920400D03*
X175939400Y-81420400D03*
X175939400Y-80420400D03*
X175939400Y-79920400D03*
X175939400Y-79420400D03*
X175939400Y-78920400D03*
X175939400Y-80920400D03*
D15*
X176854400Y-76350400D03*
X176854400Y-84990400D03*
D16*
X177384400Y-83560400D03*
D17*
X181034400Y-84990400D03*
D16*
X177384400Y-77780400D03*
D17*
X181034400Y-76350400D03*
M02*
