G04 #@! TF.GenerationSoftware,KiCad,Pcbnew,(5.1.10-1-10_14)*
G04 #@! TF.CreationDate,2021-07-14T14:00:36-07:00*
G04 #@! TF.ProjectId,Synapse,53796e61-7073-4652-9e6b-696361645f70,rev?*
G04 #@! TF.SameCoordinates,Original*
G04 #@! TF.FileFunction,Soldermask,Top*
G04 #@! TF.FilePolarity,Negative*
%FSLAX46Y46*%
G04 Gerber Fmt 4.6, Leading zero omitted, Abs format (unit mm)*
G04 Created by KiCad (PCBNEW (5.1.10-1-10_14)) date 2021-07-14 14:00:36*
%MOMM*%
%LPD*%
G01*
G04 APERTURE LIST*
%ADD10C,1.700000*%
%ADD11R,1.450000X0.600000*%
%ADD12R,1.450000X0.300000*%
%ADD13O,2.100000X1.000000*%
%ADD14C,0.650000*%
%ADD15O,1.600000X1.000000*%
G04 APERTURE END LIST*
D10*
X165240000Y-65478600D03*
X150000000Y-65478600D03*
X165240000Y-68018600D03*
X150000000Y-68018600D03*
X165240000Y-70558600D03*
X150000000Y-70558600D03*
X165240000Y-73098600D03*
X150000000Y-73098600D03*
X165240000Y-75638600D03*
X150000000Y-75638600D03*
X165240000Y-78178600D03*
X150000000Y-78178600D03*
X165240000Y-80718600D03*
X150000000Y-80718600D03*
X165240000Y-83258600D03*
X150000000Y-83258600D03*
G36*
G01*
X143342199Y-75068000D02*
X144592201Y-75068000D01*
G75*
G02*
X144842200Y-75317999I0J-249999D01*
G01*
X144842200Y-75943001D01*
G75*
G02*
X144592201Y-76193000I-249999J0D01*
G01*
X143342199Y-76193000D01*
G75*
G02*
X143092200Y-75943001I0J249999D01*
G01*
X143092200Y-75317999D01*
G75*
G02*
X143342199Y-75068000I249999J0D01*
G01*
G37*
G36*
G01*
X143342199Y-72143000D02*
X144592201Y-72143000D01*
G75*
G02*
X144842200Y-72392999I0J-249999D01*
G01*
X144842200Y-73018001D01*
G75*
G02*
X144592201Y-73268000I-249999J0D01*
G01*
X143342199Y-73268000D01*
G75*
G02*
X143092200Y-73018001I0J249999D01*
G01*
X143092200Y-72392999D01*
G75*
G02*
X143342199Y-72143000I249999J0D01*
G01*
G37*
G36*
G01*
X170723399Y-75017200D02*
X171973401Y-75017200D01*
G75*
G02*
X172223400Y-75267199I0J-249999D01*
G01*
X172223400Y-75892201D01*
G75*
G02*
X171973401Y-76142200I-249999J0D01*
G01*
X170723399Y-76142200D01*
G75*
G02*
X170473400Y-75892201I0J249999D01*
G01*
X170473400Y-75267199D01*
G75*
G02*
X170723399Y-75017200I249999J0D01*
G01*
G37*
G36*
G01*
X170723399Y-72092200D02*
X171973401Y-72092200D01*
G75*
G02*
X172223400Y-72342199I0J-249999D01*
G01*
X172223400Y-72967201D01*
G75*
G02*
X171973401Y-73217200I-249999J0D01*
G01*
X170723399Y-73217200D01*
G75*
G02*
X170473400Y-72967201I0J249999D01*
G01*
X170473400Y-72342199D01*
G75*
G02*
X170723399Y-72092200I249999J0D01*
G01*
G37*
G36*
G01*
X139126800Y-74386601D02*
X139126800Y-73136599D01*
G75*
G02*
X139376799Y-72886600I249999J0D01*
G01*
X140001801Y-72886600D01*
G75*
G02*
X140251800Y-73136599I0J-249999D01*
G01*
X140251800Y-74386601D01*
G75*
G02*
X140001801Y-74636600I-249999J0D01*
G01*
X139376799Y-74636600D01*
G75*
G02*
X139126800Y-74386601I0J249999D01*
G01*
G37*
G36*
G01*
X136201800Y-74386601D02*
X136201800Y-73136599D01*
G75*
G02*
X136451799Y-72886600I249999J0D01*
G01*
X137076801Y-72886600D01*
G75*
G02*
X137326800Y-73136599I0J-249999D01*
G01*
X137326800Y-74386601D01*
G75*
G02*
X137076801Y-74636600I-249999J0D01*
G01*
X136451799Y-74636600D01*
G75*
G02*
X136201800Y-74386601I0J249999D01*
G01*
G37*
G36*
G01*
X176087200Y-73136599D02*
X176087200Y-74386601D01*
G75*
G02*
X175837201Y-74636600I-249999J0D01*
G01*
X175212199Y-74636600D01*
G75*
G02*
X174962200Y-74386601I0J249999D01*
G01*
X174962200Y-73136599D01*
G75*
G02*
X175212199Y-72886600I249999J0D01*
G01*
X175837201Y-72886600D01*
G75*
G02*
X176087200Y-73136599I0J-249999D01*
G01*
G37*
G36*
G01*
X179012200Y-73136599D02*
X179012200Y-74386601D01*
G75*
G02*
X178762201Y-74636600I-249999J0D01*
G01*
X178137199Y-74636600D01*
G75*
G02*
X177887200Y-74386601I0J249999D01*
G01*
X177887200Y-73136599D01*
G75*
G02*
X178137199Y-72886600I249999J0D01*
G01*
X178762201Y-72886600D01*
G75*
G02*
X179012200Y-73136599I0J-249999D01*
G01*
G37*
D11*
X139274600Y-83971200D03*
X139274600Y-83171200D03*
X139274600Y-78271200D03*
X139274600Y-77471200D03*
X139274600Y-77471200D03*
X139274600Y-78271200D03*
X139274600Y-83171200D03*
X139274600Y-83971200D03*
D12*
X139274600Y-78971200D03*
X139274600Y-79471200D03*
X139274600Y-79971200D03*
X139274600Y-80971200D03*
X139274600Y-81471200D03*
X139274600Y-81971200D03*
X139274600Y-82471200D03*
X139274600Y-80471200D03*
D13*
X138359600Y-85041200D03*
X138359600Y-76401200D03*
D14*
X137829600Y-77831200D03*
D15*
X134179600Y-76401200D03*
D14*
X137829600Y-83611200D03*
D15*
X134179600Y-85041200D03*
D11*
X175939400Y-77420400D03*
X175939400Y-78220400D03*
X175939400Y-83120400D03*
X175939400Y-83920400D03*
X175939400Y-83920400D03*
X175939400Y-83120400D03*
X175939400Y-78220400D03*
X175939400Y-77420400D03*
D12*
X175939400Y-82420400D03*
X175939400Y-81920400D03*
X175939400Y-81420400D03*
X175939400Y-80420400D03*
X175939400Y-79920400D03*
X175939400Y-79420400D03*
X175939400Y-78920400D03*
X175939400Y-80920400D03*
D13*
X176854400Y-76350400D03*
X176854400Y-84990400D03*
D14*
X177384400Y-83560400D03*
D15*
X181034400Y-84990400D03*
D14*
X177384400Y-77780400D03*
D15*
X181034400Y-76350400D03*
M02*
