G04 #@! TF.GenerationSoftware,KiCad,Pcbnew,(5.1.10-1-10_14)*
G04 #@! TF.CreationDate,2021-07-13T22:04:03-07:00*
G04 #@! TF.ProjectId,Synapse,53796e61-7073-4652-9e6b-696361645f70,rev?*
G04 #@! TF.SameCoordinates,Original*
G04 #@! TF.FileFunction,Copper,L2,Bot*
G04 #@! TF.FilePolarity,Positive*
%FSLAX46Y46*%
G04 Gerber Fmt 4.6, Leading zero omitted, Abs format (unit mm)*
G04 Created by KiCad (PCBNEW (5.1.10-1-10_14)) date 2021-07-13 22:04:03*
%MOMM*%
%LPD*%
G01*
G04 APERTURE LIST*
G04 #@! TA.AperFunction,ComponentPad*
%ADD10C,1.700000*%
G04 #@! TD*
G04 #@! TA.AperFunction,ComponentPad*
%ADD11R,1.700000X1.700000*%
G04 #@! TD*
G04 #@! TA.AperFunction,ComponentPad*
%ADD12O,1.600000X1.000000*%
G04 #@! TD*
G04 #@! TA.AperFunction,ComponentPad*
%ADD13O,2.100000X1.000000*%
G04 #@! TD*
G04 #@! TA.AperFunction,ViaPad*
%ADD14C,0.600000*%
G04 #@! TD*
G04 #@! TA.AperFunction,Conductor*
%ADD15C,0.400000*%
G04 #@! TD*
G04 #@! TA.AperFunction,Conductor*
%ADD16C,0.254000*%
G04 #@! TD*
G04 #@! TA.AperFunction,Conductor*
%ADD17C,0.100000*%
G04 #@! TD*
G04 APERTURE END LIST*
D10*
X165240000Y-35000000D03*
D11*
X150000000Y-35000000D03*
D10*
X165240000Y-37540000D03*
X150000000Y-37540000D03*
X165240000Y-40080000D03*
X150000000Y-40080000D03*
X165240000Y-42620000D03*
X150000000Y-42620000D03*
X165240000Y-45160000D03*
X150000000Y-45160000D03*
X165240000Y-47700000D03*
X150000000Y-47700000D03*
X165240000Y-50240000D03*
X150000000Y-50240000D03*
X165240000Y-52780000D03*
X150000000Y-52780000D03*
X165240000Y-55320000D03*
X150000000Y-55320000D03*
X165240000Y-57860000D03*
X150000000Y-57860000D03*
X165240000Y-60400000D03*
X150000000Y-60400000D03*
X165240000Y-62940000D03*
X150000000Y-62940000D03*
X165240000Y-65480000D03*
X150000000Y-65480000D03*
X165240000Y-68020000D03*
X150000000Y-68020000D03*
X165240000Y-70560000D03*
X150000000Y-70560000D03*
X165240000Y-73100000D03*
X150000000Y-73100000D03*
X165240000Y-75640000D03*
X150000000Y-75640000D03*
X165240000Y-78180000D03*
X150000000Y-78180000D03*
X165240000Y-80720000D03*
X150000000Y-80720000D03*
X165240000Y-83260000D03*
X150000000Y-83260000D03*
D12*
X134179600Y-85041200D03*
X134179600Y-76401200D03*
D13*
X138359600Y-76401200D03*
X138359600Y-85041200D03*
X176854400Y-76350400D03*
X176854400Y-84990400D03*
D12*
X181034400Y-84990400D03*
X181034400Y-76350400D03*
D14*
X173888400Y-79908400D03*
X169418000Y-79654400D03*
X143154400Y-81076800D03*
X145084800Y-77266800D03*
X173939200Y-80822800D03*
X168757600Y-80467200D03*
X169621200Y-75742800D03*
X145440400Y-79908400D03*
X147116800Y-77368400D03*
D15*
X169672000Y-79908400D02*
X169418000Y-79654400D01*
X173888400Y-79908400D02*
X169672000Y-79908400D01*
X143154400Y-79197200D02*
X145084800Y-77266800D01*
X143154400Y-81076800D02*
X143154400Y-79197200D01*
X169113200Y-80822800D02*
X168757600Y-80467200D01*
X173939200Y-80822800D02*
X169113200Y-80822800D01*
X168757600Y-76606400D02*
X169621200Y-75742800D01*
X168757600Y-80467200D02*
X168757600Y-76606400D01*
X145440400Y-79044800D02*
X147116800Y-77368400D01*
X145440400Y-79908400D02*
X145440400Y-79044800D01*
D16*
X169260818Y-31682760D02*
X169511708Y-31758508D01*
X169743101Y-31881542D01*
X169946190Y-32047177D01*
X170113244Y-32249111D01*
X170237889Y-32479637D01*
X170315386Y-32729990D01*
X170345950Y-33020780D01*
X170345951Y-63032125D01*
X170347350Y-63046332D01*
X170373209Y-63638619D01*
X170376731Y-63668375D01*
X170378561Y-63698290D01*
X170381092Y-63715224D01*
X170547866Y-64739252D01*
X170557185Y-64778068D01*
X170565490Y-64817140D01*
X170570496Y-64833514D01*
X170886798Y-65821642D01*
X170901762Y-65858678D01*
X170915742Y-65896070D01*
X170923113Y-65911525D01*
X171381996Y-66842047D01*
X171402255Y-66876440D01*
X171421623Y-66911380D01*
X171431198Y-66925575D01*
X172022579Y-67778049D01*
X172047719Y-67809094D01*
X172072020Y-67840763D01*
X172083587Y-67853387D01*
X172794478Y-68609085D01*
X172823911Y-68636055D01*
X172852644Y-68663802D01*
X172865950Y-68674577D01*
X173680731Y-69316899D01*
X173713829Y-69339224D01*
X173746346Y-69362418D01*
X173761095Y-69371106D01*
X173761100Y-69371109D01*
X173761105Y-69371111D01*
X174661871Y-69885942D01*
X174697898Y-69903126D01*
X174733494Y-69921263D01*
X174749363Y-69927674D01*
X174749369Y-69927677D01*
X174749374Y-69927678D01*
X175716346Y-70303713D01*
X175754515Y-70315383D01*
X175792401Y-70328059D01*
X175809051Y-70332056D01*
X176820987Y-70561034D01*
X176860488Y-70566938D01*
X176899806Y-70573870D01*
X176916849Y-70575361D01*
X176916864Y-70575363D01*
X176916876Y-70575363D01*
X177943708Y-70651670D01*
X177967875Y-70654050D01*
X179968015Y-70654050D01*
X180455052Y-70701805D01*
X180892779Y-70833962D01*
X181296493Y-71048620D01*
X181650827Y-71337608D01*
X181942279Y-71689913D01*
X182159752Y-72092122D01*
X182294962Y-72528910D01*
X182345951Y-73014036D01*
X182345951Y-75821226D01*
X182226769Y-75637636D01*
X182070569Y-75477239D01*
X181886078Y-75350397D01*
X181680387Y-75261985D01*
X181461400Y-75215400D01*
X181161400Y-75215400D01*
X181161400Y-76223400D01*
X181181400Y-76223400D01*
X181181400Y-76477400D01*
X181161400Y-76477400D01*
X181161400Y-77485400D01*
X181461400Y-77485400D01*
X181680387Y-77438815D01*
X181886078Y-77350403D01*
X182070569Y-77223561D01*
X182226769Y-77063164D01*
X182345951Y-76879574D01*
X182345950Y-84461225D01*
X182226769Y-84277636D01*
X182070569Y-84117239D01*
X181886078Y-83990397D01*
X181680387Y-83901985D01*
X181461400Y-83855400D01*
X181161400Y-83855400D01*
X181161400Y-84863400D01*
X181181400Y-84863400D01*
X181181400Y-85117400D01*
X181161400Y-85117400D01*
X181161400Y-86125400D01*
X181461400Y-86125400D01*
X181680387Y-86078815D01*
X181886078Y-85990403D01*
X182070569Y-85863561D01*
X182226769Y-85703164D01*
X182345950Y-85519575D01*
X182345950Y-85968016D01*
X182336285Y-86066583D01*
X182316946Y-86130637D01*
X182285536Y-86189711D01*
X182243250Y-86241559D01*
X182191702Y-86284204D01*
X182132845Y-86316027D01*
X182068933Y-86335811D01*
X181972473Y-86345950D01*
X133031984Y-86345950D01*
X132933417Y-86336285D01*
X132869363Y-86316946D01*
X132810289Y-86285536D01*
X132758441Y-86243250D01*
X132715796Y-86191702D01*
X132683973Y-86132845D01*
X132664189Y-86068933D01*
X132654050Y-85972473D01*
X132654050Y-85343074D01*
X132785481Y-85343074D01*
X132865324Y-85566176D01*
X132987231Y-85753964D01*
X133143431Y-85914361D01*
X133327922Y-86041203D01*
X133533613Y-86129615D01*
X133752600Y-86176200D01*
X134052600Y-86176200D01*
X134052600Y-85168200D01*
X134306600Y-85168200D01*
X134306600Y-86176200D01*
X134606600Y-86176200D01*
X134825587Y-86129615D01*
X135031278Y-86041203D01*
X135215769Y-85914361D01*
X135371969Y-85753964D01*
X135493876Y-85566176D01*
X135573719Y-85343074D01*
X136715481Y-85343074D01*
X136795324Y-85566176D01*
X136917231Y-85753964D01*
X137073431Y-85914361D01*
X137257922Y-86041203D01*
X137463613Y-86129615D01*
X137682600Y-86176200D01*
X138232600Y-86176200D01*
X138232600Y-85168200D01*
X138486600Y-85168200D01*
X138486600Y-86176200D01*
X139036600Y-86176200D01*
X139255587Y-86129615D01*
X139461278Y-86041203D01*
X139645769Y-85914361D01*
X139801969Y-85753964D01*
X139923876Y-85566176D01*
X140003719Y-85343074D01*
X139967069Y-85292274D01*
X175210281Y-85292274D01*
X175290124Y-85515376D01*
X175412031Y-85703164D01*
X175568231Y-85863561D01*
X175752722Y-85990403D01*
X175958413Y-86078815D01*
X176177400Y-86125400D01*
X176727400Y-86125400D01*
X176727400Y-85117400D01*
X176981400Y-85117400D01*
X176981400Y-86125400D01*
X177531400Y-86125400D01*
X177750387Y-86078815D01*
X177956078Y-85990403D01*
X178140569Y-85863561D01*
X178296769Y-85703164D01*
X178418676Y-85515376D01*
X178498519Y-85292274D01*
X179640281Y-85292274D01*
X179720124Y-85515376D01*
X179842031Y-85703164D01*
X179998231Y-85863561D01*
X180182722Y-85990403D01*
X180388413Y-86078815D01*
X180607400Y-86125400D01*
X180907400Y-86125400D01*
X180907400Y-85117400D01*
X179766446Y-85117400D01*
X179640281Y-85292274D01*
X178498519Y-85292274D01*
X178372354Y-85117400D01*
X176981400Y-85117400D01*
X176727400Y-85117400D01*
X175336446Y-85117400D01*
X175210281Y-85292274D01*
X139967069Y-85292274D01*
X139877554Y-85168200D01*
X138486600Y-85168200D01*
X138232600Y-85168200D01*
X136841646Y-85168200D01*
X136715481Y-85343074D01*
X135573719Y-85343074D01*
X135447554Y-85168200D01*
X134306600Y-85168200D01*
X134052600Y-85168200D01*
X132911646Y-85168200D01*
X132785481Y-85343074D01*
X132654050Y-85343074D01*
X132654050Y-84739326D01*
X132785481Y-84739326D01*
X132911646Y-84914200D01*
X134052600Y-84914200D01*
X134052600Y-83906200D01*
X134306600Y-83906200D01*
X134306600Y-84914200D01*
X135447554Y-84914200D01*
X135573719Y-84739326D01*
X136715481Y-84739326D01*
X136841646Y-84914200D01*
X138232600Y-84914200D01*
X138232600Y-84894200D01*
X138486600Y-84894200D01*
X138486600Y-84914200D01*
X139877554Y-84914200D01*
X140003719Y-84739326D01*
X139923876Y-84516224D01*
X139801969Y-84328436D01*
X139645769Y-84168039D01*
X139461278Y-84041197D01*
X139255587Y-83952785D01*
X139036600Y-83906200D01*
X138746504Y-83906200D01*
X138752708Y-83891222D01*
X138789600Y-83705752D01*
X138789600Y-83516648D01*
X138752708Y-83331178D01*
X138680341Y-83156469D01*
X138651791Y-83113740D01*
X148515000Y-83113740D01*
X148515000Y-83406260D01*
X148572068Y-83693158D01*
X148684010Y-83963411D01*
X148846525Y-84206632D01*
X149053368Y-84413475D01*
X149296589Y-84575990D01*
X149566842Y-84687932D01*
X149853740Y-84745000D01*
X150146260Y-84745000D01*
X150433158Y-84687932D01*
X150703411Y-84575990D01*
X150946632Y-84413475D01*
X151153475Y-84206632D01*
X151315990Y-83963411D01*
X151427932Y-83693158D01*
X151485000Y-83406260D01*
X151485000Y-83113740D01*
X151427932Y-82826842D01*
X151315990Y-82556589D01*
X151153475Y-82313368D01*
X150946632Y-82106525D01*
X150773271Y-81990689D01*
X150848792Y-81748397D01*
X150000000Y-80899605D01*
X149151208Y-81748397D01*
X149226729Y-81990689D01*
X149053368Y-82106525D01*
X148846525Y-82313368D01*
X148684010Y-82556589D01*
X148572068Y-82826842D01*
X148515000Y-83113740D01*
X138651791Y-83113740D01*
X138575281Y-82999236D01*
X138441564Y-82865519D01*
X138284331Y-82760459D01*
X138109622Y-82688092D01*
X137924152Y-82651200D01*
X137735048Y-82651200D01*
X137549578Y-82688092D01*
X137374869Y-82760459D01*
X137217636Y-82865519D01*
X137083919Y-82999236D01*
X136978859Y-83156469D01*
X136906492Y-83331178D01*
X136869600Y-83516648D01*
X136869600Y-83705752D01*
X136906492Y-83891222D01*
X136978859Y-84065931D01*
X137057806Y-84184084D01*
X136917231Y-84328436D01*
X136795324Y-84516224D01*
X136715481Y-84739326D01*
X135573719Y-84739326D01*
X135493876Y-84516224D01*
X135371969Y-84328436D01*
X135215769Y-84168039D01*
X135031278Y-84041197D01*
X134825587Y-83952785D01*
X134606600Y-83906200D01*
X134306600Y-83906200D01*
X134052600Y-83906200D01*
X133752600Y-83906200D01*
X133533613Y-83952785D01*
X133327922Y-84041197D01*
X133143431Y-84168039D01*
X132987231Y-84328436D01*
X132865324Y-84516224D01*
X132785481Y-84739326D01*
X132654050Y-84739326D01*
X132654050Y-80984711D01*
X142219400Y-80984711D01*
X142219400Y-81168889D01*
X142255332Y-81349529D01*
X142325814Y-81519689D01*
X142428138Y-81672828D01*
X142558372Y-81803062D01*
X142711511Y-81905386D01*
X142881671Y-81975868D01*
X143062311Y-82011800D01*
X143246489Y-82011800D01*
X143427129Y-81975868D01*
X143597289Y-81905386D01*
X143750428Y-81803062D01*
X143880662Y-81672828D01*
X143982986Y-81519689D01*
X144053468Y-81349529D01*
X144089400Y-81168889D01*
X144089400Y-80984711D01*
X144053468Y-80804071D01*
X143989400Y-80649396D01*
X143989400Y-79543067D01*
X144613781Y-78918687D01*
X144601360Y-79044800D01*
X144605400Y-79085818D01*
X144605400Y-79480996D01*
X144541332Y-79635671D01*
X144505400Y-79816311D01*
X144505400Y-80000489D01*
X144541332Y-80181129D01*
X144611814Y-80351289D01*
X144714138Y-80504428D01*
X144844372Y-80634662D01*
X144997511Y-80736986D01*
X145167671Y-80807468D01*
X145348311Y-80843400D01*
X145532489Y-80843400D01*
X145713129Y-80807468D01*
X145758847Y-80788531D01*
X148509389Y-80788531D01*
X148551401Y-81078019D01*
X148649081Y-81353747D01*
X148722528Y-81491157D01*
X148971603Y-81568792D01*
X149820395Y-80720000D01*
X150179605Y-80720000D01*
X151028397Y-81568792D01*
X151277472Y-81491157D01*
X151403371Y-81227117D01*
X151475339Y-80943589D01*
X151490611Y-80651469D01*
X151448599Y-80361981D01*
X151350919Y-80086253D01*
X151277472Y-79948843D01*
X151028397Y-79871208D01*
X150179605Y-80720000D01*
X149820395Y-80720000D01*
X148971603Y-79871208D01*
X148722528Y-79948843D01*
X148596629Y-80212883D01*
X148524661Y-80496411D01*
X148509389Y-80788531D01*
X145758847Y-80788531D01*
X145883289Y-80736986D01*
X146036428Y-80634662D01*
X146166662Y-80504428D01*
X146268986Y-80351289D01*
X146339468Y-80181129D01*
X146375400Y-80000489D01*
X146375400Y-79816311D01*
X146339468Y-79635671D01*
X146275400Y-79480996D01*
X146275400Y-79390667D01*
X147405015Y-78261053D01*
X147559689Y-78196986D01*
X147712828Y-78094662D01*
X147843062Y-77964428D01*
X147945386Y-77811289D01*
X148015868Y-77641129D01*
X148051800Y-77460489D01*
X148051800Y-77276311D01*
X148015868Y-77095671D01*
X147945386Y-76925511D01*
X147843062Y-76772372D01*
X147712828Y-76642138D01*
X147559689Y-76539814D01*
X147389529Y-76469332D01*
X147208889Y-76433400D01*
X147024711Y-76433400D01*
X146844071Y-76469332D01*
X146673911Y-76539814D01*
X146520772Y-76642138D01*
X146390538Y-76772372D01*
X146288214Y-76925511D01*
X146224147Y-77080185D01*
X146019800Y-77284532D01*
X146019800Y-77174711D01*
X145983868Y-76994071D01*
X145913386Y-76823911D01*
X145811062Y-76670772D01*
X145680828Y-76540538D01*
X145527689Y-76438214D01*
X145357529Y-76367732D01*
X145176889Y-76331800D01*
X144992711Y-76331800D01*
X144812071Y-76367732D01*
X144641911Y-76438214D01*
X144488772Y-76540538D01*
X144358538Y-76670772D01*
X144256214Y-76823911D01*
X144192147Y-76978585D01*
X142592974Y-78577759D01*
X142561110Y-78603909D01*
X142534962Y-78635771D01*
X142456764Y-78731055D01*
X142379228Y-78876114D01*
X142331482Y-79033512D01*
X142315360Y-79197200D01*
X142319401Y-79238228D01*
X142319400Y-80649395D01*
X142255332Y-80804071D01*
X142219400Y-80984711D01*
X132654050Y-80984711D01*
X132654050Y-76703074D01*
X132785481Y-76703074D01*
X132865324Y-76926176D01*
X132987231Y-77113964D01*
X133143431Y-77274361D01*
X133327922Y-77401203D01*
X133533613Y-77489615D01*
X133752600Y-77536200D01*
X134052600Y-77536200D01*
X134052600Y-76528200D01*
X134306600Y-76528200D01*
X134306600Y-77536200D01*
X134606600Y-77536200D01*
X134825587Y-77489615D01*
X135031278Y-77401203D01*
X135215769Y-77274361D01*
X135371969Y-77113964D01*
X135493876Y-76926176D01*
X135573719Y-76703074D01*
X136715481Y-76703074D01*
X136795324Y-76926176D01*
X136917231Y-77113964D01*
X137057806Y-77258316D01*
X136978859Y-77376469D01*
X136906492Y-77551178D01*
X136869600Y-77736648D01*
X136869600Y-77925752D01*
X136906492Y-78111222D01*
X136978859Y-78285931D01*
X137083919Y-78443164D01*
X137217636Y-78576881D01*
X137374869Y-78681941D01*
X137549578Y-78754308D01*
X137735048Y-78791200D01*
X137924152Y-78791200D01*
X138109622Y-78754308D01*
X138284331Y-78681941D01*
X138441564Y-78576881D01*
X138575281Y-78443164D01*
X138680341Y-78285931D01*
X138752708Y-78111222D01*
X138789600Y-77925752D01*
X138789600Y-77736648D01*
X138752708Y-77551178D01*
X138746504Y-77536200D01*
X139036600Y-77536200D01*
X139255587Y-77489615D01*
X139461278Y-77401203D01*
X139645769Y-77274361D01*
X139801969Y-77113964D01*
X139923876Y-76926176D01*
X140003719Y-76703074D01*
X139877554Y-76528200D01*
X138486600Y-76528200D01*
X138486600Y-76548200D01*
X138232600Y-76548200D01*
X138232600Y-76528200D01*
X136841646Y-76528200D01*
X136715481Y-76703074D01*
X135573719Y-76703074D01*
X135447554Y-76528200D01*
X134306600Y-76528200D01*
X134052600Y-76528200D01*
X132911646Y-76528200D01*
X132785481Y-76703074D01*
X132654050Y-76703074D01*
X132654050Y-76099326D01*
X132785481Y-76099326D01*
X132911646Y-76274200D01*
X134052600Y-76274200D01*
X134052600Y-75266200D01*
X134306600Y-75266200D01*
X134306600Y-76274200D01*
X135447554Y-76274200D01*
X135573719Y-76099326D01*
X136715481Y-76099326D01*
X136841646Y-76274200D01*
X138232600Y-76274200D01*
X138232600Y-75266200D01*
X138486600Y-75266200D01*
X138486600Y-76274200D01*
X139877554Y-76274200D01*
X140003719Y-76099326D01*
X139923876Y-75876224D01*
X139801969Y-75688436D01*
X139645769Y-75528039D01*
X139461278Y-75401197D01*
X139255587Y-75312785D01*
X139036600Y-75266200D01*
X138486600Y-75266200D01*
X138232600Y-75266200D01*
X137682600Y-75266200D01*
X137463613Y-75312785D01*
X137257922Y-75401197D01*
X137073431Y-75528039D01*
X136917231Y-75688436D01*
X136795324Y-75876224D01*
X136715481Y-76099326D01*
X135573719Y-76099326D01*
X135493876Y-75876224D01*
X135371969Y-75688436D01*
X135215769Y-75528039D01*
X135031278Y-75401197D01*
X134825587Y-75312785D01*
X134606600Y-75266200D01*
X134306600Y-75266200D01*
X134052600Y-75266200D01*
X133752600Y-75266200D01*
X133533613Y-75312785D01*
X133327922Y-75401197D01*
X133143431Y-75528039D01*
X132987231Y-75688436D01*
X132865324Y-75876224D01*
X132785481Y-76099326D01*
X132654050Y-76099326D01*
X132654050Y-73031985D01*
X132701805Y-72544948D01*
X132833962Y-72107221D01*
X133048620Y-71703507D01*
X133337608Y-71349173D01*
X133689913Y-71057721D01*
X134092122Y-70840248D01*
X134528910Y-70705038D01*
X135014027Y-70654050D01*
X137032125Y-70654050D01*
X137046351Y-70652649D01*
X137638619Y-70626791D01*
X137668375Y-70623269D01*
X137698290Y-70621439D01*
X137715224Y-70618908D01*
X138739252Y-70452134D01*
X138778068Y-70442815D01*
X138817140Y-70434510D01*
X138833514Y-70429504D01*
X139821642Y-70113202D01*
X139858678Y-70098238D01*
X139896070Y-70084258D01*
X139911525Y-70076887D01*
X140842047Y-69618004D01*
X140876440Y-69597745D01*
X140911380Y-69578377D01*
X140925575Y-69568802D01*
X141778049Y-68977421D01*
X141809094Y-68952281D01*
X141840763Y-68927980D01*
X141853387Y-68916413D01*
X142609085Y-68205522D01*
X142636055Y-68176089D01*
X142663802Y-68147356D01*
X142674577Y-68134050D01*
X143316899Y-67319269D01*
X143339224Y-67286171D01*
X143362418Y-67253654D01*
X143371108Y-67238901D01*
X143885942Y-66338129D01*
X143903126Y-66302102D01*
X143921263Y-66266506D01*
X143927677Y-66250630D01*
X144303713Y-65283654D01*
X144315383Y-65245485D01*
X144328059Y-65207599D01*
X144332056Y-65190949D01*
X144561034Y-64179013D01*
X144566938Y-64139512D01*
X144573870Y-64100194D01*
X144575361Y-64083151D01*
X144575363Y-64083136D01*
X144575363Y-64083124D01*
X144651670Y-63056292D01*
X144654050Y-63032125D01*
X144654050Y-34150000D01*
X148511928Y-34150000D01*
X148511928Y-35850000D01*
X148524188Y-35974482D01*
X148560498Y-36094180D01*
X148619463Y-36204494D01*
X148698815Y-36301185D01*
X148795506Y-36380537D01*
X148905820Y-36439502D01*
X148978380Y-36461513D01*
X148846525Y-36593368D01*
X148684010Y-36836589D01*
X148572068Y-37106842D01*
X148515000Y-37393740D01*
X148515000Y-37686260D01*
X148572068Y-37973158D01*
X148684010Y-38243411D01*
X148846525Y-38486632D01*
X149053368Y-38693475D01*
X149227760Y-38810000D01*
X149053368Y-38926525D01*
X148846525Y-39133368D01*
X148684010Y-39376589D01*
X148572068Y-39646842D01*
X148515000Y-39933740D01*
X148515000Y-40226260D01*
X148572068Y-40513158D01*
X148684010Y-40783411D01*
X148846525Y-41026632D01*
X149053368Y-41233475D01*
X149227760Y-41350000D01*
X149053368Y-41466525D01*
X148846525Y-41673368D01*
X148684010Y-41916589D01*
X148572068Y-42186842D01*
X148515000Y-42473740D01*
X148515000Y-42766260D01*
X148572068Y-43053158D01*
X148684010Y-43323411D01*
X148846525Y-43566632D01*
X149053368Y-43773475D01*
X149227760Y-43890000D01*
X149053368Y-44006525D01*
X148846525Y-44213368D01*
X148684010Y-44456589D01*
X148572068Y-44726842D01*
X148515000Y-45013740D01*
X148515000Y-45306260D01*
X148572068Y-45593158D01*
X148684010Y-45863411D01*
X148846525Y-46106632D01*
X149053368Y-46313475D01*
X149227760Y-46430000D01*
X149053368Y-46546525D01*
X148846525Y-46753368D01*
X148684010Y-46996589D01*
X148572068Y-47266842D01*
X148515000Y-47553740D01*
X148515000Y-47846260D01*
X148572068Y-48133158D01*
X148684010Y-48403411D01*
X148846525Y-48646632D01*
X149053368Y-48853475D01*
X149227760Y-48970000D01*
X149053368Y-49086525D01*
X148846525Y-49293368D01*
X148684010Y-49536589D01*
X148572068Y-49806842D01*
X148515000Y-50093740D01*
X148515000Y-50386260D01*
X148572068Y-50673158D01*
X148684010Y-50943411D01*
X148846525Y-51186632D01*
X149053368Y-51393475D01*
X149227760Y-51510000D01*
X149053368Y-51626525D01*
X148846525Y-51833368D01*
X148684010Y-52076589D01*
X148572068Y-52346842D01*
X148515000Y-52633740D01*
X148515000Y-52926260D01*
X148572068Y-53213158D01*
X148684010Y-53483411D01*
X148846525Y-53726632D01*
X149053368Y-53933475D01*
X149227760Y-54050000D01*
X149053368Y-54166525D01*
X148846525Y-54373368D01*
X148684010Y-54616589D01*
X148572068Y-54886842D01*
X148515000Y-55173740D01*
X148515000Y-55466260D01*
X148572068Y-55753158D01*
X148684010Y-56023411D01*
X148846525Y-56266632D01*
X149053368Y-56473475D01*
X149227760Y-56590000D01*
X149053368Y-56706525D01*
X148846525Y-56913368D01*
X148684010Y-57156589D01*
X148572068Y-57426842D01*
X148515000Y-57713740D01*
X148515000Y-58006260D01*
X148572068Y-58293158D01*
X148684010Y-58563411D01*
X148846525Y-58806632D01*
X149053368Y-59013475D01*
X149227760Y-59130000D01*
X149053368Y-59246525D01*
X148846525Y-59453368D01*
X148684010Y-59696589D01*
X148572068Y-59966842D01*
X148515000Y-60253740D01*
X148515000Y-60546260D01*
X148572068Y-60833158D01*
X148684010Y-61103411D01*
X148846525Y-61346632D01*
X149053368Y-61553475D01*
X149227760Y-61670000D01*
X149053368Y-61786525D01*
X148846525Y-61993368D01*
X148684010Y-62236589D01*
X148572068Y-62506842D01*
X148515000Y-62793740D01*
X148515000Y-63086260D01*
X148572068Y-63373158D01*
X148684010Y-63643411D01*
X148846525Y-63886632D01*
X149053368Y-64093475D01*
X149227760Y-64210000D01*
X149053368Y-64326525D01*
X148846525Y-64533368D01*
X148684010Y-64776589D01*
X148572068Y-65046842D01*
X148515000Y-65333740D01*
X148515000Y-65626260D01*
X148572068Y-65913158D01*
X148684010Y-66183411D01*
X148846525Y-66426632D01*
X149053368Y-66633475D01*
X149227760Y-66750000D01*
X149053368Y-66866525D01*
X148846525Y-67073368D01*
X148684010Y-67316589D01*
X148572068Y-67586842D01*
X148515000Y-67873740D01*
X148515000Y-68166260D01*
X148572068Y-68453158D01*
X148684010Y-68723411D01*
X148846525Y-68966632D01*
X149053368Y-69173475D01*
X149227760Y-69290000D01*
X149053368Y-69406525D01*
X148846525Y-69613368D01*
X148684010Y-69856589D01*
X148572068Y-70126842D01*
X148515000Y-70413740D01*
X148515000Y-70706260D01*
X148572068Y-70993158D01*
X148684010Y-71263411D01*
X148846525Y-71506632D01*
X149053368Y-71713475D01*
X149227760Y-71830000D01*
X149053368Y-71946525D01*
X148846525Y-72153368D01*
X148684010Y-72396589D01*
X148572068Y-72666842D01*
X148515000Y-72953740D01*
X148515000Y-73246260D01*
X148572068Y-73533158D01*
X148684010Y-73803411D01*
X148846525Y-74046632D01*
X149053368Y-74253475D01*
X149227760Y-74370000D01*
X149053368Y-74486525D01*
X148846525Y-74693368D01*
X148684010Y-74936589D01*
X148572068Y-75206842D01*
X148515000Y-75493740D01*
X148515000Y-75786260D01*
X148572068Y-76073158D01*
X148684010Y-76343411D01*
X148846525Y-76586632D01*
X149053368Y-76793475D01*
X149227760Y-76910000D01*
X149053368Y-77026525D01*
X148846525Y-77233368D01*
X148684010Y-77476589D01*
X148572068Y-77746842D01*
X148515000Y-78033740D01*
X148515000Y-78326260D01*
X148572068Y-78613158D01*
X148684010Y-78883411D01*
X148846525Y-79126632D01*
X149053368Y-79333475D01*
X149226729Y-79449311D01*
X149151208Y-79691603D01*
X150000000Y-80540395D01*
X150848792Y-79691603D01*
X150773271Y-79449311D01*
X150946632Y-79333475D01*
X151153475Y-79126632D01*
X151315990Y-78883411D01*
X151427932Y-78613158D01*
X151485000Y-78326260D01*
X151485000Y-78033740D01*
X151427932Y-77746842D01*
X151315990Y-77476589D01*
X151153475Y-77233368D01*
X150946632Y-77026525D01*
X150772240Y-76910000D01*
X150946632Y-76793475D01*
X151153475Y-76586632D01*
X151315990Y-76343411D01*
X151427932Y-76073158D01*
X151485000Y-75786260D01*
X151485000Y-75493740D01*
X151427932Y-75206842D01*
X151315990Y-74936589D01*
X151153475Y-74693368D01*
X150946632Y-74486525D01*
X150772240Y-74370000D01*
X150946632Y-74253475D01*
X151153475Y-74046632D01*
X151315990Y-73803411D01*
X151427932Y-73533158D01*
X151485000Y-73246260D01*
X151485000Y-72953740D01*
X151427932Y-72666842D01*
X151315990Y-72396589D01*
X151153475Y-72153368D01*
X150946632Y-71946525D01*
X150772240Y-71830000D01*
X150946632Y-71713475D01*
X151153475Y-71506632D01*
X151315990Y-71263411D01*
X151427932Y-70993158D01*
X151485000Y-70706260D01*
X151485000Y-70413740D01*
X151427932Y-70126842D01*
X151315990Y-69856589D01*
X151153475Y-69613368D01*
X150946632Y-69406525D01*
X150772240Y-69290000D01*
X150946632Y-69173475D01*
X151153475Y-68966632D01*
X151315990Y-68723411D01*
X151427932Y-68453158D01*
X151485000Y-68166260D01*
X151485000Y-67873740D01*
X151427932Y-67586842D01*
X151315990Y-67316589D01*
X151153475Y-67073368D01*
X150946632Y-66866525D01*
X150772240Y-66750000D01*
X150946632Y-66633475D01*
X151153475Y-66426632D01*
X151315990Y-66183411D01*
X151427932Y-65913158D01*
X151485000Y-65626260D01*
X151485000Y-65333740D01*
X151427932Y-65046842D01*
X151315990Y-64776589D01*
X151153475Y-64533368D01*
X150946632Y-64326525D01*
X150772240Y-64210000D01*
X150946632Y-64093475D01*
X151153475Y-63886632D01*
X151315990Y-63643411D01*
X151427932Y-63373158D01*
X151485000Y-63086260D01*
X151485000Y-62793740D01*
X151427932Y-62506842D01*
X151315990Y-62236589D01*
X151153475Y-61993368D01*
X150946632Y-61786525D01*
X150772240Y-61670000D01*
X150946632Y-61553475D01*
X151153475Y-61346632D01*
X151315990Y-61103411D01*
X151427932Y-60833158D01*
X151485000Y-60546260D01*
X151485000Y-60253740D01*
X151427932Y-59966842D01*
X151315990Y-59696589D01*
X151153475Y-59453368D01*
X150946632Y-59246525D01*
X150772240Y-59130000D01*
X150946632Y-59013475D01*
X151153475Y-58806632D01*
X151315990Y-58563411D01*
X151427932Y-58293158D01*
X151485000Y-58006260D01*
X151485000Y-57713740D01*
X151427932Y-57426842D01*
X151315990Y-57156589D01*
X151153475Y-56913368D01*
X150946632Y-56706525D01*
X150772240Y-56590000D01*
X150946632Y-56473475D01*
X151153475Y-56266632D01*
X151315990Y-56023411D01*
X151427932Y-55753158D01*
X151485000Y-55466260D01*
X151485000Y-55173740D01*
X151427932Y-54886842D01*
X151315990Y-54616589D01*
X151153475Y-54373368D01*
X150946632Y-54166525D01*
X150772240Y-54050000D01*
X150946632Y-53933475D01*
X151153475Y-53726632D01*
X151315990Y-53483411D01*
X151427932Y-53213158D01*
X151485000Y-52926260D01*
X151485000Y-52633740D01*
X151427932Y-52346842D01*
X151315990Y-52076589D01*
X151153475Y-51833368D01*
X150946632Y-51626525D01*
X150772240Y-51510000D01*
X150946632Y-51393475D01*
X151153475Y-51186632D01*
X151315990Y-50943411D01*
X151427932Y-50673158D01*
X151485000Y-50386260D01*
X151485000Y-50093740D01*
X151427932Y-49806842D01*
X151315990Y-49536589D01*
X151153475Y-49293368D01*
X150946632Y-49086525D01*
X150772240Y-48970000D01*
X150946632Y-48853475D01*
X151153475Y-48646632D01*
X151315990Y-48403411D01*
X151427932Y-48133158D01*
X151485000Y-47846260D01*
X151485000Y-47553740D01*
X151427932Y-47266842D01*
X151315990Y-46996589D01*
X151153475Y-46753368D01*
X150946632Y-46546525D01*
X150772240Y-46430000D01*
X150946632Y-46313475D01*
X151153475Y-46106632D01*
X151315990Y-45863411D01*
X151427932Y-45593158D01*
X151485000Y-45306260D01*
X151485000Y-45013740D01*
X151427932Y-44726842D01*
X151315990Y-44456589D01*
X151153475Y-44213368D01*
X150946632Y-44006525D01*
X150772240Y-43890000D01*
X150946632Y-43773475D01*
X151153475Y-43566632D01*
X151315990Y-43323411D01*
X151427932Y-43053158D01*
X151485000Y-42766260D01*
X151485000Y-42473740D01*
X151427932Y-42186842D01*
X151315990Y-41916589D01*
X151153475Y-41673368D01*
X150946632Y-41466525D01*
X150772240Y-41350000D01*
X150946632Y-41233475D01*
X151153475Y-41026632D01*
X151315990Y-40783411D01*
X151427932Y-40513158D01*
X151485000Y-40226260D01*
X151485000Y-39933740D01*
X163755000Y-39933740D01*
X163755000Y-40226260D01*
X163812068Y-40513158D01*
X163924010Y-40783411D01*
X164086525Y-41026632D01*
X164293368Y-41233475D01*
X164467760Y-41350000D01*
X164293368Y-41466525D01*
X164086525Y-41673368D01*
X163924010Y-41916589D01*
X163812068Y-42186842D01*
X163755000Y-42473740D01*
X163755000Y-42766260D01*
X163812068Y-43053158D01*
X163924010Y-43323411D01*
X164086525Y-43566632D01*
X164293368Y-43773475D01*
X164467760Y-43890000D01*
X164293368Y-44006525D01*
X164086525Y-44213368D01*
X163924010Y-44456589D01*
X163812068Y-44726842D01*
X163755000Y-45013740D01*
X163755000Y-45306260D01*
X163812068Y-45593158D01*
X163924010Y-45863411D01*
X164086525Y-46106632D01*
X164293368Y-46313475D01*
X164467760Y-46430000D01*
X164293368Y-46546525D01*
X164086525Y-46753368D01*
X163924010Y-46996589D01*
X163812068Y-47266842D01*
X163755000Y-47553740D01*
X163755000Y-47846260D01*
X163812068Y-48133158D01*
X163924010Y-48403411D01*
X164086525Y-48646632D01*
X164293368Y-48853475D01*
X164467760Y-48970000D01*
X164293368Y-49086525D01*
X164086525Y-49293368D01*
X163924010Y-49536589D01*
X163812068Y-49806842D01*
X163755000Y-50093740D01*
X163755000Y-50386260D01*
X163812068Y-50673158D01*
X163924010Y-50943411D01*
X164086525Y-51186632D01*
X164293368Y-51393475D01*
X164467760Y-51510000D01*
X164293368Y-51626525D01*
X164086525Y-51833368D01*
X163924010Y-52076589D01*
X163812068Y-52346842D01*
X163755000Y-52633740D01*
X163755000Y-52926260D01*
X163812068Y-53213158D01*
X163924010Y-53483411D01*
X164086525Y-53726632D01*
X164293368Y-53933475D01*
X164467760Y-54050000D01*
X164293368Y-54166525D01*
X164086525Y-54373368D01*
X163924010Y-54616589D01*
X163812068Y-54886842D01*
X163755000Y-55173740D01*
X163755000Y-55466260D01*
X163812068Y-55753158D01*
X163924010Y-56023411D01*
X164086525Y-56266632D01*
X164293368Y-56473475D01*
X164467760Y-56590000D01*
X164293368Y-56706525D01*
X164086525Y-56913368D01*
X163924010Y-57156589D01*
X163812068Y-57426842D01*
X163755000Y-57713740D01*
X163755000Y-58006260D01*
X163812068Y-58293158D01*
X163924010Y-58563411D01*
X164086525Y-58806632D01*
X164293368Y-59013475D01*
X164467760Y-59130000D01*
X164293368Y-59246525D01*
X164086525Y-59453368D01*
X163924010Y-59696589D01*
X163812068Y-59966842D01*
X163755000Y-60253740D01*
X163755000Y-60546260D01*
X163812068Y-60833158D01*
X163924010Y-61103411D01*
X164086525Y-61346632D01*
X164293368Y-61553475D01*
X164467760Y-61670000D01*
X164293368Y-61786525D01*
X164086525Y-61993368D01*
X163924010Y-62236589D01*
X163812068Y-62506842D01*
X163755000Y-62793740D01*
X163755000Y-63086260D01*
X163812068Y-63373158D01*
X163924010Y-63643411D01*
X164086525Y-63886632D01*
X164293368Y-64093475D01*
X164467760Y-64210000D01*
X164293368Y-64326525D01*
X164086525Y-64533368D01*
X163924010Y-64776589D01*
X163812068Y-65046842D01*
X163755000Y-65333740D01*
X163755000Y-65626260D01*
X163812068Y-65913158D01*
X163924010Y-66183411D01*
X164086525Y-66426632D01*
X164293368Y-66633475D01*
X164467760Y-66750000D01*
X164293368Y-66866525D01*
X164086525Y-67073368D01*
X163924010Y-67316589D01*
X163812068Y-67586842D01*
X163755000Y-67873740D01*
X163755000Y-68166260D01*
X163812068Y-68453158D01*
X163924010Y-68723411D01*
X164086525Y-68966632D01*
X164293368Y-69173475D01*
X164467760Y-69290000D01*
X164293368Y-69406525D01*
X164086525Y-69613368D01*
X163924010Y-69856589D01*
X163812068Y-70126842D01*
X163755000Y-70413740D01*
X163755000Y-70706260D01*
X163812068Y-70993158D01*
X163924010Y-71263411D01*
X164086525Y-71506632D01*
X164293368Y-71713475D01*
X164467760Y-71830000D01*
X164293368Y-71946525D01*
X164086525Y-72153368D01*
X163924010Y-72396589D01*
X163812068Y-72666842D01*
X163755000Y-72953740D01*
X163755000Y-73246260D01*
X163812068Y-73533158D01*
X163924010Y-73803411D01*
X164086525Y-74046632D01*
X164293368Y-74253475D01*
X164467760Y-74370000D01*
X164293368Y-74486525D01*
X164086525Y-74693368D01*
X163924010Y-74936589D01*
X163812068Y-75206842D01*
X163755000Y-75493740D01*
X163755000Y-75786260D01*
X163812068Y-76073158D01*
X163924010Y-76343411D01*
X164086525Y-76586632D01*
X164293368Y-76793475D01*
X164467760Y-76910000D01*
X164293368Y-77026525D01*
X164086525Y-77233368D01*
X163924010Y-77476589D01*
X163812068Y-77746842D01*
X163755000Y-78033740D01*
X163755000Y-78326260D01*
X163812068Y-78613158D01*
X163924010Y-78883411D01*
X164086525Y-79126632D01*
X164293368Y-79333475D01*
X164467760Y-79450000D01*
X164293368Y-79566525D01*
X164086525Y-79773368D01*
X163924010Y-80016589D01*
X163812068Y-80286842D01*
X163755000Y-80573740D01*
X163755000Y-80866260D01*
X163812068Y-81153158D01*
X163924010Y-81423411D01*
X164086525Y-81666632D01*
X164293368Y-81873475D01*
X164467760Y-81990000D01*
X164293368Y-82106525D01*
X164086525Y-82313368D01*
X163924010Y-82556589D01*
X163812068Y-82826842D01*
X163755000Y-83113740D01*
X163755000Y-83406260D01*
X163812068Y-83693158D01*
X163924010Y-83963411D01*
X164086525Y-84206632D01*
X164293368Y-84413475D01*
X164536589Y-84575990D01*
X164806842Y-84687932D01*
X165093740Y-84745000D01*
X165386260Y-84745000D01*
X165670171Y-84688526D01*
X175210281Y-84688526D01*
X175336446Y-84863400D01*
X176727400Y-84863400D01*
X176727400Y-84843400D01*
X176981400Y-84843400D01*
X176981400Y-84863400D01*
X178372354Y-84863400D01*
X178498519Y-84688526D01*
X179640281Y-84688526D01*
X179766446Y-84863400D01*
X180907400Y-84863400D01*
X180907400Y-83855400D01*
X180607400Y-83855400D01*
X180388413Y-83901985D01*
X180182722Y-83990397D01*
X179998231Y-84117239D01*
X179842031Y-84277636D01*
X179720124Y-84465424D01*
X179640281Y-84688526D01*
X178498519Y-84688526D01*
X178418676Y-84465424D01*
X178296769Y-84277636D01*
X178156194Y-84133284D01*
X178235141Y-84015131D01*
X178307508Y-83840422D01*
X178344400Y-83654952D01*
X178344400Y-83465848D01*
X178307508Y-83280378D01*
X178235141Y-83105669D01*
X178130081Y-82948436D01*
X177996364Y-82814719D01*
X177839131Y-82709659D01*
X177664422Y-82637292D01*
X177478952Y-82600400D01*
X177289848Y-82600400D01*
X177104378Y-82637292D01*
X176929669Y-82709659D01*
X176772436Y-82814719D01*
X176638719Y-82948436D01*
X176533659Y-83105669D01*
X176461292Y-83280378D01*
X176424400Y-83465848D01*
X176424400Y-83654952D01*
X176461292Y-83840422D01*
X176467496Y-83855400D01*
X176177400Y-83855400D01*
X175958413Y-83901985D01*
X175752722Y-83990397D01*
X175568231Y-84117239D01*
X175412031Y-84277636D01*
X175290124Y-84465424D01*
X175210281Y-84688526D01*
X165670171Y-84688526D01*
X165673158Y-84687932D01*
X165943411Y-84575990D01*
X166186632Y-84413475D01*
X166393475Y-84206632D01*
X166555990Y-83963411D01*
X166667932Y-83693158D01*
X166725000Y-83406260D01*
X166725000Y-83113740D01*
X166667932Y-82826842D01*
X166555990Y-82556589D01*
X166393475Y-82313368D01*
X166186632Y-82106525D01*
X166012240Y-81990000D01*
X166186632Y-81873475D01*
X166393475Y-81666632D01*
X166555990Y-81423411D01*
X166667932Y-81153158D01*
X166725000Y-80866260D01*
X166725000Y-80573740D01*
X166685490Y-80375111D01*
X167822600Y-80375111D01*
X167822600Y-80559289D01*
X167858532Y-80739929D01*
X167929014Y-80910089D01*
X168031338Y-81063228D01*
X168161572Y-81193462D01*
X168314711Y-81295786D01*
X168469388Y-81359855D01*
X168493754Y-81384221D01*
X168519909Y-81416091D01*
X168647054Y-81520436D01*
X168792113Y-81597972D01*
X168949511Y-81645718D01*
X169072181Y-81657800D01*
X169072191Y-81657800D01*
X169113199Y-81661839D01*
X169154207Y-81657800D01*
X173511796Y-81657800D01*
X173666471Y-81721868D01*
X173847111Y-81757800D01*
X174031289Y-81757800D01*
X174211929Y-81721868D01*
X174382089Y-81651386D01*
X174535228Y-81549062D01*
X174665462Y-81418828D01*
X174767786Y-81265689D01*
X174838268Y-81095529D01*
X174874200Y-80914889D01*
X174874200Y-80730711D01*
X174838268Y-80550071D01*
X174767786Y-80379911D01*
X174729108Y-80322025D01*
X174787468Y-80181129D01*
X174823400Y-80000489D01*
X174823400Y-79816311D01*
X174787468Y-79635671D01*
X174716986Y-79465511D01*
X174614662Y-79312372D01*
X174484428Y-79182138D01*
X174331289Y-79079814D01*
X174161129Y-79009332D01*
X173980489Y-78973400D01*
X173796311Y-78973400D01*
X173615671Y-79009332D01*
X173460996Y-79073400D01*
X170154303Y-79073400D01*
X170144262Y-79058372D01*
X170014028Y-78928138D01*
X169860889Y-78825814D01*
X169690729Y-78755332D01*
X169592600Y-78735813D01*
X169592600Y-76952268D01*
X169892594Y-76652274D01*
X175210281Y-76652274D01*
X175290124Y-76875376D01*
X175412031Y-77063164D01*
X175568231Y-77223561D01*
X175752722Y-77350403D01*
X175958413Y-77438815D01*
X176177400Y-77485400D01*
X176467496Y-77485400D01*
X176461292Y-77500378D01*
X176424400Y-77685848D01*
X176424400Y-77874952D01*
X176461292Y-78060422D01*
X176533659Y-78235131D01*
X176638719Y-78392364D01*
X176772436Y-78526081D01*
X176929669Y-78631141D01*
X177104378Y-78703508D01*
X177289848Y-78740400D01*
X177478952Y-78740400D01*
X177664422Y-78703508D01*
X177839131Y-78631141D01*
X177996364Y-78526081D01*
X178130081Y-78392364D01*
X178235141Y-78235131D01*
X178307508Y-78060422D01*
X178344400Y-77874952D01*
X178344400Y-77685848D01*
X178307508Y-77500378D01*
X178235141Y-77325669D01*
X178156194Y-77207516D01*
X178296769Y-77063164D01*
X178418676Y-76875376D01*
X178498519Y-76652274D01*
X179640281Y-76652274D01*
X179720124Y-76875376D01*
X179842031Y-77063164D01*
X179998231Y-77223561D01*
X180182722Y-77350403D01*
X180388413Y-77438815D01*
X180607400Y-77485400D01*
X180907400Y-77485400D01*
X180907400Y-76477400D01*
X179766446Y-76477400D01*
X179640281Y-76652274D01*
X178498519Y-76652274D01*
X178372354Y-76477400D01*
X176981400Y-76477400D01*
X176981400Y-76497400D01*
X176727400Y-76497400D01*
X176727400Y-76477400D01*
X175336446Y-76477400D01*
X175210281Y-76652274D01*
X169892594Y-76652274D01*
X169909415Y-76635454D01*
X170064089Y-76571386D01*
X170217228Y-76469062D01*
X170347462Y-76338828D01*
X170449786Y-76185689D01*
X170506600Y-76048526D01*
X175210281Y-76048526D01*
X175336446Y-76223400D01*
X176727400Y-76223400D01*
X176727400Y-75215400D01*
X176981400Y-75215400D01*
X176981400Y-76223400D01*
X178372354Y-76223400D01*
X178498519Y-76048526D01*
X179640281Y-76048526D01*
X179766446Y-76223400D01*
X180907400Y-76223400D01*
X180907400Y-75215400D01*
X180607400Y-75215400D01*
X180388413Y-75261985D01*
X180182722Y-75350397D01*
X179998231Y-75477239D01*
X179842031Y-75637636D01*
X179720124Y-75825424D01*
X179640281Y-76048526D01*
X178498519Y-76048526D01*
X178418676Y-75825424D01*
X178296769Y-75637636D01*
X178140569Y-75477239D01*
X177956078Y-75350397D01*
X177750387Y-75261985D01*
X177531400Y-75215400D01*
X176981400Y-75215400D01*
X176727400Y-75215400D01*
X176177400Y-75215400D01*
X175958413Y-75261985D01*
X175752722Y-75350397D01*
X175568231Y-75477239D01*
X175412031Y-75637636D01*
X175290124Y-75825424D01*
X175210281Y-76048526D01*
X170506600Y-76048526D01*
X170520268Y-76015529D01*
X170556200Y-75834889D01*
X170556200Y-75650711D01*
X170520268Y-75470071D01*
X170449786Y-75299911D01*
X170347462Y-75146772D01*
X170217228Y-75016538D01*
X170064089Y-74914214D01*
X169893929Y-74843732D01*
X169713289Y-74807800D01*
X169529111Y-74807800D01*
X169348471Y-74843732D01*
X169178311Y-74914214D01*
X169025172Y-75016538D01*
X168894938Y-75146772D01*
X168792614Y-75299911D01*
X168728546Y-75454585D01*
X168196174Y-75986959D01*
X168164310Y-76013109D01*
X168138162Y-76044971D01*
X168059964Y-76140255D01*
X167982428Y-76285314D01*
X167934682Y-76442712D01*
X167918560Y-76606400D01*
X167922601Y-76647428D01*
X167922600Y-80039796D01*
X167858532Y-80194471D01*
X167822600Y-80375111D01*
X166685490Y-80375111D01*
X166667932Y-80286842D01*
X166555990Y-80016589D01*
X166393475Y-79773368D01*
X166186632Y-79566525D01*
X166012240Y-79450000D01*
X166186632Y-79333475D01*
X166393475Y-79126632D01*
X166555990Y-78883411D01*
X166667932Y-78613158D01*
X166725000Y-78326260D01*
X166725000Y-78033740D01*
X166667932Y-77746842D01*
X166555990Y-77476589D01*
X166393475Y-77233368D01*
X166186632Y-77026525D01*
X166012240Y-76910000D01*
X166186632Y-76793475D01*
X166393475Y-76586632D01*
X166555990Y-76343411D01*
X166667932Y-76073158D01*
X166725000Y-75786260D01*
X166725000Y-75493740D01*
X166667932Y-75206842D01*
X166555990Y-74936589D01*
X166393475Y-74693368D01*
X166186632Y-74486525D01*
X166012240Y-74370000D01*
X166186632Y-74253475D01*
X166393475Y-74046632D01*
X166555990Y-73803411D01*
X166667932Y-73533158D01*
X166725000Y-73246260D01*
X166725000Y-72953740D01*
X166667932Y-72666842D01*
X166555990Y-72396589D01*
X166393475Y-72153368D01*
X166186632Y-71946525D01*
X166012240Y-71830000D01*
X166186632Y-71713475D01*
X166393475Y-71506632D01*
X166555990Y-71263411D01*
X166667932Y-70993158D01*
X166725000Y-70706260D01*
X166725000Y-70413740D01*
X166667932Y-70126842D01*
X166555990Y-69856589D01*
X166393475Y-69613368D01*
X166186632Y-69406525D01*
X166012240Y-69290000D01*
X166186632Y-69173475D01*
X166393475Y-68966632D01*
X166555990Y-68723411D01*
X166667932Y-68453158D01*
X166725000Y-68166260D01*
X166725000Y-67873740D01*
X166667932Y-67586842D01*
X166555990Y-67316589D01*
X166393475Y-67073368D01*
X166186632Y-66866525D01*
X166012240Y-66750000D01*
X166186632Y-66633475D01*
X166393475Y-66426632D01*
X166555990Y-66183411D01*
X166667932Y-65913158D01*
X166725000Y-65626260D01*
X166725000Y-65333740D01*
X166667932Y-65046842D01*
X166555990Y-64776589D01*
X166393475Y-64533368D01*
X166186632Y-64326525D01*
X166012240Y-64210000D01*
X166186632Y-64093475D01*
X166393475Y-63886632D01*
X166555990Y-63643411D01*
X166667932Y-63373158D01*
X166725000Y-63086260D01*
X166725000Y-62793740D01*
X166667932Y-62506842D01*
X166555990Y-62236589D01*
X166393475Y-61993368D01*
X166186632Y-61786525D01*
X166012240Y-61670000D01*
X166186632Y-61553475D01*
X166393475Y-61346632D01*
X166555990Y-61103411D01*
X166667932Y-60833158D01*
X166725000Y-60546260D01*
X166725000Y-60253740D01*
X166667932Y-59966842D01*
X166555990Y-59696589D01*
X166393475Y-59453368D01*
X166186632Y-59246525D01*
X166012240Y-59130000D01*
X166186632Y-59013475D01*
X166393475Y-58806632D01*
X166555990Y-58563411D01*
X166667932Y-58293158D01*
X166725000Y-58006260D01*
X166725000Y-57713740D01*
X166667932Y-57426842D01*
X166555990Y-57156589D01*
X166393475Y-56913368D01*
X166186632Y-56706525D01*
X166012240Y-56590000D01*
X166186632Y-56473475D01*
X166393475Y-56266632D01*
X166555990Y-56023411D01*
X166667932Y-55753158D01*
X166725000Y-55466260D01*
X166725000Y-55173740D01*
X166667932Y-54886842D01*
X166555990Y-54616589D01*
X166393475Y-54373368D01*
X166186632Y-54166525D01*
X166012240Y-54050000D01*
X166186632Y-53933475D01*
X166393475Y-53726632D01*
X166555990Y-53483411D01*
X166667932Y-53213158D01*
X166725000Y-52926260D01*
X166725000Y-52633740D01*
X166667932Y-52346842D01*
X166555990Y-52076589D01*
X166393475Y-51833368D01*
X166186632Y-51626525D01*
X166012240Y-51510000D01*
X166186632Y-51393475D01*
X166393475Y-51186632D01*
X166555990Y-50943411D01*
X166667932Y-50673158D01*
X166725000Y-50386260D01*
X166725000Y-50093740D01*
X166667932Y-49806842D01*
X166555990Y-49536589D01*
X166393475Y-49293368D01*
X166186632Y-49086525D01*
X166012240Y-48970000D01*
X166186632Y-48853475D01*
X166393475Y-48646632D01*
X166555990Y-48403411D01*
X166667932Y-48133158D01*
X166725000Y-47846260D01*
X166725000Y-47553740D01*
X166667932Y-47266842D01*
X166555990Y-46996589D01*
X166393475Y-46753368D01*
X166186632Y-46546525D01*
X166012240Y-46430000D01*
X166186632Y-46313475D01*
X166393475Y-46106632D01*
X166555990Y-45863411D01*
X166667932Y-45593158D01*
X166725000Y-45306260D01*
X166725000Y-45013740D01*
X166667932Y-44726842D01*
X166555990Y-44456589D01*
X166393475Y-44213368D01*
X166186632Y-44006525D01*
X166012240Y-43890000D01*
X166186632Y-43773475D01*
X166393475Y-43566632D01*
X166555990Y-43323411D01*
X166667932Y-43053158D01*
X166725000Y-42766260D01*
X166725000Y-42473740D01*
X166667932Y-42186842D01*
X166555990Y-41916589D01*
X166393475Y-41673368D01*
X166186632Y-41466525D01*
X166012240Y-41350000D01*
X166186632Y-41233475D01*
X166393475Y-41026632D01*
X166555990Y-40783411D01*
X166667932Y-40513158D01*
X166725000Y-40226260D01*
X166725000Y-39933740D01*
X166667932Y-39646842D01*
X166555990Y-39376589D01*
X166393475Y-39133368D01*
X166186632Y-38926525D01*
X166013271Y-38810689D01*
X166088792Y-38568397D01*
X165240000Y-37719605D01*
X164391208Y-38568397D01*
X164466729Y-38810689D01*
X164293368Y-38926525D01*
X164086525Y-39133368D01*
X163924010Y-39376589D01*
X163812068Y-39646842D01*
X163755000Y-39933740D01*
X151485000Y-39933740D01*
X151427932Y-39646842D01*
X151315990Y-39376589D01*
X151153475Y-39133368D01*
X150946632Y-38926525D01*
X150772240Y-38810000D01*
X150946632Y-38693475D01*
X151153475Y-38486632D01*
X151315990Y-38243411D01*
X151427932Y-37973158D01*
X151485000Y-37686260D01*
X151485000Y-37608531D01*
X163749389Y-37608531D01*
X163791401Y-37898019D01*
X163889081Y-38173747D01*
X163962528Y-38311157D01*
X164211603Y-38388792D01*
X165060395Y-37540000D01*
X165419605Y-37540000D01*
X166268397Y-38388792D01*
X166517472Y-38311157D01*
X166643371Y-38047117D01*
X166715339Y-37763589D01*
X166730611Y-37471469D01*
X166688599Y-37181981D01*
X166590919Y-36906253D01*
X166517472Y-36768843D01*
X166268397Y-36691208D01*
X165419605Y-37540000D01*
X165060395Y-37540000D01*
X164211603Y-36691208D01*
X163962528Y-36768843D01*
X163836629Y-37032883D01*
X163764661Y-37316411D01*
X163749389Y-37608531D01*
X151485000Y-37608531D01*
X151485000Y-37393740D01*
X151427932Y-37106842D01*
X151315990Y-36836589D01*
X151153475Y-36593368D01*
X151021620Y-36461513D01*
X151094180Y-36439502D01*
X151204494Y-36380537D01*
X151301185Y-36301185D01*
X151380537Y-36204494D01*
X151439502Y-36094180D01*
X151475812Y-35974482D01*
X151488072Y-35850000D01*
X151488072Y-34853740D01*
X163755000Y-34853740D01*
X163755000Y-35146260D01*
X163812068Y-35433158D01*
X163924010Y-35703411D01*
X164086525Y-35946632D01*
X164293368Y-36153475D01*
X164466729Y-36269311D01*
X164391208Y-36511603D01*
X165240000Y-37360395D01*
X166088792Y-36511603D01*
X166013271Y-36269311D01*
X166186632Y-36153475D01*
X166393475Y-35946632D01*
X166555990Y-35703411D01*
X166667932Y-35433158D01*
X166725000Y-35146260D01*
X166725000Y-34853740D01*
X166667932Y-34566842D01*
X166555990Y-34296589D01*
X166393475Y-34053368D01*
X166186632Y-33846525D01*
X165943411Y-33684010D01*
X165673158Y-33572068D01*
X165386260Y-33515000D01*
X165093740Y-33515000D01*
X164806842Y-33572068D01*
X164536589Y-33684010D01*
X164293368Y-33846525D01*
X164086525Y-34053368D01*
X163924010Y-34296589D01*
X163812068Y-34566842D01*
X163755000Y-34853740D01*
X151488072Y-34853740D01*
X151488072Y-34150000D01*
X151475812Y-34025518D01*
X151439502Y-33905820D01*
X151380537Y-33795506D01*
X151301185Y-33698815D01*
X151204494Y-33619463D01*
X151094180Y-33560498D01*
X150974482Y-33524188D01*
X150850000Y-33511928D01*
X149150000Y-33511928D01*
X149025518Y-33524188D01*
X148905820Y-33560498D01*
X148795506Y-33619463D01*
X148698815Y-33698815D01*
X148619463Y-33795506D01*
X148560498Y-33905820D01*
X148524188Y-34025518D01*
X148511928Y-34150000D01*
X144654050Y-34150000D01*
X144654050Y-33031985D01*
X144682760Y-32739182D01*
X144758508Y-32488292D01*
X144881542Y-32256899D01*
X145047177Y-32053810D01*
X145249111Y-31886756D01*
X145479637Y-31762111D01*
X145729990Y-31684614D01*
X146020780Y-31654050D01*
X168968015Y-31654050D01*
X169260818Y-31682760D01*
G04 #@! TA.AperFunction,Conductor*
D17*
G36*
X169260818Y-31682760D02*
G01*
X169511708Y-31758508D01*
X169743101Y-31881542D01*
X169946190Y-32047177D01*
X170113244Y-32249111D01*
X170237889Y-32479637D01*
X170315386Y-32729990D01*
X170345950Y-33020780D01*
X170345951Y-63032125D01*
X170347350Y-63046332D01*
X170373209Y-63638619D01*
X170376731Y-63668375D01*
X170378561Y-63698290D01*
X170381092Y-63715224D01*
X170547866Y-64739252D01*
X170557185Y-64778068D01*
X170565490Y-64817140D01*
X170570496Y-64833514D01*
X170886798Y-65821642D01*
X170901762Y-65858678D01*
X170915742Y-65896070D01*
X170923113Y-65911525D01*
X171381996Y-66842047D01*
X171402255Y-66876440D01*
X171421623Y-66911380D01*
X171431198Y-66925575D01*
X172022579Y-67778049D01*
X172047719Y-67809094D01*
X172072020Y-67840763D01*
X172083587Y-67853387D01*
X172794478Y-68609085D01*
X172823911Y-68636055D01*
X172852644Y-68663802D01*
X172865950Y-68674577D01*
X173680731Y-69316899D01*
X173713829Y-69339224D01*
X173746346Y-69362418D01*
X173761095Y-69371106D01*
X173761100Y-69371109D01*
X173761105Y-69371111D01*
X174661871Y-69885942D01*
X174697898Y-69903126D01*
X174733494Y-69921263D01*
X174749363Y-69927674D01*
X174749369Y-69927677D01*
X174749374Y-69927678D01*
X175716346Y-70303713D01*
X175754515Y-70315383D01*
X175792401Y-70328059D01*
X175809051Y-70332056D01*
X176820987Y-70561034D01*
X176860488Y-70566938D01*
X176899806Y-70573870D01*
X176916849Y-70575361D01*
X176916864Y-70575363D01*
X176916876Y-70575363D01*
X177943708Y-70651670D01*
X177967875Y-70654050D01*
X179968015Y-70654050D01*
X180455052Y-70701805D01*
X180892779Y-70833962D01*
X181296493Y-71048620D01*
X181650827Y-71337608D01*
X181942279Y-71689913D01*
X182159752Y-72092122D01*
X182294962Y-72528910D01*
X182345951Y-73014036D01*
X182345951Y-75821226D01*
X182226769Y-75637636D01*
X182070569Y-75477239D01*
X181886078Y-75350397D01*
X181680387Y-75261985D01*
X181461400Y-75215400D01*
X181161400Y-75215400D01*
X181161400Y-76223400D01*
X181181400Y-76223400D01*
X181181400Y-76477400D01*
X181161400Y-76477400D01*
X181161400Y-77485400D01*
X181461400Y-77485400D01*
X181680387Y-77438815D01*
X181886078Y-77350403D01*
X182070569Y-77223561D01*
X182226769Y-77063164D01*
X182345951Y-76879574D01*
X182345950Y-84461225D01*
X182226769Y-84277636D01*
X182070569Y-84117239D01*
X181886078Y-83990397D01*
X181680387Y-83901985D01*
X181461400Y-83855400D01*
X181161400Y-83855400D01*
X181161400Y-84863400D01*
X181181400Y-84863400D01*
X181181400Y-85117400D01*
X181161400Y-85117400D01*
X181161400Y-86125400D01*
X181461400Y-86125400D01*
X181680387Y-86078815D01*
X181886078Y-85990403D01*
X182070569Y-85863561D01*
X182226769Y-85703164D01*
X182345950Y-85519575D01*
X182345950Y-85968016D01*
X182336285Y-86066583D01*
X182316946Y-86130637D01*
X182285536Y-86189711D01*
X182243250Y-86241559D01*
X182191702Y-86284204D01*
X182132845Y-86316027D01*
X182068933Y-86335811D01*
X181972473Y-86345950D01*
X133031984Y-86345950D01*
X132933417Y-86336285D01*
X132869363Y-86316946D01*
X132810289Y-86285536D01*
X132758441Y-86243250D01*
X132715796Y-86191702D01*
X132683973Y-86132845D01*
X132664189Y-86068933D01*
X132654050Y-85972473D01*
X132654050Y-85343074D01*
X132785481Y-85343074D01*
X132865324Y-85566176D01*
X132987231Y-85753964D01*
X133143431Y-85914361D01*
X133327922Y-86041203D01*
X133533613Y-86129615D01*
X133752600Y-86176200D01*
X134052600Y-86176200D01*
X134052600Y-85168200D01*
X134306600Y-85168200D01*
X134306600Y-86176200D01*
X134606600Y-86176200D01*
X134825587Y-86129615D01*
X135031278Y-86041203D01*
X135215769Y-85914361D01*
X135371969Y-85753964D01*
X135493876Y-85566176D01*
X135573719Y-85343074D01*
X136715481Y-85343074D01*
X136795324Y-85566176D01*
X136917231Y-85753964D01*
X137073431Y-85914361D01*
X137257922Y-86041203D01*
X137463613Y-86129615D01*
X137682600Y-86176200D01*
X138232600Y-86176200D01*
X138232600Y-85168200D01*
X138486600Y-85168200D01*
X138486600Y-86176200D01*
X139036600Y-86176200D01*
X139255587Y-86129615D01*
X139461278Y-86041203D01*
X139645769Y-85914361D01*
X139801969Y-85753964D01*
X139923876Y-85566176D01*
X140003719Y-85343074D01*
X139967069Y-85292274D01*
X175210281Y-85292274D01*
X175290124Y-85515376D01*
X175412031Y-85703164D01*
X175568231Y-85863561D01*
X175752722Y-85990403D01*
X175958413Y-86078815D01*
X176177400Y-86125400D01*
X176727400Y-86125400D01*
X176727400Y-85117400D01*
X176981400Y-85117400D01*
X176981400Y-86125400D01*
X177531400Y-86125400D01*
X177750387Y-86078815D01*
X177956078Y-85990403D01*
X178140569Y-85863561D01*
X178296769Y-85703164D01*
X178418676Y-85515376D01*
X178498519Y-85292274D01*
X179640281Y-85292274D01*
X179720124Y-85515376D01*
X179842031Y-85703164D01*
X179998231Y-85863561D01*
X180182722Y-85990403D01*
X180388413Y-86078815D01*
X180607400Y-86125400D01*
X180907400Y-86125400D01*
X180907400Y-85117400D01*
X179766446Y-85117400D01*
X179640281Y-85292274D01*
X178498519Y-85292274D01*
X178372354Y-85117400D01*
X176981400Y-85117400D01*
X176727400Y-85117400D01*
X175336446Y-85117400D01*
X175210281Y-85292274D01*
X139967069Y-85292274D01*
X139877554Y-85168200D01*
X138486600Y-85168200D01*
X138232600Y-85168200D01*
X136841646Y-85168200D01*
X136715481Y-85343074D01*
X135573719Y-85343074D01*
X135447554Y-85168200D01*
X134306600Y-85168200D01*
X134052600Y-85168200D01*
X132911646Y-85168200D01*
X132785481Y-85343074D01*
X132654050Y-85343074D01*
X132654050Y-84739326D01*
X132785481Y-84739326D01*
X132911646Y-84914200D01*
X134052600Y-84914200D01*
X134052600Y-83906200D01*
X134306600Y-83906200D01*
X134306600Y-84914200D01*
X135447554Y-84914200D01*
X135573719Y-84739326D01*
X136715481Y-84739326D01*
X136841646Y-84914200D01*
X138232600Y-84914200D01*
X138232600Y-84894200D01*
X138486600Y-84894200D01*
X138486600Y-84914200D01*
X139877554Y-84914200D01*
X140003719Y-84739326D01*
X139923876Y-84516224D01*
X139801969Y-84328436D01*
X139645769Y-84168039D01*
X139461278Y-84041197D01*
X139255587Y-83952785D01*
X139036600Y-83906200D01*
X138746504Y-83906200D01*
X138752708Y-83891222D01*
X138789600Y-83705752D01*
X138789600Y-83516648D01*
X138752708Y-83331178D01*
X138680341Y-83156469D01*
X138651791Y-83113740D01*
X148515000Y-83113740D01*
X148515000Y-83406260D01*
X148572068Y-83693158D01*
X148684010Y-83963411D01*
X148846525Y-84206632D01*
X149053368Y-84413475D01*
X149296589Y-84575990D01*
X149566842Y-84687932D01*
X149853740Y-84745000D01*
X150146260Y-84745000D01*
X150433158Y-84687932D01*
X150703411Y-84575990D01*
X150946632Y-84413475D01*
X151153475Y-84206632D01*
X151315990Y-83963411D01*
X151427932Y-83693158D01*
X151485000Y-83406260D01*
X151485000Y-83113740D01*
X151427932Y-82826842D01*
X151315990Y-82556589D01*
X151153475Y-82313368D01*
X150946632Y-82106525D01*
X150773271Y-81990689D01*
X150848792Y-81748397D01*
X150000000Y-80899605D01*
X149151208Y-81748397D01*
X149226729Y-81990689D01*
X149053368Y-82106525D01*
X148846525Y-82313368D01*
X148684010Y-82556589D01*
X148572068Y-82826842D01*
X148515000Y-83113740D01*
X138651791Y-83113740D01*
X138575281Y-82999236D01*
X138441564Y-82865519D01*
X138284331Y-82760459D01*
X138109622Y-82688092D01*
X137924152Y-82651200D01*
X137735048Y-82651200D01*
X137549578Y-82688092D01*
X137374869Y-82760459D01*
X137217636Y-82865519D01*
X137083919Y-82999236D01*
X136978859Y-83156469D01*
X136906492Y-83331178D01*
X136869600Y-83516648D01*
X136869600Y-83705752D01*
X136906492Y-83891222D01*
X136978859Y-84065931D01*
X137057806Y-84184084D01*
X136917231Y-84328436D01*
X136795324Y-84516224D01*
X136715481Y-84739326D01*
X135573719Y-84739326D01*
X135493876Y-84516224D01*
X135371969Y-84328436D01*
X135215769Y-84168039D01*
X135031278Y-84041197D01*
X134825587Y-83952785D01*
X134606600Y-83906200D01*
X134306600Y-83906200D01*
X134052600Y-83906200D01*
X133752600Y-83906200D01*
X133533613Y-83952785D01*
X133327922Y-84041197D01*
X133143431Y-84168039D01*
X132987231Y-84328436D01*
X132865324Y-84516224D01*
X132785481Y-84739326D01*
X132654050Y-84739326D01*
X132654050Y-80984711D01*
X142219400Y-80984711D01*
X142219400Y-81168889D01*
X142255332Y-81349529D01*
X142325814Y-81519689D01*
X142428138Y-81672828D01*
X142558372Y-81803062D01*
X142711511Y-81905386D01*
X142881671Y-81975868D01*
X143062311Y-82011800D01*
X143246489Y-82011800D01*
X143427129Y-81975868D01*
X143597289Y-81905386D01*
X143750428Y-81803062D01*
X143880662Y-81672828D01*
X143982986Y-81519689D01*
X144053468Y-81349529D01*
X144089400Y-81168889D01*
X144089400Y-80984711D01*
X144053468Y-80804071D01*
X143989400Y-80649396D01*
X143989400Y-79543067D01*
X144613781Y-78918687D01*
X144601360Y-79044800D01*
X144605400Y-79085818D01*
X144605400Y-79480996D01*
X144541332Y-79635671D01*
X144505400Y-79816311D01*
X144505400Y-80000489D01*
X144541332Y-80181129D01*
X144611814Y-80351289D01*
X144714138Y-80504428D01*
X144844372Y-80634662D01*
X144997511Y-80736986D01*
X145167671Y-80807468D01*
X145348311Y-80843400D01*
X145532489Y-80843400D01*
X145713129Y-80807468D01*
X145758847Y-80788531D01*
X148509389Y-80788531D01*
X148551401Y-81078019D01*
X148649081Y-81353747D01*
X148722528Y-81491157D01*
X148971603Y-81568792D01*
X149820395Y-80720000D01*
X150179605Y-80720000D01*
X151028397Y-81568792D01*
X151277472Y-81491157D01*
X151403371Y-81227117D01*
X151475339Y-80943589D01*
X151490611Y-80651469D01*
X151448599Y-80361981D01*
X151350919Y-80086253D01*
X151277472Y-79948843D01*
X151028397Y-79871208D01*
X150179605Y-80720000D01*
X149820395Y-80720000D01*
X148971603Y-79871208D01*
X148722528Y-79948843D01*
X148596629Y-80212883D01*
X148524661Y-80496411D01*
X148509389Y-80788531D01*
X145758847Y-80788531D01*
X145883289Y-80736986D01*
X146036428Y-80634662D01*
X146166662Y-80504428D01*
X146268986Y-80351289D01*
X146339468Y-80181129D01*
X146375400Y-80000489D01*
X146375400Y-79816311D01*
X146339468Y-79635671D01*
X146275400Y-79480996D01*
X146275400Y-79390667D01*
X147405015Y-78261053D01*
X147559689Y-78196986D01*
X147712828Y-78094662D01*
X147843062Y-77964428D01*
X147945386Y-77811289D01*
X148015868Y-77641129D01*
X148051800Y-77460489D01*
X148051800Y-77276311D01*
X148015868Y-77095671D01*
X147945386Y-76925511D01*
X147843062Y-76772372D01*
X147712828Y-76642138D01*
X147559689Y-76539814D01*
X147389529Y-76469332D01*
X147208889Y-76433400D01*
X147024711Y-76433400D01*
X146844071Y-76469332D01*
X146673911Y-76539814D01*
X146520772Y-76642138D01*
X146390538Y-76772372D01*
X146288214Y-76925511D01*
X146224147Y-77080185D01*
X146019800Y-77284532D01*
X146019800Y-77174711D01*
X145983868Y-76994071D01*
X145913386Y-76823911D01*
X145811062Y-76670772D01*
X145680828Y-76540538D01*
X145527689Y-76438214D01*
X145357529Y-76367732D01*
X145176889Y-76331800D01*
X144992711Y-76331800D01*
X144812071Y-76367732D01*
X144641911Y-76438214D01*
X144488772Y-76540538D01*
X144358538Y-76670772D01*
X144256214Y-76823911D01*
X144192147Y-76978585D01*
X142592974Y-78577759D01*
X142561110Y-78603909D01*
X142534962Y-78635771D01*
X142456764Y-78731055D01*
X142379228Y-78876114D01*
X142331482Y-79033512D01*
X142315360Y-79197200D01*
X142319401Y-79238228D01*
X142319400Y-80649395D01*
X142255332Y-80804071D01*
X142219400Y-80984711D01*
X132654050Y-80984711D01*
X132654050Y-76703074D01*
X132785481Y-76703074D01*
X132865324Y-76926176D01*
X132987231Y-77113964D01*
X133143431Y-77274361D01*
X133327922Y-77401203D01*
X133533613Y-77489615D01*
X133752600Y-77536200D01*
X134052600Y-77536200D01*
X134052600Y-76528200D01*
X134306600Y-76528200D01*
X134306600Y-77536200D01*
X134606600Y-77536200D01*
X134825587Y-77489615D01*
X135031278Y-77401203D01*
X135215769Y-77274361D01*
X135371969Y-77113964D01*
X135493876Y-76926176D01*
X135573719Y-76703074D01*
X136715481Y-76703074D01*
X136795324Y-76926176D01*
X136917231Y-77113964D01*
X137057806Y-77258316D01*
X136978859Y-77376469D01*
X136906492Y-77551178D01*
X136869600Y-77736648D01*
X136869600Y-77925752D01*
X136906492Y-78111222D01*
X136978859Y-78285931D01*
X137083919Y-78443164D01*
X137217636Y-78576881D01*
X137374869Y-78681941D01*
X137549578Y-78754308D01*
X137735048Y-78791200D01*
X137924152Y-78791200D01*
X138109622Y-78754308D01*
X138284331Y-78681941D01*
X138441564Y-78576881D01*
X138575281Y-78443164D01*
X138680341Y-78285931D01*
X138752708Y-78111222D01*
X138789600Y-77925752D01*
X138789600Y-77736648D01*
X138752708Y-77551178D01*
X138746504Y-77536200D01*
X139036600Y-77536200D01*
X139255587Y-77489615D01*
X139461278Y-77401203D01*
X139645769Y-77274361D01*
X139801969Y-77113964D01*
X139923876Y-76926176D01*
X140003719Y-76703074D01*
X139877554Y-76528200D01*
X138486600Y-76528200D01*
X138486600Y-76548200D01*
X138232600Y-76548200D01*
X138232600Y-76528200D01*
X136841646Y-76528200D01*
X136715481Y-76703074D01*
X135573719Y-76703074D01*
X135447554Y-76528200D01*
X134306600Y-76528200D01*
X134052600Y-76528200D01*
X132911646Y-76528200D01*
X132785481Y-76703074D01*
X132654050Y-76703074D01*
X132654050Y-76099326D01*
X132785481Y-76099326D01*
X132911646Y-76274200D01*
X134052600Y-76274200D01*
X134052600Y-75266200D01*
X134306600Y-75266200D01*
X134306600Y-76274200D01*
X135447554Y-76274200D01*
X135573719Y-76099326D01*
X136715481Y-76099326D01*
X136841646Y-76274200D01*
X138232600Y-76274200D01*
X138232600Y-75266200D01*
X138486600Y-75266200D01*
X138486600Y-76274200D01*
X139877554Y-76274200D01*
X140003719Y-76099326D01*
X139923876Y-75876224D01*
X139801969Y-75688436D01*
X139645769Y-75528039D01*
X139461278Y-75401197D01*
X139255587Y-75312785D01*
X139036600Y-75266200D01*
X138486600Y-75266200D01*
X138232600Y-75266200D01*
X137682600Y-75266200D01*
X137463613Y-75312785D01*
X137257922Y-75401197D01*
X137073431Y-75528039D01*
X136917231Y-75688436D01*
X136795324Y-75876224D01*
X136715481Y-76099326D01*
X135573719Y-76099326D01*
X135493876Y-75876224D01*
X135371969Y-75688436D01*
X135215769Y-75528039D01*
X135031278Y-75401197D01*
X134825587Y-75312785D01*
X134606600Y-75266200D01*
X134306600Y-75266200D01*
X134052600Y-75266200D01*
X133752600Y-75266200D01*
X133533613Y-75312785D01*
X133327922Y-75401197D01*
X133143431Y-75528039D01*
X132987231Y-75688436D01*
X132865324Y-75876224D01*
X132785481Y-76099326D01*
X132654050Y-76099326D01*
X132654050Y-73031985D01*
X132701805Y-72544948D01*
X132833962Y-72107221D01*
X133048620Y-71703507D01*
X133337608Y-71349173D01*
X133689913Y-71057721D01*
X134092122Y-70840248D01*
X134528910Y-70705038D01*
X135014027Y-70654050D01*
X137032125Y-70654050D01*
X137046351Y-70652649D01*
X137638619Y-70626791D01*
X137668375Y-70623269D01*
X137698290Y-70621439D01*
X137715224Y-70618908D01*
X138739252Y-70452134D01*
X138778068Y-70442815D01*
X138817140Y-70434510D01*
X138833514Y-70429504D01*
X139821642Y-70113202D01*
X139858678Y-70098238D01*
X139896070Y-70084258D01*
X139911525Y-70076887D01*
X140842047Y-69618004D01*
X140876440Y-69597745D01*
X140911380Y-69578377D01*
X140925575Y-69568802D01*
X141778049Y-68977421D01*
X141809094Y-68952281D01*
X141840763Y-68927980D01*
X141853387Y-68916413D01*
X142609085Y-68205522D01*
X142636055Y-68176089D01*
X142663802Y-68147356D01*
X142674577Y-68134050D01*
X143316899Y-67319269D01*
X143339224Y-67286171D01*
X143362418Y-67253654D01*
X143371108Y-67238901D01*
X143885942Y-66338129D01*
X143903126Y-66302102D01*
X143921263Y-66266506D01*
X143927677Y-66250630D01*
X144303713Y-65283654D01*
X144315383Y-65245485D01*
X144328059Y-65207599D01*
X144332056Y-65190949D01*
X144561034Y-64179013D01*
X144566938Y-64139512D01*
X144573870Y-64100194D01*
X144575361Y-64083151D01*
X144575363Y-64083136D01*
X144575363Y-64083124D01*
X144651670Y-63056292D01*
X144654050Y-63032125D01*
X144654050Y-34150000D01*
X148511928Y-34150000D01*
X148511928Y-35850000D01*
X148524188Y-35974482D01*
X148560498Y-36094180D01*
X148619463Y-36204494D01*
X148698815Y-36301185D01*
X148795506Y-36380537D01*
X148905820Y-36439502D01*
X148978380Y-36461513D01*
X148846525Y-36593368D01*
X148684010Y-36836589D01*
X148572068Y-37106842D01*
X148515000Y-37393740D01*
X148515000Y-37686260D01*
X148572068Y-37973158D01*
X148684010Y-38243411D01*
X148846525Y-38486632D01*
X149053368Y-38693475D01*
X149227760Y-38810000D01*
X149053368Y-38926525D01*
X148846525Y-39133368D01*
X148684010Y-39376589D01*
X148572068Y-39646842D01*
X148515000Y-39933740D01*
X148515000Y-40226260D01*
X148572068Y-40513158D01*
X148684010Y-40783411D01*
X148846525Y-41026632D01*
X149053368Y-41233475D01*
X149227760Y-41350000D01*
X149053368Y-41466525D01*
X148846525Y-41673368D01*
X148684010Y-41916589D01*
X148572068Y-42186842D01*
X148515000Y-42473740D01*
X148515000Y-42766260D01*
X148572068Y-43053158D01*
X148684010Y-43323411D01*
X148846525Y-43566632D01*
X149053368Y-43773475D01*
X149227760Y-43890000D01*
X149053368Y-44006525D01*
X148846525Y-44213368D01*
X148684010Y-44456589D01*
X148572068Y-44726842D01*
X148515000Y-45013740D01*
X148515000Y-45306260D01*
X148572068Y-45593158D01*
X148684010Y-45863411D01*
X148846525Y-46106632D01*
X149053368Y-46313475D01*
X149227760Y-46430000D01*
X149053368Y-46546525D01*
X148846525Y-46753368D01*
X148684010Y-46996589D01*
X148572068Y-47266842D01*
X148515000Y-47553740D01*
X148515000Y-47846260D01*
X148572068Y-48133158D01*
X148684010Y-48403411D01*
X148846525Y-48646632D01*
X149053368Y-48853475D01*
X149227760Y-48970000D01*
X149053368Y-49086525D01*
X148846525Y-49293368D01*
X148684010Y-49536589D01*
X148572068Y-49806842D01*
X148515000Y-50093740D01*
X148515000Y-50386260D01*
X148572068Y-50673158D01*
X148684010Y-50943411D01*
X148846525Y-51186632D01*
X149053368Y-51393475D01*
X149227760Y-51510000D01*
X149053368Y-51626525D01*
X148846525Y-51833368D01*
X148684010Y-52076589D01*
X148572068Y-52346842D01*
X148515000Y-52633740D01*
X148515000Y-52926260D01*
X148572068Y-53213158D01*
X148684010Y-53483411D01*
X148846525Y-53726632D01*
X149053368Y-53933475D01*
X149227760Y-54050000D01*
X149053368Y-54166525D01*
X148846525Y-54373368D01*
X148684010Y-54616589D01*
X148572068Y-54886842D01*
X148515000Y-55173740D01*
X148515000Y-55466260D01*
X148572068Y-55753158D01*
X148684010Y-56023411D01*
X148846525Y-56266632D01*
X149053368Y-56473475D01*
X149227760Y-56590000D01*
X149053368Y-56706525D01*
X148846525Y-56913368D01*
X148684010Y-57156589D01*
X148572068Y-57426842D01*
X148515000Y-57713740D01*
X148515000Y-58006260D01*
X148572068Y-58293158D01*
X148684010Y-58563411D01*
X148846525Y-58806632D01*
X149053368Y-59013475D01*
X149227760Y-59130000D01*
X149053368Y-59246525D01*
X148846525Y-59453368D01*
X148684010Y-59696589D01*
X148572068Y-59966842D01*
X148515000Y-60253740D01*
X148515000Y-60546260D01*
X148572068Y-60833158D01*
X148684010Y-61103411D01*
X148846525Y-61346632D01*
X149053368Y-61553475D01*
X149227760Y-61670000D01*
X149053368Y-61786525D01*
X148846525Y-61993368D01*
X148684010Y-62236589D01*
X148572068Y-62506842D01*
X148515000Y-62793740D01*
X148515000Y-63086260D01*
X148572068Y-63373158D01*
X148684010Y-63643411D01*
X148846525Y-63886632D01*
X149053368Y-64093475D01*
X149227760Y-64210000D01*
X149053368Y-64326525D01*
X148846525Y-64533368D01*
X148684010Y-64776589D01*
X148572068Y-65046842D01*
X148515000Y-65333740D01*
X148515000Y-65626260D01*
X148572068Y-65913158D01*
X148684010Y-66183411D01*
X148846525Y-66426632D01*
X149053368Y-66633475D01*
X149227760Y-66750000D01*
X149053368Y-66866525D01*
X148846525Y-67073368D01*
X148684010Y-67316589D01*
X148572068Y-67586842D01*
X148515000Y-67873740D01*
X148515000Y-68166260D01*
X148572068Y-68453158D01*
X148684010Y-68723411D01*
X148846525Y-68966632D01*
X149053368Y-69173475D01*
X149227760Y-69290000D01*
X149053368Y-69406525D01*
X148846525Y-69613368D01*
X148684010Y-69856589D01*
X148572068Y-70126842D01*
X148515000Y-70413740D01*
X148515000Y-70706260D01*
X148572068Y-70993158D01*
X148684010Y-71263411D01*
X148846525Y-71506632D01*
X149053368Y-71713475D01*
X149227760Y-71830000D01*
X149053368Y-71946525D01*
X148846525Y-72153368D01*
X148684010Y-72396589D01*
X148572068Y-72666842D01*
X148515000Y-72953740D01*
X148515000Y-73246260D01*
X148572068Y-73533158D01*
X148684010Y-73803411D01*
X148846525Y-74046632D01*
X149053368Y-74253475D01*
X149227760Y-74370000D01*
X149053368Y-74486525D01*
X148846525Y-74693368D01*
X148684010Y-74936589D01*
X148572068Y-75206842D01*
X148515000Y-75493740D01*
X148515000Y-75786260D01*
X148572068Y-76073158D01*
X148684010Y-76343411D01*
X148846525Y-76586632D01*
X149053368Y-76793475D01*
X149227760Y-76910000D01*
X149053368Y-77026525D01*
X148846525Y-77233368D01*
X148684010Y-77476589D01*
X148572068Y-77746842D01*
X148515000Y-78033740D01*
X148515000Y-78326260D01*
X148572068Y-78613158D01*
X148684010Y-78883411D01*
X148846525Y-79126632D01*
X149053368Y-79333475D01*
X149226729Y-79449311D01*
X149151208Y-79691603D01*
X150000000Y-80540395D01*
X150848792Y-79691603D01*
X150773271Y-79449311D01*
X150946632Y-79333475D01*
X151153475Y-79126632D01*
X151315990Y-78883411D01*
X151427932Y-78613158D01*
X151485000Y-78326260D01*
X151485000Y-78033740D01*
X151427932Y-77746842D01*
X151315990Y-77476589D01*
X151153475Y-77233368D01*
X150946632Y-77026525D01*
X150772240Y-76910000D01*
X150946632Y-76793475D01*
X151153475Y-76586632D01*
X151315990Y-76343411D01*
X151427932Y-76073158D01*
X151485000Y-75786260D01*
X151485000Y-75493740D01*
X151427932Y-75206842D01*
X151315990Y-74936589D01*
X151153475Y-74693368D01*
X150946632Y-74486525D01*
X150772240Y-74370000D01*
X150946632Y-74253475D01*
X151153475Y-74046632D01*
X151315990Y-73803411D01*
X151427932Y-73533158D01*
X151485000Y-73246260D01*
X151485000Y-72953740D01*
X151427932Y-72666842D01*
X151315990Y-72396589D01*
X151153475Y-72153368D01*
X150946632Y-71946525D01*
X150772240Y-71830000D01*
X150946632Y-71713475D01*
X151153475Y-71506632D01*
X151315990Y-71263411D01*
X151427932Y-70993158D01*
X151485000Y-70706260D01*
X151485000Y-70413740D01*
X151427932Y-70126842D01*
X151315990Y-69856589D01*
X151153475Y-69613368D01*
X150946632Y-69406525D01*
X150772240Y-69290000D01*
X150946632Y-69173475D01*
X151153475Y-68966632D01*
X151315990Y-68723411D01*
X151427932Y-68453158D01*
X151485000Y-68166260D01*
X151485000Y-67873740D01*
X151427932Y-67586842D01*
X151315990Y-67316589D01*
X151153475Y-67073368D01*
X150946632Y-66866525D01*
X150772240Y-66750000D01*
X150946632Y-66633475D01*
X151153475Y-66426632D01*
X151315990Y-66183411D01*
X151427932Y-65913158D01*
X151485000Y-65626260D01*
X151485000Y-65333740D01*
X151427932Y-65046842D01*
X151315990Y-64776589D01*
X151153475Y-64533368D01*
X150946632Y-64326525D01*
X150772240Y-64210000D01*
X150946632Y-64093475D01*
X151153475Y-63886632D01*
X151315990Y-63643411D01*
X151427932Y-63373158D01*
X151485000Y-63086260D01*
X151485000Y-62793740D01*
X151427932Y-62506842D01*
X151315990Y-62236589D01*
X151153475Y-61993368D01*
X150946632Y-61786525D01*
X150772240Y-61670000D01*
X150946632Y-61553475D01*
X151153475Y-61346632D01*
X151315990Y-61103411D01*
X151427932Y-60833158D01*
X151485000Y-60546260D01*
X151485000Y-60253740D01*
X151427932Y-59966842D01*
X151315990Y-59696589D01*
X151153475Y-59453368D01*
X150946632Y-59246525D01*
X150772240Y-59130000D01*
X150946632Y-59013475D01*
X151153475Y-58806632D01*
X151315990Y-58563411D01*
X151427932Y-58293158D01*
X151485000Y-58006260D01*
X151485000Y-57713740D01*
X151427932Y-57426842D01*
X151315990Y-57156589D01*
X151153475Y-56913368D01*
X150946632Y-56706525D01*
X150772240Y-56590000D01*
X150946632Y-56473475D01*
X151153475Y-56266632D01*
X151315990Y-56023411D01*
X151427932Y-55753158D01*
X151485000Y-55466260D01*
X151485000Y-55173740D01*
X151427932Y-54886842D01*
X151315990Y-54616589D01*
X151153475Y-54373368D01*
X150946632Y-54166525D01*
X150772240Y-54050000D01*
X150946632Y-53933475D01*
X151153475Y-53726632D01*
X151315990Y-53483411D01*
X151427932Y-53213158D01*
X151485000Y-52926260D01*
X151485000Y-52633740D01*
X151427932Y-52346842D01*
X151315990Y-52076589D01*
X151153475Y-51833368D01*
X150946632Y-51626525D01*
X150772240Y-51510000D01*
X150946632Y-51393475D01*
X151153475Y-51186632D01*
X151315990Y-50943411D01*
X151427932Y-50673158D01*
X151485000Y-50386260D01*
X151485000Y-50093740D01*
X151427932Y-49806842D01*
X151315990Y-49536589D01*
X151153475Y-49293368D01*
X150946632Y-49086525D01*
X150772240Y-48970000D01*
X150946632Y-48853475D01*
X151153475Y-48646632D01*
X151315990Y-48403411D01*
X151427932Y-48133158D01*
X151485000Y-47846260D01*
X151485000Y-47553740D01*
X151427932Y-47266842D01*
X151315990Y-46996589D01*
X151153475Y-46753368D01*
X150946632Y-46546525D01*
X150772240Y-46430000D01*
X150946632Y-46313475D01*
X151153475Y-46106632D01*
X151315990Y-45863411D01*
X151427932Y-45593158D01*
X151485000Y-45306260D01*
X151485000Y-45013740D01*
X151427932Y-44726842D01*
X151315990Y-44456589D01*
X151153475Y-44213368D01*
X150946632Y-44006525D01*
X150772240Y-43890000D01*
X150946632Y-43773475D01*
X151153475Y-43566632D01*
X151315990Y-43323411D01*
X151427932Y-43053158D01*
X151485000Y-42766260D01*
X151485000Y-42473740D01*
X151427932Y-42186842D01*
X151315990Y-41916589D01*
X151153475Y-41673368D01*
X150946632Y-41466525D01*
X150772240Y-41350000D01*
X150946632Y-41233475D01*
X151153475Y-41026632D01*
X151315990Y-40783411D01*
X151427932Y-40513158D01*
X151485000Y-40226260D01*
X151485000Y-39933740D01*
X163755000Y-39933740D01*
X163755000Y-40226260D01*
X163812068Y-40513158D01*
X163924010Y-40783411D01*
X164086525Y-41026632D01*
X164293368Y-41233475D01*
X164467760Y-41350000D01*
X164293368Y-41466525D01*
X164086525Y-41673368D01*
X163924010Y-41916589D01*
X163812068Y-42186842D01*
X163755000Y-42473740D01*
X163755000Y-42766260D01*
X163812068Y-43053158D01*
X163924010Y-43323411D01*
X164086525Y-43566632D01*
X164293368Y-43773475D01*
X164467760Y-43890000D01*
X164293368Y-44006525D01*
X164086525Y-44213368D01*
X163924010Y-44456589D01*
X163812068Y-44726842D01*
X163755000Y-45013740D01*
X163755000Y-45306260D01*
X163812068Y-45593158D01*
X163924010Y-45863411D01*
X164086525Y-46106632D01*
X164293368Y-46313475D01*
X164467760Y-46430000D01*
X164293368Y-46546525D01*
X164086525Y-46753368D01*
X163924010Y-46996589D01*
X163812068Y-47266842D01*
X163755000Y-47553740D01*
X163755000Y-47846260D01*
X163812068Y-48133158D01*
X163924010Y-48403411D01*
X164086525Y-48646632D01*
X164293368Y-48853475D01*
X164467760Y-48970000D01*
X164293368Y-49086525D01*
X164086525Y-49293368D01*
X163924010Y-49536589D01*
X163812068Y-49806842D01*
X163755000Y-50093740D01*
X163755000Y-50386260D01*
X163812068Y-50673158D01*
X163924010Y-50943411D01*
X164086525Y-51186632D01*
X164293368Y-51393475D01*
X164467760Y-51510000D01*
X164293368Y-51626525D01*
X164086525Y-51833368D01*
X163924010Y-52076589D01*
X163812068Y-52346842D01*
X163755000Y-52633740D01*
X163755000Y-52926260D01*
X163812068Y-53213158D01*
X163924010Y-53483411D01*
X164086525Y-53726632D01*
X164293368Y-53933475D01*
X164467760Y-54050000D01*
X164293368Y-54166525D01*
X164086525Y-54373368D01*
X163924010Y-54616589D01*
X163812068Y-54886842D01*
X163755000Y-55173740D01*
X163755000Y-55466260D01*
X163812068Y-55753158D01*
X163924010Y-56023411D01*
X164086525Y-56266632D01*
X164293368Y-56473475D01*
X164467760Y-56590000D01*
X164293368Y-56706525D01*
X164086525Y-56913368D01*
X163924010Y-57156589D01*
X163812068Y-57426842D01*
X163755000Y-57713740D01*
X163755000Y-58006260D01*
X163812068Y-58293158D01*
X163924010Y-58563411D01*
X164086525Y-58806632D01*
X164293368Y-59013475D01*
X164467760Y-59130000D01*
X164293368Y-59246525D01*
X164086525Y-59453368D01*
X163924010Y-59696589D01*
X163812068Y-59966842D01*
X163755000Y-60253740D01*
X163755000Y-60546260D01*
X163812068Y-60833158D01*
X163924010Y-61103411D01*
X164086525Y-61346632D01*
X164293368Y-61553475D01*
X164467760Y-61670000D01*
X164293368Y-61786525D01*
X164086525Y-61993368D01*
X163924010Y-62236589D01*
X163812068Y-62506842D01*
X163755000Y-62793740D01*
X163755000Y-63086260D01*
X163812068Y-63373158D01*
X163924010Y-63643411D01*
X164086525Y-63886632D01*
X164293368Y-64093475D01*
X164467760Y-64210000D01*
X164293368Y-64326525D01*
X164086525Y-64533368D01*
X163924010Y-64776589D01*
X163812068Y-65046842D01*
X163755000Y-65333740D01*
X163755000Y-65626260D01*
X163812068Y-65913158D01*
X163924010Y-66183411D01*
X164086525Y-66426632D01*
X164293368Y-66633475D01*
X164467760Y-66750000D01*
X164293368Y-66866525D01*
X164086525Y-67073368D01*
X163924010Y-67316589D01*
X163812068Y-67586842D01*
X163755000Y-67873740D01*
X163755000Y-68166260D01*
X163812068Y-68453158D01*
X163924010Y-68723411D01*
X164086525Y-68966632D01*
X164293368Y-69173475D01*
X164467760Y-69290000D01*
X164293368Y-69406525D01*
X164086525Y-69613368D01*
X163924010Y-69856589D01*
X163812068Y-70126842D01*
X163755000Y-70413740D01*
X163755000Y-70706260D01*
X163812068Y-70993158D01*
X163924010Y-71263411D01*
X164086525Y-71506632D01*
X164293368Y-71713475D01*
X164467760Y-71830000D01*
X164293368Y-71946525D01*
X164086525Y-72153368D01*
X163924010Y-72396589D01*
X163812068Y-72666842D01*
X163755000Y-72953740D01*
X163755000Y-73246260D01*
X163812068Y-73533158D01*
X163924010Y-73803411D01*
X164086525Y-74046632D01*
X164293368Y-74253475D01*
X164467760Y-74370000D01*
X164293368Y-74486525D01*
X164086525Y-74693368D01*
X163924010Y-74936589D01*
X163812068Y-75206842D01*
X163755000Y-75493740D01*
X163755000Y-75786260D01*
X163812068Y-76073158D01*
X163924010Y-76343411D01*
X164086525Y-76586632D01*
X164293368Y-76793475D01*
X164467760Y-76910000D01*
X164293368Y-77026525D01*
X164086525Y-77233368D01*
X163924010Y-77476589D01*
X163812068Y-77746842D01*
X163755000Y-78033740D01*
X163755000Y-78326260D01*
X163812068Y-78613158D01*
X163924010Y-78883411D01*
X164086525Y-79126632D01*
X164293368Y-79333475D01*
X164467760Y-79450000D01*
X164293368Y-79566525D01*
X164086525Y-79773368D01*
X163924010Y-80016589D01*
X163812068Y-80286842D01*
X163755000Y-80573740D01*
X163755000Y-80866260D01*
X163812068Y-81153158D01*
X163924010Y-81423411D01*
X164086525Y-81666632D01*
X164293368Y-81873475D01*
X164467760Y-81990000D01*
X164293368Y-82106525D01*
X164086525Y-82313368D01*
X163924010Y-82556589D01*
X163812068Y-82826842D01*
X163755000Y-83113740D01*
X163755000Y-83406260D01*
X163812068Y-83693158D01*
X163924010Y-83963411D01*
X164086525Y-84206632D01*
X164293368Y-84413475D01*
X164536589Y-84575990D01*
X164806842Y-84687932D01*
X165093740Y-84745000D01*
X165386260Y-84745000D01*
X165670171Y-84688526D01*
X175210281Y-84688526D01*
X175336446Y-84863400D01*
X176727400Y-84863400D01*
X176727400Y-84843400D01*
X176981400Y-84843400D01*
X176981400Y-84863400D01*
X178372354Y-84863400D01*
X178498519Y-84688526D01*
X179640281Y-84688526D01*
X179766446Y-84863400D01*
X180907400Y-84863400D01*
X180907400Y-83855400D01*
X180607400Y-83855400D01*
X180388413Y-83901985D01*
X180182722Y-83990397D01*
X179998231Y-84117239D01*
X179842031Y-84277636D01*
X179720124Y-84465424D01*
X179640281Y-84688526D01*
X178498519Y-84688526D01*
X178418676Y-84465424D01*
X178296769Y-84277636D01*
X178156194Y-84133284D01*
X178235141Y-84015131D01*
X178307508Y-83840422D01*
X178344400Y-83654952D01*
X178344400Y-83465848D01*
X178307508Y-83280378D01*
X178235141Y-83105669D01*
X178130081Y-82948436D01*
X177996364Y-82814719D01*
X177839131Y-82709659D01*
X177664422Y-82637292D01*
X177478952Y-82600400D01*
X177289848Y-82600400D01*
X177104378Y-82637292D01*
X176929669Y-82709659D01*
X176772436Y-82814719D01*
X176638719Y-82948436D01*
X176533659Y-83105669D01*
X176461292Y-83280378D01*
X176424400Y-83465848D01*
X176424400Y-83654952D01*
X176461292Y-83840422D01*
X176467496Y-83855400D01*
X176177400Y-83855400D01*
X175958413Y-83901985D01*
X175752722Y-83990397D01*
X175568231Y-84117239D01*
X175412031Y-84277636D01*
X175290124Y-84465424D01*
X175210281Y-84688526D01*
X165670171Y-84688526D01*
X165673158Y-84687932D01*
X165943411Y-84575990D01*
X166186632Y-84413475D01*
X166393475Y-84206632D01*
X166555990Y-83963411D01*
X166667932Y-83693158D01*
X166725000Y-83406260D01*
X166725000Y-83113740D01*
X166667932Y-82826842D01*
X166555990Y-82556589D01*
X166393475Y-82313368D01*
X166186632Y-82106525D01*
X166012240Y-81990000D01*
X166186632Y-81873475D01*
X166393475Y-81666632D01*
X166555990Y-81423411D01*
X166667932Y-81153158D01*
X166725000Y-80866260D01*
X166725000Y-80573740D01*
X166685490Y-80375111D01*
X167822600Y-80375111D01*
X167822600Y-80559289D01*
X167858532Y-80739929D01*
X167929014Y-80910089D01*
X168031338Y-81063228D01*
X168161572Y-81193462D01*
X168314711Y-81295786D01*
X168469388Y-81359855D01*
X168493754Y-81384221D01*
X168519909Y-81416091D01*
X168647054Y-81520436D01*
X168792113Y-81597972D01*
X168949511Y-81645718D01*
X169072181Y-81657800D01*
X169072191Y-81657800D01*
X169113199Y-81661839D01*
X169154207Y-81657800D01*
X173511796Y-81657800D01*
X173666471Y-81721868D01*
X173847111Y-81757800D01*
X174031289Y-81757800D01*
X174211929Y-81721868D01*
X174382089Y-81651386D01*
X174535228Y-81549062D01*
X174665462Y-81418828D01*
X174767786Y-81265689D01*
X174838268Y-81095529D01*
X174874200Y-80914889D01*
X174874200Y-80730711D01*
X174838268Y-80550071D01*
X174767786Y-80379911D01*
X174729108Y-80322025D01*
X174787468Y-80181129D01*
X174823400Y-80000489D01*
X174823400Y-79816311D01*
X174787468Y-79635671D01*
X174716986Y-79465511D01*
X174614662Y-79312372D01*
X174484428Y-79182138D01*
X174331289Y-79079814D01*
X174161129Y-79009332D01*
X173980489Y-78973400D01*
X173796311Y-78973400D01*
X173615671Y-79009332D01*
X173460996Y-79073400D01*
X170154303Y-79073400D01*
X170144262Y-79058372D01*
X170014028Y-78928138D01*
X169860889Y-78825814D01*
X169690729Y-78755332D01*
X169592600Y-78735813D01*
X169592600Y-76952268D01*
X169892594Y-76652274D01*
X175210281Y-76652274D01*
X175290124Y-76875376D01*
X175412031Y-77063164D01*
X175568231Y-77223561D01*
X175752722Y-77350403D01*
X175958413Y-77438815D01*
X176177400Y-77485400D01*
X176467496Y-77485400D01*
X176461292Y-77500378D01*
X176424400Y-77685848D01*
X176424400Y-77874952D01*
X176461292Y-78060422D01*
X176533659Y-78235131D01*
X176638719Y-78392364D01*
X176772436Y-78526081D01*
X176929669Y-78631141D01*
X177104378Y-78703508D01*
X177289848Y-78740400D01*
X177478952Y-78740400D01*
X177664422Y-78703508D01*
X177839131Y-78631141D01*
X177996364Y-78526081D01*
X178130081Y-78392364D01*
X178235141Y-78235131D01*
X178307508Y-78060422D01*
X178344400Y-77874952D01*
X178344400Y-77685848D01*
X178307508Y-77500378D01*
X178235141Y-77325669D01*
X178156194Y-77207516D01*
X178296769Y-77063164D01*
X178418676Y-76875376D01*
X178498519Y-76652274D01*
X179640281Y-76652274D01*
X179720124Y-76875376D01*
X179842031Y-77063164D01*
X179998231Y-77223561D01*
X180182722Y-77350403D01*
X180388413Y-77438815D01*
X180607400Y-77485400D01*
X180907400Y-77485400D01*
X180907400Y-76477400D01*
X179766446Y-76477400D01*
X179640281Y-76652274D01*
X178498519Y-76652274D01*
X178372354Y-76477400D01*
X176981400Y-76477400D01*
X176981400Y-76497400D01*
X176727400Y-76497400D01*
X176727400Y-76477400D01*
X175336446Y-76477400D01*
X175210281Y-76652274D01*
X169892594Y-76652274D01*
X169909415Y-76635454D01*
X170064089Y-76571386D01*
X170217228Y-76469062D01*
X170347462Y-76338828D01*
X170449786Y-76185689D01*
X170506600Y-76048526D01*
X175210281Y-76048526D01*
X175336446Y-76223400D01*
X176727400Y-76223400D01*
X176727400Y-75215400D01*
X176981400Y-75215400D01*
X176981400Y-76223400D01*
X178372354Y-76223400D01*
X178498519Y-76048526D01*
X179640281Y-76048526D01*
X179766446Y-76223400D01*
X180907400Y-76223400D01*
X180907400Y-75215400D01*
X180607400Y-75215400D01*
X180388413Y-75261985D01*
X180182722Y-75350397D01*
X179998231Y-75477239D01*
X179842031Y-75637636D01*
X179720124Y-75825424D01*
X179640281Y-76048526D01*
X178498519Y-76048526D01*
X178418676Y-75825424D01*
X178296769Y-75637636D01*
X178140569Y-75477239D01*
X177956078Y-75350397D01*
X177750387Y-75261985D01*
X177531400Y-75215400D01*
X176981400Y-75215400D01*
X176727400Y-75215400D01*
X176177400Y-75215400D01*
X175958413Y-75261985D01*
X175752722Y-75350397D01*
X175568231Y-75477239D01*
X175412031Y-75637636D01*
X175290124Y-75825424D01*
X175210281Y-76048526D01*
X170506600Y-76048526D01*
X170520268Y-76015529D01*
X170556200Y-75834889D01*
X170556200Y-75650711D01*
X170520268Y-75470071D01*
X170449786Y-75299911D01*
X170347462Y-75146772D01*
X170217228Y-75016538D01*
X170064089Y-74914214D01*
X169893929Y-74843732D01*
X169713289Y-74807800D01*
X169529111Y-74807800D01*
X169348471Y-74843732D01*
X169178311Y-74914214D01*
X169025172Y-75016538D01*
X168894938Y-75146772D01*
X168792614Y-75299911D01*
X168728546Y-75454585D01*
X168196174Y-75986959D01*
X168164310Y-76013109D01*
X168138162Y-76044971D01*
X168059964Y-76140255D01*
X167982428Y-76285314D01*
X167934682Y-76442712D01*
X167918560Y-76606400D01*
X167922601Y-76647428D01*
X167922600Y-80039796D01*
X167858532Y-80194471D01*
X167822600Y-80375111D01*
X166685490Y-80375111D01*
X166667932Y-80286842D01*
X166555990Y-80016589D01*
X166393475Y-79773368D01*
X166186632Y-79566525D01*
X166012240Y-79450000D01*
X166186632Y-79333475D01*
X166393475Y-79126632D01*
X166555990Y-78883411D01*
X166667932Y-78613158D01*
X166725000Y-78326260D01*
X166725000Y-78033740D01*
X166667932Y-77746842D01*
X166555990Y-77476589D01*
X166393475Y-77233368D01*
X166186632Y-77026525D01*
X166012240Y-76910000D01*
X166186632Y-76793475D01*
X166393475Y-76586632D01*
X166555990Y-76343411D01*
X166667932Y-76073158D01*
X166725000Y-75786260D01*
X166725000Y-75493740D01*
X166667932Y-75206842D01*
X166555990Y-74936589D01*
X166393475Y-74693368D01*
X166186632Y-74486525D01*
X166012240Y-74370000D01*
X166186632Y-74253475D01*
X166393475Y-74046632D01*
X166555990Y-73803411D01*
X166667932Y-73533158D01*
X166725000Y-73246260D01*
X166725000Y-72953740D01*
X166667932Y-72666842D01*
X166555990Y-72396589D01*
X166393475Y-72153368D01*
X166186632Y-71946525D01*
X166012240Y-71830000D01*
X166186632Y-71713475D01*
X166393475Y-71506632D01*
X166555990Y-71263411D01*
X166667932Y-70993158D01*
X166725000Y-70706260D01*
X166725000Y-70413740D01*
X166667932Y-70126842D01*
X166555990Y-69856589D01*
X166393475Y-69613368D01*
X166186632Y-69406525D01*
X166012240Y-69290000D01*
X166186632Y-69173475D01*
X166393475Y-68966632D01*
X166555990Y-68723411D01*
X166667932Y-68453158D01*
X166725000Y-68166260D01*
X166725000Y-67873740D01*
X166667932Y-67586842D01*
X166555990Y-67316589D01*
X166393475Y-67073368D01*
X166186632Y-66866525D01*
X166012240Y-66750000D01*
X166186632Y-66633475D01*
X166393475Y-66426632D01*
X166555990Y-66183411D01*
X166667932Y-65913158D01*
X166725000Y-65626260D01*
X166725000Y-65333740D01*
X166667932Y-65046842D01*
X166555990Y-64776589D01*
X166393475Y-64533368D01*
X166186632Y-64326525D01*
X166012240Y-64210000D01*
X166186632Y-64093475D01*
X166393475Y-63886632D01*
X166555990Y-63643411D01*
X166667932Y-63373158D01*
X166725000Y-63086260D01*
X166725000Y-62793740D01*
X166667932Y-62506842D01*
X166555990Y-62236589D01*
X166393475Y-61993368D01*
X166186632Y-61786525D01*
X166012240Y-61670000D01*
X166186632Y-61553475D01*
X166393475Y-61346632D01*
X166555990Y-61103411D01*
X166667932Y-60833158D01*
X166725000Y-60546260D01*
X166725000Y-60253740D01*
X166667932Y-59966842D01*
X166555990Y-59696589D01*
X166393475Y-59453368D01*
X166186632Y-59246525D01*
X166012240Y-59130000D01*
X166186632Y-59013475D01*
X166393475Y-58806632D01*
X166555990Y-58563411D01*
X166667932Y-58293158D01*
X166725000Y-58006260D01*
X166725000Y-57713740D01*
X166667932Y-57426842D01*
X166555990Y-57156589D01*
X166393475Y-56913368D01*
X166186632Y-56706525D01*
X166012240Y-56590000D01*
X166186632Y-56473475D01*
X166393475Y-56266632D01*
X166555990Y-56023411D01*
X166667932Y-55753158D01*
X166725000Y-55466260D01*
X166725000Y-55173740D01*
X166667932Y-54886842D01*
X166555990Y-54616589D01*
X166393475Y-54373368D01*
X166186632Y-54166525D01*
X166012240Y-54050000D01*
X166186632Y-53933475D01*
X166393475Y-53726632D01*
X166555990Y-53483411D01*
X166667932Y-53213158D01*
X166725000Y-52926260D01*
X166725000Y-52633740D01*
X166667932Y-52346842D01*
X166555990Y-52076589D01*
X166393475Y-51833368D01*
X166186632Y-51626525D01*
X166012240Y-51510000D01*
X166186632Y-51393475D01*
X166393475Y-51186632D01*
X166555990Y-50943411D01*
X166667932Y-50673158D01*
X166725000Y-50386260D01*
X166725000Y-50093740D01*
X166667932Y-49806842D01*
X166555990Y-49536589D01*
X166393475Y-49293368D01*
X166186632Y-49086525D01*
X166012240Y-48970000D01*
X166186632Y-48853475D01*
X166393475Y-48646632D01*
X166555990Y-48403411D01*
X166667932Y-48133158D01*
X166725000Y-47846260D01*
X166725000Y-47553740D01*
X166667932Y-47266842D01*
X166555990Y-46996589D01*
X166393475Y-46753368D01*
X166186632Y-46546525D01*
X166012240Y-46430000D01*
X166186632Y-46313475D01*
X166393475Y-46106632D01*
X166555990Y-45863411D01*
X166667932Y-45593158D01*
X166725000Y-45306260D01*
X166725000Y-45013740D01*
X166667932Y-44726842D01*
X166555990Y-44456589D01*
X166393475Y-44213368D01*
X166186632Y-44006525D01*
X166012240Y-43890000D01*
X166186632Y-43773475D01*
X166393475Y-43566632D01*
X166555990Y-43323411D01*
X166667932Y-43053158D01*
X166725000Y-42766260D01*
X166725000Y-42473740D01*
X166667932Y-42186842D01*
X166555990Y-41916589D01*
X166393475Y-41673368D01*
X166186632Y-41466525D01*
X166012240Y-41350000D01*
X166186632Y-41233475D01*
X166393475Y-41026632D01*
X166555990Y-40783411D01*
X166667932Y-40513158D01*
X166725000Y-40226260D01*
X166725000Y-39933740D01*
X166667932Y-39646842D01*
X166555990Y-39376589D01*
X166393475Y-39133368D01*
X166186632Y-38926525D01*
X166013271Y-38810689D01*
X166088792Y-38568397D01*
X165240000Y-37719605D01*
X164391208Y-38568397D01*
X164466729Y-38810689D01*
X164293368Y-38926525D01*
X164086525Y-39133368D01*
X163924010Y-39376589D01*
X163812068Y-39646842D01*
X163755000Y-39933740D01*
X151485000Y-39933740D01*
X151427932Y-39646842D01*
X151315990Y-39376589D01*
X151153475Y-39133368D01*
X150946632Y-38926525D01*
X150772240Y-38810000D01*
X150946632Y-38693475D01*
X151153475Y-38486632D01*
X151315990Y-38243411D01*
X151427932Y-37973158D01*
X151485000Y-37686260D01*
X151485000Y-37608531D01*
X163749389Y-37608531D01*
X163791401Y-37898019D01*
X163889081Y-38173747D01*
X163962528Y-38311157D01*
X164211603Y-38388792D01*
X165060395Y-37540000D01*
X165419605Y-37540000D01*
X166268397Y-38388792D01*
X166517472Y-38311157D01*
X166643371Y-38047117D01*
X166715339Y-37763589D01*
X166730611Y-37471469D01*
X166688599Y-37181981D01*
X166590919Y-36906253D01*
X166517472Y-36768843D01*
X166268397Y-36691208D01*
X165419605Y-37540000D01*
X165060395Y-37540000D01*
X164211603Y-36691208D01*
X163962528Y-36768843D01*
X163836629Y-37032883D01*
X163764661Y-37316411D01*
X163749389Y-37608531D01*
X151485000Y-37608531D01*
X151485000Y-37393740D01*
X151427932Y-37106842D01*
X151315990Y-36836589D01*
X151153475Y-36593368D01*
X151021620Y-36461513D01*
X151094180Y-36439502D01*
X151204494Y-36380537D01*
X151301185Y-36301185D01*
X151380537Y-36204494D01*
X151439502Y-36094180D01*
X151475812Y-35974482D01*
X151488072Y-35850000D01*
X151488072Y-34853740D01*
X163755000Y-34853740D01*
X163755000Y-35146260D01*
X163812068Y-35433158D01*
X163924010Y-35703411D01*
X164086525Y-35946632D01*
X164293368Y-36153475D01*
X164466729Y-36269311D01*
X164391208Y-36511603D01*
X165240000Y-37360395D01*
X166088792Y-36511603D01*
X166013271Y-36269311D01*
X166186632Y-36153475D01*
X166393475Y-35946632D01*
X166555990Y-35703411D01*
X166667932Y-35433158D01*
X166725000Y-35146260D01*
X166725000Y-34853740D01*
X166667932Y-34566842D01*
X166555990Y-34296589D01*
X166393475Y-34053368D01*
X166186632Y-33846525D01*
X165943411Y-33684010D01*
X165673158Y-33572068D01*
X165386260Y-33515000D01*
X165093740Y-33515000D01*
X164806842Y-33572068D01*
X164536589Y-33684010D01*
X164293368Y-33846525D01*
X164086525Y-34053368D01*
X163924010Y-34296589D01*
X163812068Y-34566842D01*
X163755000Y-34853740D01*
X151488072Y-34853740D01*
X151488072Y-34150000D01*
X151475812Y-34025518D01*
X151439502Y-33905820D01*
X151380537Y-33795506D01*
X151301185Y-33698815D01*
X151204494Y-33619463D01*
X151094180Y-33560498D01*
X150974482Y-33524188D01*
X150850000Y-33511928D01*
X149150000Y-33511928D01*
X149025518Y-33524188D01*
X148905820Y-33560498D01*
X148795506Y-33619463D01*
X148698815Y-33698815D01*
X148619463Y-33795506D01*
X148560498Y-33905820D01*
X148524188Y-34025518D01*
X148511928Y-34150000D01*
X144654050Y-34150000D01*
X144654050Y-33031985D01*
X144682760Y-32739182D01*
X144758508Y-32488292D01*
X144881542Y-32256899D01*
X145047177Y-32053810D01*
X145249111Y-31886756D01*
X145479637Y-31762111D01*
X145729990Y-31684614D01*
X146020780Y-31654050D01*
X168968015Y-31654050D01*
X169260818Y-31682760D01*
G37*
G04 #@! TD.AperFunction*
M02*
