%FSLAX45Y45*%
G04 Gerber Fmt 4.5, Leading zero omitted, Abs format (unit mm)*
G04 Created by KiCad (PCBNEW (5.1.10-1-10_14)) date 2021-07-14 14:00:40*
%MOMM*%
%LPD*%
G01*
G04 APERTURE LIST*
%TA.AperFunction,Profile*%
%ADD10C,0.038100*%
%TD*%
%ADD11C,0.200000*%
%ADD12C,0.300000*%
G04 APERTURE END LIST*
D10*
X14535760Y-6394640D02*
X14541500Y-6394640D01*
X17165320Y-6597370D02*
X17165320Y-6594640D01*
X14335788Y-6591300D02*
X14335110Y-6594339D01*
X13300000Y-8700000D02*
G75*
G02*
X13200000Y-8600000I0J100000D01*
G01*
X18300000Y-8600000D02*
G75*
G02*
X18200000Y-8700000I-100000J0D01*
G01*
X13700000Y-7000000D02*
X13500000Y-7000000D01*
X17800000Y-7000000D02*
X18000000Y-7000000D01*
X18000000Y-7000000D02*
G75*
G02*
X18300000Y-7300000I0J-300000D01*
G01*
X13200000Y-7300000D02*
G75*
G02*
X13500000Y-7000000I300000J0D01*
G01*
X14335110Y-6594339D02*
G75*
G02*
X13700000Y-7000000I-635110J294339D01*
G01*
X17800000Y-7000000D02*
G75*
G02*
X17165320Y-6597370I0J701550D01*
G01*
X16965320Y-6394640D02*
X14541500Y-6394640D01*
X16965320Y-6394640D02*
G75*
G02*
X17165320Y-6594640I0J-200000D01*
G01*
X14335788Y-6591300D02*
G75*
G02*
X14535760Y-6394640I199972J-3340D01*
G01*
X13200000Y-7300000D02*
X13200000Y-8600000D01*
X18300000Y-8600000D02*
X18300000Y-7300000D01*
X13300000Y-8700000D02*
X18200000Y-8700000D01*
D11*
X14234400Y-7986000D02*
X14264400Y-8016000D01*
X14264400Y-7986000D02*
X14234400Y-8016000D01*
X14488400Y-7986000D02*
X14518400Y-8016000D01*
X14518400Y-7986000D02*
X14488400Y-8016000D01*
X13447960Y-7640120D02*
G75*
G03*
X13447960Y-7640120I-30000J0D01*
G01*
X13447960Y-7620120D02*
X13387960Y-7620120D01*
X13447960Y-7660120D02*
X13387960Y-7660120D01*
X13387960Y-7620120D02*
G75*
G03*
X13387960Y-7660120I0J-20000D01*
G01*
X13447960Y-7660120D02*
G75*
G03*
X13447960Y-7620120I0J20000D01*
G01*
X13447960Y-8504120D02*
G75*
G03*
X13447960Y-8504120I-30000J0D01*
G01*
X13447960Y-8484120D02*
X13387960Y-8484120D01*
X13447960Y-8524120D02*
X13387960Y-8524120D01*
X13387960Y-8484120D02*
G75*
G03*
X13387960Y-8524120I0J-20000D01*
G01*
X13447960Y-8524120D02*
G75*
G03*
X13447960Y-8484120I0J20000D01*
G01*
X13865960Y-7640120D02*
G75*
G03*
X13865960Y-7640120I-30000J0D01*
G01*
X13890960Y-7620120D02*
X13780960Y-7620120D01*
X13890960Y-7660120D02*
X13780960Y-7660120D01*
X13780960Y-7620120D02*
G75*
G03*
X13780960Y-7660120I0J-20000D01*
G01*
X13890960Y-7660120D02*
G75*
G03*
X13890960Y-7620120I0J20000D01*
G01*
X13865960Y-8504120D02*
G75*
G03*
X13865960Y-8504120I-30000J0D01*
G01*
X13890960Y-8484120D02*
X13780960Y-8484120D01*
X13890960Y-8524120D02*
X13780960Y-8524120D01*
X13780960Y-8484120D02*
G75*
G03*
X13780960Y-8524120I0J-20000D01*
G01*
X13890960Y-8524120D02*
G75*
G03*
X13890960Y-8484120I0J20000D01*
G01*
X17715440Y-7635040D02*
G75*
G03*
X17715440Y-7635040I-30000J0D01*
G01*
X17630440Y-7655040D02*
X17740440Y-7655040D01*
X17630440Y-7615040D02*
X17740440Y-7615040D01*
X17740440Y-7655040D02*
G75*
G03*
X17740440Y-7615040I0J20000D01*
G01*
X17630440Y-7615040D02*
G75*
G03*
X17630440Y-7655040I0J-20000D01*
G01*
X17715440Y-8499040D02*
G75*
G03*
X17715440Y-8499040I-30000J0D01*
G01*
X17630440Y-8519040D02*
X17740440Y-8519040D01*
X17630440Y-8479040D02*
X17740440Y-8479040D01*
X17740440Y-8519040D02*
G75*
G03*
X17740440Y-8479040I0J20000D01*
G01*
X17630440Y-8479040D02*
G75*
G03*
X17630440Y-8519040I0J-20000D01*
G01*
X18133440Y-7635040D02*
G75*
G03*
X18133440Y-7635040I-30000J0D01*
G01*
X18073440Y-7655040D02*
X18133440Y-7655040D01*
X18073440Y-7615040D02*
X18133440Y-7615040D01*
X18133440Y-7655040D02*
G75*
G03*
X18133440Y-7615040I0J20000D01*
G01*
X18073440Y-7615040D02*
G75*
G03*
X18073440Y-7655040I0J-20000D01*
G01*
X18133440Y-8499040D02*
G75*
G03*
X18133440Y-8499040I-30000J0D01*
G01*
X18073440Y-8519040D02*
X18133440Y-8519040D01*
X18073440Y-8479040D02*
X18133440Y-8479040D01*
X18133440Y-8519040D02*
G75*
G03*
X18133440Y-8479040I0J20000D01*
G01*
X18073440Y-8479040D02*
G75*
G03*
X18073440Y-8519040I0J-20000D01*
G01*
X15000000Y-6497860D02*
X15000000Y-6597860D01*
X14950000Y-6547860D02*
X15050000Y-6547860D01*
X15000000Y-6751860D02*
X15000000Y-6851860D01*
X14950000Y-6801860D02*
X15050000Y-6801860D01*
X15000000Y-7005860D02*
X15000000Y-7105860D01*
X14950000Y-7055860D02*
X15050000Y-7055860D01*
X15000000Y-7259860D02*
X15000000Y-7359860D01*
X14950000Y-7309860D02*
X15050000Y-7309860D01*
X15000000Y-7513860D02*
X15000000Y-7613860D01*
X14950000Y-7563860D02*
X15050000Y-7563860D01*
X15000000Y-7767860D02*
X15000000Y-7867860D01*
X14950000Y-7817860D02*
X15050000Y-7817860D01*
X15000000Y-8021860D02*
X15000000Y-8121860D01*
X14950000Y-8071860D02*
X15050000Y-8071860D01*
X15000000Y-8275860D02*
X15000000Y-8375860D01*
X14950000Y-8325860D02*
X15050000Y-8325860D01*
X16524000Y-6497860D02*
X16524000Y-6597860D01*
X16474000Y-6547860D02*
X16574000Y-6547860D01*
X16524000Y-6751860D02*
X16524000Y-6851860D01*
X16474000Y-6801860D02*
X16574000Y-6801860D01*
X16524000Y-7005860D02*
X16524000Y-7105860D01*
X16474000Y-7055860D02*
X16574000Y-7055860D01*
X16524000Y-7259860D02*
X16524000Y-7359860D01*
X16474000Y-7309860D02*
X16574000Y-7309860D01*
X16524000Y-7513860D02*
X16524000Y-7613860D01*
X16474000Y-7563860D02*
X16574000Y-7563860D01*
X16524000Y-7767860D02*
X16524000Y-7867860D01*
X16474000Y-7817860D02*
X16574000Y-7817860D01*
X16524000Y-8021860D02*
X16524000Y-8121860D01*
X16474000Y-8071860D02*
X16574000Y-8071860D01*
X16524000Y-8275860D02*
X16524000Y-8375860D01*
X16474000Y-8325860D02*
X16574000Y-8325860D01*
D12*
X13484523Y-9167619D02*
X13484523Y-8867619D01*
X13555952Y-8867619D01*
X13598809Y-8881905D01*
X13627381Y-8910477D01*
X13641666Y-8939048D01*
X13655952Y-8996191D01*
X13655952Y-9039048D01*
X13641666Y-9096191D01*
X13627381Y-9124762D01*
X13598809Y-9153334D01*
X13555952Y-9167619D01*
X13484523Y-9167619D01*
X13784523Y-9167619D02*
X13784523Y-8967619D01*
X13784523Y-9024762D02*
X13798809Y-8996191D01*
X13813095Y-8981905D01*
X13841666Y-8967619D01*
X13870238Y-8967619D01*
X13970238Y-9167619D02*
X13970238Y-8967619D01*
X13970238Y-8867619D02*
X13955952Y-8881905D01*
X13970238Y-8896191D01*
X13984523Y-8881905D01*
X13970238Y-8867619D01*
X13970238Y-8896191D01*
X14155952Y-9167619D02*
X14127381Y-9153334D01*
X14113095Y-9124762D01*
X14113095Y-8867619D01*
X14313095Y-9167619D02*
X14284523Y-9153334D01*
X14270238Y-9124762D01*
X14270238Y-8867619D01*
X14655952Y-9167619D02*
X14655952Y-8867619D01*
X14755952Y-9081905D01*
X14855952Y-8867619D01*
X14855952Y-9167619D01*
X15127381Y-9167619D02*
X15127381Y-9010477D01*
X15113095Y-8981905D01*
X15084523Y-8967619D01*
X15027381Y-8967619D01*
X14998809Y-8981905D01*
X15127381Y-9153334D02*
X15098809Y-9167619D01*
X15027381Y-9167619D01*
X14998809Y-9153334D01*
X14984523Y-9124762D01*
X14984523Y-9096191D01*
X14998809Y-9067619D01*
X15027381Y-9053334D01*
X15098809Y-9053334D01*
X15127381Y-9039048D01*
X15270238Y-8967619D02*
X15270238Y-9267619D01*
X15270238Y-8981905D02*
X15298809Y-8967619D01*
X15355952Y-8967619D01*
X15384523Y-8981905D01*
X15398809Y-8996191D01*
X15413095Y-9024762D01*
X15413095Y-9110477D01*
X15398809Y-9139048D01*
X15384523Y-9153334D01*
X15355952Y-9167619D01*
X15298809Y-9167619D01*
X15270238Y-9153334D01*
X15541666Y-9139048D02*
X15555952Y-9153334D01*
X15541666Y-9167619D01*
X15527381Y-9153334D01*
X15541666Y-9139048D01*
X15541666Y-9167619D01*
X15541666Y-8981905D02*
X15555952Y-8996191D01*
X15541666Y-9010477D01*
X15527381Y-8996191D01*
X15541666Y-8981905D01*
X15541666Y-9010477D01*
X13168095Y-9646905D02*
X13198095Y-9676905D01*
X13198095Y-9646905D02*
X13168095Y-9676905D01*
X13541666Y-9497619D02*
X13570238Y-9497619D01*
X13598809Y-9511905D01*
X13613095Y-9526191D01*
X13627381Y-9554762D01*
X13641666Y-9611905D01*
X13641666Y-9683334D01*
X13627381Y-9740477D01*
X13613095Y-9769048D01*
X13598809Y-9783334D01*
X13570238Y-9797619D01*
X13541666Y-9797619D01*
X13513095Y-9783334D01*
X13498809Y-9769048D01*
X13484523Y-9740477D01*
X13470238Y-9683334D01*
X13470238Y-9611905D01*
X13484523Y-9554762D01*
X13498809Y-9526191D01*
X13513095Y-9511905D01*
X13541666Y-9497619D01*
X13770238Y-9769048D02*
X13784523Y-9783334D01*
X13770238Y-9797619D01*
X13755952Y-9783334D01*
X13770238Y-9769048D01*
X13770238Y-9797619D01*
X13884523Y-9497619D02*
X14070238Y-9497619D01*
X13970238Y-9611905D01*
X14013095Y-9611905D01*
X14041666Y-9626191D01*
X14055952Y-9640477D01*
X14070238Y-9669048D01*
X14070238Y-9740477D01*
X14055952Y-9769048D01*
X14041666Y-9783334D01*
X14013095Y-9797619D01*
X13927381Y-9797619D01*
X13898809Y-9783334D01*
X13884523Y-9769048D01*
X14255952Y-9497619D02*
X14284523Y-9497619D01*
X14313095Y-9511905D01*
X14327381Y-9526191D01*
X14341666Y-9554762D01*
X14355952Y-9611905D01*
X14355952Y-9683334D01*
X14341666Y-9740477D01*
X14327381Y-9769048D01*
X14313095Y-9783334D01*
X14284523Y-9797619D01*
X14255952Y-9797619D01*
X14227381Y-9783334D01*
X14213095Y-9769048D01*
X14198809Y-9740477D01*
X14184523Y-9683334D01*
X14184523Y-9611905D01*
X14198809Y-9554762D01*
X14213095Y-9526191D01*
X14227381Y-9511905D01*
X14255952Y-9497619D01*
X14541666Y-9497619D02*
X14570238Y-9497619D01*
X14598809Y-9511905D01*
X14613095Y-9526191D01*
X14627381Y-9554762D01*
X14641666Y-9611905D01*
X14641666Y-9683334D01*
X14627381Y-9740477D01*
X14613095Y-9769048D01*
X14598809Y-9783334D01*
X14570238Y-9797619D01*
X14541666Y-9797619D01*
X14513095Y-9783334D01*
X14498809Y-9769048D01*
X14484523Y-9740477D01*
X14470238Y-9683334D01*
X14470238Y-9611905D01*
X14484523Y-9554762D01*
X14498809Y-9526191D01*
X14513095Y-9511905D01*
X14541666Y-9497619D01*
X14770238Y-9797619D02*
X14770238Y-9597619D01*
X14770238Y-9626191D02*
X14784523Y-9611905D01*
X14813095Y-9597619D01*
X14855952Y-9597619D01*
X14884523Y-9611905D01*
X14898809Y-9640477D01*
X14898809Y-9797619D01*
X14898809Y-9640477D02*
X14913095Y-9611905D01*
X14941666Y-9597619D01*
X14984523Y-9597619D01*
X15013095Y-9611905D01*
X15027381Y-9640477D01*
X15027381Y-9797619D01*
X15170238Y-9797619D02*
X15170238Y-9597619D01*
X15170238Y-9626191D02*
X15184523Y-9611905D01*
X15213095Y-9597619D01*
X15255952Y-9597619D01*
X15284523Y-9611905D01*
X15298809Y-9640477D01*
X15298809Y-9797619D01*
X15298809Y-9640477D02*
X15313095Y-9611905D01*
X15341666Y-9597619D01*
X15384523Y-9597619D01*
X15413095Y-9611905D01*
X15427381Y-9640477D01*
X15427381Y-9797619D01*
X16013095Y-9483334D02*
X15755952Y-9869048D01*
X16398809Y-9497619D02*
X16427381Y-9497619D01*
X16455952Y-9511905D01*
X16470238Y-9526191D01*
X16484523Y-9554762D01*
X16498809Y-9611905D01*
X16498809Y-9683334D01*
X16484523Y-9740477D01*
X16470238Y-9769048D01*
X16455952Y-9783334D01*
X16427381Y-9797619D01*
X16398809Y-9797619D01*
X16370238Y-9783334D01*
X16355952Y-9769048D01*
X16341666Y-9740477D01*
X16327381Y-9683334D01*
X16327381Y-9611905D01*
X16341666Y-9554762D01*
X16355952Y-9526191D01*
X16370238Y-9511905D01*
X16398809Y-9497619D01*
X16627381Y-9769048D02*
X16641666Y-9783334D01*
X16627381Y-9797619D01*
X16613095Y-9783334D01*
X16627381Y-9769048D01*
X16627381Y-9797619D01*
X16827381Y-9497619D02*
X16855952Y-9497619D01*
X16884523Y-9511905D01*
X16898809Y-9526191D01*
X16913095Y-9554762D01*
X16927381Y-9611905D01*
X16927381Y-9683334D01*
X16913095Y-9740477D01*
X16898809Y-9769048D01*
X16884523Y-9783334D01*
X16855952Y-9797619D01*
X16827381Y-9797619D01*
X16798809Y-9783334D01*
X16784523Y-9769048D01*
X16770238Y-9740477D01*
X16755952Y-9683334D01*
X16755952Y-9611905D01*
X16770238Y-9554762D01*
X16784523Y-9526191D01*
X16798809Y-9511905D01*
X16827381Y-9497619D01*
X17213095Y-9797619D02*
X17041666Y-9797619D01*
X17127381Y-9797619D02*
X17127381Y-9497619D01*
X17098809Y-9540477D01*
X17070238Y-9569048D01*
X17041666Y-9583334D01*
X17498809Y-9797619D02*
X17327381Y-9797619D01*
X17413095Y-9797619D02*
X17413095Y-9497619D01*
X17384523Y-9540477D01*
X17355952Y-9569048D01*
X17327381Y-9583334D01*
X17670238Y-9626191D02*
X17641666Y-9611905D01*
X17627381Y-9597619D01*
X17613095Y-9569048D01*
X17613095Y-9554762D01*
X17627381Y-9526191D01*
X17641666Y-9511905D01*
X17670238Y-9497619D01*
X17727381Y-9497619D01*
X17755952Y-9511905D01*
X17770238Y-9526191D01*
X17784523Y-9554762D01*
X17784523Y-9569048D01*
X17770238Y-9597619D01*
X17755952Y-9611905D01*
X17727381Y-9626191D01*
X17670238Y-9626191D01*
X17641666Y-9640477D01*
X17627381Y-9654762D01*
X17613095Y-9683334D01*
X17613095Y-9740477D01*
X17627381Y-9769048D01*
X17641666Y-9783334D01*
X17670238Y-9797619D01*
X17727381Y-9797619D01*
X17755952Y-9783334D01*
X17770238Y-9769048D01*
X17784523Y-9740477D01*
X17784523Y-9683334D01*
X17770238Y-9654762D01*
X17755952Y-9640477D01*
X17727381Y-9626191D01*
X17898809Y-9497619D02*
X17898809Y-9554762D01*
X18013095Y-9497619D02*
X18013095Y-9554762D01*
X18455952Y-9911905D02*
X18441666Y-9897619D01*
X18413095Y-9854762D01*
X18398809Y-9826191D01*
X18384523Y-9783334D01*
X18370238Y-9711905D01*
X18370238Y-9654762D01*
X18384523Y-9583334D01*
X18398809Y-9540477D01*
X18413095Y-9511905D01*
X18441666Y-9469048D01*
X18455952Y-9454762D01*
X18555952Y-9526191D02*
X18570238Y-9511905D01*
X18598809Y-9497619D01*
X18670238Y-9497619D01*
X18698809Y-9511905D01*
X18713095Y-9526191D01*
X18727381Y-9554762D01*
X18727381Y-9583334D01*
X18713095Y-9626191D01*
X18541666Y-9797619D01*
X18727381Y-9797619D01*
X19084523Y-9797619D02*
X19084523Y-9497619D01*
X19213095Y-9797619D02*
X19213095Y-9640477D01*
X19198809Y-9611905D01*
X19170238Y-9597619D01*
X19127381Y-9597619D01*
X19098809Y-9611905D01*
X19084523Y-9626191D01*
X19398809Y-9797619D02*
X19370238Y-9783334D01*
X19355952Y-9769048D01*
X19341666Y-9740477D01*
X19341666Y-9654762D01*
X19355952Y-9626191D01*
X19370238Y-9611905D01*
X19398809Y-9597619D01*
X19441666Y-9597619D01*
X19470238Y-9611905D01*
X19484523Y-9626191D01*
X19498809Y-9654762D01*
X19498809Y-9740477D01*
X19484523Y-9769048D01*
X19470238Y-9783334D01*
X19441666Y-9797619D01*
X19398809Y-9797619D01*
X19670238Y-9797619D02*
X19641666Y-9783334D01*
X19627381Y-9754762D01*
X19627381Y-9497619D01*
X19898809Y-9783334D02*
X19870238Y-9797619D01*
X19813095Y-9797619D01*
X19784523Y-9783334D01*
X19770238Y-9754762D01*
X19770238Y-9640477D01*
X19784523Y-9611905D01*
X19813095Y-9597619D01*
X19870238Y-9597619D01*
X19898809Y-9611905D01*
X19913095Y-9640477D01*
X19913095Y-9669048D01*
X19770238Y-9697619D01*
X20027381Y-9783334D02*
X20055952Y-9797619D01*
X20113095Y-9797619D01*
X20141666Y-9783334D01*
X20155952Y-9754762D01*
X20155952Y-9740477D01*
X20141666Y-9711905D01*
X20113095Y-9697619D01*
X20070238Y-9697619D01*
X20041666Y-9683334D01*
X20027381Y-9654762D01*
X20027381Y-9640477D01*
X20041666Y-9611905D01*
X20070238Y-9597619D01*
X20113095Y-9597619D01*
X20141666Y-9611905D01*
X20255952Y-9911905D02*
X20270238Y-9897619D01*
X20298809Y-9854762D01*
X20313095Y-9826191D01*
X20327381Y-9783334D01*
X20341666Y-9711905D01*
X20341666Y-9654762D01*
X20327381Y-9583334D01*
X20313095Y-9540477D01*
X20298809Y-9511905D01*
X20270238Y-9469048D01*
X20255952Y-9454762D01*
X13198095Y-10057905D02*
G75*
G03*
X13198095Y-10057905I-30000J0D01*
G01*
X13541666Y-9893619D02*
X13570238Y-9893619D01*
X13598809Y-9907905D01*
X13613095Y-9922191D01*
X13627381Y-9950762D01*
X13641666Y-10007905D01*
X13641666Y-10079334D01*
X13627381Y-10136477D01*
X13613095Y-10165048D01*
X13598809Y-10179334D01*
X13570238Y-10193619D01*
X13541666Y-10193619D01*
X13513095Y-10179334D01*
X13498809Y-10165048D01*
X13484523Y-10136477D01*
X13470238Y-10079334D01*
X13470238Y-10007905D01*
X13484523Y-9950762D01*
X13498809Y-9922191D01*
X13513095Y-9907905D01*
X13541666Y-9893619D01*
X13770238Y-10165048D02*
X13784523Y-10179334D01*
X13770238Y-10193619D01*
X13755952Y-10179334D01*
X13770238Y-10165048D01*
X13770238Y-10193619D01*
X14041666Y-9893619D02*
X13984523Y-9893619D01*
X13955952Y-9907905D01*
X13941666Y-9922191D01*
X13913095Y-9965048D01*
X13898809Y-10022191D01*
X13898809Y-10136477D01*
X13913095Y-10165048D01*
X13927381Y-10179334D01*
X13955952Y-10193619D01*
X14013095Y-10193619D01*
X14041666Y-10179334D01*
X14055952Y-10165048D01*
X14070238Y-10136477D01*
X14070238Y-10065048D01*
X14055952Y-10036477D01*
X14041666Y-10022191D01*
X14013095Y-10007905D01*
X13955952Y-10007905D01*
X13927381Y-10022191D01*
X13913095Y-10036477D01*
X13898809Y-10065048D01*
X14255952Y-9893619D02*
X14284523Y-9893619D01*
X14313095Y-9907905D01*
X14327381Y-9922191D01*
X14341666Y-9950762D01*
X14355952Y-10007905D01*
X14355952Y-10079334D01*
X14341666Y-10136477D01*
X14327381Y-10165048D01*
X14313095Y-10179334D01*
X14284523Y-10193619D01*
X14255952Y-10193619D01*
X14227381Y-10179334D01*
X14213095Y-10165048D01*
X14198809Y-10136477D01*
X14184523Y-10079334D01*
X14184523Y-10007905D01*
X14198809Y-9950762D01*
X14213095Y-9922191D01*
X14227381Y-9907905D01*
X14255952Y-9893619D01*
X14541666Y-9893619D02*
X14570238Y-9893619D01*
X14598809Y-9907905D01*
X14613095Y-9922191D01*
X14627381Y-9950762D01*
X14641666Y-10007905D01*
X14641666Y-10079334D01*
X14627381Y-10136477D01*
X14613095Y-10165048D01*
X14598809Y-10179334D01*
X14570238Y-10193619D01*
X14541666Y-10193619D01*
X14513095Y-10179334D01*
X14498809Y-10165048D01*
X14484523Y-10136477D01*
X14470238Y-10079334D01*
X14470238Y-10007905D01*
X14484523Y-9950762D01*
X14498809Y-9922191D01*
X14513095Y-9907905D01*
X14541666Y-9893619D01*
X14770238Y-10193619D02*
X14770238Y-9993619D01*
X14770238Y-10022191D02*
X14784523Y-10007905D01*
X14813095Y-9993619D01*
X14855952Y-9993619D01*
X14884523Y-10007905D01*
X14898809Y-10036477D01*
X14898809Y-10193619D01*
X14898809Y-10036477D02*
X14913095Y-10007905D01*
X14941666Y-9993619D01*
X14984523Y-9993619D01*
X15013095Y-10007905D01*
X15027381Y-10036477D01*
X15027381Y-10193619D01*
X15170238Y-10193619D02*
X15170238Y-9993619D01*
X15170238Y-10022191D02*
X15184523Y-10007905D01*
X15213095Y-9993619D01*
X15255952Y-9993619D01*
X15284523Y-10007905D01*
X15298809Y-10036477D01*
X15298809Y-10193619D01*
X15298809Y-10036477D02*
X15313095Y-10007905D01*
X15341666Y-9993619D01*
X15384523Y-9993619D01*
X15413095Y-10007905D01*
X15427381Y-10036477D01*
X15427381Y-10193619D01*
X16013095Y-9879334D02*
X15755952Y-10265048D01*
X16398809Y-9893619D02*
X16427381Y-9893619D01*
X16455952Y-9907905D01*
X16470238Y-9922191D01*
X16484523Y-9950762D01*
X16498809Y-10007905D01*
X16498809Y-10079334D01*
X16484523Y-10136477D01*
X16470238Y-10165048D01*
X16455952Y-10179334D01*
X16427381Y-10193619D01*
X16398809Y-10193619D01*
X16370238Y-10179334D01*
X16355952Y-10165048D01*
X16341666Y-10136477D01*
X16327381Y-10079334D01*
X16327381Y-10007905D01*
X16341666Y-9950762D01*
X16355952Y-9922191D01*
X16370238Y-9907905D01*
X16398809Y-9893619D01*
X16627381Y-10165048D02*
X16641666Y-10179334D01*
X16627381Y-10193619D01*
X16613095Y-10179334D01*
X16627381Y-10165048D01*
X16627381Y-10193619D01*
X16827381Y-9893619D02*
X16855952Y-9893619D01*
X16884523Y-9907905D01*
X16898809Y-9922191D01*
X16913095Y-9950762D01*
X16927381Y-10007905D01*
X16927381Y-10079334D01*
X16913095Y-10136477D01*
X16898809Y-10165048D01*
X16884523Y-10179334D01*
X16855952Y-10193619D01*
X16827381Y-10193619D01*
X16798809Y-10179334D01*
X16784523Y-10165048D01*
X16770238Y-10136477D01*
X16755952Y-10079334D01*
X16755952Y-10007905D01*
X16770238Y-9950762D01*
X16784523Y-9922191D01*
X16798809Y-9907905D01*
X16827381Y-9893619D01*
X17041666Y-9922191D02*
X17055952Y-9907905D01*
X17084523Y-9893619D01*
X17155952Y-9893619D01*
X17184523Y-9907905D01*
X17198809Y-9922191D01*
X17213095Y-9950762D01*
X17213095Y-9979334D01*
X17198809Y-10022191D01*
X17027381Y-10193619D01*
X17213095Y-10193619D01*
X17313095Y-9893619D02*
X17498809Y-9893619D01*
X17398809Y-10007905D01*
X17441666Y-10007905D01*
X17470238Y-10022191D01*
X17484523Y-10036477D01*
X17498809Y-10065048D01*
X17498809Y-10136477D01*
X17484523Y-10165048D01*
X17470238Y-10179334D01*
X17441666Y-10193619D01*
X17355952Y-10193619D01*
X17327381Y-10179334D01*
X17313095Y-10165048D01*
X17755952Y-9893619D02*
X17698809Y-9893619D01*
X17670238Y-9907905D01*
X17655952Y-9922191D01*
X17627381Y-9965048D01*
X17613095Y-10022191D01*
X17613095Y-10136477D01*
X17627381Y-10165048D01*
X17641666Y-10179334D01*
X17670238Y-10193619D01*
X17727381Y-10193619D01*
X17755952Y-10179334D01*
X17770238Y-10165048D01*
X17784523Y-10136477D01*
X17784523Y-10065048D01*
X17770238Y-10036477D01*
X17755952Y-10022191D01*
X17727381Y-10007905D01*
X17670238Y-10007905D01*
X17641666Y-10022191D01*
X17627381Y-10036477D01*
X17613095Y-10065048D01*
X17898809Y-9893619D02*
X17898809Y-9950762D01*
X18013095Y-9893619D02*
X18013095Y-9950762D01*
X18455952Y-10307905D02*
X18441666Y-10293619D01*
X18413095Y-10250762D01*
X18398809Y-10222191D01*
X18384523Y-10179334D01*
X18370238Y-10107905D01*
X18370238Y-10050762D01*
X18384523Y-9979334D01*
X18398809Y-9936477D01*
X18413095Y-9907905D01*
X18441666Y-9865048D01*
X18455952Y-9850762D01*
X18627381Y-9893619D02*
X18655952Y-9893619D01*
X18684523Y-9907905D01*
X18698809Y-9922191D01*
X18713095Y-9950762D01*
X18727381Y-10007905D01*
X18727381Y-10079334D01*
X18713095Y-10136477D01*
X18698809Y-10165048D01*
X18684523Y-10179334D01*
X18655952Y-10193619D01*
X18627381Y-10193619D01*
X18598809Y-10179334D01*
X18584523Y-10165048D01*
X18570238Y-10136477D01*
X18555952Y-10079334D01*
X18555952Y-10007905D01*
X18570238Y-9950762D01*
X18584523Y-9922191D01*
X18598809Y-9907905D01*
X18627381Y-9893619D01*
X19084523Y-10193619D02*
X19084523Y-9893619D01*
X19213095Y-10193619D02*
X19213095Y-10036477D01*
X19198809Y-10007905D01*
X19170238Y-9993619D01*
X19127381Y-9993619D01*
X19098809Y-10007905D01*
X19084523Y-10022191D01*
X19398809Y-10193619D02*
X19370238Y-10179334D01*
X19355952Y-10165048D01*
X19341666Y-10136477D01*
X19341666Y-10050762D01*
X19355952Y-10022191D01*
X19370238Y-10007905D01*
X19398809Y-9993619D01*
X19441666Y-9993619D01*
X19470238Y-10007905D01*
X19484523Y-10022191D01*
X19498809Y-10050762D01*
X19498809Y-10136477D01*
X19484523Y-10165048D01*
X19470238Y-10179334D01*
X19441666Y-10193619D01*
X19398809Y-10193619D01*
X19670238Y-10193619D02*
X19641666Y-10179334D01*
X19627381Y-10150762D01*
X19627381Y-9893619D01*
X19898809Y-10179334D02*
X19870238Y-10193619D01*
X19813095Y-10193619D01*
X19784523Y-10179334D01*
X19770238Y-10150762D01*
X19770238Y-10036477D01*
X19784523Y-10007905D01*
X19813095Y-9993619D01*
X19870238Y-9993619D01*
X19898809Y-10007905D01*
X19913095Y-10036477D01*
X19913095Y-10065048D01*
X19770238Y-10093619D01*
X20027381Y-10179334D02*
X20055952Y-10193619D01*
X20113095Y-10193619D01*
X20141666Y-10179334D01*
X20155952Y-10150762D01*
X20155952Y-10136477D01*
X20141666Y-10107905D01*
X20113095Y-10093619D01*
X20070238Y-10093619D01*
X20041666Y-10079334D01*
X20027381Y-10050762D01*
X20027381Y-10036477D01*
X20041666Y-10007905D01*
X20070238Y-9993619D01*
X20113095Y-9993619D01*
X20141666Y-10007905D01*
X20513095Y-10079334D02*
X20741666Y-10079334D01*
X20627381Y-10193619D02*
X20627381Y-9965048D01*
X21155952Y-10022191D02*
X21127381Y-10007905D01*
X21113095Y-9993619D01*
X21098809Y-9965048D01*
X21098809Y-9950762D01*
X21113095Y-9922191D01*
X21127381Y-9907905D01*
X21155952Y-9893619D01*
X21213095Y-9893619D01*
X21241666Y-9907905D01*
X21255952Y-9922191D01*
X21270238Y-9950762D01*
X21270238Y-9965048D01*
X21255952Y-9993619D01*
X21241666Y-10007905D01*
X21213095Y-10022191D01*
X21155952Y-10022191D01*
X21127381Y-10036477D01*
X21113095Y-10050762D01*
X21098809Y-10079334D01*
X21098809Y-10136477D01*
X21113095Y-10165048D01*
X21127381Y-10179334D01*
X21155952Y-10193619D01*
X21213095Y-10193619D01*
X21241666Y-10179334D01*
X21255952Y-10165048D01*
X21270238Y-10136477D01*
X21270238Y-10079334D01*
X21255952Y-10050762D01*
X21241666Y-10036477D01*
X21213095Y-10022191D01*
X21613095Y-10179334D02*
X21641666Y-10193619D01*
X21698809Y-10193619D01*
X21727381Y-10179334D01*
X21741666Y-10150762D01*
X21741666Y-10136477D01*
X21727381Y-10107905D01*
X21698809Y-10093619D01*
X21655952Y-10093619D01*
X21627381Y-10079334D01*
X21613095Y-10050762D01*
X21613095Y-10036477D01*
X21627381Y-10007905D01*
X21655952Y-9993619D01*
X21698809Y-9993619D01*
X21727381Y-10007905D01*
X21913095Y-10193619D02*
X21884523Y-10179334D01*
X21870238Y-10150762D01*
X21870238Y-9893619D01*
X22070238Y-10193619D02*
X22041666Y-10179334D01*
X22027381Y-10165048D01*
X22013095Y-10136477D01*
X22013095Y-10050762D01*
X22027381Y-10022191D01*
X22041666Y-10007905D01*
X22070238Y-9993619D01*
X22113095Y-9993619D01*
X22141666Y-10007905D01*
X22155952Y-10022191D01*
X22170238Y-10050762D01*
X22170238Y-10136477D01*
X22155952Y-10165048D01*
X22141666Y-10179334D01*
X22113095Y-10193619D01*
X22070238Y-10193619D01*
X22255952Y-9993619D02*
X22370238Y-9993619D01*
X22298809Y-9893619D02*
X22298809Y-10150762D01*
X22313095Y-10179334D01*
X22341666Y-10193619D01*
X22370238Y-10193619D01*
X22455952Y-10179334D02*
X22484523Y-10193619D01*
X22541666Y-10193619D01*
X22570238Y-10179334D01*
X22584523Y-10150762D01*
X22584523Y-10136477D01*
X22570238Y-10107905D01*
X22541666Y-10093619D01*
X22498809Y-10093619D01*
X22470238Y-10079334D01*
X22455952Y-10050762D01*
X22455952Y-10036477D01*
X22470238Y-10007905D01*
X22498809Y-9993619D01*
X22541666Y-9993619D01*
X22570238Y-10007905D01*
X22684523Y-10307905D02*
X22698809Y-10293619D01*
X22727381Y-10250762D01*
X22741666Y-10222191D01*
X22755952Y-10179334D01*
X22770238Y-10107905D01*
X22770238Y-10050762D01*
X22755952Y-9979334D01*
X22741666Y-9936477D01*
X22727381Y-9907905D01*
X22698809Y-9865048D01*
X22684523Y-9850762D01*
X13148095Y-10403905D02*
X13148095Y-10503905D01*
X13098095Y-10453905D02*
X13198095Y-10453905D01*
X13641666Y-10589619D02*
X13470238Y-10589619D01*
X13555952Y-10589619D02*
X13555952Y-10289619D01*
X13527381Y-10332477D01*
X13498809Y-10361048D01*
X13470238Y-10375334D01*
X13770238Y-10561048D02*
X13784523Y-10575334D01*
X13770238Y-10589619D01*
X13755952Y-10575334D01*
X13770238Y-10561048D01*
X13770238Y-10589619D01*
X13970238Y-10289619D02*
X13998809Y-10289619D01*
X14027381Y-10303905D01*
X14041666Y-10318191D01*
X14055952Y-10346762D01*
X14070238Y-10403905D01*
X14070238Y-10475334D01*
X14055952Y-10532477D01*
X14041666Y-10561048D01*
X14027381Y-10575334D01*
X13998809Y-10589619D01*
X13970238Y-10589619D01*
X13941666Y-10575334D01*
X13927381Y-10561048D01*
X13913095Y-10532477D01*
X13898809Y-10475334D01*
X13898809Y-10403905D01*
X13913095Y-10346762D01*
X13927381Y-10318191D01*
X13941666Y-10303905D01*
X13970238Y-10289619D01*
X14255952Y-10289619D02*
X14284523Y-10289619D01*
X14313095Y-10303905D01*
X14327381Y-10318191D01*
X14341666Y-10346762D01*
X14355952Y-10403905D01*
X14355952Y-10475334D01*
X14341666Y-10532477D01*
X14327381Y-10561048D01*
X14313095Y-10575334D01*
X14284523Y-10589619D01*
X14255952Y-10589619D01*
X14227381Y-10575334D01*
X14213095Y-10561048D01*
X14198809Y-10532477D01*
X14184523Y-10475334D01*
X14184523Y-10403905D01*
X14198809Y-10346762D01*
X14213095Y-10318191D01*
X14227381Y-10303905D01*
X14255952Y-10289619D01*
X14541666Y-10289619D02*
X14570238Y-10289619D01*
X14598809Y-10303905D01*
X14613095Y-10318191D01*
X14627381Y-10346762D01*
X14641666Y-10403905D01*
X14641666Y-10475334D01*
X14627381Y-10532477D01*
X14613095Y-10561048D01*
X14598809Y-10575334D01*
X14570238Y-10589619D01*
X14541666Y-10589619D01*
X14513095Y-10575334D01*
X14498809Y-10561048D01*
X14484523Y-10532477D01*
X14470238Y-10475334D01*
X14470238Y-10403905D01*
X14484523Y-10346762D01*
X14498809Y-10318191D01*
X14513095Y-10303905D01*
X14541666Y-10289619D01*
X14770238Y-10589619D02*
X14770238Y-10389619D01*
X14770238Y-10418191D02*
X14784523Y-10403905D01*
X14813095Y-10389619D01*
X14855952Y-10389619D01*
X14884523Y-10403905D01*
X14898809Y-10432477D01*
X14898809Y-10589619D01*
X14898809Y-10432477D02*
X14913095Y-10403905D01*
X14941666Y-10389619D01*
X14984523Y-10389619D01*
X15013095Y-10403905D01*
X15027381Y-10432477D01*
X15027381Y-10589619D01*
X15170238Y-10589619D02*
X15170238Y-10389619D01*
X15170238Y-10418191D02*
X15184523Y-10403905D01*
X15213095Y-10389619D01*
X15255952Y-10389619D01*
X15284523Y-10403905D01*
X15298809Y-10432477D01*
X15298809Y-10589619D01*
X15298809Y-10432477D02*
X15313095Y-10403905D01*
X15341666Y-10389619D01*
X15384523Y-10389619D01*
X15413095Y-10403905D01*
X15427381Y-10432477D01*
X15427381Y-10589619D01*
X16013095Y-10275334D02*
X15755952Y-10661048D01*
X16398809Y-10289619D02*
X16427381Y-10289619D01*
X16455952Y-10303905D01*
X16470238Y-10318191D01*
X16484523Y-10346762D01*
X16498809Y-10403905D01*
X16498809Y-10475334D01*
X16484523Y-10532477D01*
X16470238Y-10561048D01*
X16455952Y-10575334D01*
X16427381Y-10589619D01*
X16398809Y-10589619D01*
X16370238Y-10575334D01*
X16355952Y-10561048D01*
X16341666Y-10532477D01*
X16327381Y-10475334D01*
X16327381Y-10403905D01*
X16341666Y-10346762D01*
X16355952Y-10318191D01*
X16370238Y-10303905D01*
X16398809Y-10289619D01*
X16627381Y-10561048D02*
X16641666Y-10575334D01*
X16627381Y-10589619D01*
X16613095Y-10575334D01*
X16627381Y-10561048D01*
X16627381Y-10589619D01*
X16827381Y-10289619D02*
X16855952Y-10289619D01*
X16884523Y-10303905D01*
X16898809Y-10318191D01*
X16913095Y-10346762D01*
X16927381Y-10403905D01*
X16927381Y-10475334D01*
X16913095Y-10532477D01*
X16898809Y-10561048D01*
X16884523Y-10575334D01*
X16855952Y-10589619D01*
X16827381Y-10589619D01*
X16798809Y-10575334D01*
X16784523Y-10561048D01*
X16770238Y-10532477D01*
X16755952Y-10475334D01*
X16755952Y-10403905D01*
X16770238Y-10346762D01*
X16784523Y-10318191D01*
X16798809Y-10303905D01*
X16827381Y-10289619D01*
X17027381Y-10289619D02*
X17213095Y-10289619D01*
X17113095Y-10403905D01*
X17155952Y-10403905D01*
X17184523Y-10418191D01*
X17198809Y-10432477D01*
X17213095Y-10461048D01*
X17213095Y-10532477D01*
X17198809Y-10561048D01*
X17184523Y-10575334D01*
X17155952Y-10589619D01*
X17070238Y-10589619D01*
X17041666Y-10575334D01*
X17027381Y-10561048D01*
X17355952Y-10589619D02*
X17413095Y-10589619D01*
X17441666Y-10575334D01*
X17455952Y-10561048D01*
X17484523Y-10518191D01*
X17498809Y-10461048D01*
X17498809Y-10346762D01*
X17484523Y-10318191D01*
X17470238Y-10303905D01*
X17441666Y-10289619D01*
X17384523Y-10289619D01*
X17355952Y-10303905D01*
X17341666Y-10318191D01*
X17327381Y-10346762D01*
X17327381Y-10418191D01*
X17341666Y-10446762D01*
X17355952Y-10461048D01*
X17384523Y-10475334D01*
X17441666Y-10475334D01*
X17470238Y-10461048D01*
X17484523Y-10446762D01*
X17498809Y-10418191D01*
X17755952Y-10389619D02*
X17755952Y-10589619D01*
X17684523Y-10275334D02*
X17613095Y-10489619D01*
X17798809Y-10489619D01*
X17898809Y-10289619D02*
X17898809Y-10346762D01*
X18013095Y-10289619D02*
X18013095Y-10346762D01*
X18455952Y-10703905D02*
X18441666Y-10689619D01*
X18413095Y-10646762D01*
X18398809Y-10618191D01*
X18384523Y-10575334D01*
X18370238Y-10503905D01*
X18370238Y-10446762D01*
X18384523Y-10375334D01*
X18398809Y-10332477D01*
X18413095Y-10303905D01*
X18441666Y-10261048D01*
X18455952Y-10246762D01*
X18727381Y-10589619D02*
X18555952Y-10589619D01*
X18641666Y-10589619D02*
X18641666Y-10289619D01*
X18613095Y-10332477D01*
X18584523Y-10361048D01*
X18555952Y-10375334D01*
X18984523Y-10289619D02*
X18927381Y-10289619D01*
X18898809Y-10303905D01*
X18884523Y-10318191D01*
X18855952Y-10361048D01*
X18841666Y-10418191D01*
X18841666Y-10532477D01*
X18855952Y-10561048D01*
X18870238Y-10575334D01*
X18898809Y-10589619D01*
X18955952Y-10589619D01*
X18984523Y-10575334D01*
X18998809Y-10561048D01*
X19013095Y-10532477D01*
X19013095Y-10461048D01*
X18998809Y-10432477D01*
X18984523Y-10418191D01*
X18955952Y-10403905D01*
X18898809Y-10403905D01*
X18870238Y-10418191D01*
X18855952Y-10432477D01*
X18841666Y-10461048D01*
X19370238Y-10589619D02*
X19370238Y-10289619D01*
X19498809Y-10589619D02*
X19498809Y-10432477D01*
X19484523Y-10403905D01*
X19455952Y-10389619D01*
X19413095Y-10389619D01*
X19384523Y-10403905D01*
X19370238Y-10418191D01*
X19684523Y-10589619D02*
X19655952Y-10575334D01*
X19641666Y-10561048D01*
X19627381Y-10532477D01*
X19627381Y-10446762D01*
X19641666Y-10418191D01*
X19655952Y-10403905D01*
X19684523Y-10389619D01*
X19727381Y-10389619D01*
X19755952Y-10403905D01*
X19770238Y-10418191D01*
X19784523Y-10446762D01*
X19784523Y-10532477D01*
X19770238Y-10561048D01*
X19755952Y-10575334D01*
X19727381Y-10589619D01*
X19684523Y-10589619D01*
X19955952Y-10589619D02*
X19927381Y-10575334D01*
X19913095Y-10546762D01*
X19913095Y-10289619D01*
X20184523Y-10575334D02*
X20155952Y-10589619D01*
X20098809Y-10589619D01*
X20070238Y-10575334D01*
X20055952Y-10546762D01*
X20055952Y-10432477D01*
X20070238Y-10403905D01*
X20098809Y-10389619D01*
X20155952Y-10389619D01*
X20184523Y-10403905D01*
X20198809Y-10432477D01*
X20198809Y-10461048D01*
X20055952Y-10489619D01*
X20313095Y-10575334D02*
X20341666Y-10589619D01*
X20398809Y-10589619D01*
X20427381Y-10575334D01*
X20441666Y-10546762D01*
X20441666Y-10532477D01*
X20427381Y-10503905D01*
X20398809Y-10489619D01*
X20355952Y-10489619D01*
X20327381Y-10475334D01*
X20313095Y-10446762D01*
X20313095Y-10432477D01*
X20327381Y-10403905D01*
X20355952Y-10389619D01*
X20398809Y-10389619D01*
X20427381Y-10403905D01*
X20541666Y-10703905D02*
X20555952Y-10689619D01*
X20584523Y-10646762D01*
X20598809Y-10618191D01*
X20613095Y-10575334D01*
X20627381Y-10503905D01*
X20627381Y-10446762D01*
X20613095Y-10375334D01*
X20598809Y-10332477D01*
X20584523Y-10303905D01*
X20555952Y-10261048D01*
X20541666Y-10246762D01*
M02*
