G04 #@! TF.GenerationSoftware,KiCad,Pcbnew,(5.1.10-1-10_14)*
G04 #@! TF.CreationDate,2021-07-13T22:04:03-07:00*
G04 #@! TF.ProjectId,Synapse,53796e61-7073-4652-9e6b-696361645f70,rev?*
G04 #@! TF.SameCoordinates,Original*
G04 #@! TF.FileFunction,Soldermask,Top*
G04 #@! TF.FilePolarity,Negative*
%FSLAX46Y46*%
G04 Gerber Fmt 4.6, Leading zero omitted, Abs format (unit mm)*
G04 Created by KiCad (PCBNEW (5.1.10-1-10_14)) date 2021-07-13 22:04:03*
%MOMM*%
%LPD*%
G01*
G04 APERTURE LIST*
%ADD10C,1.700000*%
%ADD11R,1.700000X1.700000*%
%ADD12O,1.600000X1.000000*%
%ADD13C,0.650000*%
%ADD14O,2.100000X1.000000*%
%ADD15R,1.450000X0.300000*%
%ADD16R,1.450000X0.600000*%
G04 APERTURE END LIST*
G36*
G01*
X143342198Y-72143000D02*
X144592202Y-72143000D01*
G75*
G02*
X144842200Y-72392998I0J-249998D01*
G01*
X144842200Y-73018002D01*
G75*
G02*
X144592202Y-73268000I-249998J0D01*
G01*
X143342198Y-73268000D01*
G75*
G02*
X143092200Y-73018002I0J249998D01*
G01*
X143092200Y-72392998D01*
G75*
G02*
X143342198Y-72143000I249998J0D01*
G01*
G37*
G36*
G01*
X143342198Y-75068000D02*
X144592202Y-75068000D01*
G75*
G02*
X144842200Y-75317998I0J-249998D01*
G01*
X144842200Y-75943002D01*
G75*
G02*
X144592202Y-76193000I-249998J0D01*
G01*
X143342198Y-76193000D01*
G75*
G02*
X143092200Y-75943002I0J249998D01*
G01*
X143092200Y-75317998D01*
G75*
G02*
X143342198Y-75068000I249998J0D01*
G01*
G37*
G36*
G01*
X170723398Y-72092200D02*
X171973402Y-72092200D01*
G75*
G02*
X172223400Y-72342198I0J-249998D01*
G01*
X172223400Y-72967202D01*
G75*
G02*
X171973402Y-73217200I-249998J0D01*
G01*
X170723398Y-73217200D01*
G75*
G02*
X170473400Y-72967202I0J249998D01*
G01*
X170473400Y-72342198D01*
G75*
G02*
X170723398Y-72092200I249998J0D01*
G01*
G37*
G36*
G01*
X170723398Y-75017200D02*
X171973402Y-75017200D01*
G75*
G02*
X172223400Y-75267198I0J-249998D01*
G01*
X172223400Y-75892202D01*
G75*
G02*
X171973402Y-76142200I-249998J0D01*
G01*
X170723398Y-76142200D01*
G75*
G02*
X170473400Y-75892202I0J249998D01*
G01*
X170473400Y-75267198D01*
G75*
G02*
X170723398Y-75017200I249998J0D01*
G01*
G37*
G36*
G01*
X139126800Y-74386602D02*
X139126800Y-73136598D01*
G75*
G02*
X139376798Y-72886600I249998J0D01*
G01*
X140001802Y-72886600D01*
G75*
G02*
X140251800Y-73136598I0J-249998D01*
G01*
X140251800Y-74386602D01*
G75*
G02*
X140001802Y-74636600I-249998J0D01*
G01*
X139376798Y-74636600D01*
G75*
G02*
X139126800Y-74386602I0J249998D01*
G01*
G37*
G36*
G01*
X136201800Y-74386602D02*
X136201800Y-73136598D01*
G75*
G02*
X136451798Y-72886600I249998J0D01*
G01*
X137076802Y-72886600D01*
G75*
G02*
X137326800Y-73136598I0J-249998D01*
G01*
X137326800Y-74386602D01*
G75*
G02*
X137076802Y-74636600I-249998J0D01*
G01*
X136451798Y-74636600D01*
G75*
G02*
X136201800Y-74386602I0J249998D01*
G01*
G37*
G36*
G01*
X176087200Y-73136598D02*
X176087200Y-74386602D01*
G75*
G02*
X175837202Y-74636600I-249998J0D01*
G01*
X175212198Y-74636600D01*
G75*
G02*
X174962200Y-74386602I0J249998D01*
G01*
X174962200Y-73136598D01*
G75*
G02*
X175212198Y-72886600I249998J0D01*
G01*
X175837202Y-72886600D01*
G75*
G02*
X176087200Y-73136598I0J-249998D01*
G01*
G37*
G36*
G01*
X179012200Y-73136598D02*
X179012200Y-74386602D01*
G75*
G02*
X178762202Y-74636600I-249998J0D01*
G01*
X178137198Y-74636600D01*
G75*
G02*
X177887200Y-74386602I0J249998D01*
G01*
X177887200Y-73136598D01*
G75*
G02*
X178137198Y-72886600I249998J0D01*
G01*
X178762202Y-72886600D01*
G75*
G02*
X179012200Y-73136598I0J-249998D01*
G01*
G37*
D10*
X165240000Y-35000000D03*
D11*
X150000000Y-35000000D03*
D10*
X165240000Y-37540000D03*
X150000000Y-37540000D03*
X165240000Y-40080000D03*
X150000000Y-40080000D03*
X165240000Y-42620000D03*
X150000000Y-42620000D03*
X165240000Y-45160000D03*
X150000000Y-45160000D03*
X165240000Y-47700000D03*
X150000000Y-47700000D03*
X165240000Y-50240000D03*
X150000000Y-50240000D03*
X165240000Y-52780000D03*
X150000000Y-52780000D03*
X165240000Y-55320000D03*
X150000000Y-55320000D03*
X165240000Y-57860000D03*
X150000000Y-57860000D03*
X165240000Y-60400000D03*
X150000000Y-60400000D03*
X165240000Y-62940000D03*
X150000000Y-62940000D03*
X165240000Y-65480000D03*
X150000000Y-65480000D03*
X165240000Y-68020000D03*
X150000000Y-68020000D03*
X165240000Y-70560000D03*
X150000000Y-70560000D03*
X165240000Y-73100000D03*
X150000000Y-73100000D03*
X165240000Y-75640000D03*
X150000000Y-75640000D03*
X165240000Y-78180000D03*
X150000000Y-78180000D03*
X165240000Y-80720000D03*
X150000000Y-80720000D03*
X165240000Y-83260000D03*
X150000000Y-83260000D03*
D12*
X134179600Y-85041200D03*
D13*
X137829600Y-83611200D03*
D12*
X134179600Y-76401200D03*
D13*
X137829600Y-77831200D03*
D14*
X138359600Y-76401200D03*
X138359600Y-85041200D03*
D15*
X139274600Y-80471200D03*
X139274600Y-82471200D03*
X139274600Y-81971200D03*
X139274600Y-81471200D03*
X139274600Y-80971200D03*
X139274600Y-79971200D03*
X139274600Y-79471200D03*
X139274600Y-78971200D03*
D16*
X139274600Y-83971200D03*
X139274600Y-83171200D03*
X139274600Y-78271200D03*
X139274600Y-77471200D03*
X139274600Y-77471200D03*
X139274600Y-78271200D03*
X139274600Y-83171200D03*
X139274600Y-83971200D03*
X175939400Y-77420400D03*
X175939400Y-78220400D03*
X175939400Y-83120400D03*
X175939400Y-83920400D03*
X175939400Y-83920400D03*
X175939400Y-83120400D03*
X175939400Y-78220400D03*
X175939400Y-77420400D03*
D15*
X175939400Y-82420400D03*
X175939400Y-81920400D03*
X175939400Y-81420400D03*
X175939400Y-80420400D03*
X175939400Y-79920400D03*
X175939400Y-79420400D03*
X175939400Y-78920400D03*
X175939400Y-80920400D03*
D14*
X176854400Y-76350400D03*
X176854400Y-84990400D03*
D13*
X177384400Y-83560400D03*
D12*
X181034400Y-84990400D03*
D13*
X177384400Y-77780400D03*
D12*
X181034400Y-76350400D03*
M02*
