G04 #@! TF.GenerationSoftware,KiCad,Pcbnew,(5.1.10-1-10_14)*
G04 #@! TF.CreationDate,2021-07-14T14:00:36-07:00*
G04 #@! TF.ProjectId,Synapse,53796e61-7073-4652-9e6b-696361645f70,rev?*
G04 #@! TF.SameCoordinates,Original*
G04 #@! TF.FileFunction,Legend,Bot*
G04 #@! TF.FilePolarity,Positive*
%FSLAX46Y46*%
G04 Gerber Fmt 4.6, Leading zero omitted, Abs format (unit mm)*
G04 Created by KiCad (PCBNEW (5.1.10-1-10_14)) date 2021-07-14 14:00:36*
%MOMM*%
%LPD*%
G01*
G04 APERTURE LIST*
%ADD10C,0.304800*%
%ADD11C,1.700000*%
%ADD12O,2.100000X1.000000*%
%ADD13C,0.650000*%
%ADD14O,1.600000X1.000000*%
G04 APERTURE END LIST*
D10*
X154605971Y-83039428D02*
X156129971Y-83039428D01*
X156129971Y-82676571D01*
X156057400Y-82458857D01*
X155912257Y-82313714D01*
X155767114Y-82241142D01*
X155476828Y-82168571D01*
X155259114Y-82168571D01*
X154968828Y-82241142D01*
X154823685Y-82313714D01*
X154678542Y-82458857D01*
X154605971Y-82676571D01*
X154605971Y-83039428D01*
X155621971Y-81660571D02*
X154605971Y-81297714D01*
X155621971Y-80934857D02*
X154605971Y-81297714D01*
X154243114Y-81442857D01*
X154170542Y-81515428D01*
X154097971Y-81660571D01*
X155621971Y-79701142D02*
X154388257Y-79701142D01*
X154243114Y-79773714D01*
X154170542Y-79846285D01*
X154097971Y-79991428D01*
X154097971Y-80209142D01*
X154170542Y-80354285D01*
X154678542Y-79701142D02*
X154605971Y-79846285D01*
X154605971Y-80136571D01*
X154678542Y-80281714D01*
X154751114Y-80354285D01*
X154896257Y-80426857D01*
X155331685Y-80426857D01*
X155476828Y-80354285D01*
X155549400Y-80281714D01*
X155621971Y-80136571D01*
X155621971Y-79846285D01*
X155549400Y-79701142D01*
X154605971Y-78975428D02*
X155621971Y-78975428D01*
X155476828Y-78975428D02*
X155549400Y-78902857D01*
X155621971Y-78757714D01*
X155621971Y-78540000D01*
X155549400Y-78394857D01*
X155404257Y-78322285D01*
X154605971Y-78322285D01*
X155404257Y-78322285D02*
X155549400Y-78249714D01*
X155621971Y-78104571D01*
X155621971Y-77886857D01*
X155549400Y-77741714D01*
X155404257Y-77669142D01*
X154605971Y-77669142D01*
X154605971Y-76290285D02*
X155404257Y-76290285D01*
X155549400Y-76362857D01*
X155621971Y-76508000D01*
X155621971Y-76798285D01*
X155549400Y-76943428D01*
X154678542Y-76290285D02*
X154605971Y-76435428D01*
X154605971Y-76798285D01*
X154678542Y-76943428D01*
X154823685Y-77016000D01*
X154968828Y-77016000D01*
X155113971Y-76943428D01*
X155186542Y-76798285D01*
X155186542Y-76435428D01*
X155259114Y-76290285D01*
X154605971Y-73532571D02*
X155331685Y-74040571D01*
X154605971Y-74403428D02*
X156129971Y-74403428D01*
X156129971Y-73822857D01*
X156057400Y-73677714D01*
X155984828Y-73605142D01*
X155839685Y-73532571D01*
X155621971Y-73532571D01*
X155476828Y-73605142D01*
X155404257Y-73677714D01*
X155331685Y-73822857D01*
X155331685Y-74403428D01*
X154605971Y-72226285D02*
X155404257Y-72226285D01*
X155549400Y-72298857D01*
X155621971Y-72444000D01*
X155621971Y-72734285D01*
X155549400Y-72879428D01*
X154678542Y-72226285D02*
X154605971Y-72371428D01*
X154605971Y-72734285D01*
X154678542Y-72879428D01*
X154823685Y-72952000D01*
X154968828Y-72952000D01*
X155113971Y-72879428D01*
X155186542Y-72734285D01*
X155186542Y-72371428D01*
X155259114Y-72226285D01*
X154605971Y-71500571D02*
X155621971Y-71500571D01*
X156129971Y-71500571D02*
X156057400Y-71573142D01*
X155984828Y-71500571D01*
X156057400Y-71428000D01*
X156129971Y-71500571D01*
X155984828Y-71500571D01*
X154678542Y-70847428D02*
X154605971Y-70702285D01*
X154605971Y-70412000D01*
X154678542Y-70266857D01*
X154823685Y-70194285D01*
X154896257Y-70194285D01*
X155041400Y-70266857D01*
X155113971Y-70412000D01*
X155113971Y-70629714D01*
X155186542Y-70774857D01*
X155331685Y-70847428D01*
X155404257Y-70847428D01*
X155549400Y-70774857D01*
X155621971Y-70629714D01*
X155621971Y-70412000D01*
X155549400Y-70266857D01*
X154678542Y-68960571D02*
X154605971Y-69105714D01*
X154605971Y-69396000D01*
X154678542Y-69541142D01*
X154823685Y-69613714D01*
X155404257Y-69613714D01*
X155549400Y-69541142D01*
X155621971Y-69396000D01*
X155621971Y-69105714D01*
X155549400Y-68960571D01*
X155404257Y-68888000D01*
X155259114Y-68888000D01*
X155113971Y-69613714D01*
X152087742Y-83402285D02*
X152015171Y-83184571D01*
X152015171Y-82821714D01*
X152087742Y-82676571D01*
X152160314Y-82604000D01*
X152305457Y-82531428D01*
X152450600Y-82531428D01*
X152595742Y-82604000D01*
X152668314Y-82676571D01*
X152740885Y-82821714D01*
X152813457Y-83112000D01*
X152886028Y-83257142D01*
X152958600Y-83329714D01*
X153103742Y-83402285D01*
X153248885Y-83402285D01*
X153394028Y-83329714D01*
X153466600Y-83257142D01*
X153539171Y-83112000D01*
X153539171Y-82749142D01*
X153466600Y-82531428D01*
X153031171Y-82023428D02*
X152015171Y-81660571D01*
X153031171Y-81297714D02*
X152015171Y-81660571D01*
X151652314Y-81805714D01*
X151579742Y-81878285D01*
X151507171Y-82023428D01*
X153031171Y-80717142D02*
X152015171Y-80717142D01*
X152886028Y-80717142D02*
X152958600Y-80644571D01*
X153031171Y-80499428D01*
X153031171Y-80281714D01*
X152958600Y-80136571D01*
X152813457Y-80064000D01*
X152015171Y-80064000D01*
X152015171Y-78685142D02*
X152813457Y-78685142D01*
X152958600Y-78757714D01*
X153031171Y-78902857D01*
X153031171Y-79193142D01*
X152958600Y-79338285D01*
X152087742Y-78685142D02*
X152015171Y-78830285D01*
X152015171Y-79193142D01*
X152087742Y-79338285D01*
X152232885Y-79410857D01*
X152378028Y-79410857D01*
X152523171Y-79338285D01*
X152595742Y-79193142D01*
X152595742Y-78830285D01*
X152668314Y-78685142D01*
X153031171Y-77959428D02*
X151507171Y-77959428D01*
X152958600Y-77959428D02*
X153031171Y-77814285D01*
X153031171Y-77524000D01*
X152958600Y-77378857D01*
X152886028Y-77306285D01*
X152740885Y-77233714D01*
X152305457Y-77233714D01*
X152160314Y-77306285D01*
X152087742Y-77378857D01*
X152015171Y-77524000D01*
X152015171Y-77814285D01*
X152087742Y-77959428D01*
X152087742Y-76653142D02*
X152015171Y-76508000D01*
X152015171Y-76217714D01*
X152087742Y-76072571D01*
X152232885Y-76000000D01*
X152305457Y-76000000D01*
X152450600Y-76072571D01*
X152523171Y-76217714D01*
X152523171Y-76435428D01*
X152595742Y-76580571D01*
X152740885Y-76653142D01*
X152813457Y-76653142D01*
X152958600Y-76580571D01*
X153031171Y-76435428D01*
X153031171Y-76217714D01*
X152958600Y-76072571D01*
X152087742Y-74766285D02*
X152015171Y-74911428D01*
X152015171Y-75201714D01*
X152087742Y-75346857D01*
X152232885Y-75419428D01*
X152813457Y-75419428D01*
X152958600Y-75346857D01*
X153031171Y-75201714D01*
X153031171Y-74911428D01*
X152958600Y-74766285D01*
X152813457Y-74693714D01*
X152668314Y-74693714D01*
X152523171Y-75419428D01*
X153539171Y-73097142D02*
X152015171Y-72589142D01*
X153539171Y-72081142D01*
X152015171Y-70774857D02*
X152015171Y-71645714D01*
X152015171Y-71210285D02*
X153539171Y-71210285D01*
X153321457Y-71355428D01*
X153176314Y-71500571D01*
X153103742Y-71645714D01*
X152160314Y-70121714D02*
X152087742Y-70049142D01*
X152015171Y-70121714D01*
X152087742Y-70194285D01*
X152160314Y-70121714D01*
X152015171Y-70121714D01*
X153539171Y-69105714D02*
X153539171Y-68960571D01*
X153466600Y-68815428D01*
X153394028Y-68742857D01*
X153248885Y-68670285D01*
X152958600Y-68597714D01*
X152595742Y-68597714D01*
X152305457Y-68670285D01*
X152160314Y-68742857D01*
X152087742Y-68815428D01*
X152015171Y-68960571D01*
X152015171Y-69105714D01*
X152087742Y-69250857D01*
X152160314Y-69323428D01*
X152305457Y-69396000D01*
X152595742Y-69468571D01*
X152958600Y-69468571D01*
X153248885Y-69396000D01*
X153394028Y-69323428D01*
X153466600Y-69250857D01*
X153539171Y-69105714D01*
%LPC*%
D11*
X165240000Y-65478600D03*
X150000000Y-65478600D03*
X165240000Y-68018600D03*
X150000000Y-68018600D03*
X165240000Y-70558600D03*
X150000000Y-70558600D03*
X165240000Y-73098600D03*
X150000000Y-73098600D03*
X165240000Y-75638600D03*
X150000000Y-75638600D03*
X165240000Y-78178600D03*
X150000000Y-78178600D03*
X165240000Y-80718600D03*
X150000000Y-80718600D03*
X165240000Y-83258600D03*
X150000000Y-83258600D03*
D12*
X138359600Y-85041200D03*
X138359600Y-76401200D03*
D13*
X137829600Y-77831200D03*
D14*
X134179600Y-76401200D03*
D13*
X137829600Y-83611200D03*
D14*
X134179600Y-85041200D03*
D12*
X176854400Y-76350400D03*
X176854400Y-84990400D03*
D13*
X177384400Y-83560400D03*
D14*
X181034400Y-84990400D03*
D13*
X177384400Y-77780400D03*
D14*
X181034400Y-76350400D03*
M02*
