M48
; DRILL file {KiCad (5.1.10-1-10_14)} date Tuesday, July 13, 2021 at 10:04:06 PM
; FORMAT={-:-/ absolute / metric / decimal}
; #@! TF.CreationDate,2021-07-13T22:04:06-07:00
; #@! TF.GenerationSoftware,Kicad,Pcbnew,(5.1.10-1-10_14)
; #@! TF.FileFunction,Plated,1,2,PTH
FMAT,2
METRIC
T1C0.300
T2C0.600
T3C1.000
%
G90
G05
T1
X143.154Y-81.077
X145.085Y-77.267
X145.44Y-79.908
X147.117Y-77.368
X168.758Y-80.467
X169.418Y-79.654
X169.621Y-75.743
X173.888Y-79.908
X173.939Y-80.823
T3
X150.0Y-35.0
X150.0Y-37.54
X150.0Y-40.08
X150.0Y-42.62
X150.0Y-45.16
X150.0Y-47.7
X150.0Y-50.24
X150.0Y-52.78
X150.0Y-55.32
X150.0Y-57.86
X150.0Y-60.4
X150.0Y-62.94
X150.0Y-65.48
X150.0Y-68.02
X150.0Y-70.56
X150.0Y-73.1
X150.0Y-75.64
X150.0Y-78.18
X150.0Y-80.72
X150.0Y-83.26
X165.24Y-35.0
X165.24Y-37.54
X165.24Y-40.08
X165.24Y-42.62
X165.24Y-45.16
X165.24Y-47.7
X165.24Y-50.24
X165.24Y-52.78
X165.24Y-55.32
X165.24Y-57.86
X165.24Y-60.4
X165.24Y-62.94
X165.24Y-65.48
X165.24Y-68.02
X165.24Y-70.56
X165.24Y-73.1
X165.24Y-75.64
X165.24Y-78.18
X165.24Y-80.72
X165.24Y-83.26
T2
X134.48Y-76.401G85X133.88Y-76.401
G05
X134.48Y-85.041G85X133.88Y-85.041
G05
X138.91Y-76.401G85X137.81Y-76.401
G05
X138.91Y-85.041G85X137.81Y-85.041
G05
X176.304Y-76.35G85X177.404Y-76.35
G05
X176.304Y-84.99G85X177.404Y-84.99
G05
X180.734Y-76.35G85X181.334Y-76.35
G05
X180.734Y-84.99G85X181.334Y-84.99
G05
T0
M30
