G04 #@! TF.GenerationSoftware,KiCad,Pcbnew,(5.1.10-1-10_14)*
G04 #@! TF.CreationDate,2021-07-14T14:00:36-07:00*
G04 #@! TF.ProjectId,Synapse,53796e61-7073-4652-9e6b-696361645f70,rev?*
G04 #@! TF.SameCoordinates,Original*
G04 #@! TF.FileFunction,Copper,L2,Bot*
G04 #@! TF.FilePolarity,Positive*
%FSLAX46Y46*%
G04 Gerber Fmt 4.6, Leading zero omitted, Abs format (unit mm)*
G04 Created by KiCad (PCBNEW (5.1.10-1-10_14)) date 2021-07-14 14:00:36*
%MOMM*%
%LPD*%
G01*
G04 APERTURE LIST*
G04 #@! TA.AperFunction,ComponentPad*
%ADD10C,1.700000*%
G04 #@! TD*
G04 #@! TA.AperFunction,ComponentPad*
%ADD11O,2.100000X1.000000*%
G04 #@! TD*
G04 #@! TA.AperFunction,ComponentPad*
%ADD12O,1.600000X1.000000*%
G04 #@! TD*
G04 #@! TA.AperFunction,ViaPad*
%ADD13C,0.600000*%
G04 #@! TD*
G04 #@! TA.AperFunction,Conductor*
%ADD14C,0.400000*%
G04 #@! TD*
G04 #@! TA.AperFunction,Conductor*
%ADD15C,0.254000*%
G04 #@! TD*
G04 #@! TA.AperFunction,Conductor*
%ADD16C,0.100000*%
G04 #@! TD*
G04 APERTURE END LIST*
D10*
X165240000Y-65478600D03*
X150000000Y-65478600D03*
X165240000Y-68018600D03*
X150000000Y-68018600D03*
X165240000Y-70558600D03*
X150000000Y-70558600D03*
X165240000Y-73098600D03*
X150000000Y-73098600D03*
X165240000Y-75638600D03*
X150000000Y-75638600D03*
X165240000Y-78178600D03*
X150000000Y-78178600D03*
X165240000Y-80718600D03*
X150000000Y-80718600D03*
X165240000Y-83258600D03*
X150000000Y-83258600D03*
D11*
X138359600Y-85041200D03*
X138359600Y-76401200D03*
D12*
X134179600Y-76401200D03*
X134179600Y-85041200D03*
D11*
X176854400Y-76350400D03*
X176854400Y-84990400D03*
D12*
X181034400Y-84990400D03*
X181034400Y-76350400D03*
D13*
X142494000Y-80010000D03*
X145034000Y-80010000D03*
D14*
X142494000Y-80010000D02*
X145034000Y-80010000D01*
D15*
X148684010Y-64775189D02*
X148572068Y-65045442D01*
X148515000Y-65332340D01*
X148515000Y-65624860D01*
X148572068Y-65911758D01*
X148684010Y-66182011D01*
X148846525Y-66425232D01*
X149053368Y-66632075D01*
X149227760Y-66748600D01*
X149053368Y-66865125D01*
X148846525Y-67071968D01*
X148684010Y-67315189D01*
X148572068Y-67585442D01*
X148515000Y-67872340D01*
X148515000Y-68164860D01*
X148572068Y-68451758D01*
X148684010Y-68722011D01*
X148846525Y-68965232D01*
X149053368Y-69172075D01*
X149227760Y-69288600D01*
X149053368Y-69405125D01*
X148846525Y-69611968D01*
X148684010Y-69855189D01*
X148572068Y-70125442D01*
X148515000Y-70412340D01*
X148515000Y-70704860D01*
X148572068Y-70991758D01*
X148684010Y-71262011D01*
X148846525Y-71505232D01*
X149053368Y-71712075D01*
X149227760Y-71828600D01*
X149053368Y-71945125D01*
X148846525Y-72151968D01*
X148684010Y-72395189D01*
X148572068Y-72665442D01*
X148515000Y-72952340D01*
X148515000Y-73244860D01*
X148572068Y-73531758D01*
X148684010Y-73802011D01*
X148846525Y-74045232D01*
X149053368Y-74252075D01*
X149227760Y-74368600D01*
X149053368Y-74485125D01*
X148846525Y-74691968D01*
X148684010Y-74935189D01*
X148572068Y-75205442D01*
X148515000Y-75492340D01*
X148515000Y-75784860D01*
X148572068Y-76071758D01*
X148684010Y-76342011D01*
X148846525Y-76585232D01*
X149053368Y-76792075D01*
X149227760Y-76908600D01*
X149053368Y-77025125D01*
X148846525Y-77231968D01*
X148684010Y-77475189D01*
X148572068Y-77745442D01*
X148515000Y-78032340D01*
X148515000Y-78324860D01*
X148572068Y-78611758D01*
X148684010Y-78882011D01*
X148846525Y-79125232D01*
X149053368Y-79332075D01*
X149226729Y-79447911D01*
X149151208Y-79690203D01*
X150000000Y-80538995D01*
X150848792Y-79690203D01*
X150773271Y-79447911D01*
X150946632Y-79332075D01*
X151153475Y-79125232D01*
X151315990Y-78882011D01*
X151427932Y-78611758D01*
X151485000Y-78324860D01*
X151485000Y-78032340D01*
X151427932Y-77745442D01*
X151315990Y-77475189D01*
X151153475Y-77231968D01*
X150946632Y-77025125D01*
X150772240Y-76908600D01*
X150946632Y-76792075D01*
X151153475Y-76585232D01*
X151315990Y-76342011D01*
X151427932Y-76071758D01*
X151485000Y-75784860D01*
X151485000Y-75492340D01*
X151427932Y-75205442D01*
X151315990Y-74935189D01*
X151153475Y-74691968D01*
X150946632Y-74485125D01*
X150772240Y-74368600D01*
X150946632Y-74252075D01*
X151153475Y-74045232D01*
X151315990Y-73802011D01*
X151427932Y-73531758D01*
X151485000Y-73244860D01*
X151485000Y-72952340D01*
X151427932Y-72665442D01*
X151315990Y-72395189D01*
X151153475Y-72151968D01*
X150946632Y-71945125D01*
X150772240Y-71828600D01*
X150946632Y-71712075D01*
X151153475Y-71505232D01*
X151315990Y-71262011D01*
X151427932Y-70991758D01*
X151485000Y-70704860D01*
X151485000Y-70412340D01*
X151427932Y-70125442D01*
X151315990Y-69855189D01*
X151153475Y-69611968D01*
X150946632Y-69405125D01*
X150772240Y-69288600D01*
X150946632Y-69172075D01*
X151153475Y-68965232D01*
X151315990Y-68722011D01*
X151427932Y-68451758D01*
X151485000Y-68164860D01*
X151485000Y-67872340D01*
X151427932Y-67585442D01*
X151315990Y-67315189D01*
X151153475Y-67071968D01*
X150946632Y-66865125D01*
X150772240Y-66748600D01*
X150946632Y-66632075D01*
X151153475Y-66425232D01*
X151315990Y-66182011D01*
X151427932Y-65911758D01*
X151485000Y-65624860D01*
X151485000Y-65332340D01*
X151427932Y-65045442D01*
X151315990Y-64775189D01*
X151199233Y-64600450D01*
X164040767Y-64600450D01*
X163924010Y-64775189D01*
X163812068Y-65045442D01*
X163755000Y-65332340D01*
X163755000Y-65624860D01*
X163812068Y-65911758D01*
X163924010Y-66182011D01*
X164086525Y-66425232D01*
X164293368Y-66632075D01*
X164467760Y-66748600D01*
X164293368Y-66865125D01*
X164086525Y-67071968D01*
X163924010Y-67315189D01*
X163812068Y-67585442D01*
X163755000Y-67872340D01*
X163755000Y-68164860D01*
X163812068Y-68451758D01*
X163924010Y-68722011D01*
X164086525Y-68965232D01*
X164293368Y-69172075D01*
X164467760Y-69288600D01*
X164293368Y-69405125D01*
X164086525Y-69611968D01*
X163924010Y-69855189D01*
X163812068Y-70125442D01*
X163755000Y-70412340D01*
X163755000Y-70704860D01*
X163812068Y-70991758D01*
X163924010Y-71262011D01*
X164086525Y-71505232D01*
X164293368Y-71712075D01*
X164467760Y-71828600D01*
X164293368Y-71945125D01*
X164086525Y-72151968D01*
X163924010Y-72395189D01*
X163812068Y-72665442D01*
X163755000Y-72952340D01*
X163755000Y-73244860D01*
X163812068Y-73531758D01*
X163924010Y-73802011D01*
X164086525Y-74045232D01*
X164293368Y-74252075D01*
X164467760Y-74368600D01*
X164293368Y-74485125D01*
X164086525Y-74691968D01*
X163924010Y-74935189D01*
X163812068Y-75205442D01*
X163755000Y-75492340D01*
X163755000Y-75784860D01*
X163812068Y-76071758D01*
X163924010Y-76342011D01*
X164086525Y-76585232D01*
X164293368Y-76792075D01*
X164467760Y-76908600D01*
X164293368Y-77025125D01*
X164086525Y-77231968D01*
X163924010Y-77475189D01*
X163812068Y-77745442D01*
X163755000Y-78032340D01*
X163755000Y-78324860D01*
X163812068Y-78611758D01*
X163924010Y-78882011D01*
X164086525Y-79125232D01*
X164293368Y-79332075D01*
X164467760Y-79448600D01*
X164293368Y-79565125D01*
X164086525Y-79771968D01*
X163924010Y-80015189D01*
X163812068Y-80285442D01*
X163755000Y-80572340D01*
X163755000Y-80864860D01*
X163812068Y-81151758D01*
X163924010Y-81422011D01*
X164086525Y-81665232D01*
X164293368Y-81872075D01*
X164467760Y-81988600D01*
X164293368Y-82105125D01*
X164086525Y-82311968D01*
X163924010Y-82555189D01*
X163812068Y-82825442D01*
X163755000Y-83112340D01*
X163755000Y-83404860D01*
X163812068Y-83691758D01*
X163924010Y-83962011D01*
X164086525Y-84205232D01*
X164293368Y-84412075D01*
X164536589Y-84574590D01*
X164806842Y-84686532D01*
X165093740Y-84743600D01*
X165386260Y-84743600D01*
X165663133Y-84688526D01*
X175210281Y-84688526D01*
X175336446Y-84863400D01*
X176727400Y-84863400D01*
X176727400Y-84843400D01*
X176981400Y-84843400D01*
X176981400Y-84863400D01*
X178372354Y-84863400D01*
X178498519Y-84688526D01*
X179640281Y-84688526D01*
X179766446Y-84863400D01*
X180907400Y-84863400D01*
X180907400Y-83855400D01*
X180607400Y-83855400D01*
X180388413Y-83901985D01*
X180182722Y-83990397D01*
X179998231Y-84117239D01*
X179842031Y-84277636D01*
X179720124Y-84465424D01*
X179640281Y-84688526D01*
X178498519Y-84688526D01*
X178418676Y-84465424D01*
X178296769Y-84277636D01*
X178156194Y-84133284D01*
X178235141Y-84015131D01*
X178307508Y-83840422D01*
X178344400Y-83654952D01*
X178344400Y-83465848D01*
X178307508Y-83280378D01*
X178235141Y-83105669D01*
X178130081Y-82948436D01*
X177996364Y-82814719D01*
X177839131Y-82709659D01*
X177664422Y-82637292D01*
X177478952Y-82600400D01*
X177289848Y-82600400D01*
X177104378Y-82637292D01*
X176929669Y-82709659D01*
X176772436Y-82814719D01*
X176638719Y-82948436D01*
X176533659Y-83105669D01*
X176461292Y-83280378D01*
X176424400Y-83465848D01*
X176424400Y-83654952D01*
X176461292Y-83840422D01*
X176467496Y-83855400D01*
X176177400Y-83855400D01*
X175958413Y-83901985D01*
X175752722Y-83990397D01*
X175568231Y-84117239D01*
X175412031Y-84277636D01*
X175290124Y-84465424D01*
X175210281Y-84688526D01*
X165663133Y-84688526D01*
X165673158Y-84686532D01*
X165943411Y-84574590D01*
X166186632Y-84412075D01*
X166393475Y-84205232D01*
X166555990Y-83962011D01*
X166667932Y-83691758D01*
X166725000Y-83404860D01*
X166725000Y-83112340D01*
X166667932Y-82825442D01*
X166555990Y-82555189D01*
X166393475Y-82311968D01*
X166186632Y-82105125D01*
X166012240Y-81988600D01*
X166186632Y-81872075D01*
X166393475Y-81665232D01*
X166555990Y-81422011D01*
X166667932Y-81151758D01*
X166725000Y-80864860D01*
X166725000Y-80572340D01*
X166667932Y-80285442D01*
X166555990Y-80015189D01*
X166393475Y-79771968D01*
X166186632Y-79565125D01*
X166012240Y-79448600D01*
X166186632Y-79332075D01*
X166393475Y-79125232D01*
X166555990Y-78882011D01*
X166667932Y-78611758D01*
X166725000Y-78324860D01*
X166725000Y-78032340D01*
X166667932Y-77745442D01*
X166555990Y-77475189D01*
X166393475Y-77231968D01*
X166186632Y-77025125D01*
X166012240Y-76908600D01*
X166186632Y-76792075D01*
X166326433Y-76652274D01*
X175210281Y-76652274D01*
X175290124Y-76875376D01*
X175412031Y-77063164D01*
X175568231Y-77223561D01*
X175752722Y-77350403D01*
X175958413Y-77438815D01*
X176177400Y-77485400D01*
X176467496Y-77485400D01*
X176461292Y-77500378D01*
X176424400Y-77685848D01*
X176424400Y-77874952D01*
X176461292Y-78060422D01*
X176533659Y-78235131D01*
X176638719Y-78392364D01*
X176772436Y-78526081D01*
X176929669Y-78631141D01*
X177104378Y-78703508D01*
X177289848Y-78740400D01*
X177478952Y-78740400D01*
X177664422Y-78703508D01*
X177839131Y-78631141D01*
X177996364Y-78526081D01*
X178130081Y-78392364D01*
X178235141Y-78235131D01*
X178307508Y-78060422D01*
X178344400Y-77874952D01*
X178344400Y-77685848D01*
X178307508Y-77500378D01*
X178235141Y-77325669D01*
X178156194Y-77207516D01*
X178296769Y-77063164D01*
X178418676Y-76875376D01*
X178498519Y-76652274D01*
X179640281Y-76652274D01*
X179720124Y-76875376D01*
X179842031Y-77063164D01*
X179998231Y-77223561D01*
X180182722Y-77350403D01*
X180388413Y-77438815D01*
X180607400Y-77485400D01*
X180907400Y-77485400D01*
X180907400Y-76477400D01*
X179766446Y-76477400D01*
X179640281Y-76652274D01*
X178498519Y-76652274D01*
X178372354Y-76477400D01*
X176981400Y-76477400D01*
X176981400Y-76497400D01*
X176727400Y-76497400D01*
X176727400Y-76477400D01*
X175336446Y-76477400D01*
X175210281Y-76652274D01*
X166326433Y-76652274D01*
X166393475Y-76585232D01*
X166555990Y-76342011D01*
X166667932Y-76071758D01*
X166672553Y-76048526D01*
X175210281Y-76048526D01*
X175336446Y-76223400D01*
X176727400Y-76223400D01*
X176727400Y-75215400D01*
X176981400Y-75215400D01*
X176981400Y-76223400D01*
X178372354Y-76223400D01*
X178498519Y-76048526D01*
X179640281Y-76048526D01*
X179766446Y-76223400D01*
X180907400Y-76223400D01*
X180907400Y-75215400D01*
X180607400Y-75215400D01*
X180388413Y-75261985D01*
X180182722Y-75350397D01*
X179998231Y-75477239D01*
X179842031Y-75637636D01*
X179720124Y-75825424D01*
X179640281Y-76048526D01*
X178498519Y-76048526D01*
X178418676Y-75825424D01*
X178296769Y-75637636D01*
X178140569Y-75477239D01*
X177956078Y-75350397D01*
X177750387Y-75261985D01*
X177531400Y-75215400D01*
X176981400Y-75215400D01*
X176727400Y-75215400D01*
X176177400Y-75215400D01*
X175958413Y-75261985D01*
X175752722Y-75350397D01*
X175568231Y-75477239D01*
X175412031Y-75637636D01*
X175290124Y-75825424D01*
X175210281Y-76048526D01*
X166672553Y-76048526D01*
X166725000Y-75784860D01*
X166725000Y-75492340D01*
X166667932Y-75205442D01*
X166555990Y-74935189D01*
X166393475Y-74691968D01*
X166186632Y-74485125D01*
X166012240Y-74368600D01*
X166186632Y-74252075D01*
X166393475Y-74045232D01*
X166555990Y-73802011D01*
X166667932Y-73531758D01*
X166725000Y-73244860D01*
X166725000Y-72952340D01*
X166667932Y-72665442D01*
X166555990Y-72395189D01*
X166393475Y-72151968D01*
X166186632Y-71945125D01*
X166012240Y-71828600D01*
X166186632Y-71712075D01*
X166393475Y-71505232D01*
X166555990Y-71262011D01*
X166667932Y-70991758D01*
X166725000Y-70704860D01*
X166725000Y-70412340D01*
X166667932Y-70125442D01*
X166555990Y-69855189D01*
X166393475Y-69611968D01*
X166186632Y-69405125D01*
X166012240Y-69288600D01*
X166186632Y-69172075D01*
X166393475Y-68965232D01*
X166555990Y-68722011D01*
X166667932Y-68451758D01*
X166725000Y-68164860D01*
X166725000Y-67872340D01*
X166667932Y-67585442D01*
X166555990Y-67315189D01*
X166393475Y-67071968D01*
X166186632Y-66865125D01*
X166012240Y-66748600D01*
X166186632Y-66632075D01*
X166393475Y-66425232D01*
X166555990Y-66182011D01*
X166667932Y-65911758D01*
X166725000Y-65624860D01*
X166725000Y-65332340D01*
X166667932Y-65045442D01*
X166555990Y-64775189D01*
X166439233Y-64600450D01*
X169621215Y-64600450D01*
X169914018Y-64629160D01*
X170164908Y-64704908D01*
X170396301Y-64827942D01*
X170599390Y-64993577D01*
X170766444Y-65195511D01*
X170891089Y-65426037D01*
X170968586Y-65676390D01*
X170999150Y-65967180D01*
X170999150Y-66005828D01*
X171008614Y-66101919D01*
X171046013Y-66225208D01*
X171075560Y-66280485D01*
X171377002Y-66850780D01*
X171393355Y-66876838D01*
X171408271Y-66903748D01*
X171417846Y-66917943D01*
X172010538Y-67772305D01*
X172035661Y-67803330D01*
X172059977Y-67835019D01*
X172071545Y-67847643D01*
X172784009Y-68605014D01*
X172813430Y-68631974D01*
X172842174Y-68659731D01*
X172855481Y-68670506D01*
X173672065Y-69314250D01*
X173705167Y-69336578D01*
X173737681Y-69359769D01*
X173752434Y-69368460D01*
X174655201Y-69884433D01*
X174691234Y-69901620D01*
X174726822Y-69919753D01*
X174742698Y-69926167D01*
X175711814Y-70303036D01*
X175749995Y-70314709D01*
X175787870Y-70327382D01*
X175804515Y-70331378D01*
X175804519Y-70331379D01*
X175804522Y-70331379D01*
X176818696Y-70560864D01*
X176858204Y-70566769D01*
X176897516Y-70573700D01*
X176914557Y-70575191D01*
X176914573Y-70575193D01*
X176914586Y-70575193D01*
X177943708Y-70651670D01*
X177967875Y-70654050D01*
X179968015Y-70654050D01*
X180455052Y-70701805D01*
X180892779Y-70833962D01*
X181296493Y-71048620D01*
X181650827Y-71337608D01*
X181942279Y-71689913D01*
X182159752Y-72092122D01*
X182294962Y-72528910D01*
X182345951Y-73014036D01*
X182345951Y-75821226D01*
X182226769Y-75637636D01*
X182070569Y-75477239D01*
X181886078Y-75350397D01*
X181680387Y-75261985D01*
X181461400Y-75215400D01*
X181161400Y-75215400D01*
X181161400Y-76223400D01*
X181181400Y-76223400D01*
X181181400Y-76477400D01*
X181161400Y-76477400D01*
X181161400Y-77485400D01*
X181461400Y-77485400D01*
X181680387Y-77438815D01*
X181886078Y-77350403D01*
X182070569Y-77223561D01*
X182226769Y-77063164D01*
X182345951Y-76879574D01*
X182345950Y-84461225D01*
X182226769Y-84277636D01*
X182070569Y-84117239D01*
X181886078Y-83990397D01*
X181680387Y-83901985D01*
X181461400Y-83855400D01*
X181161400Y-83855400D01*
X181161400Y-84863400D01*
X181181400Y-84863400D01*
X181181400Y-85117400D01*
X181161400Y-85117400D01*
X181161400Y-86125400D01*
X181461400Y-86125400D01*
X181680387Y-86078815D01*
X181886078Y-85990403D01*
X182070569Y-85863561D01*
X182226769Y-85703164D01*
X182345950Y-85519575D01*
X182345950Y-85968016D01*
X182336285Y-86066583D01*
X182316946Y-86130637D01*
X182285536Y-86189711D01*
X182243250Y-86241559D01*
X182191702Y-86284204D01*
X182132845Y-86316027D01*
X182068933Y-86335811D01*
X181972473Y-86345950D01*
X133031984Y-86345950D01*
X132933417Y-86336285D01*
X132869363Y-86316946D01*
X132810289Y-86285536D01*
X132758441Y-86243250D01*
X132715796Y-86191702D01*
X132683973Y-86132845D01*
X132664189Y-86068933D01*
X132654050Y-85972473D01*
X132654050Y-85343074D01*
X132785481Y-85343074D01*
X132865324Y-85566176D01*
X132987231Y-85753964D01*
X133143431Y-85914361D01*
X133327922Y-86041203D01*
X133533613Y-86129615D01*
X133752600Y-86176200D01*
X134052600Y-86176200D01*
X134052600Y-85168200D01*
X134306600Y-85168200D01*
X134306600Y-86176200D01*
X134606600Y-86176200D01*
X134825587Y-86129615D01*
X135031278Y-86041203D01*
X135215769Y-85914361D01*
X135371969Y-85753964D01*
X135493876Y-85566176D01*
X135573719Y-85343074D01*
X136715481Y-85343074D01*
X136795324Y-85566176D01*
X136917231Y-85753964D01*
X137073431Y-85914361D01*
X137257922Y-86041203D01*
X137463613Y-86129615D01*
X137682600Y-86176200D01*
X138232600Y-86176200D01*
X138232600Y-85168200D01*
X138486600Y-85168200D01*
X138486600Y-86176200D01*
X139036600Y-86176200D01*
X139255587Y-86129615D01*
X139461278Y-86041203D01*
X139645769Y-85914361D01*
X139801969Y-85753964D01*
X139923876Y-85566176D01*
X140003719Y-85343074D01*
X139967069Y-85292274D01*
X175210281Y-85292274D01*
X175290124Y-85515376D01*
X175412031Y-85703164D01*
X175568231Y-85863561D01*
X175752722Y-85990403D01*
X175958413Y-86078815D01*
X176177400Y-86125400D01*
X176727400Y-86125400D01*
X176727400Y-85117400D01*
X176981400Y-85117400D01*
X176981400Y-86125400D01*
X177531400Y-86125400D01*
X177750387Y-86078815D01*
X177956078Y-85990403D01*
X178140569Y-85863561D01*
X178296769Y-85703164D01*
X178418676Y-85515376D01*
X178498519Y-85292274D01*
X179640281Y-85292274D01*
X179720124Y-85515376D01*
X179842031Y-85703164D01*
X179998231Y-85863561D01*
X180182722Y-85990403D01*
X180388413Y-86078815D01*
X180607400Y-86125400D01*
X180907400Y-86125400D01*
X180907400Y-85117400D01*
X179766446Y-85117400D01*
X179640281Y-85292274D01*
X178498519Y-85292274D01*
X178372354Y-85117400D01*
X176981400Y-85117400D01*
X176727400Y-85117400D01*
X175336446Y-85117400D01*
X175210281Y-85292274D01*
X139967069Y-85292274D01*
X139877554Y-85168200D01*
X138486600Y-85168200D01*
X138232600Y-85168200D01*
X136841646Y-85168200D01*
X136715481Y-85343074D01*
X135573719Y-85343074D01*
X135447554Y-85168200D01*
X134306600Y-85168200D01*
X134052600Y-85168200D01*
X132911646Y-85168200D01*
X132785481Y-85343074D01*
X132654050Y-85343074D01*
X132654050Y-84739326D01*
X132785481Y-84739326D01*
X132911646Y-84914200D01*
X134052600Y-84914200D01*
X134052600Y-83906200D01*
X134306600Y-83906200D01*
X134306600Y-84914200D01*
X135447554Y-84914200D01*
X135573719Y-84739326D01*
X136715481Y-84739326D01*
X136841646Y-84914200D01*
X138232600Y-84914200D01*
X138232600Y-84894200D01*
X138486600Y-84894200D01*
X138486600Y-84914200D01*
X139877554Y-84914200D01*
X140003719Y-84739326D01*
X139923876Y-84516224D01*
X139801969Y-84328436D01*
X139645769Y-84168039D01*
X139461278Y-84041197D01*
X139255587Y-83952785D01*
X139036600Y-83906200D01*
X138746504Y-83906200D01*
X138752708Y-83891222D01*
X138789600Y-83705752D01*
X138789600Y-83516648D01*
X138752708Y-83331178D01*
X138680341Y-83156469D01*
X138650855Y-83112340D01*
X148515000Y-83112340D01*
X148515000Y-83404860D01*
X148572068Y-83691758D01*
X148684010Y-83962011D01*
X148846525Y-84205232D01*
X149053368Y-84412075D01*
X149296589Y-84574590D01*
X149566842Y-84686532D01*
X149853740Y-84743600D01*
X150146260Y-84743600D01*
X150433158Y-84686532D01*
X150703411Y-84574590D01*
X150946632Y-84412075D01*
X151153475Y-84205232D01*
X151315990Y-83962011D01*
X151427932Y-83691758D01*
X151485000Y-83404860D01*
X151485000Y-83112340D01*
X151427932Y-82825442D01*
X151315990Y-82555189D01*
X151153475Y-82311968D01*
X150946632Y-82105125D01*
X150773271Y-81989289D01*
X150848792Y-81746997D01*
X150000000Y-80898205D01*
X149151208Y-81746997D01*
X149226729Y-81989289D01*
X149053368Y-82105125D01*
X148846525Y-82311968D01*
X148684010Y-82555189D01*
X148572068Y-82825442D01*
X148515000Y-83112340D01*
X138650855Y-83112340D01*
X138575281Y-82999236D01*
X138441564Y-82865519D01*
X138284331Y-82760459D01*
X138109622Y-82688092D01*
X137924152Y-82651200D01*
X137735048Y-82651200D01*
X137549578Y-82688092D01*
X137374869Y-82760459D01*
X137217636Y-82865519D01*
X137083919Y-82999236D01*
X136978859Y-83156469D01*
X136906492Y-83331178D01*
X136869600Y-83516648D01*
X136869600Y-83705752D01*
X136906492Y-83891222D01*
X136978859Y-84065931D01*
X137057806Y-84184084D01*
X136917231Y-84328436D01*
X136795324Y-84516224D01*
X136715481Y-84739326D01*
X135573719Y-84739326D01*
X135493876Y-84516224D01*
X135371969Y-84328436D01*
X135215769Y-84168039D01*
X135031278Y-84041197D01*
X134825587Y-83952785D01*
X134606600Y-83906200D01*
X134306600Y-83906200D01*
X134052600Y-83906200D01*
X133752600Y-83906200D01*
X133533613Y-83952785D01*
X133327922Y-84041197D01*
X133143431Y-84168039D01*
X132987231Y-84328436D01*
X132865324Y-84516224D01*
X132785481Y-84739326D01*
X132654050Y-84739326D01*
X132654050Y-79917911D01*
X141559000Y-79917911D01*
X141559000Y-80102089D01*
X141594932Y-80282729D01*
X141665414Y-80452889D01*
X141767738Y-80606028D01*
X141897972Y-80736262D01*
X142051111Y-80838586D01*
X142221271Y-80909068D01*
X142401911Y-80945000D01*
X142586089Y-80945000D01*
X142766729Y-80909068D01*
X142921404Y-80845000D01*
X144606596Y-80845000D01*
X144761271Y-80909068D01*
X144941911Y-80945000D01*
X145126089Y-80945000D01*
X145306729Y-80909068D01*
X145476889Y-80838586D01*
X145553897Y-80787131D01*
X148509389Y-80787131D01*
X148551401Y-81076619D01*
X148649081Y-81352347D01*
X148722528Y-81489757D01*
X148971603Y-81567392D01*
X149820395Y-80718600D01*
X150179605Y-80718600D01*
X151028397Y-81567392D01*
X151277472Y-81489757D01*
X151403371Y-81225717D01*
X151475339Y-80942189D01*
X151490611Y-80650069D01*
X151448599Y-80360581D01*
X151350919Y-80084853D01*
X151277472Y-79947443D01*
X151028397Y-79869808D01*
X150179605Y-80718600D01*
X149820395Y-80718600D01*
X148971603Y-79869808D01*
X148722528Y-79947443D01*
X148596629Y-80211483D01*
X148524661Y-80495011D01*
X148509389Y-80787131D01*
X145553897Y-80787131D01*
X145630028Y-80736262D01*
X145760262Y-80606028D01*
X145862586Y-80452889D01*
X145933068Y-80282729D01*
X145969000Y-80102089D01*
X145969000Y-79917911D01*
X145933068Y-79737271D01*
X145862586Y-79567111D01*
X145760262Y-79413972D01*
X145630028Y-79283738D01*
X145476889Y-79181414D01*
X145306729Y-79110932D01*
X145126089Y-79075000D01*
X144941911Y-79075000D01*
X144761271Y-79110932D01*
X144606596Y-79175000D01*
X142921404Y-79175000D01*
X142766729Y-79110932D01*
X142586089Y-79075000D01*
X142401911Y-79075000D01*
X142221271Y-79110932D01*
X142051111Y-79181414D01*
X141897972Y-79283738D01*
X141767738Y-79413972D01*
X141665414Y-79567111D01*
X141594932Y-79737271D01*
X141559000Y-79917911D01*
X132654050Y-79917911D01*
X132654050Y-76703074D01*
X132785481Y-76703074D01*
X132865324Y-76926176D01*
X132987231Y-77113964D01*
X133143431Y-77274361D01*
X133327922Y-77401203D01*
X133533613Y-77489615D01*
X133752600Y-77536200D01*
X134052600Y-77536200D01*
X134052600Y-76528200D01*
X134306600Y-76528200D01*
X134306600Y-77536200D01*
X134606600Y-77536200D01*
X134825587Y-77489615D01*
X135031278Y-77401203D01*
X135215769Y-77274361D01*
X135371969Y-77113964D01*
X135493876Y-76926176D01*
X135573719Y-76703074D01*
X136715481Y-76703074D01*
X136795324Y-76926176D01*
X136917231Y-77113964D01*
X137057806Y-77258316D01*
X136978859Y-77376469D01*
X136906492Y-77551178D01*
X136869600Y-77736648D01*
X136869600Y-77925752D01*
X136906492Y-78111222D01*
X136978859Y-78285931D01*
X137083919Y-78443164D01*
X137217636Y-78576881D01*
X137374869Y-78681941D01*
X137549578Y-78754308D01*
X137735048Y-78791200D01*
X137924152Y-78791200D01*
X138109622Y-78754308D01*
X138284331Y-78681941D01*
X138441564Y-78576881D01*
X138575281Y-78443164D01*
X138680341Y-78285931D01*
X138752708Y-78111222D01*
X138789600Y-77925752D01*
X138789600Y-77736648D01*
X138752708Y-77551178D01*
X138746504Y-77536200D01*
X139036600Y-77536200D01*
X139255587Y-77489615D01*
X139461278Y-77401203D01*
X139645769Y-77274361D01*
X139801969Y-77113964D01*
X139923876Y-76926176D01*
X140003719Y-76703074D01*
X139877554Y-76528200D01*
X138486600Y-76528200D01*
X138486600Y-76548200D01*
X138232600Y-76548200D01*
X138232600Y-76528200D01*
X136841646Y-76528200D01*
X136715481Y-76703074D01*
X135573719Y-76703074D01*
X135447554Y-76528200D01*
X134306600Y-76528200D01*
X134052600Y-76528200D01*
X132911646Y-76528200D01*
X132785481Y-76703074D01*
X132654050Y-76703074D01*
X132654050Y-76099326D01*
X132785481Y-76099326D01*
X132911646Y-76274200D01*
X134052600Y-76274200D01*
X134052600Y-75266200D01*
X134306600Y-75266200D01*
X134306600Y-76274200D01*
X135447554Y-76274200D01*
X135573719Y-76099326D01*
X136715481Y-76099326D01*
X136841646Y-76274200D01*
X138232600Y-76274200D01*
X138232600Y-75266200D01*
X138486600Y-75266200D01*
X138486600Y-76274200D01*
X139877554Y-76274200D01*
X140003719Y-76099326D01*
X139923876Y-75876224D01*
X139801969Y-75688436D01*
X139645769Y-75528039D01*
X139461278Y-75401197D01*
X139255587Y-75312785D01*
X139036600Y-75266200D01*
X138486600Y-75266200D01*
X138232600Y-75266200D01*
X137682600Y-75266200D01*
X137463613Y-75312785D01*
X137257922Y-75401197D01*
X137073431Y-75528039D01*
X136917231Y-75688436D01*
X136795324Y-75876224D01*
X136715481Y-76099326D01*
X135573719Y-76099326D01*
X135493876Y-75876224D01*
X135371969Y-75688436D01*
X135215769Y-75528039D01*
X135031278Y-75401197D01*
X134825587Y-75312785D01*
X134606600Y-75266200D01*
X134306600Y-75266200D01*
X134052600Y-75266200D01*
X133752600Y-75266200D01*
X133533613Y-75312785D01*
X133327922Y-75401197D01*
X133143431Y-75528039D01*
X132987231Y-75688436D01*
X132865324Y-75876224D01*
X132785481Y-76099326D01*
X132654050Y-76099326D01*
X132654050Y-73031985D01*
X132701805Y-72544948D01*
X132833962Y-72107221D01*
X133048620Y-71703507D01*
X133337608Y-71349173D01*
X133689913Y-71057721D01*
X134092122Y-70840248D01*
X134528910Y-70705038D01*
X135014027Y-70654050D01*
X137032125Y-70654050D01*
X137048153Y-70652471D01*
X137719467Y-70619434D01*
X137750992Y-70615526D01*
X137782692Y-70613234D01*
X137799598Y-70610516D01*
X138821714Y-70432407D01*
X138860441Y-70422654D01*
X138899404Y-70413920D01*
X138915721Y-70408733D01*
X139900285Y-70081501D01*
X139937132Y-70066137D01*
X139974387Y-70051735D01*
X139989753Y-70044195D01*
X139989760Y-70044192D01*
X139989765Y-70044189D01*
X140915140Y-69575027D01*
X140949313Y-69554384D01*
X140984029Y-69534635D01*
X140998117Y-69524904D01*
X141843986Y-68924113D01*
X141874744Y-68898637D01*
X141906148Y-68873981D01*
X141918634Y-68862283D01*
X141918643Y-68862275D01*
X141918649Y-68862268D01*
X142666419Y-68143055D01*
X142693076Y-68113309D01*
X142720488Y-68084286D01*
X142731109Y-68070869D01*
X142731116Y-68070861D01*
X142731121Y-68070854D01*
X143364370Y-67249012D01*
X143386337Y-67215653D01*
X143409158Y-67182897D01*
X143417685Y-67168049D01*
X143921618Y-66263221D01*
X143952296Y-66208894D01*
X143982458Y-66117170D01*
X144003228Y-66024079D01*
X144014916Y-65928234D01*
X144014746Y-65925965D01*
X144044899Y-65663621D01*
X144124825Y-65414036D01*
X144251706Y-65184726D01*
X144420713Y-64984428D01*
X144625401Y-64820775D01*
X144857980Y-64699994D01*
X145111131Y-64626240D01*
X145387998Y-64600450D01*
X148800767Y-64600450D01*
X148684010Y-64775189D01*
G04 #@! TA.AperFunction,Conductor*
D16*
G36*
X148684010Y-64775189D02*
G01*
X148572068Y-65045442D01*
X148515000Y-65332340D01*
X148515000Y-65624860D01*
X148572068Y-65911758D01*
X148684010Y-66182011D01*
X148846525Y-66425232D01*
X149053368Y-66632075D01*
X149227760Y-66748600D01*
X149053368Y-66865125D01*
X148846525Y-67071968D01*
X148684010Y-67315189D01*
X148572068Y-67585442D01*
X148515000Y-67872340D01*
X148515000Y-68164860D01*
X148572068Y-68451758D01*
X148684010Y-68722011D01*
X148846525Y-68965232D01*
X149053368Y-69172075D01*
X149227760Y-69288600D01*
X149053368Y-69405125D01*
X148846525Y-69611968D01*
X148684010Y-69855189D01*
X148572068Y-70125442D01*
X148515000Y-70412340D01*
X148515000Y-70704860D01*
X148572068Y-70991758D01*
X148684010Y-71262011D01*
X148846525Y-71505232D01*
X149053368Y-71712075D01*
X149227760Y-71828600D01*
X149053368Y-71945125D01*
X148846525Y-72151968D01*
X148684010Y-72395189D01*
X148572068Y-72665442D01*
X148515000Y-72952340D01*
X148515000Y-73244860D01*
X148572068Y-73531758D01*
X148684010Y-73802011D01*
X148846525Y-74045232D01*
X149053368Y-74252075D01*
X149227760Y-74368600D01*
X149053368Y-74485125D01*
X148846525Y-74691968D01*
X148684010Y-74935189D01*
X148572068Y-75205442D01*
X148515000Y-75492340D01*
X148515000Y-75784860D01*
X148572068Y-76071758D01*
X148684010Y-76342011D01*
X148846525Y-76585232D01*
X149053368Y-76792075D01*
X149227760Y-76908600D01*
X149053368Y-77025125D01*
X148846525Y-77231968D01*
X148684010Y-77475189D01*
X148572068Y-77745442D01*
X148515000Y-78032340D01*
X148515000Y-78324860D01*
X148572068Y-78611758D01*
X148684010Y-78882011D01*
X148846525Y-79125232D01*
X149053368Y-79332075D01*
X149226729Y-79447911D01*
X149151208Y-79690203D01*
X150000000Y-80538995D01*
X150848792Y-79690203D01*
X150773271Y-79447911D01*
X150946632Y-79332075D01*
X151153475Y-79125232D01*
X151315990Y-78882011D01*
X151427932Y-78611758D01*
X151485000Y-78324860D01*
X151485000Y-78032340D01*
X151427932Y-77745442D01*
X151315990Y-77475189D01*
X151153475Y-77231968D01*
X150946632Y-77025125D01*
X150772240Y-76908600D01*
X150946632Y-76792075D01*
X151153475Y-76585232D01*
X151315990Y-76342011D01*
X151427932Y-76071758D01*
X151485000Y-75784860D01*
X151485000Y-75492340D01*
X151427932Y-75205442D01*
X151315990Y-74935189D01*
X151153475Y-74691968D01*
X150946632Y-74485125D01*
X150772240Y-74368600D01*
X150946632Y-74252075D01*
X151153475Y-74045232D01*
X151315990Y-73802011D01*
X151427932Y-73531758D01*
X151485000Y-73244860D01*
X151485000Y-72952340D01*
X151427932Y-72665442D01*
X151315990Y-72395189D01*
X151153475Y-72151968D01*
X150946632Y-71945125D01*
X150772240Y-71828600D01*
X150946632Y-71712075D01*
X151153475Y-71505232D01*
X151315990Y-71262011D01*
X151427932Y-70991758D01*
X151485000Y-70704860D01*
X151485000Y-70412340D01*
X151427932Y-70125442D01*
X151315990Y-69855189D01*
X151153475Y-69611968D01*
X150946632Y-69405125D01*
X150772240Y-69288600D01*
X150946632Y-69172075D01*
X151153475Y-68965232D01*
X151315990Y-68722011D01*
X151427932Y-68451758D01*
X151485000Y-68164860D01*
X151485000Y-67872340D01*
X151427932Y-67585442D01*
X151315990Y-67315189D01*
X151153475Y-67071968D01*
X150946632Y-66865125D01*
X150772240Y-66748600D01*
X150946632Y-66632075D01*
X151153475Y-66425232D01*
X151315990Y-66182011D01*
X151427932Y-65911758D01*
X151485000Y-65624860D01*
X151485000Y-65332340D01*
X151427932Y-65045442D01*
X151315990Y-64775189D01*
X151199233Y-64600450D01*
X164040767Y-64600450D01*
X163924010Y-64775189D01*
X163812068Y-65045442D01*
X163755000Y-65332340D01*
X163755000Y-65624860D01*
X163812068Y-65911758D01*
X163924010Y-66182011D01*
X164086525Y-66425232D01*
X164293368Y-66632075D01*
X164467760Y-66748600D01*
X164293368Y-66865125D01*
X164086525Y-67071968D01*
X163924010Y-67315189D01*
X163812068Y-67585442D01*
X163755000Y-67872340D01*
X163755000Y-68164860D01*
X163812068Y-68451758D01*
X163924010Y-68722011D01*
X164086525Y-68965232D01*
X164293368Y-69172075D01*
X164467760Y-69288600D01*
X164293368Y-69405125D01*
X164086525Y-69611968D01*
X163924010Y-69855189D01*
X163812068Y-70125442D01*
X163755000Y-70412340D01*
X163755000Y-70704860D01*
X163812068Y-70991758D01*
X163924010Y-71262011D01*
X164086525Y-71505232D01*
X164293368Y-71712075D01*
X164467760Y-71828600D01*
X164293368Y-71945125D01*
X164086525Y-72151968D01*
X163924010Y-72395189D01*
X163812068Y-72665442D01*
X163755000Y-72952340D01*
X163755000Y-73244860D01*
X163812068Y-73531758D01*
X163924010Y-73802011D01*
X164086525Y-74045232D01*
X164293368Y-74252075D01*
X164467760Y-74368600D01*
X164293368Y-74485125D01*
X164086525Y-74691968D01*
X163924010Y-74935189D01*
X163812068Y-75205442D01*
X163755000Y-75492340D01*
X163755000Y-75784860D01*
X163812068Y-76071758D01*
X163924010Y-76342011D01*
X164086525Y-76585232D01*
X164293368Y-76792075D01*
X164467760Y-76908600D01*
X164293368Y-77025125D01*
X164086525Y-77231968D01*
X163924010Y-77475189D01*
X163812068Y-77745442D01*
X163755000Y-78032340D01*
X163755000Y-78324860D01*
X163812068Y-78611758D01*
X163924010Y-78882011D01*
X164086525Y-79125232D01*
X164293368Y-79332075D01*
X164467760Y-79448600D01*
X164293368Y-79565125D01*
X164086525Y-79771968D01*
X163924010Y-80015189D01*
X163812068Y-80285442D01*
X163755000Y-80572340D01*
X163755000Y-80864860D01*
X163812068Y-81151758D01*
X163924010Y-81422011D01*
X164086525Y-81665232D01*
X164293368Y-81872075D01*
X164467760Y-81988600D01*
X164293368Y-82105125D01*
X164086525Y-82311968D01*
X163924010Y-82555189D01*
X163812068Y-82825442D01*
X163755000Y-83112340D01*
X163755000Y-83404860D01*
X163812068Y-83691758D01*
X163924010Y-83962011D01*
X164086525Y-84205232D01*
X164293368Y-84412075D01*
X164536589Y-84574590D01*
X164806842Y-84686532D01*
X165093740Y-84743600D01*
X165386260Y-84743600D01*
X165663133Y-84688526D01*
X175210281Y-84688526D01*
X175336446Y-84863400D01*
X176727400Y-84863400D01*
X176727400Y-84843400D01*
X176981400Y-84843400D01*
X176981400Y-84863400D01*
X178372354Y-84863400D01*
X178498519Y-84688526D01*
X179640281Y-84688526D01*
X179766446Y-84863400D01*
X180907400Y-84863400D01*
X180907400Y-83855400D01*
X180607400Y-83855400D01*
X180388413Y-83901985D01*
X180182722Y-83990397D01*
X179998231Y-84117239D01*
X179842031Y-84277636D01*
X179720124Y-84465424D01*
X179640281Y-84688526D01*
X178498519Y-84688526D01*
X178418676Y-84465424D01*
X178296769Y-84277636D01*
X178156194Y-84133284D01*
X178235141Y-84015131D01*
X178307508Y-83840422D01*
X178344400Y-83654952D01*
X178344400Y-83465848D01*
X178307508Y-83280378D01*
X178235141Y-83105669D01*
X178130081Y-82948436D01*
X177996364Y-82814719D01*
X177839131Y-82709659D01*
X177664422Y-82637292D01*
X177478952Y-82600400D01*
X177289848Y-82600400D01*
X177104378Y-82637292D01*
X176929669Y-82709659D01*
X176772436Y-82814719D01*
X176638719Y-82948436D01*
X176533659Y-83105669D01*
X176461292Y-83280378D01*
X176424400Y-83465848D01*
X176424400Y-83654952D01*
X176461292Y-83840422D01*
X176467496Y-83855400D01*
X176177400Y-83855400D01*
X175958413Y-83901985D01*
X175752722Y-83990397D01*
X175568231Y-84117239D01*
X175412031Y-84277636D01*
X175290124Y-84465424D01*
X175210281Y-84688526D01*
X165663133Y-84688526D01*
X165673158Y-84686532D01*
X165943411Y-84574590D01*
X166186632Y-84412075D01*
X166393475Y-84205232D01*
X166555990Y-83962011D01*
X166667932Y-83691758D01*
X166725000Y-83404860D01*
X166725000Y-83112340D01*
X166667932Y-82825442D01*
X166555990Y-82555189D01*
X166393475Y-82311968D01*
X166186632Y-82105125D01*
X166012240Y-81988600D01*
X166186632Y-81872075D01*
X166393475Y-81665232D01*
X166555990Y-81422011D01*
X166667932Y-81151758D01*
X166725000Y-80864860D01*
X166725000Y-80572340D01*
X166667932Y-80285442D01*
X166555990Y-80015189D01*
X166393475Y-79771968D01*
X166186632Y-79565125D01*
X166012240Y-79448600D01*
X166186632Y-79332075D01*
X166393475Y-79125232D01*
X166555990Y-78882011D01*
X166667932Y-78611758D01*
X166725000Y-78324860D01*
X166725000Y-78032340D01*
X166667932Y-77745442D01*
X166555990Y-77475189D01*
X166393475Y-77231968D01*
X166186632Y-77025125D01*
X166012240Y-76908600D01*
X166186632Y-76792075D01*
X166326433Y-76652274D01*
X175210281Y-76652274D01*
X175290124Y-76875376D01*
X175412031Y-77063164D01*
X175568231Y-77223561D01*
X175752722Y-77350403D01*
X175958413Y-77438815D01*
X176177400Y-77485400D01*
X176467496Y-77485400D01*
X176461292Y-77500378D01*
X176424400Y-77685848D01*
X176424400Y-77874952D01*
X176461292Y-78060422D01*
X176533659Y-78235131D01*
X176638719Y-78392364D01*
X176772436Y-78526081D01*
X176929669Y-78631141D01*
X177104378Y-78703508D01*
X177289848Y-78740400D01*
X177478952Y-78740400D01*
X177664422Y-78703508D01*
X177839131Y-78631141D01*
X177996364Y-78526081D01*
X178130081Y-78392364D01*
X178235141Y-78235131D01*
X178307508Y-78060422D01*
X178344400Y-77874952D01*
X178344400Y-77685848D01*
X178307508Y-77500378D01*
X178235141Y-77325669D01*
X178156194Y-77207516D01*
X178296769Y-77063164D01*
X178418676Y-76875376D01*
X178498519Y-76652274D01*
X179640281Y-76652274D01*
X179720124Y-76875376D01*
X179842031Y-77063164D01*
X179998231Y-77223561D01*
X180182722Y-77350403D01*
X180388413Y-77438815D01*
X180607400Y-77485400D01*
X180907400Y-77485400D01*
X180907400Y-76477400D01*
X179766446Y-76477400D01*
X179640281Y-76652274D01*
X178498519Y-76652274D01*
X178372354Y-76477400D01*
X176981400Y-76477400D01*
X176981400Y-76497400D01*
X176727400Y-76497400D01*
X176727400Y-76477400D01*
X175336446Y-76477400D01*
X175210281Y-76652274D01*
X166326433Y-76652274D01*
X166393475Y-76585232D01*
X166555990Y-76342011D01*
X166667932Y-76071758D01*
X166672553Y-76048526D01*
X175210281Y-76048526D01*
X175336446Y-76223400D01*
X176727400Y-76223400D01*
X176727400Y-75215400D01*
X176981400Y-75215400D01*
X176981400Y-76223400D01*
X178372354Y-76223400D01*
X178498519Y-76048526D01*
X179640281Y-76048526D01*
X179766446Y-76223400D01*
X180907400Y-76223400D01*
X180907400Y-75215400D01*
X180607400Y-75215400D01*
X180388413Y-75261985D01*
X180182722Y-75350397D01*
X179998231Y-75477239D01*
X179842031Y-75637636D01*
X179720124Y-75825424D01*
X179640281Y-76048526D01*
X178498519Y-76048526D01*
X178418676Y-75825424D01*
X178296769Y-75637636D01*
X178140569Y-75477239D01*
X177956078Y-75350397D01*
X177750387Y-75261985D01*
X177531400Y-75215400D01*
X176981400Y-75215400D01*
X176727400Y-75215400D01*
X176177400Y-75215400D01*
X175958413Y-75261985D01*
X175752722Y-75350397D01*
X175568231Y-75477239D01*
X175412031Y-75637636D01*
X175290124Y-75825424D01*
X175210281Y-76048526D01*
X166672553Y-76048526D01*
X166725000Y-75784860D01*
X166725000Y-75492340D01*
X166667932Y-75205442D01*
X166555990Y-74935189D01*
X166393475Y-74691968D01*
X166186632Y-74485125D01*
X166012240Y-74368600D01*
X166186632Y-74252075D01*
X166393475Y-74045232D01*
X166555990Y-73802011D01*
X166667932Y-73531758D01*
X166725000Y-73244860D01*
X166725000Y-72952340D01*
X166667932Y-72665442D01*
X166555990Y-72395189D01*
X166393475Y-72151968D01*
X166186632Y-71945125D01*
X166012240Y-71828600D01*
X166186632Y-71712075D01*
X166393475Y-71505232D01*
X166555990Y-71262011D01*
X166667932Y-70991758D01*
X166725000Y-70704860D01*
X166725000Y-70412340D01*
X166667932Y-70125442D01*
X166555990Y-69855189D01*
X166393475Y-69611968D01*
X166186632Y-69405125D01*
X166012240Y-69288600D01*
X166186632Y-69172075D01*
X166393475Y-68965232D01*
X166555990Y-68722011D01*
X166667932Y-68451758D01*
X166725000Y-68164860D01*
X166725000Y-67872340D01*
X166667932Y-67585442D01*
X166555990Y-67315189D01*
X166393475Y-67071968D01*
X166186632Y-66865125D01*
X166012240Y-66748600D01*
X166186632Y-66632075D01*
X166393475Y-66425232D01*
X166555990Y-66182011D01*
X166667932Y-65911758D01*
X166725000Y-65624860D01*
X166725000Y-65332340D01*
X166667932Y-65045442D01*
X166555990Y-64775189D01*
X166439233Y-64600450D01*
X169621215Y-64600450D01*
X169914018Y-64629160D01*
X170164908Y-64704908D01*
X170396301Y-64827942D01*
X170599390Y-64993577D01*
X170766444Y-65195511D01*
X170891089Y-65426037D01*
X170968586Y-65676390D01*
X170999150Y-65967180D01*
X170999150Y-66005828D01*
X171008614Y-66101919D01*
X171046013Y-66225208D01*
X171075560Y-66280485D01*
X171377002Y-66850780D01*
X171393355Y-66876838D01*
X171408271Y-66903748D01*
X171417846Y-66917943D01*
X172010538Y-67772305D01*
X172035661Y-67803330D01*
X172059977Y-67835019D01*
X172071545Y-67847643D01*
X172784009Y-68605014D01*
X172813430Y-68631974D01*
X172842174Y-68659731D01*
X172855481Y-68670506D01*
X173672065Y-69314250D01*
X173705167Y-69336578D01*
X173737681Y-69359769D01*
X173752434Y-69368460D01*
X174655201Y-69884433D01*
X174691234Y-69901620D01*
X174726822Y-69919753D01*
X174742698Y-69926167D01*
X175711814Y-70303036D01*
X175749995Y-70314709D01*
X175787870Y-70327382D01*
X175804515Y-70331378D01*
X175804519Y-70331379D01*
X175804522Y-70331379D01*
X176818696Y-70560864D01*
X176858204Y-70566769D01*
X176897516Y-70573700D01*
X176914557Y-70575191D01*
X176914573Y-70575193D01*
X176914586Y-70575193D01*
X177943708Y-70651670D01*
X177967875Y-70654050D01*
X179968015Y-70654050D01*
X180455052Y-70701805D01*
X180892779Y-70833962D01*
X181296493Y-71048620D01*
X181650827Y-71337608D01*
X181942279Y-71689913D01*
X182159752Y-72092122D01*
X182294962Y-72528910D01*
X182345951Y-73014036D01*
X182345951Y-75821226D01*
X182226769Y-75637636D01*
X182070569Y-75477239D01*
X181886078Y-75350397D01*
X181680387Y-75261985D01*
X181461400Y-75215400D01*
X181161400Y-75215400D01*
X181161400Y-76223400D01*
X181181400Y-76223400D01*
X181181400Y-76477400D01*
X181161400Y-76477400D01*
X181161400Y-77485400D01*
X181461400Y-77485400D01*
X181680387Y-77438815D01*
X181886078Y-77350403D01*
X182070569Y-77223561D01*
X182226769Y-77063164D01*
X182345951Y-76879574D01*
X182345950Y-84461225D01*
X182226769Y-84277636D01*
X182070569Y-84117239D01*
X181886078Y-83990397D01*
X181680387Y-83901985D01*
X181461400Y-83855400D01*
X181161400Y-83855400D01*
X181161400Y-84863400D01*
X181181400Y-84863400D01*
X181181400Y-85117400D01*
X181161400Y-85117400D01*
X181161400Y-86125400D01*
X181461400Y-86125400D01*
X181680387Y-86078815D01*
X181886078Y-85990403D01*
X182070569Y-85863561D01*
X182226769Y-85703164D01*
X182345950Y-85519575D01*
X182345950Y-85968016D01*
X182336285Y-86066583D01*
X182316946Y-86130637D01*
X182285536Y-86189711D01*
X182243250Y-86241559D01*
X182191702Y-86284204D01*
X182132845Y-86316027D01*
X182068933Y-86335811D01*
X181972473Y-86345950D01*
X133031984Y-86345950D01*
X132933417Y-86336285D01*
X132869363Y-86316946D01*
X132810289Y-86285536D01*
X132758441Y-86243250D01*
X132715796Y-86191702D01*
X132683973Y-86132845D01*
X132664189Y-86068933D01*
X132654050Y-85972473D01*
X132654050Y-85343074D01*
X132785481Y-85343074D01*
X132865324Y-85566176D01*
X132987231Y-85753964D01*
X133143431Y-85914361D01*
X133327922Y-86041203D01*
X133533613Y-86129615D01*
X133752600Y-86176200D01*
X134052600Y-86176200D01*
X134052600Y-85168200D01*
X134306600Y-85168200D01*
X134306600Y-86176200D01*
X134606600Y-86176200D01*
X134825587Y-86129615D01*
X135031278Y-86041203D01*
X135215769Y-85914361D01*
X135371969Y-85753964D01*
X135493876Y-85566176D01*
X135573719Y-85343074D01*
X136715481Y-85343074D01*
X136795324Y-85566176D01*
X136917231Y-85753964D01*
X137073431Y-85914361D01*
X137257922Y-86041203D01*
X137463613Y-86129615D01*
X137682600Y-86176200D01*
X138232600Y-86176200D01*
X138232600Y-85168200D01*
X138486600Y-85168200D01*
X138486600Y-86176200D01*
X139036600Y-86176200D01*
X139255587Y-86129615D01*
X139461278Y-86041203D01*
X139645769Y-85914361D01*
X139801969Y-85753964D01*
X139923876Y-85566176D01*
X140003719Y-85343074D01*
X139967069Y-85292274D01*
X175210281Y-85292274D01*
X175290124Y-85515376D01*
X175412031Y-85703164D01*
X175568231Y-85863561D01*
X175752722Y-85990403D01*
X175958413Y-86078815D01*
X176177400Y-86125400D01*
X176727400Y-86125400D01*
X176727400Y-85117400D01*
X176981400Y-85117400D01*
X176981400Y-86125400D01*
X177531400Y-86125400D01*
X177750387Y-86078815D01*
X177956078Y-85990403D01*
X178140569Y-85863561D01*
X178296769Y-85703164D01*
X178418676Y-85515376D01*
X178498519Y-85292274D01*
X179640281Y-85292274D01*
X179720124Y-85515376D01*
X179842031Y-85703164D01*
X179998231Y-85863561D01*
X180182722Y-85990403D01*
X180388413Y-86078815D01*
X180607400Y-86125400D01*
X180907400Y-86125400D01*
X180907400Y-85117400D01*
X179766446Y-85117400D01*
X179640281Y-85292274D01*
X178498519Y-85292274D01*
X178372354Y-85117400D01*
X176981400Y-85117400D01*
X176727400Y-85117400D01*
X175336446Y-85117400D01*
X175210281Y-85292274D01*
X139967069Y-85292274D01*
X139877554Y-85168200D01*
X138486600Y-85168200D01*
X138232600Y-85168200D01*
X136841646Y-85168200D01*
X136715481Y-85343074D01*
X135573719Y-85343074D01*
X135447554Y-85168200D01*
X134306600Y-85168200D01*
X134052600Y-85168200D01*
X132911646Y-85168200D01*
X132785481Y-85343074D01*
X132654050Y-85343074D01*
X132654050Y-84739326D01*
X132785481Y-84739326D01*
X132911646Y-84914200D01*
X134052600Y-84914200D01*
X134052600Y-83906200D01*
X134306600Y-83906200D01*
X134306600Y-84914200D01*
X135447554Y-84914200D01*
X135573719Y-84739326D01*
X136715481Y-84739326D01*
X136841646Y-84914200D01*
X138232600Y-84914200D01*
X138232600Y-84894200D01*
X138486600Y-84894200D01*
X138486600Y-84914200D01*
X139877554Y-84914200D01*
X140003719Y-84739326D01*
X139923876Y-84516224D01*
X139801969Y-84328436D01*
X139645769Y-84168039D01*
X139461278Y-84041197D01*
X139255587Y-83952785D01*
X139036600Y-83906200D01*
X138746504Y-83906200D01*
X138752708Y-83891222D01*
X138789600Y-83705752D01*
X138789600Y-83516648D01*
X138752708Y-83331178D01*
X138680341Y-83156469D01*
X138650855Y-83112340D01*
X148515000Y-83112340D01*
X148515000Y-83404860D01*
X148572068Y-83691758D01*
X148684010Y-83962011D01*
X148846525Y-84205232D01*
X149053368Y-84412075D01*
X149296589Y-84574590D01*
X149566842Y-84686532D01*
X149853740Y-84743600D01*
X150146260Y-84743600D01*
X150433158Y-84686532D01*
X150703411Y-84574590D01*
X150946632Y-84412075D01*
X151153475Y-84205232D01*
X151315990Y-83962011D01*
X151427932Y-83691758D01*
X151485000Y-83404860D01*
X151485000Y-83112340D01*
X151427932Y-82825442D01*
X151315990Y-82555189D01*
X151153475Y-82311968D01*
X150946632Y-82105125D01*
X150773271Y-81989289D01*
X150848792Y-81746997D01*
X150000000Y-80898205D01*
X149151208Y-81746997D01*
X149226729Y-81989289D01*
X149053368Y-82105125D01*
X148846525Y-82311968D01*
X148684010Y-82555189D01*
X148572068Y-82825442D01*
X148515000Y-83112340D01*
X138650855Y-83112340D01*
X138575281Y-82999236D01*
X138441564Y-82865519D01*
X138284331Y-82760459D01*
X138109622Y-82688092D01*
X137924152Y-82651200D01*
X137735048Y-82651200D01*
X137549578Y-82688092D01*
X137374869Y-82760459D01*
X137217636Y-82865519D01*
X137083919Y-82999236D01*
X136978859Y-83156469D01*
X136906492Y-83331178D01*
X136869600Y-83516648D01*
X136869600Y-83705752D01*
X136906492Y-83891222D01*
X136978859Y-84065931D01*
X137057806Y-84184084D01*
X136917231Y-84328436D01*
X136795324Y-84516224D01*
X136715481Y-84739326D01*
X135573719Y-84739326D01*
X135493876Y-84516224D01*
X135371969Y-84328436D01*
X135215769Y-84168039D01*
X135031278Y-84041197D01*
X134825587Y-83952785D01*
X134606600Y-83906200D01*
X134306600Y-83906200D01*
X134052600Y-83906200D01*
X133752600Y-83906200D01*
X133533613Y-83952785D01*
X133327922Y-84041197D01*
X133143431Y-84168039D01*
X132987231Y-84328436D01*
X132865324Y-84516224D01*
X132785481Y-84739326D01*
X132654050Y-84739326D01*
X132654050Y-79917911D01*
X141559000Y-79917911D01*
X141559000Y-80102089D01*
X141594932Y-80282729D01*
X141665414Y-80452889D01*
X141767738Y-80606028D01*
X141897972Y-80736262D01*
X142051111Y-80838586D01*
X142221271Y-80909068D01*
X142401911Y-80945000D01*
X142586089Y-80945000D01*
X142766729Y-80909068D01*
X142921404Y-80845000D01*
X144606596Y-80845000D01*
X144761271Y-80909068D01*
X144941911Y-80945000D01*
X145126089Y-80945000D01*
X145306729Y-80909068D01*
X145476889Y-80838586D01*
X145553897Y-80787131D01*
X148509389Y-80787131D01*
X148551401Y-81076619D01*
X148649081Y-81352347D01*
X148722528Y-81489757D01*
X148971603Y-81567392D01*
X149820395Y-80718600D01*
X150179605Y-80718600D01*
X151028397Y-81567392D01*
X151277472Y-81489757D01*
X151403371Y-81225717D01*
X151475339Y-80942189D01*
X151490611Y-80650069D01*
X151448599Y-80360581D01*
X151350919Y-80084853D01*
X151277472Y-79947443D01*
X151028397Y-79869808D01*
X150179605Y-80718600D01*
X149820395Y-80718600D01*
X148971603Y-79869808D01*
X148722528Y-79947443D01*
X148596629Y-80211483D01*
X148524661Y-80495011D01*
X148509389Y-80787131D01*
X145553897Y-80787131D01*
X145630028Y-80736262D01*
X145760262Y-80606028D01*
X145862586Y-80452889D01*
X145933068Y-80282729D01*
X145969000Y-80102089D01*
X145969000Y-79917911D01*
X145933068Y-79737271D01*
X145862586Y-79567111D01*
X145760262Y-79413972D01*
X145630028Y-79283738D01*
X145476889Y-79181414D01*
X145306729Y-79110932D01*
X145126089Y-79075000D01*
X144941911Y-79075000D01*
X144761271Y-79110932D01*
X144606596Y-79175000D01*
X142921404Y-79175000D01*
X142766729Y-79110932D01*
X142586089Y-79075000D01*
X142401911Y-79075000D01*
X142221271Y-79110932D01*
X142051111Y-79181414D01*
X141897972Y-79283738D01*
X141767738Y-79413972D01*
X141665414Y-79567111D01*
X141594932Y-79737271D01*
X141559000Y-79917911D01*
X132654050Y-79917911D01*
X132654050Y-76703074D01*
X132785481Y-76703074D01*
X132865324Y-76926176D01*
X132987231Y-77113964D01*
X133143431Y-77274361D01*
X133327922Y-77401203D01*
X133533613Y-77489615D01*
X133752600Y-77536200D01*
X134052600Y-77536200D01*
X134052600Y-76528200D01*
X134306600Y-76528200D01*
X134306600Y-77536200D01*
X134606600Y-77536200D01*
X134825587Y-77489615D01*
X135031278Y-77401203D01*
X135215769Y-77274361D01*
X135371969Y-77113964D01*
X135493876Y-76926176D01*
X135573719Y-76703074D01*
X136715481Y-76703074D01*
X136795324Y-76926176D01*
X136917231Y-77113964D01*
X137057806Y-77258316D01*
X136978859Y-77376469D01*
X136906492Y-77551178D01*
X136869600Y-77736648D01*
X136869600Y-77925752D01*
X136906492Y-78111222D01*
X136978859Y-78285931D01*
X137083919Y-78443164D01*
X137217636Y-78576881D01*
X137374869Y-78681941D01*
X137549578Y-78754308D01*
X137735048Y-78791200D01*
X137924152Y-78791200D01*
X138109622Y-78754308D01*
X138284331Y-78681941D01*
X138441564Y-78576881D01*
X138575281Y-78443164D01*
X138680341Y-78285931D01*
X138752708Y-78111222D01*
X138789600Y-77925752D01*
X138789600Y-77736648D01*
X138752708Y-77551178D01*
X138746504Y-77536200D01*
X139036600Y-77536200D01*
X139255587Y-77489615D01*
X139461278Y-77401203D01*
X139645769Y-77274361D01*
X139801969Y-77113964D01*
X139923876Y-76926176D01*
X140003719Y-76703074D01*
X139877554Y-76528200D01*
X138486600Y-76528200D01*
X138486600Y-76548200D01*
X138232600Y-76548200D01*
X138232600Y-76528200D01*
X136841646Y-76528200D01*
X136715481Y-76703074D01*
X135573719Y-76703074D01*
X135447554Y-76528200D01*
X134306600Y-76528200D01*
X134052600Y-76528200D01*
X132911646Y-76528200D01*
X132785481Y-76703074D01*
X132654050Y-76703074D01*
X132654050Y-76099326D01*
X132785481Y-76099326D01*
X132911646Y-76274200D01*
X134052600Y-76274200D01*
X134052600Y-75266200D01*
X134306600Y-75266200D01*
X134306600Y-76274200D01*
X135447554Y-76274200D01*
X135573719Y-76099326D01*
X136715481Y-76099326D01*
X136841646Y-76274200D01*
X138232600Y-76274200D01*
X138232600Y-75266200D01*
X138486600Y-75266200D01*
X138486600Y-76274200D01*
X139877554Y-76274200D01*
X140003719Y-76099326D01*
X139923876Y-75876224D01*
X139801969Y-75688436D01*
X139645769Y-75528039D01*
X139461278Y-75401197D01*
X139255587Y-75312785D01*
X139036600Y-75266200D01*
X138486600Y-75266200D01*
X138232600Y-75266200D01*
X137682600Y-75266200D01*
X137463613Y-75312785D01*
X137257922Y-75401197D01*
X137073431Y-75528039D01*
X136917231Y-75688436D01*
X136795324Y-75876224D01*
X136715481Y-76099326D01*
X135573719Y-76099326D01*
X135493876Y-75876224D01*
X135371969Y-75688436D01*
X135215769Y-75528039D01*
X135031278Y-75401197D01*
X134825587Y-75312785D01*
X134606600Y-75266200D01*
X134306600Y-75266200D01*
X134052600Y-75266200D01*
X133752600Y-75266200D01*
X133533613Y-75312785D01*
X133327922Y-75401197D01*
X133143431Y-75528039D01*
X132987231Y-75688436D01*
X132865324Y-75876224D01*
X132785481Y-76099326D01*
X132654050Y-76099326D01*
X132654050Y-73031985D01*
X132701805Y-72544948D01*
X132833962Y-72107221D01*
X133048620Y-71703507D01*
X133337608Y-71349173D01*
X133689913Y-71057721D01*
X134092122Y-70840248D01*
X134528910Y-70705038D01*
X135014027Y-70654050D01*
X137032125Y-70654050D01*
X137048153Y-70652471D01*
X137719467Y-70619434D01*
X137750992Y-70615526D01*
X137782692Y-70613234D01*
X137799598Y-70610516D01*
X138821714Y-70432407D01*
X138860441Y-70422654D01*
X138899404Y-70413920D01*
X138915721Y-70408733D01*
X139900285Y-70081501D01*
X139937132Y-70066137D01*
X139974387Y-70051735D01*
X139989753Y-70044195D01*
X139989760Y-70044192D01*
X139989765Y-70044189D01*
X140915140Y-69575027D01*
X140949313Y-69554384D01*
X140984029Y-69534635D01*
X140998117Y-69524904D01*
X141843986Y-68924113D01*
X141874744Y-68898637D01*
X141906148Y-68873981D01*
X141918634Y-68862283D01*
X141918643Y-68862275D01*
X141918649Y-68862268D01*
X142666419Y-68143055D01*
X142693076Y-68113309D01*
X142720488Y-68084286D01*
X142731109Y-68070869D01*
X142731116Y-68070861D01*
X142731121Y-68070854D01*
X143364370Y-67249012D01*
X143386337Y-67215653D01*
X143409158Y-67182897D01*
X143417685Y-67168049D01*
X143921618Y-66263221D01*
X143952296Y-66208894D01*
X143982458Y-66117170D01*
X144003228Y-66024079D01*
X144014916Y-65928234D01*
X144014746Y-65925965D01*
X144044899Y-65663621D01*
X144124825Y-65414036D01*
X144251706Y-65184726D01*
X144420713Y-64984428D01*
X144625401Y-64820775D01*
X144857980Y-64699994D01*
X145111131Y-64626240D01*
X145387998Y-64600450D01*
X148800767Y-64600450D01*
X148684010Y-64775189D01*
G37*
G04 #@! TD.AperFunction*
M02*
