G04 #@! TF.GenerationSoftware,KiCad,Pcbnew,(5.1.10-1-10_14)*
G04 #@! TF.CreationDate,2021-07-13T22:04:03-07:00*
G04 #@! TF.ProjectId,Synapse,53796e61-7073-4652-9e6b-696361645f70,rev?*
G04 #@! TF.SameCoordinates,Original*
G04 #@! TF.FileFunction,Copper,L1,Top*
G04 #@! TF.FilePolarity,Positive*
%FSLAX46Y46*%
G04 Gerber Fmt 4.6, Leading zero omitted, Abs format (unit mm)*
G04 Created by KiCad (PCBNEW (5.1.10-1-10_14)) date 2021-07-13 22:04:03*
%MOMM*%
%LPD*%
G01*
G04 APERTURE LIST*
G04 #@! TA.AperFunction,ComponentPad*
%ADD10C,1.700000*%
G04 #@! TD*
G04 #@! TA.AperFunction,ComponentPad*
%ADD11R,1.700000X1.700000*%
G04 #@! TD*
G04 #@! TA.AperFunction,ComponentPad*
%ADD12O,1.600000X1.000000*%
G04 #@! TD*
G04 #@! TA.AperFunction,ComponentPad*
%ADD13O,2.100000X1.000000*%
G04 #@! TD*
G04 #@! TA.AperFunction,SMDPad,CuDef*
%ADD14R,1.450000X0.300000*%
G04 #@! TD*
G04 #@! TA.AperFunction,SMDPad,CuDef*
%ADD15R,1.450000X0.600000*%
G04 #@! TD*
G04 #@! TA.AperFunction,ViaPad*
%ADD16C,0.600000*%
G04 #@! TD*
G04 #@! TA.AperFunction,Conductor*
%ADD17C,0.600000*%
G04 #@! TD*
G04 #@! TA.AperFunction,Conductor*
%ADD18C,0.300000*%
G04 #@! TD*
G04 #@! TA.AperFunction,Conductor*
%ADD19C,0.400000*%
G04 #@! TD*
G04 APERTURE END LIST*
G04 #@! TA.AperFunction,SMDPad,CuDef*
G36*
G01*
X143342198Y-72143000D02*
X144592202Y-72143000D01*
G75*
G02*
X144842200Y-72392998I0J-249998D01*
G01*
X144842200Y-73018002D01*
G75*
G02*
X144592202Y-73268000I-249998J0D01*
G01*
X143342198Y-73268000D01*
G75*
G02*
X143092200Y-73018002I0J249998D01*
G01*
X143092200Y-72392998D01*
G75*
G02*
X143342198Y-72143000I249998J0D01*
G01*
G37*
G04 #@! TD.AperFunction*
G04 #@! TA.AperFunction,SMDPad,CuDef*
G36*
G01*
X143342198Y-75068000D02*
X144592202Y-75068000D01*
G75*
G02*
X144842200Y-75317998I0J-249998D01*
G01*
X144842200Y-75943002D01*
G75*
G02*
X144592202Y-76193000I-249998J0D01*
G01*
X143342198Y-76193000D01*
G75*
G02*
X143092200Y-75943002I0J249998D01*
G01*
X143092200Y-75317998D01*
G75*
G02*
X143342198Y-75068000I249998J0D01*
G01*
G37*
G04 #@! TD.AperFunction*
G04 #@! TA.AperFunction,SMDPad,CuDef*
G36*
G01*
X170723398Y-72092200D02*
X171973402Y-72092200D01*
G75*
G02*
X172223400Y-72342198I0J-249998D01*
G01*
X172223400Y-72967202D01*
G75*
G02*
X171973402Y-73217200I-249998J0D01*
G01*
X170723398Y-73217200D01*
G75*
G02*
X170473400Y-72967202I0J249998D01*
G01*
X170473400Y-72342198D01*
G75*
G02*
X170723398Y-72092200I249998J0D01*
G01*
G37*
G04 #@! TD.AperFunction*
G04 #@! TA.AperFunction,SMDPad,CuDef*
G36*
G01*
X170723398Y-75017200D02*
X171973402Y-75017200D01*
G75*
G02*
X172223400Y-75267198I0J-249998D01*
G01*
X172223400Y-75892202D01*
G75*
G02*
X171973402Y-76142200I-249998J0D01*
G01*
X170723398Y-76142200D01*
G75*
G02*
X170473400Y-75892202I0J249998D01*
G01*
X170473400Y-75267198D01*
G75*
G02*
X170723398Y-75017200I249998J0D01*
G01*
G37*
G04 #@! TD.AperFunction*
G04 #@! TA.AperFunction,SMDPad,CuDef*
G36*
G01*
X139126800Y-74386602D02*
X139126800Y-73136598D01*
G75*
G02*
X139376798Y-72886600I249998J0D01*
G01*
X140001802Y-72886600D01*
G75*
G02*
X140251800Y-73136598I0J-249998D01*
G01*
X140251800Y-74386602D01*
G75*
G02*
X140001802Y-74636600I-249998J0D01*
G01*
X139376798Y-74636600D01*
G75*
G02*
X139126800Y-74386602I0J249998D01*
G01*
G37*
G04 #@! TD.AperFunction*
G04 #@! TA.AperFunction,SMDPad,CuDef*
G36*
G01*
X136201800Y-74386602D02*
X136201800Y-73136598D01*
G75*
G02*
X136451798Y-72886600I249998J0D01*
G01*
X137076802Y-72886600D01*
G75*
G02*
X137326800Y-73136598I0J-249998D01*
G01*
X137326800Y-74386602D01*
G75*
G02*
X137076802Y-74636600I-249998J0D01*
G01*
X136451798Y-74636600D01*
G75*
G02*
X136201800Y-74386602I0J249998D01*
G01*
G37*
G04 #@! TD.AperFunction*
G04 #@! TA.AperFunction,SMDPad,CuDef*
G36*
G01*
X176087200Y-73136598D02*
X176087200Y-74386602D01*
G75*
G02*
X175837202Y-74636600I-249998J0D01*
G01*
X175212198Y-74636600D01*
G75*
G02*
X174962200Y-74386602I0J249998D01*
G01*
X174962200Y-73136598D01*
G75*
G02*
X175212198Y-72886600I249998J0D01*
G01*
X175837202Y-72886600D01*
G75*
G02*
X176087200Y-73136598I0J-249998D01*
G01*
G37*
G04 #@! TD.AperFunction*
G04 #@! TA.AperFunction,SMDPad,CuDef*
G36*
G01*
X179012200Y-73136598D02*
X179012200Y-74386602D01*
G75*
G02*
X178762202Y-74636600I-249998J0D01*
G01*
X178137198Y-74636600D01*
G75*
G02*
X177887200Y-74386602I0J249998D01*
G01*
X177887200Y-73136598D01*
G75*
G02*
X178137198Y-72886600I249998J0D01*
G01*
X178762202Y-72886600D01*
G75*
G02*
X179012200Y-73136598I0J-249998D01*
G01*
G37*
G04 #@! TD.AperFunction*
D10*
X165240000Y-35000000D03*
D11*
X150000000Y-35000000D03*
D10*
X165240000Y-37540000D03*
X150000000Y-37540000D03*
X165240000Y-40080000D03*
X150000000Y-40080000D03*
X165240000Y-42620000D03*
X150000000Y-42620000D03*
X165240000Y-45160000D03*
X150000000Y-45160000D03*
X165240000Y-47700000D03*
X150000000Y-47700000D03*
X165240000Y-50240000D03*
X150000000Y-50240000D03*
X165240000Y-52780000D03*
X150000000Y-52780000D03*
X165240000Y-55320000D03*
X150000000Y-55320000D03*
X165240000Y-57860000D03*
X150000000Y-57860000D03*
X165240000Y-60400000D03*
X150000000Y-60400000D03*
X165240000Y-62940000D03*
X150000000Y-62940000D03*
X165240000Y-65480000D03*
X150000000Y-65480000D03*
X165240000Y-68020000D03*
X150000000Y-68020000D03*
X165240000Y-70560000D03*
X150000000Y-70560000D03*
X165240000Y-73100000D03*
X150000000Y-73100000D03*
X165240000Y-75640000D03*
X150000000Y-75640000D03*
X165240000Y-78180000D03*
X150000000Y-78180000D03*
X165240000Y-80720000D03*
X150000000Y-80720000D03*
X165240000Y-83260000D03*
X150000000Y-83260000D03*
D12*
X134179600Y-85041200D03*
X134179600Y-76401200D03*
D13*
X138359600Y-76401200D03*
X138359600Y-85041200D03*
D14*
X139274600Y-80471200D03*
X139274600Y-82471200D03*
X139274600Y-81971200D03*
X139274600Y-81471200D03*
X139274600Y-80971200D03*
X139274600Y-79971200D03*
X139274600Y-79471200D03*
X139274600Y-78971200D03*
D15*
X139274600Y-83971200D03*
X139274600Y-83171200D03*
X139274600Y-78271200D03*
X139274600Y-77471200D03*
X139274600Y-77471200D03*
X139274600Y-78271200D03*
X139274600Y-83171200D03*
X139274600Y-83971200D03*
X175939400Y-77420400D03*
X175939400Y-78220400D03*
X175939400Y-83120400D03*
X175939400Y-83920400D03*
X175939400Y-83920400D03*
X175939400Y-83120400D03*
X175939400Y-78220400D03*
X175939400Y-77420400D03*
D14*
X175939400Y-82420400D03*
X175939400Y-81920400D03*
X175939400Y-81420400D03*
X175939400Y-80420400D03*
X175939400Y-79920400D03*
X175939400Y-79420400D03*
X175939400Y-78920400D03*
X175939400Y-80920400D03*
D13*
X176854400Y-76350400D03*
X176854400Y-84990400D03*
D12*
X181034400Y-84990400D03*
X181034400Y-76350400D03*
D16*
X173888400Y-79908400D03*
X169418000Y-79654400D03*
X143154400Y-81076800D03*
X145084800Y-77266800D03*
X173939200Y-80822800D03*
X168757600Y-80467200D03*
X169621200Y-75742800D03*
X145440400Y-79908400D03*
X147116800Y-77368400D03*
D17*
X149908800Y-78271200D02*
X150000000Y-78180000D01*
X145008800Y-83171200D02*
X150000000Y-78180000D01*
X139274600Y-83171200D02*
X145008800Y-83171200D01*
X174334000Y-83120400D02*
X175939400Y-83120400D01*
X172917399Y-84537001D02*
X174334000Y-83120400D01*
X150000000Y-78180000D02*
X156357001Y-84537001D01*
X172630000Y-78220400D02*
X166313399Y-84537001D01*
X166313399Y-84537001D02*
X172917399Y-84537001D01*
X156357001Y-84537001D02*
X166313399Y-84537001D01*
X146569600Y-78271200D02*
X149908800Y-78271200D01*
X142482400Y-78271200D02*
X143803200Y-78271200D01*
X173290400Y-74596700D02*
X173290400Y-78220400D01*
X171348400Y-72654700D02*
X173290400Y-74596700D01*
X173290400Y-78220400D02*
X172630000Y-78220400D01*
X175939400Y-78220400D02*
X173290400Y-78220400D01*
X145350400Y-78271200D02*
X146569600Y-78271200D01*
X143803200Y-78271200D02*
X145350400Y-78271200D01*
X142665190Y-76877210D02*
X141271200Y-78271200D01*
X142665190Y-74007510D02*
X142665190Y-76877210D01*
X143967200Y-72705500D02*
X142665190Y-74007510D01*
X141271200Y-78271200D02*
X142482400Y-78271200D01*
X139274600Y-78271200D02*
X141271200Y-78271200D01*
D18*
X140276601Y-81342801D02*
X140148202Y-81471200D01*
X140148202Y-81471200D02*
X139274600Y-81471200D01*
X140148202Y-80471200D02*
X140276601Y-80599599D01*
X139274600Y-80471200D02*
X140148202Y-80471200D01*
X176941401Y-80792001D02*
X176813002Y-80920400D01*
X176941401Y-80048799D02*
X176941401Y-80792001D01*
X176813002Y-79920400D02*
X176941401Y-80048799D01*
X176813002Y-80920400D02*
X175939400Y-80920400D01*
X175939400Y-79920400D02*
X176813002Y-79920400D01*
X175939400Y-79920400D02*
X173900400Y-79920400D01*
D19*
X173900400Y-79920400D02*
X173888400Y-79908400D01*
X158797001Y-76817001D02*
X150000000Y-68020000D01*
X166580601Y-76817001D02*
X158797001Y-76817001D01*
X169418000Y-79654400D02*
X166580601Y-76817001D01*
D18*
X140276601Y-80599599D02*
X140276601Y-81145401D01*
X140276601Y-81145401D02*
X141206199Y-81145401D01*
X140276601Y-81145401D02*
X140276601Y-81342801D01*
D19*
X143085799Y-81145401D02*
X143154400Y-81076800D01*
X141206199Y-81145401D02*
X143085799Y-81145401D01*
X145084800Y-76748100D02*
X143967200Y-75630500D01*
X145084800Y-77266800D02*
X145084800Y-76748100D01*
X150000000Y-68818038D02*
X150000000Y-68020000D01*
X143967200Y-74850838D02*
X150000000Y-68818038D01*
X143967200Y-75630500D02*
X143967200Y-74850838D01*
D18*
X138400998Y-80971200D02*
X139274600Y-80971200D01*
X138272599Y-80842801D02*
X138400998Y-80971200D01*
X138400998Y-79971200D02*
X138272599Y-80099599D01*
X138272599Y-80099599D02*
X138272599Y-80842801D01*
X139274600Y-79971200D02*
X138400998Y-79971200D01*
X175065798Y-81420400D02*
X175939400Y-81420400D01*
X174937399Y-81292001D02*
X175065798Y-81420400D01*
X175065798Y-80420400D02*
X174937399Y-80548799D01*
X175939400Y-80420400D02*
X175065798Y-80420400D01*
X174937399Y-80789801D02*
X173972199Y-80789801D01*
X174937399Y-80548799D02*
X174937399Y-80789801D01*
X174937399Y-80789801D02*
X174937399Y-81292001D01*
D19*
X173972199Y-80789801D02*
X173939200Y-80822800D01*
X158982999Y-79542999D02*
X150000000Y-70560000D01*
X167833399Y-79542999D02*
X158982999Y-79542999D01*
X168757600Y-80467200D02*
X167833399Y-79542999D01*
D18*
X139274600Y-79971200D02*
X141212000Y-79971200D01*
D19*
X171185300Y-75742800D02*
X171348400Y-75579700D01*
X169621200Y-75742800D02*
X171185300Y-75742800D01*
X145377600Y-79971200D02*
X145440400Y-79908400D01*
X141212000Y-79971200D02*
X145377600Y-79971200D01*
X147116800Y-73443200D02*
X147116800Y-77368400D01*
X150000000Y-70560000D02*
X147116800Y-73443200D01*
D17*
X175939400Y-77265400D02*
X176854400Y-76350400D01*
X175939400Y-77420400D02*
X175939400Y-77265400D01*
X139274600Y-84126200D02*
X138359600Y-85041200D01*
X139274600Y-83971200D02*
X139274600Y-84126200D01*
X139274600Y-77316200D02*
X138359600Y-76401200D01*
X139274600Y-77471200D02*
X139274600Y-77316200D01*
X175939400Y-84075400D02*
X176854400Y-84990400D01*
X175939400Y-83920400D02*
X175939400Y-84075400D01*
X139689300Y-75071500D02*
X138359600Y-76401200D01*
X139689300Y-73761600D02*
X139689300Y-75071500D01*
X175524700Y-75020700D02*
X176854400Y-76350400D01*
X175524700Y-73761600D02*
X175524700Y-75020700D01*
D18*
X138400998Y-82471200D02*
X139274600Y-82471200D01*
X137845589Y-81915791D02*
X138400998Y-82471200D01*
X138297115Y-79471200D02*
X137845589Y-79922726D01*
X139274600Y-79471200D02*
X138297115Y-79471200D01*
D19*
X136764300Y-80071500D02*
X137845589Y-81152789D01*
X136764300Y-73761600D02*
X136764300Y-80071500D01*
D18*
X137845589Y-81152789D02*
X137845589Y-81915791D01*
X137845589Y-79922726D02*
X137845589Y-81152789D01*
X177368411Y-79324411D02*
X177368411Y-81364991D01*
X176964400Y-78920400D02*
X177368411Y-79324411D01*
X176813002Y-81920400D02*
X175939400Y-81920400D01*
X177368411Y-81364991D02*
X176813002Y-81920400D01*
X175939400Y-78920400D02*
X176964400Y-78920400D01*
D19*
X178449700Y-79054700D02*
X177418411Y-80085989D01*
X178449700Y-73761600D02*
X178449700Y-79054700D01*
M02*
